G04 MADE WITH FRITZING*
G04 WWW.FRITZING.ORG*
G04 DOUBLE SIDED*
G04 HOLES PLATED*
G04 CONTOUR ON CENTER OF CONTOUR VECTOR*
%ASAXBY*%
%FSLAX23Y23*%
%MOIN*%
%OFA0B0*%
%SFA1.0B1.0*%
%ADD10C,0.075000*%
%ADD11C,0.070000*%
%ADD12C,0.039370*%
%ADD13C,0.074000*%
%ADD14C,0.047978*%
%ADD15C,0.083307*%
%ADD16C,0.080000*%
%ADD17C,0.075433*%
%ADD18R,0.083307X0.083307*%
%ADD19R,0.080000X0.080000*%
%ADD20R,0.075000X0.075000*%
%ADD21C,0.024000*%
%ADD22R,0.001000X0.001000*%
%LNCOPPER1*%
G90*
G70*
G54D10*
X122Y2381D03*
X1475Y2312D03*
X1878Y2304D03*
X835Y1622D03*
X1381Y1771D03*
X1711Y1611D03*
G54D11*
X2015Y2300D03*
X1759Y2300D03*
X2015Y2300D03*
X1759Y2300D03*
G54D12*
X1389Y2121D03*
X1888Y1921D03*
X1688Y2023D03*
X1235Y2023D03*
X937Y1071D03*
G54D13*
X87Y372D03*
X87Y572D03*
X87Y372D03*
X87Y572D03*
X287Y572D03*
X287Y372D03*
X287Y572D03*
X287Y372D03*
G54D14*
X487Y325D03*
X487Y522D03*
X1644Y727D03*
X1644Y121D03*
G54D15*
X487Y922D03*
X587Y922D03*
X687Y922D03*
X787Y922D03*
X887Y922D03*
X987Y922D03*
X1087Y922D03*
X1187Y922D03*
G54D16*
X1987Y1122D03*
X1987Y1022D03*
X1987Y922D03*
X1987Y822D03*
X1987Y722D03*
G54D15*
X287Y172D03*
X149Y172D03*
G54D10*
X1937Y172D03*
X1837Y172D03*
G54D11*
X1937Y422D03*
X1837Y422D03*
X1937Y422D03*
X1837Y422D03*
G54D10*
X1687Y922D03*
X1287Y922D03*
X1687Y1072D03*
X1287Y1072D03*
X1437Y1172D03*
X1037Y1172D03*
G54D17*
X1637Y122D03*
X487Y522D03*
X1637Y722D03*
X487Y322D03*
G54D18*
X487Y922D03*
G54D19*
X1987Y1122D03*
G54D18*
X287Y172D03*
G54D20*
X1937Y172D03*
G54D21*
X1337Y1172D02*
X1632Y745D01*
D02*
X1538Y1172D02*
X1506Y1283D01*
D02*
X1673Y947D02*
X1538Y1172D01*
D02*
X1337Y1283D02*
X1337Y1172D01*
D02*
X688Y1623D02*
X1188Y2123D01*
D02*
X1188Y2123D02*
X1289Y2123D01*
D02*
X1188Y2223D02*
X1436Y2223D01*
D02*
X1436Y2223D02*
X1487Y2172D01*
D02*
X1391Y2102D02*
X1411Y1961D01*
D02*
X1487Y2172D02*
X1494Y1961D01*
D02*
X588Y1623D02*
X1188Y2223D01*
D02*
X587Y955D02*
X588Y1623D01*
D02*
X1289Y2123D02*
X1338Y2074D01*
D02*
X1338Y2074D02*
X1337Y1961D01*
D02*
X687Y955D02*
X688Y1623D01*
D02*
X1837Y824D02*
X1702Y1048D01*
D02*
X1956Y823D02*
X1837Y824D01*
D02*
X1889Y921D02*
X1836Y1073D01*
D02*
X1938Y1023D02*
X1826Y1283D01*
D02*
X1956Y1023D02*
X1938Y1023D01*
D02*
X1836Y1073D02*
X1747Y1283D01*
D02*
X1956Y922D02*
X1889Y921D01*
D02*
X1240Y1296D02*
X1006Y949D01*
D02*
X1681Y2005D02*
X1666Y1961D01*
D02*
X1250Y1961D02*
X1240Y2004D01*
D02*
X1869Y1921D02*
X1828Y1922D01*
D02*
X1887Y1773D02*
X1987Y1872D01*
D02*
X1437Y1773D02*
X1887Y1773D01*
D02*
X938Y1724D02*
X938Y1672D01*
D02*
X1136Y1921D02*
X938Y1724D01*
D02*
X1240Y1922D02*
X1136Y1921D01*
D02*
X1338Y1673D02*
X1437Y1773D01*
D02*
X1987Y2173D02*
X2009Y2272D01*
D02*
X1987Y1872D02*
X1987Y2173D01*
D02*
X1337Y1361D02*
X1338Y1673D01*
D02*
X1585Y2172D02*
X1575Y1961D01*
D02*
X1736Y2283D02*
X1585Y2172D01*
D02*
X938Y1672D02*
X937Y1090D01*
D02*
X1319Y1322D02*
X1277Y1322D01*
D02*
X1937Y1723D02*
X2086Y1872D01*
D02*
X1587Y1470D02*
X1587Y1623D01*
D02*
X1688Y1724D02*
X1937Y1723D01*
D02*
X1587Y1623D02*
X1688Y1724D01*
D02*
X2086Y1872D02*
X2086Y2373D01*
D02*
X487Y1623D02*
X487Y955D01*
D02*
X2086Y2373D02*
X2038Y2421D01*
D02*
X1577Y1361D02*
X1587Y1470D01*
D02*
X1289Y2421D02*
X487Y1623D01*
D02*
X2038Y2421D02*
X1289Y2421D01*
D02*
X937Y1173D02*
X1009Y1173D01*
D02*
X937Y1090D02*
X937Y1173D01*
D02*
X1421Y1283D02*
X1433Y1201D01*
G36*
X40Y2522D02*
X40Y2464D01*
X2042Y2464D01*
X2042Y2462D01*
X2052Y2462D01*
X2052Y2460D01*
X2056Y2460D01*
X2056Y2458D01*
X2060Y2458D01*
X2060Y2456D01*
X2062Y2456D01*
X2062Y2454D01*
X2066Y2454D01*
X2066Y2452D01*
X2068Y2452D01*
X2068Y2450D01*
X2070Y2450D01*
X2070Y2448D01*
X2072Y2448D01*
X2072Y2446D01*
X2074Y2446D01*
X2074Y2444D01*
X2076Y2444D01*
X2076Y2442D01*
X2078Y2442D01*
X2078Y2440D01*
X2080Y2440D01*
X2080Y2438D01*
X2082Y2438D01*
X2082Y2436D01*
X2084Y2436D01*
X2084Y2434D01*
X2086Y2434D01*
X2086Y2432D01*
X2088Y2432D01*
X2088Y2430D01*
X2090Y2430D01*
X2090Y2428D01*
X2092Y2428D01*
X2092Y2426D01*
X2094Y2426D01*
X2094Y2424D01*
X2096Y2424D01*
X2096Y2422D01*
X2098Y2422D01*
X2098Y2420D01*
X2100Y2420D01*
X2100Y2418D01*
X2102Y2418D01*
X2102Y2416D01*
X2104Y2416D01*
X2104Y2414D01*
X2124Y2414D01*
X2124Y2522D01*
X40Y2522D01*
G37*
D02*
G36*
X40Y2464D02*
X40Y838D01*
X416Y838D01*
X416Y994D01*
X446Y994D01*
X446Y1636D01*
X448Y1636D01*
X448Y1642D01*
X450Y1642D01*
X450Y1644D01*
X452Y1644D01*
X452Y1648D01*
X454Y1648D01*
X454Y1650D01*
X456Y1650D01*
X456Y1652D01*
X458Y1652D01*
X458Y1654D01*
X460Y1654D01*
X460Y1656D01*
X462Y1656D01*
X462Y1658D01*
X464Y1658D01*
X464Y1660D01*
X466Y1660D01*
X466Y1662D01*
X468Y1662D01*
X468Y1664D01*
X470Y1664D01*
X470Y1666D01*
X472Y1666D01*
X472Y1668D01*
X474Y1668D01*
X474Y1670D01*
X476Y1670D01*
X476Y1672D01*
X478Y1672D01*
X478Y1674D01*
X480Y1674D01*
X480Y1676D01*
X482Y1676D01*
X482Y1678D01*
X484Y1678D01*
X484Y1680D01*
X486Y1680D01*
X486Y1682D01*
X488Y1682D01*
X488Y1684D01*
X490Y1684D01*
X490Y1686D01*
X492Y1686D01*
X492Y1688D01*
X494Y1688D01*
X494Y1690D01*
X496Y1690D01*
X496Y1692D01*
X498Y1692D01*
X498Y1694D01*
X500Y1694D01*
X500Y1696D01*
X502Y1696D01*
X502Y1698D01*
X504Y1698D01*
X504Y1700D01*
X506Y1700D01*
X506Y1702D01*
X508Y1702D01*
X508Y1704D01*
X510Y1704D01*
X510Y1706D01*
X512Y1706D01*
X512Y1708D01*
X514Y1708D01*
X514Y1710D01*
X516Y1710D01*
X516Y1712D01*
X518Y1712D01*
X518Y1714D01*
X520Y1714D01*
X520Y1716D01*
X522Y1716D01*
X522Y1718D01*
X524Y1718D01*
X524Y1720D01*
X526Y1720D01*
X526Y1722D01*
X528Y1722D01*
X528Y1724D01*
X530Y1724D01*
X530Y1726D01*
X532Y1726D01*
X532Y1728D01*
X534Y1728D01*
X534Y1730D01*
X536Y1730D01*
X536Y1732D01*
X538Y1732D01*
X538Y1734D01*
X540Y1734D01*
X540Y1736D01*
X542Y1736D01*
X542Y1738D01*
X544Y1738D01*
X544Y1740D01*
X546Y1740D01*
X546Y1742D01*
X548Y1742D01*
X548Y1744D01*
X550Y1744D01*
X550Y1746D01*
X552Y1746D01*
X552Y1748D01*
X554Y1748D01*
X554Y1750D01*
X556Y1750D01*
X556Y1752D01*
X558Y1752D01*
X558Y1754D01*
X560Y1754D01*
X560Y1756D01*
X562Y1756D01*
X562Y1758D01*
X564Y1758D01*
X564Y1760D01*
X566Y1760D01*
X566Y1762D01*
X568Y1762D01*
X568Y1764D01*
X570Y1764D01*
X570Y1766D01*
X572Y1766D01*
X572Y1768D01*
X574Y1768D01*
X574Y1770D01*
X576Y1770D01*
X576Y1772D01*
X578Y1772D01*
X578Y1774D01*
X580Y1774D01*
X580Y1776D01*
X582Y1776D01*
X582Y1778D01*
X584Y1778D01*
X584Y1780D01*
X586Y1780D01*
X586Y1782D01*
X588Y1782D01*
X588Y1784D01*
X590Y1784D01*
X590Y1786D01*
X592Y1786D01*
X592Y1788D01*
X594Y1788D01*
X594Y1790D01*
X596Y1790D01*
X596Y1792D01*
X598Y1792D01*
X598Y1794D01*
X600Y1794D01*
X600Y1796D01*
X602Y1796D01*
X602Y1798D01*
X604Y1798D01*
X604Y1800D01*
X606Y1800D01*
X606Y1802D01*
X608Y1802D01*
X608Y1804D01*
X610Y1804D01*
X610Y1806D01*
X612Y1806D01*
X612Y1808D01*
X614Y1808D01*
X614Y1810D01*
X616Y1810D01*
X616Y1812D01*
X618Y1812D01*
X618Y1814D01*
X620Y1814D01*
X620Y1816D01*
X622Y1816D01*
X622Y1818D01*
X624Y1818D01*
X624Y1820D01*
X626Y1820D01*
X626Y1822D01*
X628Y1822D01*
X628Y1824D01*
X630Y1824D01*
X630Y1826D01*
X632Y1826D01*
X632Y1828D01*
X634Y1828D01*
X634Y1830D01*
X636Y1830D01*
X636Y1832D01*
X638Y1832D01*
X638Y1834D01*
X640Y1834D01*
X640Y1836D01*
X642Y1836D01*
X642Y1838D01*
X644Y1838D01*
X644Y1840D01*
X646Y1840D01*
X646Y1842D01*
X648Y1842D01*
X648Y1844D01*
X650Y1844D01*
X650Y1846D01*
X652Y1846D01*
X652Y1848D01*
X654Y1848D01*
X654Y1850D01*
X656Y1850D01*
X656Y1852D01*
X658Y1852D01*
X658Y1854D01*
X660Y1854D01*
X660Y1856D01*
X662Y1856D01*
X662Y1858D01*
X664Y1858D01*
X664Y1860D01*
X666Y1860D01*
X666Y1862D01*
X668Y1862D01*
X668Y1864D01*
X670Y1864D01*
X670Y1866D01*
X672Y1866D01*
X672Y1868D01*
X674Y1868D01*
X674Y1870D01*
X676Y1870D01*
X676Y1872D01*
X678Y1872D01*
X678Y1874D01*
X680Y1874D01*
X680Y1876D01*
X682Y1876D01*
X682Y1878D01*
X684Y1878D01*
X684Y1880D01*
X686Y1880D01*
X686Y1882D01*
X688Y1882D01*
X688Y1884D01*
X690Y1884D01*
X690Y1886D01*
X692Y1886D01*
X692Y1888D01*
X694Y1888D01*
X694Y1890D01*
X696Y1890D01*
X696Y1892D01*
X698Y1892D01*
X698Y1894D01*
X700Y1894D01*
X700Y1896D01*
X702Y1896D01*
X702Y1898D01*
X704Y1898D01*
X704Y1900D01*
X706Y1900D01*
X706Y1902D01*
X708Y1902D01*
X708Y1904D01*
X710Y1904D01*
X710Y1906D01*
X712Y1906D01*
X712Y1908D01*
X714Y1908D01*
X714Y1910D01*
X716Y1910D01*
X716Y1912D01*
X718Y1912D01*
X718Y1914D01*
X720Y1914D01*
X720Y1916D01*
X722Y1916D01*
X722Y1918D01*
X724Y1918D01*
X724Y1920D01*
X726Y1920D01*
X726Y1922D01*
X728Y1922D01*
X728Y1924D01*
X730Y1924D01*
X730Y1926D01*
X732Y1926D01*
X732Y1928D01*
X734Y1928D01*
X734Y1930D01*
X736Y1930D01*
X736Y1932D01*
X738Y1932D01*
X738Y1934D01*
X740Y1934D01*
X740Y1936D01*
X742Y1936D01*
X742Y1938D01*
X744Y1938D01*
X744Y1940D01*
X746Y1940D01*
X746Y1942D01*
X748Y1942D01*
X748Y1944D01*
X750Y1944D01*
X750Y1946D01*
X752Y1946D01*
X752Y1948D01*
X754Y1948D01*
X754Y1950D01*
X756Y1950D01*
X756Y1952D01*
X758Y1952D01*
X758Y1954D01*
X760Y1954D01*
X760Y1956D01*
X762Y1956D01*
X762Y1958D01*
X764Y1958D01*
X764Y1960D01*
X766Y1960D01*
X766Y1962D01*
X768Y1962D01*
X768Y1964D01*
X770Y1964D01*
X770Y1966D01*
X772Y1966D01*
X772Y1968D01*
X774Y1968D01*
X774Y1970D01*
X776Y1970D01*
X776Y1972D01*
X778Y1972D01*
X778Y1974D01*
X780Y1974D01*
X780Y1976D01*
X782Y1976D01*
X782Y1978D01*
X784Y1978D01*
X784Y1980D01*
X786Y1980D01*
X786Y1982D01*
X788Y1982D01*
X788Y1984D01*
X790Y1984D01*
X790Y1986D01*
X792Y1986D01*
X792Y1988D01*
X794Y1988D01*
X794Y1990D01*
X796Y1990D01*
X796Y1992D01*
X798Y1992D01*
X798Y1994D01*
X800Y1994D01*
X800Y1996D01*
X802Y1996D01*
X802Y1998D01*
X804Y1998D01*
X804Y2000D01*
X806Y2000D01*
X806Y2002D01*
X808Y2002D01*
X808Y2004D01*
X810Y2004D01*
X810Y2006D01*
X812Y2006D01*
X812Y2008D01*
X814Y2008D01*
X814Y2010D01*
X816Y2010D01*
X816Y2012D01*
X818Y2012D01*
X818Y2014D01*
X820Y2014D01*
X820Y2016D01*
X822Y2016D01*
X822Y2018D01*
X824Y2018D01*
X824Y2020D01*
X826Y2020D01*
X826Y2022D01*
X828Y2022D01*
X828Y2024D01*
X830Y2024D01*
X830Y2026D01*
X832Y2026D01*
X832Y2028D01*
X834Y2028D01*
X834Y2030D01*
X836Y2030D01*
X836Y2032D01*
X840Y2032D01*
X840Y2034D01*
X842Y2034D01*
X842Y2036D01*
X844Y2036D01*
X844Y2038D01*
X846Y2038D01*
X846Y2040D01*
X848Y2040D01*
X848Y2042D01*
X850Y2042D01*
X850Y2044D01*
X852Y2044D01*
X852Y2046D01*
X854Y2046D01*
X854Y2048D01*
X856Y2048D01*
X856Y2050D01*
X858Y2050D01*
X858Y2052D01*
X860Y2052D01*
X860Y2054D01*
X862Y2054D01*
X862Y2056D01*
X864Y2056D01*
X864Y2058D01*
X866Y2058D01*
X866Y2060D01*
X868Y2060D01*
X868Y2062D01*
X870Y2062D01*
X870Y2064D01*
X872Y2064D01*
X872Y2066D01*
X874Y2066D01*
X874Y2068D01*
X876Y2068D01*
X876Y2070D01*
X878Y2070D01*
X878Y2072D01*
X880Y2072D01*
X880Y2074D01*
X882Y2074D01*
X882Y2076D01*
X884Y2076D01*
X884Y2078D01*
X886Y2078D01*
X886Y2080D01*
X888Y2080D01*
X888Y2082D01*
X890Y2082D01*
X890Y2084D01*
X892Y2084D01*
X892Y2086D01*
X894Y2086D01*
X894Y2088D01*
X896Y2088D01*
X896Y2090D01*
X898Y2090D01*
X898Y2092D01*
X900Y2092D01*
X900Y2094D01*
X902Y2094D01*
X902Y2096D01*
X904Y2096D01*
X904Y2098D01*
X906Y2098D01*
X906Y2100D01*
X908Y2100D01*
X908Y2102D01*
X910Y2102D01*
X910Y2104D01*
X912Y2104D01*
X912Y2106D01*
X914Y2106D01*
X914Y2108D01*
X916Y2108D01*
X916Y2110D01*
X918Y2110D01*
X918Y2112D01*
X920Y2112D01*
X920Y2114D01*
X922Y2114D01*
X922Y2116D01*
X924Y2116D01*
X924Y2118D01*
X926Y2118D01*
X926Y2120D01*
X928Y2120D01*
X928Y2122D01*
X930Y2122D01*
X930Y2124D01*
X932Y2124D01*
X932Y2126D01*
X934Y2126D01*
X934Y2128D01*
X936Y2128D01*
X936Y2130D01*
X938Y2130D01*
X938Y2132D01*
X940Y2132D01*
X940Y2134D01*
X942Y2134D01*
X942Y2136D01*
X944Y2136D01*
X944Y2138D01*
X946Y2138D01*
X946Y2140D01*
X948Y2140D01*
X948Y2142D01*
X950Y2142D01*
X950Y2144D01*
X952Y2144D01*
X952Y2146D01*
X954Y2146D01*
X954Y2148D01*
X956Y2148D01*
X956Y2150D01*
X958Y2150D01*
X958Y2152D01*
X960Y2152D01*
X960Y2154D01*
X962Y2154D01*
X962Y2156D01*
X964Y2156D01*
X964Y2158D01*
X966Y2158D01*
X966Y2160D01*
X968Y2160D01*
X968Y2162D01*
X970Y2162D01*
X970Y2164D01*
X972Y2164D01*
X972Y2166D01*
X974Y2166D01*
X974Y2168D01*
X976Y2168D01*
X976Y2170D01*
X978Y2170D01*
X978Y2172D01*
X980Y2172D01*
X980Y2174D01*
X982Y2174D01*
X982Y2176D01*
X984Y2176D01*
X984Y2178D01*
X986Y2178D01*
X986Y2180D01*
X988Y2180D01*
X988Y2182D01*
X990Y2182D01*
X990Y2184D01*
X992Y2184D01*
X992Y2186D01*
X994Y2186D01*
X994Y2188D01*
X996Y2188D01*
X996Y2190D01*
X998Y2190D01*
X998Y2192D01*
X1000Y2192D01*
X1000Y2194D01*
X1002Y2194D01*
X1002Y2196D01*
X1004Y2196D01*
X1004Y2198D01*
X1006Y2198D01*
X1006Y2200D01*
X1008Y2200D01*
X1008Y2202D01*
X1010Y2202D01*
X1010Y2204D01*
X1012Y2204D01*
X1012Y2206D01*
X1014Y2206D01*
X1014Y2208D01*
X1016Y2208D01*
X1016Y2210D01*
X1018Y2210D01*
X1018Y2212D01*
X1020Y2212D01*
X1020Y2214D01*
X1022Y2214D01*
X1022Y2216D01*
X1024Y2216D01*
X1024Y2218D01*
X1026Y2218D01*
X1026Y2220D01*
X1028Y2220D01*
X1028Y2222D01*
X1030Y2222D01*
X1030Y2224D01*
X1032Y2224D01*
X1032Y2226D01*
X1034Y2226D01*
X1034Y2228D01*
X1036Y2228D01*
X1036Y2230D01*
X1038Y2230D01*
X1038Y2232D01*
X1040Y2232D01*
X1040Y2234D01*
X1042Y2234D01*
X1042Y2236D01*
X1044Y2236D01*
X1044Y2238D01*
X1046Y2238D01*
X1046Y2240D01*
X1048Y2240D01*
X1048Y2242D01*
X1050Y2242D01*
X1050Y2244D01*
X1052Y2244D01*
X1052Y2246D01*
X1054Y2246D01*
X1054Y2248D01*
X1056Y2248D01*
X1056Y2250D01*
X1058Y2250D01*
X1058Y2252D01*
X1060Y2252D01*
X1060Y2254D01*
X1062Y2254D01*
X1062Y2256D01*
X1064Y2256D01*
X1064Y2258D01*
X1066Y2258D01*
X1066Y2260D01*
X1068Y2260D01*
X1068Y2262D01*
X1070Y2262D01*
X1070Y2264D01*
X1072Y2264D01*
X1072Y2266D01*
X1074Y2266D01*
X1074Y2268D01*
X1076Y2268D01*
X1076Y2270D01*
X1078Y2270D01*
X1078Y2272D01*
X1080Y2272D01*
X1080Y2274D01*
X1082Y2274D01*
X1082Y2276D01*
X1084Y2276D01*
X1084Y2278D01*
X1086Y2278D01*
X1086Y2280D01*
X1088Y2280D01*
X1088Y2282D01*
X1090Y2282D01*
X1090Y2284D01*
X1092Y2284D01*
X1092Y2286D01*
X1094Y2286D01*
X1094Y2288D01*
X1096Y2288D01*
X1096Y2290D01*
X1098Y2290D01*
X1098Y2292D01*
X1100Y2292D01*
X1100Y2294D01*
X1102Y2294D01*
X1102Y2296D01*
X1104Y2296D01*
X1104Y2298D01*
X1106Y2298D01*
X1106Y2300D01*
X1108Y2300D01*
X1108Y2302D01*
X1110Y2302D01*
X1110Y2304D01*
X1112Y2304D01*
X1112Y2306D01*
X1114Y2306D01*
X1114Y2308D01*
X1116Y2308D01*
X1116Y2310D01*
X1118Y2310D01*
X1118Y2312D01*
X1120Y2312D01*
X1120Y2314D01*
X1122Y2314D01*
X1122Y2316D01*
X1124Y2316D01*
X1124Y2318D01*
X1126Y2318D01*
X1126Y2320D01*
X1128Y2320D01*
X1128Y2322D01*
X1130Y2322D01*
X1130Y2324D01*
X1132Y2324D01*
X1132Y2326D01*
X1134Y2326D01*
X1134Y2328D01*
X1136Y2328D01*
X1136Y2330D01*
X1138Y2330D01*
X1138Y2332D01*
X1140Y2332D01*
X1140Y2334D01*
X1142Y2334D01*
X1142Y2336D01*
X1144Y2336D01*
X1144Y2338D01*
X1146Y2338D01*
X1146Y2340D01*
X1148Y2340D01*
X1148Y2342D01*
X1150Y2342D01*
X1150Y2344D01*
X1152Y2344D01*
X1152Y2346D01*
X1154Y2346D01*
X1154Y2348D01*
X1156Y2348D01*
X1156Y2350D01*
X1158Y2350D01*
X1158Y2352D01*
X1160Y2352D01*
X1160Y2354D01*
X1162Y2354D01*
X1162Y2356D01*
X1164Y2356D01*
X1164Y2358D01*
X1166Y2358D01*
X1166Y2360D01*
X1168Y2360D01*
X1168Y2362D01*
X1170Y2362D01*
X1170Y2364D01*
X1172Y2364D01*
X1172Y2366D01*
X1174Y2366D01*
X1174Y2368D01*
X1176Y2368D01*
X1176Y2370D01*
X1178Y2370D01*
X1178Y2372D01*
X1180Y2372D01*
X1180Y2374D01*
X1182Y2374D01*
X1182Y2376D01*
X1184Y2376D01*
X1184Y2378D01*
X1186Y2378D01*
X1186Y2380D01*
X1188Y2380D01*
X1188Y2382D01*
X1190Y2382D01*
X1190Y2384D01*
X1192Y2384D01*
X1192Y2386D01*
X1194Y2386D01*
X1194Y2388D01*
X1196Y2388D01*
X1196Y2390D01*
X1198Y2390D01*
X1198Y2392D01*
X1200Y2392D01*
X1200Y2394D01*
X1202Y2394D01*
X1202Y2396D01*
X1204Y2396D01*
X1204Y2398D01*
X1206Y2398D01*
X1206Y2400D01*
X1208Y2400D01*
X1208Y2402D01*
X1210Y2402D01*
X1210Y2404D01*
X1212Y2404D01*
X1212Y2406D01*
X1214Y2406D01*
X1214Y2408D01*
X1216Y2408D01*
X1216Y2410D01*
X1218Y2410D01*
X1218Y2412D01*
X1220Y2412D01*
X1220Y2414D01*
X1222Y2414D01*
X1222Y2416D01*
X1224Y2416D01*
X1224Y2418D01*
X1226Y2418D01*
X1226Y2420D01*
X1228Y2420D01*
X1228Y2422D01*
X1230Y2422D01*
X1230Y2424D01*
X1232Y2424D01*
X1232Y2426D01*
X1234Y2426D01*
X1234Y2428D01*
X1236Y2428D01*
X1236Y2430D01*
X1238Y2430D01*
X1238Y2432D01*
X1240Y2432D01*
X1240Y2434D01*
X1242Y2434D01*
X1242Y2436D01*
X1244Y2436D01*
X1244Y2438D01*
X1246Y2438D01*
X1246Y2440D01*
X1248Y2440D01*
X1248Y2442D01*
X1250Y2442D01*
X1250Y2444D01*
X1252Y2444D01*
X1252Y2446D01*
X1254Y2446D01*
X1254Y2448D01*
X1256Y2448D01*
X1256Y2450D01*
X1260Y2450D01*
X1260Y2452D01*
X1262Y2452D01*
X1262Y2454D01*
X1264Y2454D01*
X1264Y2456D01*
X1266Y2456D01*
X1266Y2458D01*
X1270Y2458D01*
X1270Y2460D01*
X1276Y2460D01*
X1276Y2462D01*
X1284Y2462D01*
X1284Y2464D01*
X40Y2464D01*
G37*
D02*
G36*
X1306Y2380D02*
X1306Y2378D01*
X1304Y2378D01*
X1304Y2376D01*
X1302Y2376D01*
X1302Y2374D01*
X1300Y2374D01*
X1300Y2372D01*
X1298Y2372D01*
X1298Y2370D01*
X1296Y2370D01*
X1296Y2368D01*
X1294Y2368D01*
X1294Y2366D01*
X1292Y2366D01*
X1292Y2364D01*
X1290Y2364D01*
X1290Y2362D01*
X1288Y2362D01*
X1288Y2360D01*
X1286Y2360D01*
X1286Y2358D01*
X1284Y2358D01*
X1284Y2356D01*
X1282Y2356D01*
X1282Y2354D01*
X1280Y2354D01*
X1280Y2352D01*
X1278Y2352D01*
X1278Y2350D01*
X1276Y2350D01*
X1276Y2348D01*
X1274Y2348D01*
X1274Y2346D01*
X1272Y2346D01*
X1272Y2344D01*
X1270Y2344D01*
X1270Y2342D01*
X1268Y2342D01*
X1268Y2340D01*
X1266Y2340D01*
X1266Y2338D01*
X1264Y2338D01*
X1264Y2336D01*
X1262Y2336D01*
X1262Y2334D01*
X1260Y2334D01*
X1260Y2332D01*
X1258Y2332D01*
X1258Y2330D01*
X1256Y2330D01*
X1256Y2328D01*
X1254Y2328D01*
X1254Y2326D01*
X1252Y2326D01*
X1252Y2324D01*
X1250Y2324D01*
X1250Y2322D01*
X1248Y2322D01*
X1248Y2320D01*
X1246Y2320D01*
X1246Y2318D01*
X1244Y2318D01*
X1244Y2316D01*
X1242Y2316D01*
X1242Y2314D01*
X1240Y2314D01*
X1240Y2312D01*
X1238Y2312D01*
X1238Y2310D01*
X1236Y2310D01*
X1236Y2308D01*
X1234Y2308D01*
X1234Y2306D01*
X1232Y2306D01*
X1232Y2304D01*
X1230Y2304D01*
X1230Y2302D01*
X1228Y2302D01*
X1228Y2300D01*
X1226Y2300D01*
X1226Y2298D01*
X1224Y2298D01*
X1224Y2296D01*
X1222Y2296D01*
X1222Y2294D01*
X1220Y2294D01*
X1220Y2292D01*
X1218Y2292D01*
X1218Y2290D01*
X1216Y2290D01*
X1216Y2288D01*
X1214Y2288D01*
X1214Y2286D01*
X1212Y2286D01*
X1212Y2266D01*
X1442Y2266D01*
X1442Y2264D01*
X1450Y2264D01*
X1450Y2262D01*
X1454Y2262D01*
X1454Y2260D01*
X1458Y2260D01*
X1458Y2258D01*
X1462Y2258D01*
X1462Y2256D01*
X1464Y2256D01*
X1464Y2254D01*
X1466Y2254D01*
X1466Y2252D01*
X1468Y2252D01*
X1468Y2250D01*
X1470Y2250D01*
X1470Y2248D01*
X1472Y2248D01*
X1472Y2246D01*
X1474Y2246D01*
X1474Y2244D01*
X1476Y2244D01*
X1476Y2242D01*
X1478Y2242D01*
X1478Y2240D01*
X1480Y2240D01*
X1480Y2238D01*
X1482Y2238D01*
X1482Y2236D01*
X1484Y2236D01*
X1484Y2234D01*
X1486Y2234D01*
X1486Y2232D01*
X1488Y2232D01*
X1488Y2230D01*
X1490Y2230D01*
X1490Y2228D01*
X1492Y2228D01*
X1492Y2226D01*
X1494Y2226D01*
X1494Y2224D01*
X1496Y2224D01*
X1496Y2222D01*
X1498Y2222D01*
X1498Y2220D01*
X1500Y2220D01*
X1500Y2218D01*
X1502Y2218D01*
X1502Y2216D01*
X1504Y2216D01*
X1504Y2214D01*
X1506Y2214D01*
X1506Y2212D01*
X1508Y2212D01*
X1508Y2210D01*
X1510Y2210D01*
X1510Y2208D01*
X1512Y2208D01*
X1512Y2206D01*
X1514Y2206D01*
X1514Y2204D01*
X1516Y2204D01*
X1516Y2202D01*
X1518Y2202D01*
X1518Y2200D01*
X1520Y2200D01*
X1520Y2198D01*
X1522Y2198D01*
X1522Y2194D01*
X1524Y2194D01*
X1524Y2190D01*
X1526Y2190D01*
X1526Y2184D01*
X1546Y2184D01*
X1546Y2190D01*
X1548Y2190D01*
X1548Y2194D01*
X1550Y2194D01*
X1550Y2196D01*
X1552Y2196D01*
X1552Y2200D01*
X1554Y2200D01*
X1554Y2202D01*
X1556Y2202D01*
X1556Y2204D01*
X1560Y2204D01*
X1560Y2206D01*
X1562Y2206D01*
X1562Y2208D01*
X1564Y2208D01*
X1564Y2210D01*
X1566Y2210D01*
X1566Y2212D01*
X1570Y2212D01*
X1570Y2214D01*
X1572Y2214D01*
X1572Y2216D01*
X1574Y2216D01*
X1574Y2218D01*
X1578Y2218D01*
X1578Y2220D01*
X1580Y2220D01*
X1580Y2222D01*
X1584Y2222D01*
X1584Y2224D01*
X1586Y2224D01*
X1586Y2226D01*
X1588Y2226D01*
X1588Y2228D01*
X1592Y2228D01*
X1592Y2230D01*
X1594Y2230D01*
X1594Y2232D01*
X1596Y2232D01*
X1596Y2234D01*
X1600Y2234D01*
X1600Y2236D01*
X1602Y2236D01*
X1602Y2238D01*
X1604Y2238D01*
X1604Y2240D01*
X1608Y2240D01*
X1608Y2242D01*
X1610Y2242D01*
X1610Y2244D01*
X1614Y2244D01*
X1614Y2246D01*
X1616Y2246D01*
X1616Y2248D01*
X1618Y2248D01*
X1618Y2250D01*
X1622Y2250D01*
X1622Y2252D01*
X1624Y2252D01*
X1624Y2254D01*
X1626Y2254D01*
X1626Y2256D01*
X1630Y2256D01*
X1630Y2258D01*
X1632Y2258D01*
X1632Y2260D01*
X1634Y2260D01*
X1634Y2262D01*
X1638Y2262D01*
X1638Y2264D01*
X1640Y2264D01*
X1640Y2266D01*
X1644Y2266D01*
X1644Y2268D01*
X1646Y2268D01*
X1646Y2270D01*
X1648Y2270D01*
X1648Y2272D01*
X1652Y2272D01*
X1652Y2274D01*
X1654Y2274D01*
X1654Y2276D01*
X1656Y2276D01*
X1656Y2278D01*
X1660Y2278D01*
X1660Y2280D01*
X1662Y2280D01*
X1662Y2282D01*
X1664Y2282D01*
X1664Y2284D01*
X1668Y2284D01*
X1668Y2286D01*
X1670Y2286D01*
X1670Y2288D01*
X1672Y2288D01*
X1672Y2290D01*
X1676Y2290D01*
X1676Y2292D01*
X1678Y2292D01*
X1678Y2294D01*
X1682Y2294D01*
X1682Y2296D01*
X1684Y2296D01*
X1684Y2298D01*
X1686Y2298D01*
X1686Y2300D01*
X1690Y2300D01*
X1690Y2302D01*
X1692Y2302D01*
X1692Y2304D01*
X1694Y2304D01*
X1694Y2310D01*
X1696Y2310D01*
X1696Y2318D01*
X1698Y2318D01*
X1698Y2324D01*
X1700Y2324D01*
X1700Y2328D01*
X1702Y2328D01*
X1702Y2332D01*
X1704Y2332D01*
X1704Y2336D01*
X1706Y2336D01*
X1706Y2338D01*
X1708Y2338D01*
X1708Y2342D01*
X1710Y2342D01*
X1710Y2344D01*
X1712Y2344D01*
X1712Y2346D01*
X1714Y2346D01*
X1714Y2348D01*
X1716Y2348D01*
X1716Y2350D01*
X1718Y2350D01*
X1718Y2352D01*
X1722Y2352D01*
X1722Y2354D01*
X1724Y2354D01*
X1724Y2356D01*
X1728Y2356D01*
X1728Y2358D01*
X1732Y2358D01*
X1732Y2360D01*
X1736Y2360D01*
X1736Y2380D01*
X1306Y2380D01*
G37*
D02*
G36*
X1782Y2380D02*
X1782Y2360D01*
X1788Y2360D01*
X1788Y2358D01*
X1790Y2358D01*
X1790Y2356D01*
X1794Y2356D01*
X1794Y2354D01*
X1796Y2354D01*
X1796Y2352D01*
X1800Y2352D01*
X1800Y2350D01*
X1802Y2350D01*
X1802Y2348D01*
X1804Y2348D01*
X1804Y2346D01*
X1806Y2346D01*
X1806Y2344D01*
X1808Y2344D01*
X1808Y2342D01*
X1810Y2342D01*
X1810Y2340D01*
X1812Y2340D01*
X1812Y2336D01*
X1814Y2336D01*
X1814Y2334D01*
X1816Y2334D01*
X1816Y2330D01*
X1818Y2330D01*
X1818Y2326D01*
X1820Y2326D01*
X1820Y2320D01*
X1822Y2320D01*
X1822Y2312D01*
X1824Y2312D01*
X1824Y2288D01*
X1822Y2288D01*
X1822Y2280D01*
X1820Y2280D01*
X1820Y2274D01*
X1818Y2274D01*
X1818Y2270D01*
X1816Y2270D01*
X1816Y2268D01*
X1814Y2268D01*
X1814Y2264D01*
X1812Y2264D01*
X1812Y2262D01*
X1810Y2262D01*
X1810Y2258D01*
X1808Y2258D01*
X1808Y2256D01*
X1806Y2256D01*
X1806Y2254D01*
X1804Y2254D01*
X1804Y2252D01*
X1802Y2252D01*
X1802Y2250D01*
X1798Y2250D01*
X1798Y2248D01*
X1796Y2248D01*
X1796Y2246D01*
X1792Y2246D01*
X1792Y2244D01*
X1790Y2244D01*
X1790Y2242D01*
X1786Y2242D01*
X1786Y2240D01*
X1780Y2240D01*
X1780Y2238D01*
X1774Y2238D01*
X1774Y2236D01*
X1742Y2236D01*
X1742Y2234D01*
X1738Y2234D01*
X1738Y2232D01*
X1736Y2232D01*
X1736Y2230D01*
X1734Y2230D01*
X1734Y2228D01*
X1730Y2228D01*
X1730Y2226D01*
X1728Y2226D01*
X1728Y2224D01*
X1724Y2224D01*
X1724Y2222D01*
X1722Y2222D01*
X1722Y2220D01*
X1720Y2220D01*
X1720Y2218D01*
X1716Y2218D01*
X1716Y2216D01*
X1714Y2216D01*
X1714Y2214D01*
X1712Y2214D01*
X1712Y2212D01*
X1708Y2212D01*
X1708Y2210D01*
X1706Y2210D01*
X1706Y2208D01*
X1704Y2208D01*
X1704Y2206D01*
X1700Y2206D01*
X1700Y2204D01*
X1698Y2204D01*
X1698Y2202D01*
X1696Y2202D01*
X1696Y2200D01*
X1692Y2200D01*
X1692Y2198D01*
X1690Y2198D01*
X1690Y2196D01*
X1686Y2196D01*
X1686Y2194D01*
X1684Y2194D01*
X1684Y2192D01*
X1682Y2192D01*
X1682Y2190D01*
X1678Y2190D01*
X1678Y2188D01*
X1676Y2188D01*
X1676Y2186D01*
X1674Y2186D01*
X1674Y2184D01*
X1670Y2184D01*
X1670Y2182D01*
X1668Y2182D01*
X1668Y2180D01*
X1666Y2180D01*
X1666Y2178D01*
X1662Y2178D01*
X1662Y2176D01*
X1660Y2176D01*
X1660Y2174D01*
X1656Y2174D01*
X1656Y2172D01*
X1654Y2172D01*
X1654Y2170D01*
X1652Y2170D01*
X1652Y2168D01*
X1648Y2168D01*
X1648Y2166D01*
X1646Y2166D01*
X1646Y2164D01*
X1644Y2164D01*
X1644Y2162D01*
X1640Y2162D01*
X1640Y2160D01*
X1638Y2160D01*
X1638Y2158D01*
X1636Y2158D01*
X1636Y2156D01*
X1632Y2156D01*
X1632Y2154D01*
X1630Y2154D01*
X1630Y2152D01*
X1628Y2152D01*
X1628Y2150D01*
X1626Y2150D01*
X1626Y2122D01*
X1624Y2122D01*
X1624Y2080D01*
X1622Y2080D01*
X1622Y2072D01*
X1700Y2072D01*
X1700Y2070D01*
X1706Y2070D01*
X1706Y2068D01*
X1710Y2068D01*
X1710Y2066D01*
X1714Y2066D01*
X1714Y2064D01*
X1716Y2064D01*
X1716Y2062D01*
X1720Y2062D01*
X1720Y2060D01*
X1722Y2060D01*
X1722Y2058D01*
X1724Y2058D01*
X1724Y2056D01*
X1726Y2056D01*
X1726Y2052D01*
X1728Y2052D01*
X1728Y2050D01*
X1730Y2050D01*
X1730Y2046D01*
X1732Y2046D01*
X1732Y2042D01*
X1734Y2042D01*
X1734Y2038D01*
X1736Y2038D01*
X1736Y2028D01*
X1738Y2028D01*
X1738Y2018D01*
X1736Y2018D01*
X1736Y1996D01*
X1838Y1996D01*
X1838Y2090D01*
X2044Y2090D01*
X2044Y2236D01*
X2000Y2236D01*
X2000Y2238D01*
X1994Y2238D01*
X1994Y2240D01*
X1988Y2240D01*
X1988Y2242D01*
X1984Y2242D01*
X1984Y2244D01*
X1982Y2244D01*
X1982Y2246D01*
X1978Y2246D01*
X1978Y2248D01*
X1976Y2248D01*
X1976Y2250D01*
X1974Y2250D01*
X1974Y2252D01*
X1970Y2252D01*
X1970Y2254D01*
X1968Y2254D01*
X1968Y2256D01*
X1966Y2256D01*
X1966Y2260D01*
X1964Y2260D01*
X1964Y2262D01*
X1962Y2262D01*
X1962Y2264D01*
X1960Y2264D01*
X1960Y2268D01*
X1958Y2268D01*
X1958Y2272D01*
X1956Y2272D01*
X1956Y2276D01*
X1954Y2276D01*
X1954Y2282D01*
X1952Y2282D01*
X1952Y2290D01*
X1950Y2290D01*
X1950Y2310D01*
X1952Y2310D01*
X1952Y2320D01*
X1954Y2320D01*
X1954Y2324D01*
X1956Y2324D01*
X1956Y2330D01*
X1958Y2330D01*
X1958Y2332D01*
X1960Y2332D01*
X1960Y2336D01*
X1962Y2336D01*
X1962Y2338D01*
X1964Y2338D01*
X1964Y2342D01*
X1966Y2342D01*
X1966Y2344D01*
X1968Y2344D01*
X1968Y2346D01*
X1970Y2346D01*
X1970Y2348D01*
X1972Y2348D01*
X1972Y2350D01*
X1974Y2350D01*
X1974Y2352D01*
X1978Y2352D01*
X1978Y2354D01*
X1980Y2354D01*
X1980Y2356D01*
X1984Y2356D01*
X1984Y2358D01*
X1988Y2358D01*
X1988Y2360D01*
X1992Y2360D01*
X1992Y2380D01*
X1782Y2380D01*
G37*
D02*
G36*
X1622Y2072D02*
X1622Y2040D01*
X1642Y2040D01*
X1642Y2044D01*
X1644Y2044D01*
X1644Y2048D01*
X1646Y2048D01*
X1646Y2052D01*
X1648Y2052D01*
X1648Y2054D01*
X1650Y2054D01*
X1650Y2056D01*
X1652Y2056D01*
X1652Y2058D01*
X1654Y2058D01*
X1654Y2060D01*
X1656Y2060D01*
X1656Y2062D01*
X1658Y2062D01*
X1658Y2064D01*
X1662Y2064D01*
X1662Y2066D01*
X1666Y2066D01*
X1666Y2068D01*
X1668Y2068D01*
X1668Y2070D01*
X1676Y2070D01*
X1676Y2072D01*
X1622Y2072D01*
G37*
D02*
G36*
X1300Y2182D02*
X1300Y2162D01*
X1306Y2162D01*
X1306Y2160D01*
X1310Y2160D01*
X1310Y2158D01*
X1314Y2158D01*
X1314Y2156D01*
X1316Y2156D01*
X1316Y2154D01*
X1318Y2154D01*
X1318Y2152D01*
X1320Y2152D01*
X1320Y2150D01*
X1322Y2150D01*
X1322Y2148D01*
X1324Y2148D01*
X1324Y2146D01*
X1326Y2146D01*
X1326Y2144D01*
X1346Y2144D01*
X1346Y2148D01*
X1348Y2148D01*
X1348Y2150D01*
X1350Y2150D01*
X1350Y2154D01*
X1352Y2154D01*
X1352Y2156D01*
X1354Y2156D01*
X1354Y2158D01*
X1356Y2158D01*
X1356Y2160D01*
X1360Y2160D01*
X1360Y2162D01*
X1362Y2162D01*
X1362Y2182D01*
X1300Y2182D01*
G37*
D02*
G36*
X1174Y2050D02*
X1174Y2048D01*
X1172Y2048D01*
X1172Y2046D01*
X1170Y2046D01*
X1170Y2044D01*
X1168Y2044D01*
X1168Y2042D01*
X1166Y2042D01*
X1166Y2040D01*
X1164Y2040D01*
X1164Y2038D01*
X1162Y2038D01*
X1162Y2036D01*
X1160Y2036D01*
X1160Y2034D01*
X1158Y2034D01*
X1158Y2032D01*
X1156Y2032D01*
X1156Y2030D01*
X1154Y2030D01*
X1154Y2028D01*
X1152Y2028D01*
X1152Y2026D01*
X1150Y2026D01*
X1150Y2024D01*
X1148Y2024D01*
X1148Y2022D01*
X1146Y2022D01*
X1146Y2020D01*
X1144Y2020D01*
X1144Y2018D01*
X1142Y2018D01*
X1142Y2016D01*
X1140Y2016D01*
X1140Y2014D01*
X1138Y2014D01*
X1138Y2012D01*
X1136Y2012D01*
X1136Y2010D01*
X1134Y2010D01*
X1134Y2008D01*
X1132Y2008D01*
X1132Y2006D01*
X1130Y2006D01*
X1130Y2004D01*
X1128Y2004D01*
X1128Y2002D01*
X1126Y2002D01*
X1126Y2000D01*
X1124Y2000D01*
X1124Y1998D01*
X1122Y1998D01*
X1122Y1996D01*
X1120Y1996D01*
X1120Y1994D01*
X1118Y1994D01*
X1118Y1992D01*
X1116Y1992D01*
X1116Y1990D01*
X1114Y1990D01*
X1114Y1988D01*
X1112Y1988D01*
X1112Y1986D01*
X1110Y1986D01*
X1110Y1984D01*
X1108Y1984D01*
X1108Y1982D01*
X1106Y1982D01*
X1106Y1980D01*
X1104Y1980D01*
X1104Y1978D01*
X1102Y1978D01*
X1102Y1976D01*
X1100Y1976D01*
X1100Y1974D01*
X1098Y1974D01*
X1098Y1972D01*
X1096Y1972D01*
X1096Y1970D01*
X1094Y1970D01*
X1094Y1968D01*
X1092Y1968D01*
X1092Y1966D01*
X1090Y1966D01*
X1090Y1964D01*
X1088Y1964D01*
X1088Y1962D01*
X1086Y1962D01*
X1086Y1960D01*
X1084Y1960D01*
X1084Y1958D01*
X1082Y1958D01*
X1082Y1956D01*
X1080Y1956D01*
X1080Y1954D01*
X1078Y1954D01*
X1078Y1952D01*
X1076Y1952D01*
X1076Y1950D01*
X1074Y1950D01*
X1074Y1948D01*
X1072Y1948D01*
X1072Y1946D01*
X1070Y1946D01*
X1070Y1944D01*
X1068Y1944D01*
X1068Y1942D01*
X1066Y1942D01*
X1066Y1940D01*
X1064Y1940D01*
X1064Y1938D01*
X1062Y1938D01*
X1062Y1936D01*
X1060Y1936D01*
X1060Y1934D01*
X1058Y1934D01*
X1058Y1932D01*
X1056Y1932D01*
X1056Y1930D01*
X1054Y1930D01*
X1054Y1928D01*
X1052Y1928D01*
X1052Y1926D01*
X1050Y1926D01*
X1050Y1924D01*
X1048Y1924D01*
X1048Y1922D01*
X1046Y1922D01*
X1046Y1920D01*
X1044Y1920D01*
X1044Y1918D01*
X1042Y1918D01*
X1042Y1916D01*
X1040Y1916D01*
X1040Y1914D01*
X1038Y1914D01*
X1038Y1912D01*
X1036Y1912D01*
X1036Y1910D01*
X1034Y1910D01*
X1034Y1908D01*
X1032Y1908D01*
X1032Y1906D01*
X1030Y1906D01*
X1030Y1904D01*
X1028Y1904D01*
X1028Y1902D01*
X1026Y1902D01*
X1026Y1900D01*
X1024Y1900D01*
X1024Y1898D01*
X1022Y1898D01*
X1022Y1896D01*
X1020Y1896D01*
X1020Y1894D01*
X1018Y1894D01*
X1018Y1892D01*
X1016Y1892D01*
X1016Y1890D01*
X1014Y1890D01*
X1014Y1888D01*
X1012Y1888D01*
X1012Y1886D01*
X1010Y1886D01*
X1010Y1884D01*
X1008Y1884D01*
X1008Y1882D01*
X1006Y1882D01*
X1006Y1880D01*
X1004Y1880D01*
X1004Y1878D01*
X1002Y1878D01*
X1002Y1876D01*
X1000Y1876D01*
X1000Y1874D01*
X998Y1874D01*
X998Y1872D01*
X996Y1872D01*
X996Y1870D01*
X994Y1870D01*
X994Y1868D01*
X992Y1868D01*
X992Y1866D01*
X990Y1866D01*
X990Y1864D01*
X988Y1864D01*
X988Y1862D01*
X986Y1862D01*
X986Y1860D01*
X984Y1860D01*
X984Y1858D01*
X982Y1858D01*
X982Y1856D01*
X980Y1856D01*
X980Y1854D01*
X978Y1854D01*
X978Y1852D01*
X976Y1852D01*
X976Y1850D01*
X974Y1850D01*
X974Y1848D01*
X972Y1848D01*
X972Y1846D01*
X970Y1846D01*
X970Y1844D01*
X968Y1844D01*
X968Y1842D01*
X966Y1842D01*
X966Y1840D01*
X964Y1840D01*
X964Y1838D01*
X962Y1838D01*
X962Y1836D01*
X960Y1836D01*
X960Y1834D01*
X958Y1834D01*
X958Y1832D01*
X956Y1832D01*
X956Y1830D01*
X954Y1830D01*
X954Y1828D01*
X952Y1828D01*
X952Y1826D01*
X950Y1826D01*
X950Y1824D01*
X948Y1824D01*
X948Y1822D01*
X946Y1822D01*
X946Y1820D01*
X944Y1820D01*
X944Y1818D01*
X942Y1818D01*
X942Y1816D01*
X940Y1816D01*
X940Y1814D01*
X938Y1814D01*
X938Y1812D01*
X936Y1812D01*
X936Y1810D01*
X934Y1810D01*
X934Y1808D01*
X932Y1808D01*
X932Y1806D01*
X930Y1806D01*
X930Y1804D01*
X928Y1804D01*
X928Y1802D01*
X926Y1802D01*
X926Y1800D01*
X924Y1800D01*
X924Y1798D01*
X922Y1798D01*
X922Y1796D01*
X920Y1796D01*
X920Y1794D01*
X918Y1794D01*
X918Y1792D01*
X916Y1792D01*
X916Y1790D01*
X914Y1790D01*
X914Y1788D01*
X912Y1788D01*
X912Y1786D01*
X910Y1786D01*
X910Y1784D01*
X908Y1784D01*
X908Y1782D01*
X906Y1782D01*
X906Y1780D01*
X904Y1780D01*
X904Y1778D01*
X902Y1778D01*
X902Y1776D01*
X900Y1776D01*
X900Y1774D01*
X898Y1774D01*
X898Y1772D01*
X896Y1772D01*
X896Y1770D01*
X894Y1770D01*
X894Y1768D01*
X892Y1768D01*
X892Y1766D01*
X890Y1766D01*
X890Y1764D01*
X888Y1764D01*
X888Y1762D01*
X886Y1762D01*
X886Y1760D01*
X884Y1760D01*
X884Y1758D01*
X882Y1758D01*
X882Y1756D01*
X880Y1756D01*
X880Y1754D01*
X878Y1754D01*
X878Y1752D01*
X876Y1752D01*
X876Y1750D01*
X874Y1750D01*
X874Y1748D01*
X872Y1748D01*
X872Y1746D01*
X870Y1746D01*
X870Y1744D01*
X868Y1744D01*
X868Y1742D01*
X866Y1742D01*
X866Y1740D01*
X864Y1740D01*
X864Y1738D01*
X862Y1738D01*
X862Y1736D01*
X860Y1736D01*
X860Y1734D01*
X858Y1734D01*
X858Y1732D01*
X856Y1732D01*
X856Y1730D01*
X854Y1730D01*
X854Y1728D01*
X852Y1728D01*
X852Y1726D01*
X850Y1726D01*
X850Y1724D01*
X848Y1724D01*
X848Y1722D01*
X846Y1722D01*
X846Y1720D01*
X844Y1720D01*
X844Y1718D01*
X842Y1718D01*
X842Y1716D01*
X840Y1716D01*
X840Y1714D01*
X838Y1714D01*
X838Y1712D01*
X836Y1712D01*
X836Y1710D01*
X834Y1710D01*
X834Y1708D01*
X832Y1708D01*
X832Y1706D01*
X830Y1706D01*
X830Y1704D01*
X828Y1704D01*
X828Y1702D01*
X826Y1702D01*
X826Y1700D01*
X824Y1700D01*
X824Y1698D01*
X822Y1698D01*
X822Y1696D01*
X820Y1696D01*
X820Y1694D01*
X818Y1694D01*
X818Y1692D01*
X816Y1692D01*
X816Y1690D01*
X814Y1690D01*
X814Y1688D01*
X812Y1688D01*
X812Y1686D01*
X810Y1686D01*
X810Y1684D01*
X808Y1684D01*
X808Y1682D01*
X806Y1682D01*
X806Y1680D01*
X804Y1680D01*
X804Y1678D01*
X802Y1678D01*
X802Y1676D01*
X800Y1676D01*
X800Y1674D01*
X798Y1674D01*
X798Y1672D01*
X796Y1672D01*
X796Y1670D01*
X794Y1670D01*
X794Y1668D01*
X792Y1668D01*
X792Y1666D01*
X790Y1666D01*
X790Y1664D01*
X788Y1664D01*
X788Y1662D01*
X786Y1662D01*
X786Y1660D01*
X784Y1660D01*
X784Y1658D01*
X782Y1658D01*
X782Y1656D01*
X780Y1656D01*
X780Y1654D01*
X778Y1654D01*
X778Y1652D01*
X776Y1652D01*
X776Y1650D01*
X774Y1650D01*
X774Y1648D01*
X772Y1648D01*
X772Y1646D01*
X770Y1646D01*
X770Y1644D01*
X768Y1644D01*
X768Y1642D01*
X766Y1642D01*
X766Y1640D01*
X764Y1640D01*
X764Y1638D01*
X762Y1638D01*
X762Y1636D01*
X760Y1636D01*
X760Y1634D01*
X758Y1634D01*
X758Y1632D01*
X756Y1632D01*
X756Y1630D01*
X754Y1630D01*
X754Y1628D01*
X752Y1628D01*
X752Y1626D01*
X750Y1626D01*
X750Y1624D01*
X748Y1624D01*
X748Y1622D01*
X746Y1622D01*
X746Y1620D01*
X744Y1620D01*
X744Y1618D01*
X742Y1618D01*
X742Y1616D01*
X740Y1616D01*
X740Y1614D01*
X738Y1614D01*
X738Y1612D01*
X736Y1612D01*
X736Y1610D01*
X734Y1610D01*
X734Y1608D01*
X732Y1608D01*
X732Y1606D01*
X730Y1606D01*
X730Y1022D01*
X926Y1022D01*
X926Y1024D01*
X920Y1024D01*
X920Y1026D01*
X914Y1026D01*
X914Y1028D01*
X912Y1028D01*
X912Y1030D01*
X908Y1030D01*
X908Y1032D01*
X906Y1032D01*
X906Y1034D01*
X904Y1034D01*
X904Y1036D01*
X900Y1036D01*
X900Y1040D01*
X898Y1040D01*
X898Y1042D01*
X896Y1042D01*
X896Y1044D01*
X894Y1044D01*
X894Y1048D01*
X892Y1048D01*
X892Y1052D01*
X890Y1052D01*
X890Y1058D01*
X888Y1058D01*
X888Y1068D01*
X886Y1068D01*
X886Y1074D01*
X888Y1074D01*
X888Y1086D01*
X890Y1086D01*
X890Y1092D01*
X892Y1092D01*
X892Y1094D01*
X894Y1094D01*
X894Y1250D01*
X896Y1250D01*
X896Y1732D01*
X898Y1732D01*
X898Y1740D01*
X900Y1740D01*
X900Y1744D01*
X902Y1744D01*
X902Y1746D01*
X904Y1746D01*
X904Y1750D01*
X906Y1750D01*
X906Y1752D01*
X908Y1752D01*
X908Y1754D01*
X910Y1754D01*
X910Y1756D01*
X912Y1756D01*
X912Y1758D01*
X914Y1758D01*
X914Y1760D01*
X916Y1760D01*
X916Y1762D01*
X918Y1762D01*
X918Y1764D01*
X920Y1764D01*
X920Y1766D01*
X922Y1766D01*
X922Y1768D01*
X924Y1768D01*
X924Y1770D01*
X926Y1770D01*
X926Y1772D01*
X928Y1772D01*
X928Y1774D01*
X930Y1774D01*
X930Y1776D01*
X932Y1776D01*
X932Y1778D01*
X934Y1778D01*
X934Y1780D01*
X936Y1780D01*
X936Y1782D01*
X938Y1782D01*
X938Y1784D01*
X940Y1784D01*
X940Y1786D01*
X942Y1786D01*
X942Y1788D01*
X944Y1788D01*
X944Y1790D01*
X946Y1790D01*
X946Y1792D01*
X948Y1792D01*
X948Y1794D01*
X950Y1794D01*
X950Y1796D01*
X952Y1796D01*
X952Y1798D01*
X954Y1798D01*
X954Y1800D01*
X956Y1800D01*
X956Y1802D01*
X958Y1802D01*
X958Y1804D01*
X960Y1804D01*
X960Y1806D01*
X962Y1806D01*
X962Y1808D01*
X964Y1808D01*
X964Y1810D01*
X966Y1810D01*
X966Y1812D01*
X968Y1812D01*
X968Y1814D01*
X970Y1814D01*
X970Y1816D01*
X972Y1816D01*
X972Y1818D01*
X974Y1818D01*
X974Y1820D01*
X976Y1820D01*
X976Y1822D01*
X978Y1822D01*
X978Y1824D01*
X980Y1824D01*
X980Y1826D01*
X982Y1826D01*
X982Y1828D01*
X984Y1828D01*
X984Y1830D01*
X986Y1830D01*
X986Y1832D01*
X988Y1832D01*
X988Y1834D01*
X990Y1834D01*
X990Y1836D01*
X992Y1836D01*
X992Y1838D01*
X994Y1838D01*
X994Y1840D01*
X996Y1840D01*
X996Y1842D01*
X998Y1842D01*
X998Y1844D01*
X1000Y1844D01*
X1000Y1846D01*
X1002Y1846D01*
X1002Y1848D01*
X1004Y1848D01*
X1004Y1850D01*
X1006Y1850D01*
X1006Y1852D01*
X1008Y1852D01*
X1008Y1854D01*
X1010Y1854D01*
X1010Y1856D01*
X1012Y1856D01*
X1012Y1858D01*
X1014Y1858D01*
X1014Y1860D01*
X1016Y1860D01*
X1016Y1862D01*
X1018Y1862D01*
X1018Y1864D01*
X1020Y1864D01*
X1020Y1866D01*
X1022Y1866D01*
X1022Y1868D01*
X1024Y1868D01*
X1024Y1870D01*
X1026Y1870D01*
X1026Y1872D01*
X1028Y1872D01*
X1028Y1874D01*
X1030Y1874D01*
X1030Y1876D01*
X1032Y1876D01*
X1032Y1878D01*
X1034Y1878D01*
X1034Y1880D01*
X1036Y1880D01*
X1036Y1882D01*
X1038Y1882D01*
X1038Y1884D01*
X1040Y1884D01*
X1040Y1886D01*
X1042Y1886D01*
X1042Y1888D01*
X1044Y1888D01*
X1044Y1890D01*
X1046Y1890D01*
X1046Y1892D01*
X1048Y1892D01*
X1048Y1894D01*
X1050Y1894D01*
X1050Y1896D01*
X1052Y1896D01*
X1052Y1898D01*
X1054Y1898D01*
X1054Y1900D01*
X1056Y1900D01*
X1056Y1902D01*
X1058Y1902D01*
X1058Y1904D01*
X1060Y1904D01*
X1060Y1906D01*
X1062Y1906D01*
X1062Y1908D01*
X1064Y1908D01*
X1064Y1910D01*
X1066Y1910D01*
X1066Y1912D01*
X1068Y1912D01*
X1068Y1914D01*
X1070Y1914D01*
X1070Y1916D01*
X1072Y1916D01*
X1072Y1918D01*
X1074Y1918D01*
X1074Y1920D01*
X1076Y1920D01*
X1076Y1922D01*
X1078Y1922D01*
X1078Y1924D01*
X1080Y1924D01*
X1080Y1926D01*
X1082Y1926D01*
X1082Y1928D01*
X1084Y1928D01*
X1084Y1930D01*
X1086Y1930D01*
X1086Y1932D01*
X1088Y1932D01*
X1088Y1934D01*
X1090Y1934D01*
X1090Y1936D01*
X1092Y1936D01*
X1092Y1938D01*
X1094Y1938D01*
X1094Y1940D01*
X1096Y1940D01*
X1096Y1942D01*
X1098Y1942D01*
X1098Y1944D01*
X1100Y1944D01*
X1100Y1946D01*
X1102Y1946D01*
X1102Y1948D01*
X1104Y1948D01*
X1104Y1950D01*
X1106Y1950D01*
X1106Y1952D01*
X1108Y1952D01*
X1108Y1954D01*
X1110Y1954D01*
X1110Y1956D01*
X1114Y1956D01*
X1114Y1958D01*
X1116Y1958D01*
X1116Y1960D01*
X1122Y1960D01*
X1122Y1962D01*
X1128Y1962D01*
X1128Y1964D01*
X1202Y1964D01*
X1202Y1986D01*
X1200Y1986D01*
X1200Y1990D01*
X1198Y1990D01*
X1198Y1992D01*
X1196Y1992D01*
X1196Y1994D01*
X1194Y1994D01*
X1194Y1998D01*
X1192Y1998D01*
X1192Y2002D01*
X1190Y2002D01*
X1190Y2006D01*
X1188Y2006D01*
X1188Y2012D01*
X1186Y2012D01*
X1186Y2034D01*
X1188Y2034D01*
X1188Y2040D01*
X1190Y2040D01*
X1190Y2044D01*
X1192Y2044D01*
X1192Y2048D01*
X1194Y2048D01*
X1194Y2050D01*
X1174Y2050D01*
G37*
D02*
G36*
X1134Y1862D02*
X1134Y1860D01*
X1132Y1860D01*
X1132Y1858D01*
X1130Y1858D01*
X1130Y1856D01*
X1128Y1856D01*
X1128Y1854D01*
X1126Y1854D01*
X1126Y1852D01*
X1124Y1852D01*
X1124Y1850D01*
X1122Y1850D01*
X1122Y1848D01*
X1120Y1848D01*
X1120Y1846D01*
X1118Y1846D01*
X1118Y1844D01*
X1116Y1844D01*
X1116Y1842D01*
X1114Y1842D01*
X1114Y1840D01*
X1112Y1840D01*
X1112Y1838D01*
X1110Y1838D01*
X1110Y1836D01*
X1108Y1836D01*
X1108Y1834D01*
X1106Y1834D01*
X1106Y1832D01*
X1104Y1832D01*
X1104Y1830D01*
X1102Y1830D01*
X1102Y1828D01*
X1100Y1828D01*
X1100Y1826D01*
X1098Y1826D01*
X1098Y1824D01*
X1096Y1824D01*
X1096Y1822D01*
X1094Y1822D01*
X1094Y1820D01*
X1092Y1820D01*
X1092Y1818D01*
X1090Y1818D01*
X1090Y1816D01*
X1088Y1816D01*
X1088Y1814D01*
X1086Y1814D01*
X1086Y1812D01*
X1084Y1812D01*
X1084Y1810D01*
X1082Y1810D01*
X1082Y1808D01*
X1080Y1808D01*
X1080Y1806D01*
X1078Y1806D01*
X1078Y1804D01*
X1076Y1804D01*
X1076Y1802D01*
X1074Y1802D01*
X1074Y1800D01*
X1072Y1800D01*
X1072Y1798D01*
X1070Y1798D01*
X1070Y1796D01*
X1068Y1796D01*
X1068Y1794D01*
X1066Y1794D01*
X1066Y1792D01*
X1064Y1792D01*
X1064Y1790D01*
X1062Y1790D01*
X1062Y1788D01*
X1060Y1788D01*
X1060Y1786D01*
X1058Y1786D01*
X1058Y1784D01*
X1056Y1784D01*
X1056Y1782D01*
X1054Y1782D01*
X1054Y1780D01*
X1052Y1780D01*
X1052Y1778D01*
X1050Y1778D01*
X1050Y1776D01*
X1048Y1776D01*
X1048Y1774D01*
X1046Y1774D01*
X1046Y1772D01*
X1044Y1772D01*
X1044Y1770D01*
X1042Y1770D01*
X1042Y1768D01*
X1040Y1768D01*
X1040Y1766D01*
X1038Y1766D01*
X1038Y1764D01*
X1036Y1764D01*
X1036Y1762D01*
X1034Y1762D01*
X1034Y1760D01*
X1032Y1760D01*
X1032Y1758D01*
X1030Y1758D01*
X1030Y1756D01*
X1028Y1756D01*
X1028Y1754D01*
X1026Y1754D01*
X1026Y1752D01*
X1024Y1752D01*
X1024Y1750D01*
X1022Y1750D01*
X1022Y1748D01*
X1020Y1748D01*
X1020Y1746D01*
X1018Y1746D01*
X1018Y1744D01*
X1016Y1744D01*
X1016Y1742D01*
X1014Y1742D01*
X1014Y1740D01*
X1012Y1740D01*
X1012Y1738D01*
X1010Y1738D01*
X1010Y1736D01*
X1008Y1736D01*
X1008Y1734D01*
X1006Y1734D01*
X1006Y1732D01*
X1004Y1732D01*
X1004Y1730D01*
X1002Y1730D01*
X1002Y1728D01*
X1000Y1728D01*
X1000Y1726D01*
X998Y1726D01*
X998Y1724D01*
X996Y1724D01*
X996Y1722D01*
X994Y1722D01*
X994Y1720D01*
X992Y1720D01*
X992Y1718D01*
X990Y1718D01*
X990Y1716D01*
X988Y1716D01*
X988Y1714D01*
X986Y1714D01*
X986Y1712D01*
X984Y1712D01*
X984Y1710D01*
X982Y1710D01*
X982Y1708D01*
X980Y1708D01*
X980Y1248D01*
X978Y1248D01*
X978Y1240D01*
X1048Y1240D01*
X1048Y1238D01*
X1056Y1238D01*
X1056Y1236D01*
X1062Y1236D01*
X1062Y1234D01*
X1066Y1234D01*
X1066Y1232D01*
X1070Y1232D01*
X1070Y1230D01*
X1074Y1230D01*
X1074Y1228D01*
X1076Y1228D01*
X1076Y1226D01*
X1080Y1226D01*
X1080Y1224D01*
X1082Y1224D01*
X1082Y1222D01*
X1084Y1222D01*
X1084Y1220D01*
X1086Y1220D01*
X1086Y1218D01*
X1088Y1218D01*
X1088Y1216D01*
X1090Y1216D01*
X1090Y1212D01*
X1092Y1212D01*
X1092Y1210D01*
X1094Y1210D01*
X1094Y1206D01*
X1096Y1206D01*
X1096Y1204D01*
X1098Y1204D01*
X1098Y1200D01*
X1100Y1200D01*
X1100Y1194D01*
X1102Y1194D01*
X1102Y1188D01*
X1104Y1188D01*
X1104Y1158D01*
X1102Y1158D01*
X1102Y1150D01*
X1100Y1150D01*
X1100Y1146D01*
X1098Y1146D01*
X1098Y1142D01*
X1096Y1142D01*
X1096Y1140D01*
X1298Y1140D01*
X1298Y1138D01*
X1306Y1138D01*
X1306Y1136D01*
X1312Y1136D01*
X1312Y1134D01*
X1316Y1134D01*
X1316Y1132D01*
X1320Y1132D01*
X1320Y1130D01*
X1324Y1130D01*
X1324Y1128D01*
X1326Y1128D01*
X1326Y1126D01*
X1330Y1126D01*
X1330Y1124D01*
X1332Y1124D01*
X1332Y1122D01*
X1334Y1122D01*
X1334Y1120D01*
X1336Y1120D01*
X1336Y1118D01*
X1338Y1118D01*
X1338Y1116D01*
X1340Y1116D01*
X1340Y1112D01*
X1342Y1112D01*
X1342Y1110D01*
X1344Y1110D01*
X1344Y1106D01*
X1346Y1106D01*
X1346Y1104D01*
X1436Y1104D01*
X1436Y1106D01*
X1420Y1106D01*
X1420Y1108D01*
X1414Y1108D01*
X1414Y1110D01*
X1410Y1110D01*
X1410Y1112D01*
X1406Y1112D01*
X1406Y1114D01*
X1402Y1114D01*
X1402Y1116D01*
X1398Y1116D01*
X1398Y1118D01*
X1396Y1118D01*
X1396Y1120D01*
X1394Y1120D01*
X1394Y1122D01*
X1392Y1122D01*
X1392Y1124D01*
X1390Y1124D01*
X1390Y1126D01*
X1388Y1126D01*
X1388Y1128D01*
X1386Y1128D01*
X1386Y1130D01*
X1384Y1130D01*
X1384Y1132D01*
X1382Y1132D01*
X1382Y1136D01*
X1380Y1136D01*
X1380Y1138D01*
X1378Y1138D01*
X1378Y1142D01*
X1376Y1142D01*
X1376Y1146D01*
X1374Y1146D01*
X1374Y1152D01*
X1372Y1152D01*
X1372Y1160D01*
X1370Y1160D01*
X1370Y1186D01*
X1372Y1186D01*
X1372Y1194D01*
X1374Y1194D01*
X1374Y1198D01*
X1376Y1198D01*
X1376Y1202D01*
X1378Y1202D01*
X1378Y1206D01*
X1380Y1206D01*
X1380Y1210D01*
X1382Y1210D01*
X1382Y1212D01*
X1384Y1212D01*
X1384Y1214D01*
X1386Y1214D01*
X1386Y1242D01*
X1384Y1242D01*
X1384Y1248D01*
X1204Y1248D01*
X1204Y1372D01*
X1154Y1372D01*
X1154Y1862D01*
X1134Y1862D01*
G37*
D02*
G36*
X978Y1240D02*
X978Y1226D01*
X998Y1226D01*
X998Y1228D01*
X1000Y1228D01*
X1000Y1230D01*
X1004Y1230D01*
X1004Y1232D01*
X1008Y1232D01*
X1008Y1234D01*
X1012Y1234D01*
X1012Y1236D01*
X1018Y1236D01*
X1018Y1238D01*
X1026Y1238D01*
X1026Y1240D01*
X978Y1240D01*
G37*
D02*
G36*
X2058Y1190D02*
X2058Y1054D01*
X2056Y1054D01*
X2056Y1026D01*
X2058Y1026D01*
X2058Y1018D01*
X2056Y1018D01*
X2056Y1006D01*
X2054Y1006D01*
X2054Y998D01*
X2052Y998D01*
X2052Y994D01*
X2050Y994D01*
X2050Y990D01*
X2048Y990D01*
X2048Y986D01*
X2046Y986D01*
X2046Y984D01*
X2044Y984D01*
X2044Y962D01*
X2046Y962D01*
X2046Y958D01*
X2048Y958D01*
X2048Y956D01*
X2050Y956D01*
X2050Y952D01*
X2052Y952D01*
X2052Y946D01*
X2054Y946D01*
X2054Y940D01*
X2056Y940D01*
X2056Y926D01*
X2058Y926D01*
X2058Y918D01*
X2056Y918D01*
X2056Y906D01*
X2054Y906D01*
X2054Y898D01*
X2052Y898D01*
X2052Y894D01*
X2050Y894D01*
X2050Y890D01*
X2048Y890D01*
X2048Y886D01*
X2046Y886D01*
X2046Y884D01*
X2044Y884D01*
X2044Y862D01*
X2046Y862D01*
X2046Y858D01*
X2048Y858D01*
X2048Y856D01*
X2050Y856D01*
X2050Y852D01*
X2052Y852D01*
X2052Y846D01*
X2054Y846D01*
X2054Y840D01*
X2056Y840D01*
X2056Y826D01*
X2058Y826D01*
X2058Y818D01*
X2056Y818D01*
X2056Y806D01*
X2054Y806D01*
X2054Y798D01*
X2052Y798D01*
X2052Y794D01*
X2050Y794D01*
X2050Y790D01*
X2048Y790D01*
X2048Y786D01*
X2046Y786D01*
X2046Y784D01*
X2044Y784D01*
X2044Y762D01*
X2046Y762D01*
X2046Y758D01*
X2048Y758D01*
X2048Y756D01*
X2050Y756D01*
X2050Y752D01*
X2052Y752D01*
X2052Y746D01*
X2054Y746D01*
X2054Y740D01*
X2056Y740D01*
X2056Y726D01*
X2058Y726D01*
X2058Y718D01*
X2056Y718D01*
X2056Y706D01*
X2054Y706D01*
X2054Y698D01*
X2052Y698D01*
X2052Y694D01*
X2050Y694D01*
X2050Y690D01*
X2048Y690D01*
X2048Y686D01*
X2046Y686D01*
X2046Y684D01*
X2044Y684D01*
X2044Y680D01*
X2042Y680D01*
X2042Y678D01*
X2040Y678D01*
X2040Y676D01*
X2038Y676D01*
X2038Y674D01*
X2036Y674D01*
X2036Y672D01*
X2034Y672D01*
X2034Y670D01*
X2032Y670D01*
X2032Y668D01*
X2030Y668D01*
X2030Y666D01*
X2026Y666D01*
X2026Y664D01*
X2024Y664D01*
X2024Y662D01*
X2020Y662D01*
X2020Y660D01*
X2016Y660D01*
X2016Y658D01*
X2012Y658D01*
X2012Y656D01*
X2006Y656D01*
X2006Y654D01*
X1996Y654D01*
X1996Y652D01*
X2124Y652D01*
X2124Y1190D01*
X2058Y1190D01*
G37*
D02*
G36*
X1096Y1140D02*
X1096Y1138D01*
X1094Y1138D01*
X1094Y1134D01*
X1092Y1134D01*
X1092Y1132D01*
X1090Y1132D01*
X1090Y1130D01*
X1088Y1130D01*
X1088Y1126D01*
X1086Y1126D01*
X1086Y1124D01*
X1084Y1124D01*
X1084Y1122D01*
X1080Y1122D01*
X1080Y1120D01*
X1078Y1120D01*
X1078Y1118D01*
X1076Y1118D01*
X1076Y1116D01*
X1072Y1116D01*
X1072Y1114D01*
X1068Y1114D01*
X1068Y1112D01*
X1066Y1112D01*
X1066Y1110D01*
X1060Y1110D01*
X1060Y1108D01*
X1054Y1108D01*
X1054Y1106D01*
X1038Y1106D01*
X1038Y1104D01*
X1228Y1104D01*
X1228Y1106D01*
X1230Y1106D01*
X1230Y1110D01*
X1232Y1110D01*
X1232Y1112D01*
X1234Y1112D01*
X1234Y1114D01*
X1236Y1114D01*
X1236Y1118D01*
X1238Y1118D01*
X1238Y1120D01*
X1240Y1120D01*
X1240Y1122D01*
X1242Y1122D01*
X1242Y1124D01*
X1246Y1124D01*
X1246Y1126D01*
X1248Y1126D01*
X1248Y1128D01*
X1250Y1128D01*
X1250Y1130D01*
X1254Y1130D01*
X1254Y1132D01*
X1258Y1132D01*
X1258Y1134D01*
X1262Y1134D01*
X1262Y1136D01*
X1268Y1136D01*
X1268Y1138D01*
X1276Y1138D01*
X1276Y1140D01*
X1096Y1140D01*
G37*
D02*
G36*
X1492Y1134D02*
X1492Y1132D01*
X1490Y1132D01*
X1490Y1130D01*
X1488Y1130D01*
X1488Y1126D01*
X1486Y1126D01*
X1486Y1124D01*
X1484Y1124D01*
X1484Y1122D01*
X1480Y1122D01*
X1480Y1120D01*
X1478Y1120D01*
X1478Y1118D01*
X1476Y1118D01*
X1476Y1116D01*
X1472Y1116D01*
X1472Y1114D01*
X1468Y1114D01*
X1468Y1112D01*
X1466Y1112D01*
X1466Y1110D01*
X1460Y1110D01*
X1460Y1108D01*
X1454Y1108D01*
X1454Y1106D01*
X1438Y1106D01*
X1438Y1104D01*
X1530Y1104D01*
X1530Y1106D01*
X1528Y1106D01*
X1528Y1108D01*
X1526Y1108D01*
X1526Y1112D01*
X1524Y1112D01*
X1524Y1116D01*
X1522Y1116D01*
X1522Y1118D01*
X1520Y1118D01*
X1520Y1122D01*
X1518Y1122D01*
X1518Y1126D01*
X1516Y1126D01*
X1516Y1128D01*
X1514Y1128D01*
X1514Y1132D01*
X1512Y1132D01*
X1512Y1134D01*
X1492Y1134D01*
G37*
D02*
G36*
X978Y1118D02*
X978Y1104D01*
X1036Y1104D01*
X1036Y1106D01*
X1020Y1106D01*
X1020Y1108D01*
X1014Y1108D01*
X1014Y1110D01*
X1010Y1110D01*
X1010Y1112D01*
X1006Y1112D01*
X1006Y1114D01*
X1002Y1114D01*
X1002Y1116D01*
X998Y1116D01*
X998Y1118D01*
X978Y1118D01*
G37*
D02*
G36*
X978Y1104D02*
X978Y1102D01*
X1228Y1102D01*
X1228Y1104D01*
X978Y1104D01*
G37*
D02*
G36*
X978Y1104D02*
X978Y1102D01*
X1228Y1102D01*
X1228Y1104D01*
X978Y1104D01*
G37*
D02*
G36*
X1348Y1104D02*
X1348Y1102D01*
X1530Y1102D01*
X1530Y1104D01*
X1348Y1104D01*
G37*
D02*
G36*
X1348Y1104D02*
X1348Y1102D01*
X1530Y1102D01*
X1530Y1104D01*
X1348Y1104D01*
G37*
D02*
G36*
X978Y1102D02*
X978Y1096D01*
X980Y1096D01*
X980Y1094D01*
X982Y1094D01*
X982Y1088D01*
X984Y1088D01*
X984Y1082D01*
X986Y1082D01*
X986Y1060D01*
X984Y1060D01*
X984Y1054D01*
X982Y1054D01*
X982Y1050D01*
X980Y1050D01*
X980Y1046D01*
X978Y1046D01*
X978Y1044D01*
X976Y1044D01*
X976Y1040D01*
X974Y1040D01*
X974Y1038D01*
X972Y1038D01*
X972Y1036D01*
X970Y1036D01*
X970Y1034D01*
X968Y1034D01*
X968Y1032D01*
X964Y1032D01*
X964Y1030D01*
X962Y1030D01*
X962Y1028D01*
X958Y1028D01*
X958Y1026D01*
X954Y1026D01*
X954Y1024D01*
X948Y1024D01*
X948Y1022D01*
X1242Y1022D01*
X1242Y1024D01*
X1240Y1024D01*
X1240Y1026D01*
X1238Y1026D01*
X1238Y1028D01*
X1236Y1028D01*
X1236Y1030D01*
X1234Y1030D01*
X1234Y1032D01*
X1232Y1032D01*
X1232Y1036D01*
X1230Y1036D01*
X1230Y1038D01*
X1228Y1038D01*
X1228Y1042D01*
X1226Y1042D01*
X1226Y1046D01*
X1224Y1046D01*
X1224Y1052D01*
X1222Y1052D01*
X1222Y1060D01*
X1220Y1060D01*
X1220Y1086D01*
X1222Y1086D01*
X1222Y1094D01*
X1224Y1094D01*
X1224Y1098D01*
X1226Y1098D01*
X1226Y1102D01*
X978Y1102D01*
G37*
D02*
G36*
X1348Y1102D02*
X1348Y1100D01*
X1350Y1100D01*
X1350Y1094D01*
X1352Y1094D01*
X1352Y1088D01*
X1354Y1088D01*
X1354Y1058D01*
X1352Y1058D01*
X1352Y1050D01*
X1350Y1050D01*
X1350Y1046D01*
X1348Y1046D01*
X1348Y1042D01*
X1346Y1042D01*
X1346Y1038D01*
X1344Y1038D01*
X1344Y1034D01*
X1342Y1034D01*
X1342Y1032D01*
X1340Y1032D01*
X1340Y1030D01*
X1338Y1030D01*
X1338Y1026D01*
X1336Y1026D01*
X1336Y1024D01*
X1334Y1024D01*
X1334Y1022D01*
X1330Y1022D01*
X1330Y1020D01*
X1328Y1020D01*
X1328Y1018D01*
X1326Y1018D01*
X1326Y1016D01*
X1322Y1016D01*
X1322Y1014D01*
X1318Y1014D01*
X1318Y1012D01*
X1316Y1012D01*
X1316Y1010D01*
X1310Y1010D01*
X1310Y1008D01*
X1304Y1008D01*
X1304Y988D01*
X1306Y988D01*
X1306Y986D01*
X1312Y986D01*
X1312Y984D01*
X1316Y984D01*
X1316Y982D01*
X1320Y982D01*
X1320Y980D01*
X1324Y980D01*
X1324Y978D01*
X1326Y978D01*
X1326Y976D01*
X1330Y976D01*
X1330Y974D01*
X1332Y974D01*
X1332Y972D01*
X1334Y972D01*
X1334Y970D01*
X1336Y970D01*
X1336Y968D01*
X1338Y968D01*
X1338Y966D01*
X1340Y966D01*
X1340Y962D01*
X1342Y962D01*
X1342Y960D01*
X1344Y960D01*
X1344Y956D01*
X1346Y956D01*
X1346Y954D01*
X1348Y954D01*
X1348Y950D01*
X1350Y950D01*
X1350Y944D01*
X1352Y944D01*
X1352Y938D01*
X1354Y938D01*
X1354Y908D01*
X1352Y908D01*
X1352Y900D01*
X1350Y900D01*
X1350Y896D01*
X1348Y896D01*
X1348Y892D01*
X1346Y892D01*
X1346Y888D01*
X1344Y888D01*
X1344Y884D01*
X1342Y884D01*
X1342Y882D01*
X1340Y882D01*
X1340Y880D01*
X1338Y880D01*
X1338Y876D01*
X1336Y876D01*
X1336Y874D01*
X1334Y874D01*
X1334Y872D01*
X1330Y872D01*
X1330Y870D01*
X1328Y870D01*
X1328Y868D01*
X1326Y868D01*
X1326Y866D01*
X1322Y866D01*
X1322Y864D01*
X1318Y864D01*
X1318Y862D01*
X1316Y862D01*
X1316Y860D01*
X1310Y860D01*
X1310Y858D01*
X1304Y858D01*
X1304Y854D01*
X1686Y854D01*
X1686Y856D01*
X1670Y856D01*
X1670Y858D01*
X1664Y858D01*
X1664Y860D01*
X1660Y860D01*
X1660Y862D01*
X1656Y862D01*
X1656Y864D01*
X1652Y864D01*
X1652Y866D01*
X1648Y866D01*
X1648Y868D01*
X1646Y868D01*
X1646Y870D01*
X1644Y870D01*
X1644Y872D01*
X1642Y872D01*
X1642Y874D01*
X1640Y874D01*
X1640Y876D01*
X1638Y876D01*
X1638Y878D01*
X1636Y878D01*
X1636Y880D01*
X1634Y880D01*
X1634Y882D01*
X1632Y882D01*
X1632Y886D01*
X1630Y886D01*
X1630Y888D01*
X1628Y888D01*
X1628Y892D01*
X1626Y892D01*
X1626Y896D01*
X1624Y896D01*
X1624Y902D01*
X1622Y902D01*
X1622Y910D01*
X1620Y910D01*
X1620Y954D01*
X1618Y954D01*
X1618Y958D01*
X1616Y958D01*
X1616Y962D01*
X1614Y962D01*
X1614Y964D01*
X1612Y964D01*
X1612Y968D01*
X1610Y968D01*
X1610Y972D01*
X1608Y972D01*
X1608Y974D01*
X1606Y974D01*
X1606Y978D01*
X1604Y978D01*
X1604Y982D01*
X1602Y982D01*
X1602Y984D01*
X1600Y984D01*
X1600Y988D01*
X1598Y988D01*
X1598Y992D01*
X1596Y992D01*
X1596Y994D01*
X1594Y994D01*
X1594Y998D01*
X1592Y998D01*
X1592Y1002D01*
X1590Y1002D01*
X1590Y1004D01*
X1588Y1004D01*
X1588Y1008D01*
X1586Y1008D01*
X1586Y1012D01*
X1584Y1012D01*
X1584Y1014D01*
X1582Y1014D01*
X1582Y1018D01*
X1580Y1018D01*
X1580Y1022D01*
X1578Y1022D01*
X1578Y1024D01*
X1576Y1024D01*
X1576Y1028D01*
X1574Y1028D01*
X1574Y1032D01*
X1572Y1032D01*
X1572Y1034D01*
X1570Y1034D01*
X1570Y1038D01*
X1568Y1038D01*
X1568Y1042D01*
X1566Y1042D01*
X1566Y1044D01*
X1564Y1044D01*
X1564Y1048D01*
X1562Y1048D01*
X1562Y1052D01*
X1560Y1052D01*
X1560Y1054D01*
X1558Y1054D01*
X1558Y1058D01*
X1556Y1058D01*
X1556Y1062D01*
X1554Y1062D01*
X1554Y1064D01*
X1552Y1064D01*
X1552Y1068D01*
X1550Y1068D01*
X1550Y1072D01*
X1548Y1072D01*
X1548Y1076D01*
X1546Y1076D01*
X1546Y1078D01*
X1544Y1078D01*
X1544Y1082D01*
X1542Y1082D01*
X1542Y1086D01*
X1540Y1086D01*
X1540Y1088D01*
X1538Y1088D01*
X1538Y1092D01*
X1536Y1092D01*
X1536Y1096D01*
X1534Y1096D01*
X1534Y1098D01*
X1532Y1098D01*
X1532Y1102D01*
X1348Y1102D01*
G37*
D02*
G36*
X730Y1022D02*
X730Y1020D01*
X1244Y1020D01*
X1244Y1022D01*
X730Y1022D01*
G37*
D02*
G36*
X730Y1022D02*
X730Y1020D01*
X1244Y1020D01*
X1244Y1022D01*
X730Y1022D01*
G37*
D02*
G36*
X730Y1020D02*
X730Y994D01*
X1198Y994D01*
X1198Y992D01*
X1208Y992D01*
X1208Y990D01*
X1214Y990D01*
X1214Y988D01*
X1218Y988D01*
X1218Y986D01*
X1222Y986D01*
X1222Y984D01*
X1226Y984D01*
X1226Y982D01*
X1228Y982D01*
X1228Y980D01*
X1230Y980D01*
X1230Y978D01*
X1250Y978D01*
X1250Y980D01*
X1254Y980D01*
X1254Y982D01*
X1258Y982D01*
X1258Y984D01*
X1262Y984D01*
X1262Y986D01*
X1268Y986D01*
X1268Y988D01*
X1270Y988D01*
X1270Y1008D01*
X1264Y1008D01*
X1264Y1010D01*
X1260Y1010D01*
X1260Y1012D01*
X1256Y1012D01*
X1256Y1014D01*
X1252Y1014D01*
X1252Y1016D01*
X1248Y1016D01*
X1248Y1018D01*
X1246Y1018D01*
X1246Y1020D01*
X730Y1020D01*
G37*
D02*
G36*
X730Y994D02*
X730Y982D01*
X750Y982D01*
X750Y984D01*
X752Y984D01*
X752Y986D01*
X756Y986D01*
X756Y988D01*
X760Y988D01*
X760Y990D01*
X766Y990D01*
X766Y992D01*
X776Y992D01*
X776Y994D01*
X730Y994D01*
G37*
D02*
G36*
X798Y994D02*
X798Y992D01*
X808Y992D01*
X808Y990D01*
X814Y990D01*
X814Y988D01*
X818Y988D01*
X818Y986D01*
X822Y986D01*
X822Y984D01*
X826Y984D01*
X826Y982D01*
X850Y982D01*
X850Y984D01*
X852Y984D01*
X852Y986D01*
X856Y986D01*
X856Y988D01*
X860Y988D01*
X860Y990D01*
X866Y990D01*
X866Y992D01*
X876Y992D01*
X876Y994D01*
X798Y994D01*
G37*
D02*
G36*
X898Y994D02*
X898Y992D01*
X908Y992D01*
X908Y990D01*
X914Y990D01*
X914Y988D01*
X918Y988D01*
X918Y986D01*
X922Y986D01*
X922Y984D01*
X926Y984D01*
X926Y982D01*
X950Y982D01*
X950Y984D01*
X952Y984D01*
X952Y986D01*
X956Y986D01*
X956Y988D01*
X960Y988D01*
X960Y990D01*
X966Y990D01*
X966Y992D01*
X976Y992D01*
X976Y994D01*
X898Y994D01*
G37*
D02*
G36*
X998Y994D02*
X998Y992D01*
X1008Y992D01*
X1008Y990D01*
X1014Y990D01*
X1014Y988D01*
X1018Y988D01*
X1018Y986D01*
X1022Y986D01*
X1022Y984D01*
X1026Y984D01*
X1026Y982D01*
X1050Y982D01*
X1050Y984D01*
X1052Y984D01*
X1052Y986D01*
X1056Y986D01*
X1056Y988D01*
X1060Y988D01*
X1060Y990D01*
X1066Y990D01*
X1066Y992D01*
X1076Y992D01*
X1076Y994D01*
X998Y994D01*
G37*
D02*
G36*
X1098Y994D02*
X1098Y992D01*
X1108Y992D01*
X1108Y990D01*
X1114Y990D01*
X1114Y988D01*
X1118Y988D01*
X1118Y986D01*
X1122Y986D01*
X1122Y984D01*
X1126Y984D01*
X1126Y982D01*
X1150Y982D01*
X1150Y984D01*
X1152Y984D01*
X1152Y986D01*
X1156Y986D01*
X1156Y988D01*
X1160Y988D01*
X1160Y990D01*
X1166Y990D01*
X1166Y992D01*
X1176Y992D01*
X1176Y994D01*
X1098Y994D01*
G37*
D02*
G36*
X1736Y876D02*
X1736Y874D01*
X1734Y874D01*
X1734Y872D01*
X1730Y872D01*
X1730Y870D01*
X1728Y870D01*
X1728Y868D01*
X1726Y868D01*
X1726Y866D01*
X1722Y866D01*
X1722Y864D01*
X1718Y864D01*
X1718Y862D01*
X1716Y862D01*
X1716Y860D01*
X1710Y860D01*
X1710Y858D01*
X1704Y858D01*
X1704Y856D01*
X1688Y856D01*
X1688Y854D01*
X1768Y854D01*
X1768Y858D01*
X1766Y858D01*
X1766Y862D01*
X1764Y862D01*
X1764Y864D01*
X1762Y864D01*
X1762Y868D01*
X1760Y868D01*
X1760Y872D01*
X1758Y872D01*
X1758Y874D01*
X1756Y874D01*
X1756Y876D01*
X1736Y876D01*
G37*
D02*
G36*
X1304Y854D02*
X1304Y852D01*
X1770Y852D01*
X1770Y854D01*
X1304Y854D01*
G37*
D02*
G36*
X1304Y854D02*
X1304Y852D01*
X1770Y852D01*
X1770Y854D01*
X1304Y854D01*
G37*
D02*
G36*
X1304Y852D02*
X1304Y838D01*
X1410Y838D01*
X1410Y790D01*
X1648Y790D01*
X1648Y788D01*
X1658Y788D01*
X1658Y786D01*
X1662Y786D01*
X1662Y784D01*
X1668Y784D01*
X1668Y782D01*
X1670Y782D01*
X1670Y780D01*
X1674Y780D01*
X1674Y778D01*
X1676Y778D01*
X1676Y776D01*
X1680Y776D01*
X1680Y774D01*
X1682Y774D01*
X1682Y772D01*
X1684Y772D01*
X1684Y770D01*
X1686Y770D01*
X1686Y768D01*
X1688Y768D01*
X1688Y766D01*
X1690Y766D01*
X1690Y764D01*
X1692Y764D01*
X1692Y760D01*
X1694Y760D01*
X1694Y758D01*
X1696Y758D01*
X1696Y754D01*
X1698Y754D01*
X1698Y750D01*
X1700Y750D01*
X1700Y744D01*
X1702Y744D01*
X1702Y738D01*
X1704Y738D01*
X1704Y706D01*
X1702Y706D01*
X1702Y700D01*
X1700Y700D01*
X1700Y694D01*
X1698Y694D01*
X1698Y690D01*
X1696Y690D01*
X1696Y688D01*
X1694Y688D01*
X1694Y684D01*
X1692Y684D01*
X1692Y682D01*
X1690Y682D01*
X1690Y678D01*
X1688Y678D01*
X1688Y676D01*
X1686Y676D01*
X1686Y674D01*
X1684Y674D01*
X1684Y672D01*
X1682Y672D01*
X1682Y670D01*
X1678Y670D01*
X1678Y668D01*
X1676Y668D01*
X1676Y666D01*
X1672Y666D01*
X1672Y664D01*
X1670Y664D01*
X1670Y662D01*
X1666Y662D01*
X1666Y660D01*
X1660Y660D01*
X1660Y658D01*
X1654Y658D01*
X1654Y656D01*
X1642Y656D01*
X1642Y654D01*
X1968Y654D01*
X1968Y656D01*
X1962Y656D01*
X1962Y658D01*
X1958Y658D01*
X1958Y660D01*
X1954Y660D01*
X1954Y662D01*
X1950Y662D01*
X1950Y664D01*
X1948Y664D01*
X1948Y666D01*
X1944Y666D01*
X1944Y668D01*
X1942Y668D01*
X1942Y670D01*
X1940Y670D01*
X1940Y672D01*
X1938Y672D01*
X1938Y674D01*
X1936Y674D01*
X1936Y676D01*
X1934Y676D01*
X1934Y678D01*
X1932Y678D01*
X1932Y682D01*
X1930Y682D01*
X1930Y684D01*
X1928Y684D01*
X1928Y688D01*
X1926Y688D01*
X1926Y690D01*
X1924Y690D01*
X1924Y694D01*
X1922Y694D01*
X1922Y700D01*
X1920Y700D01*
X1920Y706D01*
X1918Y706D01*
X1918Y738D01*
X1920Y738D01*
X1920Y744D01*
X1922Y744D01*
X1922Y750D01*
X1924Y750D01*
X1924Y754D01*
X1926Y754D01*
X1926Y758D01*
X1928Y758D01*
X1928Y760D01*
X1930Y760D01*
X1930Y782D01*
X1828Y782D01*
X1828Y784D01*
X1822Y784D01*
X1822Y786D01*
X1818Y786D01*
X1818Y788D01*
X1814Y788D01*
X1814Y790D01*
X1810Y790D01*
X1810Y792D01*
X1808Y792D01*
X1808Y794D01*
X1806Y794D01*
X1806Y796D01*
X1804Y796D01*
X1804Y800D01*
X1802Y800D01*
X1802Y802D01*
X1800Y802D01*
X1800Y804D01*
X1798Y804D01*
X1798Y808D01*
X1796Y808D01*
X1796Y812D01*
X1794Y812D01*
X1794Y814D01*
X1792Y814D01*
X1792Y818D01*
X1790Y818D01*
X1790Y822D01*
X1788Y822D01*
X1788Y824D01*
X1786Y824D01*
X1786Y828D01*
X1784Y828D01*
X1784Y832D01*
X1782Y832D01*
X1782Y834D01*
X1780Y834D01*
X1780Y838D01*
X1778Y838D01*
X1778Y842D01*
X1776Y842D01*
X1776Y844D01*
X1774Y844D01*
X1774Y848D01*
X1772Y848D01*
X1772Y852D01*
X1304Y852D01*
G37*
D02*
G36*
X1410Y790D02*
X1410Y654D01*
X1632Y654D01*
X1632Y656D01*
X1620Y656D01*
X1620Y658D01*
X1614Y658D01*
X1614Y660D01*
X1608Y660D01*
X1608Y662D01*
X1604Y662D01*
X1604Y664D01*
X1602Y664D01*
X1602Y666D01*
X1598Y666D01*
X1598Y668D01*
X1596Y668D01*
X1596Y670D01*
X1594Y670D01*
X1594Y672D01*
X1592Y672D01*
X1592Y674D01*
X1588Y674D01*
X1588Y678D01*
X1586Y678D01*
X1586Y680D01*
X1584Y680D01*
X1584Y682D01*
X1582Y682D01*
X1582Y684D01*
X1580Y684D01*
X1580Y688D01*
X1578Y688D01*
X1578Y692D01*
X1576Y692D01*
X1576Y696D01*
X1574Y696D01*
X1574Y702D01*
X1572Y702D01*
X1572Y708D01*
X1570Y708D01*
X1570Y736D01*
X1572Y736D01*
X1572Y744D01*
X1574Y744D01*
X1574Y750D01*
X1576Y750D01*
X1576Y754D01*
X1578Y754D01*
X1578Y756D01*
X1580Y756D01*
X1580Y760D01*
X1582Y760D01*
X1582Y762D01*
X1584Y762D01*
X1584Y766D01*
X1586Y766D01*
X1586Y768D01*
X1588Y768D01*
X1588Y770D01*
X1590Y770D01*
X1590Y772D01*
X1592Y772D01*
X1592Y774D01*
X1594Y774D01*
X1594Y776D01*
X1598Y776D01*
X1598Y778D01*
X1600Y778D01*
X1600Y780D01*
X1604Y780D01*
X1604Y782D01*
X1608Y782D01*
X1608Y784D01*
X1612Y784D01*
X1612Y786D01*
X1618Y786D01*
X1618Y788D01*
X1626Y788D01*
X1626Y790D01*
X1410Y790D01*
G37*
D02*
G36*
X1410Y654D02*
X1410Y652D01*
X1978Y652D01*
X1978Y654D01*
X1410Y654D01*
G37*
D02*
G36*
X1410Y654D02*
X1410Y652D01*
X1978Y652D01*
X1978Y654D01*
X1410Y654D01*
G37*
D02*
G36*
X1410Y652D02*
X1410Y650D01*
X2124Y650D01*
X2124Y652D01*
X1410Y652D01*
G37*
D02*
G36*
X1410Y652D02*
X1410Y650D01*
X2124Y650D01*
X2124Y652D01*
X1410Y652D01*
G37*
D02*
G36*
X1410Y650D02*
X1410Y488D01*
X1944Y488D01*
X1944Y486D01*
X1954Y486D01*
X1954Y484D01*
X1960Y484D01*
X1960Y482D01*
X1966Y482D01*
X1966Y480D01*
X1970Y480D01*
X1970Y478D01*
X1972Y478D01*
X1972Y476D01*
X1976Y476D01*
X1976Y474D01*
X1978Y474D01*
X1978Y472D01*
X1980Y472D01*
X1980Y470D01*
X1982Y470D01*
X1982Y468D01*
X1984Y468D01*
X1984Y466D01*
X1986Y466D01*
X1986Y464D01*
X1988Y464D01*
X1988Y462D01*
X1990Y462D01*
X1990Y458D01*
X1992Y458D01*
X1992Y456D01*
X1994Y456D01*
X1994Y452D01*
X1996Y452D01*
X1996Y448D01*
X1998Y448D01*
X1998Y442D01*
X2000Y442D01*
X2000Y436D01*
X2002Y436D01*
X2002Y410D01*
X2000Y410D01*
X2000Y402D01*
X1998Y402D01*
X1998Y396D01*
X1996Y396D01*
X1996Y392D01*
X1994Y392D01*
X1994Y390D01*
X1992Y390D01*
X1992Y386D01*
X1990Y386D01*
X1990Y384D01*
X1988Y384D01*
X1988Y380D01*
X1986Y380D01*
X1986Y378D01*
X1984Y378D01*
X1984Y376D01*
X1982Y376D01*
X1982Y374D01*
X1980Y374D01*
X1980Y372D01*
X1976Y372D01*
X1976Y370D01*
X1974Y370D01*
X1974Y368D01*
X1970Y368D01*
X1970Y366D01*
X1968Y366D01*
X1968Y364D01*
X1964Y364D01*
X1964Y362D01*
X1958Y362D01*
X1958Y360D01*
X1952Y360D01*
X1952Y358D01*
X2124Y358D01*
X2124Y650D01*
X1410Y650D01*
G37*
D02*
G36*
X1410Y488D02*
X1410Y358D01*
X1824Y358D01*
X1824Y360D01*
X1816Y360D01*
X1816Y362D01*
X1810Y362D01*
X1810Y364D01*
X1806Y364D01*
X1806Y366D01*
X1804Y366D01*
X1804Y368D01*
X1800Y368D01*
X1800Y370D01*
X1798Y370D01*
X1798Y372D01*
X1796Y372D01*
X1796Y374D01*
X1792Y374D01*
X1792Y376D01*
X1790Y376D01*
X1790Y378D01*
X1788Y378D01*
X1788Y382D01*
X1786Y382D01*
X1786Y384D01*
X1784Y384D01*
X1784Y386D01*
X1782Y386D01*
X1782Y390D01*
X1780Y390D01*
X1780Y394D01*
X1778Y394D01*
X1778Y398D01*
X1776Y398D01*
X1776Y404D01*
X1774Y404D01*
X1774Y412D01*
X1772Y412D01*
X1772Y432D01*
X1774Y432D01*
X1774Y442D01*
X1776Y442D01*
X1776Y446D01*
X1778Y446D01*
X1778Y452D01*
X1780Y452D01*
X1780Y454D01*
X1782Y454D01*
X1782Y458D01*
X1784Y458D01*
X1784Y460D01*
X1786Y460D01*
X1786Y464D01*
X1788Y464D01*
X1788Y466D01*
X1790Y466D01*
X1790Y468D01*
X1792Y468D01*
X1792Y470D01*
X1794Y470D01*
X1794Y472D01*
X1796Y472D01*
X1796Y474D01*
X1800Y474D01*
X1800Y476D01*
X1802Y476D01*
X1802Y478D01*
X1806Y478D01*
X1806Y480D01*
X1810Y480D01*
X1810Y482D01*
X1814Y482D01*
X1814Y484D01*
X1820Y484D01*
X1820Y486D01*
X1830Y486D01*
X1830Y488D01*
X1410Y488D01*
G37*
D02*
G36*
X1844Y488D02*
X1844Y486D01*
X1854Y486D01*
X1854Y484D01*
X1860Y484D01*
X1860Y482D01*
X1866Y482D01*
X1866Y480D01*
X1868Y480D01*
X1868Y478D01*
X1872Y478D01*
X1872Y476D01*
X1876Y476D01*
X1876Y474D01*
X1900Y474D01*
X1900Y476D01*
X1902Y476D01*
X1902Y478D01*
X1906Y478D01*
X1906Y480D01*
X1910Y480D01*
X1910Y482D01*
X1914Y482D01*
X1914Y484D01*
X1920Y484D01*
X1920Y486D01*
X1930Y486D01*
X1930Y488D01*
X1844Y488D01*
G37*
D02*
G36*
X1876Y372D02*
X1876Y370D01*
X1874Y370D01*
X1874Y368D01*
X1870Y368D01*
X1870Y366D01*
X1868Y366D01*
X1868Y364D01*
X1864Y364D01*
X1864Y362D01*
X1858Y362D01*
X1858Y360D01*
X1852Y360D01*
X1852Y358D01*
X1924Y358D01*
X1924Y360D01*
X1916Y360D01*
X1916Y362D01*
X1912Y362D01*
X1912Y364D01*
X1908Y364D01*
X1908Y366D01*
X1904Y366D01*
X1904Y368D01*
X1900Y368D01*
X1900Y370D01*
X1898Y370D01*
X1898Y372D01*
X1876Y372D01*
G37*
D02*
G36*
X1410Y358D02*
X1410Y356D01*
X2124Y356D01*
X2124Y358D01*
X1410Y358D01*
G37*
D02*
G36*
X1410Y358D02*
X1410Y356D01*
X2124Y356D01*
X2124Y358D01*
X1410Y358D01*
G37*
D02*
G36*
X1410Y358D02*
X1410Y356D01*
X2124Y356D01*
X2124Y358D01*
X1410Y358D01*
G37*
D02*
G36*
X1410Y356D02*
X1410Y240D01*
X2004Y240D01*
X2004Y104D01*
X2124Y104D01*
X2124Y356D01*
X1410Y356D01*
G37*
D02*
G36*
X1410Y240D02*
X1410Y190D01*
X1648Y190D01*
X1648Y188D01*
X1658Y188D01*
X1658Y186D01*
X1662Y186D01*
X1662Y184D01*
X1668Y184D01*
X1668Y182D01*
X1670Y182D01*
X1670Y180D01*
X1674Y180D01*
X1674Y178D01*
X1676Y178D01*
X1676Y176D01*
X1680Y176D01*
X1680Y174D01*
X1682Y174D01*
X1682Y172D01*
X1684Y172D01*
X1684Y170D01*
X1686Y170D01*
X1686Y168D01*
X1688Y168D01*
X1688Y166D01*
X1690Y166D01*
X1690Y164D01*
X1692Y164D01*
X1692Y160D01*
X1694Y160D01*
X1694Y158D01*
X1696Y158D01*
X1696Y154D01*
X1698Y154D01*
X1698Y150D01*
X1700Y150D01*
X1700Y144D01*
X1702Y144D01*
X1702Y138D01*
X1704Y138D01*
X1704Y106D01*
X1702Y106D01*
X1702Y104D01*
X1836Y104D01*
X1836Y106D01*
X1820Y106D01*
X1820Y108D01*
X1814Y108D01*
X1814Y110D01*
X1810Y110D01*
X1810Y112D01*
X1806Y112D01*
X1806Y114D01*
X1802Y114D01*
X1802Y116D01*
X1798Y116D01*
X1798Y118D01*
X1796Y118D01*
X1796Y120D01*
X1794Y120D01*
X1794Y122D01*
X1792Y122D01*
X1792Y124D01*
X1790Y124D01*
X1790Y126D01*
X1788Y126D01*
X1788Y128D01*
X1786Y128D01*
X1786Y130D01*
X1784Y130D01*
X1784Y132D01*
X1782Y132D01*
X1782Y136D01*
X1780Y136D01*
X1780Y138D01*
X1778Y138D01*
X1778Y142D01*
X1776Y142D01*
X1776Y146D01*
X1774Y146D01*
X1774Y152D01*
X1772Y152D01*
X1772Y160D01*
X1770Y160D01*
X1770Y186D01*
X1772Y186D01*
X1772Y194D01*
X1774Y194D01*
X1774Y198D01*
X1776Y198D01*
X1776Y202D01*
X1778Y202D01*
X1778Y206D01*
X1780Y206D01*
X1780Y210D01*
X1782Y210D01*
X1782Y212D01*
X1784Y212D01*
X1784Y214D01*
X1786Y214D01*
X1786Y218D01*
X1788Y218D01*
X1788Y220D01*
X1790Y220D01*
X1790Y222D01*
X1792Y222D01*
X1792Y224D01*
X1796Y224D01*
X1796Y226D01*
X1798Y226D01*
X1798Y228D01*
X1800Y228D01*
X1800Y230D01*
X1804Y230D01*
X1804Y232D01*
X1808Y232D01*
X1808Y234D01*
X1812Y234D01*
X1812Y236D01*
X1818Y236D01*
X1818Y238D01*
X1826Y238D01*
X1826Y240D01*
X1410Y240D01*
G37*
D02*
G36*
X1848Y240D02*
X1848Y238D01*
X1870Y238D01*
X1870Y240D01*
X1848Y240D01*
G37*
D02*
G36*
X1410Y190D02*
X1410Y42D01*
X1608Y42D01*
X1608Y62D01*
X1604Y62D01*
X1604Y64D01*
X1602Y64D01*
X1602Y66D01*
X1598Y66D01*
X1598Y68D01*
X1596Y68D01*
X1596Y70D01*
X1594Y70D01*
X1594Y72D01*
X1592Y72D01*
X1592Y74D01*
X1588Y74D01*
X1588Y78D01*
X1586Y78D01*
X1586Y80D01*
X1584Y80D01*
X1584Y82D01*
X1582Y82D01*
X1582Y84D01*
X1580Y84D01*
X1580Y88D01*
X1578Y88D01*
X1578Y92D01*
X1576Y92D01*
X1576Y96D01*
X1574Y96D01*
X1574Y102D01*
X1572Y102D01*
X1572Y108D01*
X1570Y108D01*
X1570Y136D01*
X1572Y136D01*
X1572Y144D01*
X1574Y144D01*
X1574Y150D01*
X1576Y150D01*
X1576Y154D01*
X1578Y154D01*
X1578Y156D01*
X1580Y156D01*
X1580Y160D01*
X1582Y160D01*
X1582Y162D01*
X1584Y162D01*
X1584Y166D01*
X1586Y166D01*
X1586Y168D01*
X1588Y168D01*
X1588Y170D01*
X1590Y170D01*
X1590Y172D01*
X1592Y172D01*
X1592Y174D01*
X1594Y174D01*
X1594Y176D01*
X1598Y176D01*
X1598Y178D01*
X1600Y178D01*
X1600Y180D01*
X1604Y180D01*
X1604Y182D01*
X1608Y182D01*
X1608Y184D01*
X1612Y184D01*
X1612Y186D01*
X1618Y186D01*
X1618Y188D01*
X1626Y188D01*
X1626Y190D01*
X1410Y190D01*
G37*
D02*
G36*
X1838Y106D02*
X1838Y104D01*
X1870Y104D01*
X1870Y106D01*
X1838Y106D01*
G37*
D02*
G36*
X1702Y104D02*
X1702Y102D01*
X2124Y102D01*
X2124Y104D01*
X1702Y104D01*
G37*
D02*
G36*
X1702Y104D02*
X1702Y102D01*
X2124Y102D01*
X2124Y104D01*
X1702Y104D01*
G37*
D02*
G36*
X1702Y104D02*
X1702Y102D01*
X2124Y102D01*
X2124Y104D01*
X1702Y104D01*
G37*
D02*
G36*
X1702Y102D02*
X1702Y100D01*
X1700Y100D01*
X1700Y94D01*
X1698Y94D01*
X1698Y90D01*
X1696Y90D01*
X1696Y88D01*
X1694Y88D01*
X1694Y84D01*
X1692Y84D01*
X1692Y82D01*
X1690Y82D01*
X1690Y78D01*
X1688Y78D01*
X1688Y76D01*
X1686Y76D01*
X1686Y74D01*
X1684Y74D01*
X1684Y72D01*
X1682Y72D01*
X1682Y70D01*
X1678Y70D01*
X1678Y68D01*
X1676Y68D01*
X1676Y66D01*
X1672Y66D01*
X1672Y64D01*
X1670Y64D01*
X1670Y62D01*
X1666Y62D01*
X1666Y42D01*
X2124Y42D01*
X2124Y102D01*
X1702Y102D01*
G37*
D02*
G36*
X1302Y1848D02*
X1302Y1396D01*
X1538Y1396D01*
X1538Y1408D01*
X1540Y1408D01*
X1540Y1430D01*
X1542Y1430D01*
X1542Y1452D01*
X1544Y1452D01*
X1544Y1626D01*
X1546Y1626D01*
X1546Y1636D01*
X1548Y1636D01*
X1548Y1642D01*
X1550Y1642D01*
X1550Y1646D01*
X1552Y1646D01*
X1552Y1648D01*
X1554Y1648D01*
X1554Y1650D01*
X1556Y1650D01*
X1556Y1652D01*
X1558Y1652D01*
X1558Y1654D01*
X1560Y1654D01*
X1560Y1656D01*
X1562Y1656D01*
X1562Y1658D01*
X1564Y1658D01*
X1564Y1660D01*
X1566Y1660D01*
X1566Y1662D01*
X1568Y1662D01*
X1568Y1664D01*
X1570Y1664D01*
X1570Y1666D01*
X1572Y1666D01*
X1572Y1668D01*
X1574Y1668D01*
X1574Y1670D01*
X1576Y1670D01*
X1576Y1672D01*
X1578Y1672D01*
X1578Y1674D01*
X1580Y1674D01*
X1580Y1676D01*
X1582Y1676D01*
X1582Y1678D01*
X1584Y1678D01*
X1584Y1680D01*
X1586Y1680D01*
X1586Y1682D01*
X1588Y1682D01*
X1588Y1684D01*
X1590Y1684D01*
X1590Y1686D01*
X1592Y1686D01*
X1592Y1688D01*
X1594Y1688D01*
X1594Y1690D01*
X1596Y1690D01*
X1596Y1692D01*
X1598Y1692D01*
X1598Y1694D01*
X1600Y1694D01*
X1600Y1696D01*
X1602Y1696D01*
X1602Y1698D01*
X1604Y1698D01*
X1604Y1700D01*
X1606Y1700D01*
X1606Y1702D01*
X1608Y1702D01*
X1608Y1704D01*
X1610Y1704D01*
X1610Y1706D01*
X1612Y1706D01*
X1612Y1708D01*
X1614Y1708D01*
X1614Y1710D01*
X1616Y1710D01*
X1616Y1712D01*
X1618Y1712D01*
X1618Y1714D01*
X1620Y1714D01*
X1620Y1716D01*
X1622Y1716D01*
X1622Y1718D01*
X1624Y1718D01*
X1624Y1720D01*
X1626Y1720D01*
X1626Y1722D01*
X1628Y1722D01*
X1628Y1724D01*
X1630Y1724D01*
X1630Y1726D01*
X1632Y1726D01*
X1632Y1728D01*
X1634Y1728D01*
X1634Y1730D01*
X1636Y1730D01*
X1636Y1732D01*
X1638Y1732D01*
X1638Y1734D01*
X1640Y1734D01*
X1640Y1736D01*
X1642Y1736D01*
X1642Y1738D01*
X1644Y1738D01*
X1644Y1740D01*
X1646Y1740D01*
X1646Y1742D01*
X1648Y1742D01*
X1648Y1744D01*
X1650Y1744D01*
X1650Y1746D01*
X1652Y1746D01*
X1652Y1748D01*
X1654Y1748D01*
X1654Y1750D01*
X1656Y1750D01*
X1656Y1752D01*
X1658Y1752D01*
X1658Y1754D01*
X1660Y1754D01*
X1660Y1756D01*
X1662Y1756D01*
X1662Y1758D01*
X1664Y1758D01*
X1664Y1760D01*
X1668Y1760D01*
X1668Y1762D01*
X1672Y1762D01*
X1672Y1764D01*
X1678Y1764D01*
X1678Y1766D01*
X1838Y1766D01*
X1838Y1848D01*
X1302Y1848D01*
G37*
D02*
G36*
X1704Y1682D02*
X1704Y1680D01*
X1702Y1680D01*
X1702Y1678D01*
X1700Y1678D01*
X1700Y1676D01*
X1698Y1676D01*
X1698Y1674D01*
X1696Y1674D01*
X1696Y1672D01*
X1694Y1672D01*
X1694Y1670D01*
X1692Y1670D01*
X1692Y1668D01*
X1690Y1668D01*
X1690Y1666D01*
X1688Y1666D01*
X1688Y1664D01*
X1686Y1664D01*
X1686Y1662D01*
X1684Y1662D01*
X1684Y1660D01*
X1682Y1660D01*
X1682Y1658D01*
X1680Y1658D01*
X1680Y1656D01*
X1678Y1656D01*
X1678Y1654D01*
X1676Y1654D01*
X1676Y1652D01*
X1674Y1652D01*
X1674Y1650D01*
X1672Y1650D01*
X1672Y1648D01*
X1670Y1648D01*
X1670Y1646D01*
X1668Y1646D01*
X1668Y1644D01*
X1666Y1644D01*
X1666Y1642D01*
X1664Y1642D01*
X1664Y1640D01*
X1662Y1640D01*
X1662Y1638D01*
X1660Y1638D01*
X1660Y1636D01*
X1658Y1636D01*
X1658Y1634D01*
X1656Y1634D01*
X1656Y1632D01*
X1654Y1632D01*
X1654Y1630D01*
X1652Y1630D01*
X1652Y1628D01*
X1650Y1628D01*
X1650Y1626D01*
X1648Y1626D01*
X1648Y1624D01*
X1646Y1624D01*
X1646Y1622D01*
X1644Y1622D01*
X1644Y1620D01*
X1642Y1620D01*
X1642Y1618D01*
X1640Y1618D01*
X1640Y1616D01*
X1638Y1616D01*
X1638Y1614D01*
X1636Y1614D01*
X1636Y1612D01*
X1634Y1612D01*
X1634Y1610D01*
X1632Y1610D01*
X1632Y1608D01*
X1630Y1608D01*
X1630Y1606D01*
X1628Y1606D01*
X1628Y1448D01*
X1626Y1448D01*
X1626Y1426D01*
X1624Y1426D01*
X1624Y1396D01*
X1838Y1396D01*
X1838Y1682D01*
X1704Y1682D01*
G37*
D02*
G36*
X1566Y1248D02*
X1566Y1222D01*
X1568Y1222D01*
X1568Y1216D01*
X1570Y1216D01*
X1570Y1208D01*
X1572Y1208D01*
X1572Y1202D01*
X1574Y1202D01*
X1574Y1194D01*
X1576Y1194D01*
X1576Y1188D01*
X1578Y1188D01*
X1578Y1186D01*
X1580Y1186D01*
X1580Y1182D01*
X1582Y1182D01*
X1582Y1178D01*
X1584Y1178D01*
X1584Y1176D01*
X1586Y1176D01*
X1586Y1172D01*
X1588Y1172D01*
X1588Y1168D01*
X1590Y1168D01*
X1590Y1166D01*
X1592Y1166D01*
X1592Y1162D01*
X1594Y1162D01*
X1594Y1158D01*
X1596Y1158D01*
X1596Y1156D01*
X1598Y1156D01*
X1598Y1152D01*
X1600Y1152D01*
X1600Y1148D01*
X1602Y1148D01*
X1602Y1146D01*
X1604Y1146D01*
X1604Y1142D01*
X1606Y1142D01*
X1606Y1140D01*
X1698Y1140D01*
X1698Y1138D01*
X1706Y1138D01*
X1706Y1136D01*
X1712Y1136D01*
X1712Y1134D01*
X1716Y1134D01*
X1716Y1132D01*
X1720Y1132D01*
X1720Y1130D01*
X1724Y1130D01*
X1724Y1128D01*
X1726Y1128D01*
X1726Y1126D01*
X1730Y1126D01*
X1730Y1124D01*
X1732Y1124D01*
X1732Y1122D01*
X1734Y1122D01*
X1734Y1120D01*
X1736Y1120D01*
X1736Y1118D01*
X1738Y1118D01*
X1738Y1116D01*
X1740Y1116D01*
X1740Y1112D01*
X1742Y1112D01*
X1742Y1110D01*
X1744Y1110D01*
X1744Y1106D01*
X1746Y1106D01*
X1746Y1104D01*
X1748Y1104D01*
X1748Y1100D01*
X1750Y1100D01*
X1750Y1094D01*
X1752Y1094D01*
X1752Y1088D01*
X1754Y1088D01*
X1754Y1042D01*
X1756Y1042D01*
X1756Y1038D01*
X1758Y1038D01*
X1758Y1034D01*
X1760Y1034D01*
X1760Y1032D01*
X1762Y1032D01*
X1762Y1028D01*
X1764Y1028D01*
X1764Y1024D01*
X1766Y1024D01*
X1766Y1022D01*
X1768Y1022D01*
X1768Y1018D01*
X1770Y1018D01*
X1770Y1014D01*
X1772Y1014D01*
X1772Y1012D01*
X1774Y1012D01*
X1774Y1008D01*
X1776Y1008D01*
X1776Y1004D01*
X1778Y1004D01*
X1778Y1002D01*
X1780Y1002D01*
X1780Y998D01*
X1782Y998D01*
X1782Y994D01*
X1784Y994D01*
X1784Y992D01*
X1786Y992D01*
X1786Y988D01*
X1788Y988D01*
X1788Y984D01*
X1790Y984D01*
X1790Y982D01*
X1792Y982D01*
X1792Y978D01*
X1794Y978D01*
X1794Y974D01*
X1796Y974D01*
X1796Y972D01*
X1798Y972D01*
X1798Y968D01*
X1800Y968D01*
X1800Y964D01*
X1802Y964D01*
X1802Y962D01*
X1804Y962D01*
X1804Y958D01*
X1806Y958D01*
X1806Y954D01*
X1808Y954D01*
X1808Y952D01*
X1810Y952D01*
X1810Y948D01*
X1812Y948D01*
X1812Y944D01*
X1814Y944D01*
X1814Y942D01*
X1816Y942D01*
X1816Y938D01*
X1818Y938D01*
X1818Y934D01*
X1820Y934D01*
X1820Y932D01*
X1840Y932D01*
X1840Y936D01*
X1838Y936D01*
X1838Y942D01*
X1836Y942D01*
X1836Y948D01*
X1834Y948D01*
X1834Y954D01*
X1832Y954D01*
X1832Y960D01*
X1830Y960D01*
X1830Y964D01*
X1828Y964D01*
X1828Y970D01*
X1826Y970D01*
X1826Y976D01*
X1824Y976D01*
X1824Y982D01*
X1822Y982D01*
X1822Y988D01*
X1820Y988D01*
X1820Y994D01*
X1818Y994D01*
X1818Y1000D01*
X1816Y1000D01*
X1816Y1006D01*
X1814Y1006D01*
X1814Y1010D01*
X1812Y1010D01*
X1812Y1016D01*
X1810Y1016D01*
X1810Y1022D01*
X1808Y1022D01*
X1808Y1028D01*
X1806Y1028D01*
X1806Y1034D01*
X1804Y1034D01*
X1804Y1040D01*
X1802Y1040D01*
X1802Y1046D01*
X1800Y1046D01*
X1800Y1052D01*
X1798Y1052D01*
X1798Y1058D01*
X1796Y1058D01*
X1796Y1062D01*
X1794Y1062D01*
X1794Y1066D01*
X1792Y1066D01*
X1792Y1072D01*
X1790Y1072D01*
X1790Y1076D01*
X1788Y1076D01*
X1788Y1082D01*
X1786Y1082D01*
X1786Y1086D01*
X1784Y1086D01*
X1784Y1090D01*
X1782Y1090D01*
X1782Y1096D01*
X1780Y1096D01*
X1780Y1100D01*
X1778Y1100D01*
X1778Y1104D01*
X1776Y1104D01*
X1776Y1110D01*
X1774Y1110D01*
X1774Y1114D01*
X1772Y1114D01*
X1772Y1120D01*
X1770Y1120D01*
X1770Y1124D01*
X1768Y1124D01*
X1768Y1128D01*
X1766Y1128D01*
X1766Y1134D01*
X1764Y1134D01*
X1764Y1138D01*
X1762Y1138D01*
X1762Y1142D01*
X1760Y1142D01*
X1760Y1148D01*
X1758Y1148D01*
X1758Y1152D01*
X1756Y1152D01*
X1756Y1158D01*
X1754Y1158D01*
X1754Y1162D01*
X1752Y1162D01*
X1752Y1166D01*
X1750Y1166D01*
X1750Y1172D01*
X1748Y1172D01*
X1748Y1176D01*
X1746Y1176D01*
X1746Y1180D01*
X1744Y1180D01*
X1744Y1186D01*
X1742Y1186D01*
X1742Y1190D01*
X1740Y1190D01*
X1740Y1194D01*
X1738Y1194D01*
X1738Y1200D01*
X1736Y1200D01*
X1736Y1204D01*
X1734Y1204D01*
X1734Y1210D01*
X1732Y1210D01*
X1732Y1214D01*
X1730Y1214D01*
X1730Y1218D01*
X1728Y1218D01*
X1728Y1224D01*
X1726Y1224D01*
X1726Y1228D01*
X1724Y1228D01*
X1724Y1232D01*
X1722Y1232D01*
X1722Y1238D01*
X1720Y1238D01*
X1720Y1242D01*
X1718Y1242D01*
X1718Y1248D01*
X1566Y1248D01*
G37*
D02*
G36*
X1606Y1140D02*
X1606Y1138D01*
X1608Y1138D01*
X1608Y1136D01*
X1610Y1136D01*
X1610Y1132D01*
X1612Y1132D01*
X1612Y1128D01*
X1614Y1128D01*
X1614Y1124D01*
X1616Y1124D01*
X1616Y1122D01*
X1618Y1122D01*
X1618Y1118D01*
X1638Y1118D01*
X1638Y1120D01*
X1640Y1120D01*
X1640Y1122D01*
X1642Y1122D01*
X1642Y1124D01*
X1646Y1124D01*
X1646Y1126D01*
X1648Y1126D01*
X1648Y1128D01*
X1650Y1128D01*
X1650Y1130D01*
X1654Y1130D01*
X1654Y1132D01*
X1658Y1132D01*
X1658Y1134D01*
X1662Y1134D01*
X1662Y1136D01*
X1668Y1136D01*
X1668Y1138D01*
X1676Y1138D01*
X1676Y1140D01*
X1606Y1140D01*
G37*
D02*
G36*
X1230Y866D02*
X1230Y864D01*
X1226Y864D01*
X1226Y862D01*
X1224Y862D01*
X1224Y860D01*
X1220Y860D01*
X1220Y858D01*
X1216Y858D01*
X1216Y838D01*
X1270Y838D01*
X1270Y858D01*
X1264Y858D01*
X1264Y860D01*
X1260Y860D01*
X1260Y862D01*
X1256Y862D01*
X1256Y864D01*
X1252Y864D01*
X1252Y866D01*
X1230Y866D01*
G37*
D02*
G36*
X962Y904D02*
X1009Y904D01*
X1009Y850D01*
X962Y850D01*
X962Y904D01*
G37*
D02*
G36*
X1915Y492D02*
X1956Y492D01*
X1956Y440D01*
X1915Y440D01*
X1915Y492D01*
G37*
D02*
G36*
X1915Y410D02*
X1956Y410D01*
X1956Y358D01*
X1915Y358D01*
X1915Y410D01*
G37*
D02*
G36*
X1950Y445D02*
X2002Y445D01*
X2002Y404D01*
X1950Y404D01*
X1950Y445D01*
G37*
D02*
G36*
X1946Y2323D02*
X1994Y2323D01*
X1994Y2282D01*
X1946Y2282D01*
X1946Y2323D01*
G37*
D02*
G36*
X1961Y706D02*
X2006Y706D01*
X2006Y652D01*
X1961Y652D01*
X1961Y706D01*
G37*
D02*
G36*
X1914Y747D02*
X1964Y747D01*
X1964Y702D01*
X1914Y702D01*
X1914Y747D01*
G37*
D02*
G36*
X2002Y747D02*
X2058Y747D01*
X2058Y702D01*
X2002Y702D01*
X2002Y747D01*
G37*
D02*
G36*
X1914Y244D02*
X1957Y244D01*
X1957Y194D01*
X1914Y194D01*
X1914Y244D01*
G37*
D02*
G36*
X1914Y160D02*
X1957Y160D01*
X1957Y104D01*
X1914Y104D01*
X1914Y160D01*
G37*
D02*
G36*
X1952Y198D02*
X2004Y198D01*
X2004Y155D01*
X1952Y155D01*
X1952Y198D01*
G37*
D02*
G54D22*
X1235Y1967D02*
X1281Y1967D01*
X1313Y1967D02*
X1360Y1967D01*
X1392Y1967D02*
X1438Y1967D01*
X1471Y1967D02*
X1517Y1967D01*
X1550Y1967D02*
X1596Y1967D01*
X1628Y1967D02*
X1675Y1967D01*
X1707Y1967D02*
X1753Y1967D01*
X1786Y1967D02*
X1832Y1967D01*
X1235Y1966D02*
X1281Y1966D01*
X1313Y1966D02*
X1360Y1966D01*
X1392Y1966D02*
X1438Y1966D01*
X1471Y1966D02*
X1517Y1966D01*
X1550Y1966D02*
X1596Y1966D01*
X1628Y1966D02*
X1675Y1966D01*
X1707Y1966D02*
X1753Y1966D01*
X1786Y1966D02*
X1832Y1966D01*
X1235Y1965D02*
X1281Y1965D01*
X1313Y1965D02*
X1360Y1965D01*
X1392Y1965D02*
X1438Y1965D01*
X1471Y1965D02*
X1517Y1965D01*
X1550Y1965D02*
X1596Y1965D01*
X1628Y1965D02*
X1675Y1965D01*
X1707Y1965D02*
X1753Y1965D01*
X1786Y1965D02*
X1832Y1965D01*
X1235Y1964D02*
X1281Y1964D01*
X1313Y1964D02*
X1360Y1964D01*
X1392Y1964D02*
X1438Y1964D01*
X1471Y1964D02*
X1517Y1964D01*
X1550Y1964D02*
X1596Y1964D01*
X1628Y1964D02*
X1675Y1964D01*
X1707Y1964D02*
X1753Y1964D01*
X1786Y1964D02*
X1832Y1964D01*
X1235Y1963D02*
X1281Y1963D01*
X1313Y1963D02*
X1360Y1963D01*
X1392Y1963D02*
X1438Y1963D01*
X1471Y1963D02*
X1517Y1963D01*
X1550Y1963D02*
X1596Y1963D01*
X1628Y1963D02*
X1675Y1963D01*
X1707Y1963D02*
X1753Y1963D01*
X1786Y1963D02*
X1832Y1963D01*
X1235Y1962D02*
X1281Y1962D01*
X1313Y1962D02*
X1360Y1962D01*
X1392Y1962D02*
X1438Y1962D01*
X1471Y1962D02*
X1517Y1962D01*
X1550Y1962D02*
X1596Y1962D01*
X1628Y1962D02*
X1675Y1962D01*
X1707Y1962D02*
X1753Y1962D01*
X1786Y1962D02*
X1832Y1962D01*
X1235Y1961D02*
X1281Y1961D01*
X1313Y1961D02*
X1360Y1961D01*
X1392Y1961D02*
X1438Y1961D01*
X1471Y1961D02*
X1517Y1961D01*
X1550Y1961D02*
X1596Y1961D01*
X1628Y1961D02*
X1675Y1961D01*
X1707Y1961D02*
X1753Y1961D01*
X1786Y1961D02*
X1832Y1961D01*
X1235Y1960D02*
X1281Y1960D01*
X1313Y1960D02*
X1360Y1960D01*
X1392Y1960D02*
X1438Y1960D01*
X1471Y1960D02*
X1517Y1960D01*
X1550Y1960D02*
X1596Y1960D01*
X1628Y1960D02*
X1675Y1960D01*
X1707Y1960D02*
X1753Y1960D01*
X1786Y1960D02*
X1832Y1960D01*
X1235Y1959D02*
X1281Y1959D01*
X1313Y1959D02*
X1360Y1959D01*
X1392Y1959D02*
X1438Y1959D01*
X1471Y1959D02*
X1517Y1959D01*
X1550Y1959D02*
X1596Y1959D01*
X1628Y1959D02*
X1675Y1959D01*
X1707Y1959D02*
X1753Y1959D01*
X1786Y1959D02*
X1832Y1959D01*
X1235Y1958D02*
X1281Y1958D01*
X1313Y1958D02*
X1360Y1958D01*
X1392Y1958D02*
X1438Y1958D01*
X1471Y1958D02*
X1517Y1958D01*
X1550Y1958D02*
X1596Y1958D01*
X1628Y1958D02*
X1675Y1958D01*
X1707Y1958D02*
X1753Y1958D01*
X1786Y1958D02*
X1832Y1958D01*
X1235Y1957D02*
X1281Y1957D01*
X1313Y1957D02*
X1360Y1957D01*
X1392Y1957D02*
X1438Y1957D01*
X1471Y1957D02*
X1517Y1957D01*
X1550Y1957D02*
X1596Y1957D01*
X1628Y1957D02*
X1675Y1957D01*
X1707Y1957D02*
X1753Y1957D01*
X1786Y1957D02*
X1832Y1957D01*
X1235Y1956D02*
X1281Y1956D01*
X1313Y1956D02*
X1360Y1956D01*
X1392Y1956D02*
X1438Y1956D01*
X1471Y1956D02*
X1517Y1956D01*
X1550Y1956D02*
X1596Y1956D01*
X1628Y1956D02*
X1675Y1956D01*
X1707Y1956D02*
X1753Y1956D01*
X1786Y1956D02*
X1832Y1956D01*
X1235Y1955D02*
X1281Y1955D01*
X1313Y1955D02*
X1360Y1955D01*
X1392Y1955D02*
X1438Y1955D01*
X1471Y1955D02*
X1517Y1955D01*
X1550Y1955D02*
X1596Y1955D01*
X1628Y1955D02*
X1675Y1955D01*
X1707Y1955D02*
X1753Y1955D01*
X1786Y1955D02*
X1832Y1955D01*
X1235Y1954D02*
X1281Y1954D01*
X1313Y1954D02*
X1360Y1954D01*
X1392Y1954D02*
X1438Y1954D01*
X1471Y1954D02*
X1517Y1954D01*
X1550Y1954D02*
X1596Y1954D01*
X1628Y1954D02*
X1675Y1954D01*
X1707Y1954D02*
X1753Y1954D01*
X1786Y1954D02*
X1832Y1954D01*
X1235Y1953D02*
X1281Y1953D01*
X1313Y1953D02*
X1360Y1953D01*
X1392Y1953D02*
X1438Y1953D01*
X1471Y1953D02*
X1517Y1953D01*
X1550Y1953D02*
X1596Y1953D01*
X1628Y1953D02*
X1675Y1953D01*
X1707Y1953D02*
X1753Y1953D01*
X1786Y1953D02*
X1832Y1953D01*
X1235Y1952D02*
X1281Y1952D01*
X1313Y1952D02*
X1360Y1952D01*
X1392Y1952D02*
X1438Y1952D01*
X1471Y1952D02*
X1517Y1952D01*
X1550Y1952D02*
X1596Y1952D01*
X1628Y1952D02*
X1675Y1952D01*
X1707Y1952D02*
X1753Y1952D01*
X1786Y1952D02*
X1832Y1952D01*
X1235Y1951D02*
X1281Y1951D01*
X1313Y1951D02*
X1360Y1951D01*
X1392Y1951D02*
X1438Y1951D01*
X1471Y1951D02*
X1517Y1951D01*
X1550Y1951D02*
X1596Y1951D01*
X1628Y1951D02*
X1675Y1951D01*
X1707Y1951D02*
X1753Y1951D01*
X1786Y1951D02*
X1832Y1951D01*
X1235Y1950D02*
X1281Y1950D01*
X1313Y1950D02*
X1360Y1950D01*
X1392Y1950D02*
X1438Y1950D01*
X1471Y1950D02*
X1517Y1950D01*
X1550Y1950D02*
X1596Y1950D01*
X1628Y1950D02*
X1675Y1950D01*
X1707Y1950D02*
X1753Y1950D01*
X1786Y1950D02*
X1832Y1950D01*
X1235Y1949D02*
X1281Y1949D01*
X1313Y1949D02*
X1360Y1949D01*
X1392Y1949D02*
X1438Y1949D01*
X1471Y1949D02*
X1517Y1949D01*
X1550Y1949D02*
X1596Y1949D01*
X1628Y1949D02*
X1675Y1949D01*
X1707Y1949D02*
X1753Y1949D01*
X1786Y1949D02*
X1832Y1949D01*
X1235Y1948D02*
X1281Y1948D01*
X1313Y1948D02*
X1360Y1948D01*
X1392Y1948D02*
X1438Y1948D01*
X1471Y1948D02*
X1517Y1948D01*
X1550Y1948D02*
X1596Y1948D01*
X1628Y1948D02*
X1675Y1948D01*
X1707Y1948D02*
X1753Y1948D01*
X1786Y1948D02*
X1832Y1948D01*
X1235Y1947D02*
X1281Y1947D01*
X1313Y1947D02*
X1360Y1947D01*
X1392Y1947D02*
X1438Y1947D01*
X1471Y1947D02*
X1517Y1947D01*
X1550Y1947D02*
X1596Y1947D01*
X1628Y1947D02*
X1675Y1947D01*
X1707Y1947D02*
X1753Y1947D01*
X1786Y1947D02*
X1832Y1947D01*
X1235Y1946D02*
X1281Y1946D01*
X1313Y1946D02*
X1360Y1946D01*
X1392Y1946D02*
X1438Y1946D01*
X1471Y1946D02*
X1517Y1946D01*
X1550Y1946D02*
X1596Y1946D01*
X1628Y1946D02*
X1675Y1946D01*
X1707Y1946D02*
X1753Y1946D01*
X1786Y1946D02*
X1832Y1946D01*
X1235Y1945D02*
X1281Y1945D01*
X1313Y1945D02*
X1360Y1945D01*
X1392Y1945D02*
X1438Y1945D01*
X1471Y1945D02*
X1517Y1945D01*
X1550Y1945D02*
X1596Y1945D01*
X1628Y1945D02*
X1675Y1945D01*
X1707Y1945D02*
X1753Y1945D01*
X1786Y1945D02*
X1832Y1945D01*
X1235Y1944D02*
X1281Y1944D01*
X1313Y1944D02*
X1360Y1944D01*
X1392Y1944D02*
X1438Y1944D01*
X1471Y1944D02*
X1517Y1944D01*
X1550Y1944D02*
X1596Y1944D01*
X1628Y1944D02*
X1675Y1944D01*
X1707Y1944D02*
X1753Y1944D01*
X1786Y1944D02*
X1832Y1944D01*
X1235Y1943D02*
X1281Y1943D01*
X1313Y1943D02*
X1360Y1943D01*
X1392Y1943D02*
X1438Y1943D01*
X1471Y1943D02*
X1517Y1943D01*
X1550Y1943D02*
X1596Y1943D01*
X1628Y1943D02*
X1675Y1943D01*
X1707Y1943D02*
X1753Y1943D01*
X1786Y1943D02*
X1832Y1943D01*
X1235Y1942D02*
X1281Y1942D01*
X1313Y1942D02*
X1360Y1942D01*
X1392Y1942D02*
X1438Y1942D01*
X1471Y1942D02*
X1517Y1942D01*
X1550Y1942D02*
X1596Y1942D01*
X1628Y1942D02*
X1675Y1942D01*
X1707Y1942D02*
X1753Y1942D01*
X1786Y1942D02*
X1832Y1942D01*
X1235Y1941D02*
X1281Y1941D01*
X1313Y1941D02*
X1360Y1941D01*
X1392Y1941D02*
X1438Y1941D01*
X1471Y1941D02*
X1517Y1941D01*
X1550Y1941D02*
X1596Y1941D01*
X1628Y1941D02*
X1675Y1941D01*
X1707Y1941D02*
X1753Y1941D01*
X1786Y1941D02*
X1832Y1941D01*
X1235Y1940D02*
X1281Y1940D01*
X1313Y1940D02*
X1360Y1940D01*
X1392Y1940D02*
X1438Y1940D01*
X1471Y1940D02*
X1517Y1940D01*
X1550Y1940D02*
X1596Y1940D01*
X1628Y1940D02*
X1675Y1940D01*
X1707Y1940D02*
X1753Y1940D01*
X1786Y1940D02*
X1832Y1940D01*
X1235Y1939D02*
X1281Y1939D01*
X1313Y1939D02*
X1360Y1939D01*
X1392Y1939D02*
X1438Y1939D01*
X1471Y1939D02*
X1517Y1939D01*
X1550Y1939D02*
X1596Y1939D01*
X1628Y1939D02*
X1675Y1939D01*
X1707Y1939D02*
X1753Y1939D01*
X1786Y1939D02*
X1832Y1939D01*
X1235Y1938D02*
X1281Y1938D01*
X1313Y1938D02*
X1360Y1938D01*
X1392Y1938D02*
X1438Y1938D01*
X1471Y1938D02*
X1517Y1938D01*
X1550Y1938D02*
X1596Y1938D01*
X1628Y1938D02*
X1675Y1938D01*
X1707Y1938D02*
X1753Y1938D01*
X1786Y1938D02*
X1832Y1938D01*
X1235Y1937D02*
X1281Y1937D01*
X1313Y1937D02*
X1360Y1937D01*
X1392Y1937D02*
X1438Y1937D01*
X1471Y1937D02*
X1517Y1937D01*
X1550Y1937D02*
X1596Y1937D01*
X1628Y1937D02*
X1675Y1937D01*
X1707Y1937D02*
X1753Y1937D01*
X1786Y1937D02*
X1832Y1937D01*
X1235Y1936D02*
X1281Y1936D01*
X1313Y1936D02*
X1360Y1936D01*
X1392Y1936D02*
X1438Y1936D01*
X1471Y1936D02*
X1517Y1936D01*
X1550Y1936D02*
X1596Y1936D01*
X1628Y1936D02*
X1675Y1936D01*
X1707Y1936D02*
X1753Y1936D01*
X1786Y1936D02*
X1832Y1936D01*
X1235Y1935D02*
X1281Y1935D01*
X1313Y1935D02*
X1360Y1935D01*
X1392Y1935D02*
X1438Y1935D01*
X1471Y1935D02*
X1517Y1935D01*
X1550Y1935D02*
X1596Y1935D01*
X1628Y1935D02*
X1675Y1935D01*
X1707Y1935D02*
X1753Y1935D01*
X1786Y1935D02*
X1832Y1935D01*
X1235Y1934D02*
X1281Y1934D01*
X1313Y1934D02*
X1360Y1934D01*
X1392Y1934D02*
X1438Y1934D01*
X1471Y1934D02*
X1517Y1934D01*
X1550Y1934D02*
X1596Y1934D01*
X1628Y1934D02*
X1675Y1934D01*
X1707Y1934D02*
X1753Y1934D01*
X1786Y1934D02*
X1832Y1934D01*
X1235Y1933D02*
X1281Y1933D01*
X1313Y1933D02*
X1360Y1933D01*
X1392Y1933D02*
X1438Y1933D01*
X1471Y1933D02*
X1517Y1933D01*
X1550Y1933D02*
X1596Y1933D01*
X1628Y1933D02*
X1675Y1933D01*
X1707Y1933D02*
X1753Y1933D01*
X1786Y1933D02*
X1832Y1933D01*
X1235Y1932D02*
X1281Y1932D01*
X1313Y1932D02*
X1360Y1932D01*
X1392Y1932D02*
X1438Y1932D01*
X1471Y1932D02*
X1517Y1932D01*
X1550Y1932D02*
X1596Y1932D01*
X1628Y1932D02*
X1675Y1932D01*
X1707Y1932D02*
X1753Y1932D01*
X1786Y1932D02*
X1832Y1932D01*
X1235Y1931D02*
X1281Y1931D01*
X1313Y1931D02*
X1360Y1931D01*
X1392Y1931D02*
X1438Y1931D01*
X1471Y1931D02*
X1517Y1931D01*
X1550Y1931D02*
X1596Y1931D01*
X1628Y1931D02*
X1675Y1931D01*
X1707Y1931D02*
X1753Y1931D01*
X1786Y1931D02*
X1832Y1931D01*
X1235Y1930D02*
X1281Y1930D01*
X1313Y1930D02*
X1360Y1930D01*
X1392Y1930D02*
X1438Y1930D01*
X1471Y1930D02*
X1517Y1930D01*
X1550Y1930D02*
X1596Y1930D01*
X1628Y1930D02*
X1675Y1930D01*
X1707Y1930D02*
X1753Y1930D01*
X1786Y1930D02*
X1832Y1930D01*
X1235Y1929D02*
X1281Y1929D01*
X1313Y1929D02*
X1360Y1929D01*
X1392Y1929D02*
X1438Y1929D01*
X1471Y1929D02*
X1517Y1929D01*
X1550Y1929D02*
X1596Y1929D01*
X1628Y1929D02*
X1675Y1929D01*
X1707Y1929D02*
X1753Y1929D01*
X1786Y1929D02*
X1832Y1929D01*
X1235Y1928D02*
X1281Y1928D01*
X1313Y1928D02*
X1360Y1928D01*
X1392Y1928D02*
X1438Y1928D01*
X1471Y1928D02*
X1517Y1928D01*
X1550Y1928D02*
X1596Y1928D01*
X1628Y1928D02*
X1675Y1928D01*
X1707Y1928D02*
X1753Y1928D01*
X1786Y1928D02*
X1832Y1928D01*
X1235Y1927D02*
X1281Y1927D01*
X1313Y1927D02*
X1360Y1927D01*
X1392Y1927D02*
X1438Y1927D01*
X1471Y1927D02*
X1517Y1927D01*
X1550Y1927D02*
X1596Y1927D01*
X1628Y1927D02*
X1675Y1927D01*
X1707Y1927D02*
X1753Y1927D01*
X1786Y1927D02*
X1832Y1927D01*
X1235Y1926D02*
X1281Y1926D01*
X1313Y1926D02*
X1360Y1926D01*
X1392Y1926D02*
X1438Y1926D01*
X1471Y1926D02*
X1517Y1926D01*
X1550Y1926D02*
X1596Y1926D01*
X1628Y1926D02*
X1675Y1926D01*
X1707Y1926D02*
X1753Y1926D01*
X1786Y1926D02*
X1832Y1926D01*
X1235Y1925D02*
X1281Y1925D01*
X1313Y1925D02*
X1360Y1925D01*
X1392Y1925D02*
X1438Y1925D01*
X1471Y1925D02*
X1517Y1925D01*
X1550Y1925D02*
X1596Y1925D01*
X1628Y1925D02*
X1675Y1925D01*
X1707Y1925D02*
X1753Y1925D01*
X1786Y1925D02*
X1832Y1925D01*
X1235Y1924D02*
X1281Y1924D01*
X1313Y1924D02*
X1360Y1924D01*
X1392Y1924D02*
X1438Y1924D01*
X1471Y1924D02*
X1517Y1924D01*
X1550Y1924D02*
X1596Y1924D01*
X1628Y1924D02*
X1675Y1924D01*
X1707Y1924D02*
X1753Y1924D01*
X1786Y1924D02*
X1832Y1924D01*
X1235Y1923D02*
X1281Y1923D01*
X1313Y1923D02*
X1360Y1923D01*
X1392Y1923D02*
X1438Y1923D01*
X1471Y1923D02*
X1517Y1923D01*
X1550Y1923D02*
X1596Y1923D01*
X1628Y1923D02*
X1675Y1923D01*
X1707Y1923D02*
X1753Y1923D01*
X1786Y1923D02*
X1832Y1923D01*
X1235Y1922D02*
X1281Y1922D01*
X1313Y1922D02*
X1360Y1922D01*
X1392Y1922D02*
X1438Y1922D01*
X1471Y1922D02*
X1517Y1922D01*
X1550Y1922D02*
X1596Y1922D01*
X1628Y1922D02*
X1675Y1922D01*
X1707Y1922D02*
X1753Y1922D01*
X1786Y1922D02*
X1832Y1922D01*
X1235Y1921D02*
X1281Y1921D01*
X1313Y1921D02*
X1360Y1921D01*
X1392Y1921D02*
X1438Y1921D01*
X1471Y1921D02*
X1517Y1921D01*
X1550Y1921D02*
X1596Y1921D01*
X1628Y1921D02*
X1675Y1921D01*
X1707Y1921D02*
X1753Y1921D01*
X1786Y1921D02*
X1832Y1921D01*
X1235Y1920D02*
X1281Y1920D01*
X1313Y1920D02*
X1360Y1920D01*
X1392Y1920D02*
X1438Y1920D01*
X1471Y1920D02*
X1517Y1920D01*
X1550Y1920D02*
X1596Y1920D01*
X1628Y1920D02*
X1675Y1920D01*
X1707Y1920D02*
X1753Y1920D01*
X1786Y1920D02*
X1832Y1920D01*
X1235Y1919D02*
X1281Y1919D01*
X1313Y1919D02*
X1360Y1919D01*
X1392Y1919D02*
X1438Y1919D01*
X1471Y1919D02*
X1517Y1919D01*
X1550Y1919D02*
X1596Y1919D01*
X1628Y1919D02*
X1675Y1919D01*
X1707Y1919D02*
X1753Y1919D01*
X1786Y1919D02*
X1832Y1919D01*
X1235Y1918D02*
X1281Y1918D01*
X1313Y1918D02*
X1360Y1918D01*
X1392Y1918D02*
X1438Y1918D01*
X1471Y1918D02*
X1517Y1918D01*
X1550Y1918D02*
X1596Y1918D01*
X1628Y1918D02*
X1675Y1918D01*
X1707Y1918D02*
X1753Y1918D01*
X1786Y1918D02*
X1832Y1918D01*
X1235Y1917D02*
X1281Y1917D01*
X1313Y1917D02*
X1360Y1917D01*
X1392Y1917D02*
X1438Y1917D01*
X1471Y1917D02*
X1517Y1917D01*
X1550Y1917D02*
X1596Y1917D01*
X1628Y1917D02*
X1675Y1917D01*
X1707Y1917D02*
X1753Y1917D01*
X1786Y1917D02*
X1832Y1917D01*
X1235Y1916D02*
X1281Y1916D01*
X1313Y1916D02*
X1360Y1916D01*
X1392Y1916D02*
X1438Y1916D01*
X1471Y1916D02*
X1517Y1916D01*
X1550Y1916D02*
X1596Y1916D01*
X1628Y1916D02*
X1675Y1916D01*
X1707Y1916D02*
X1753Y1916D01*
X1786Y1916D02*
X1832Y1916D01*
X1235Y1915D02*
X1281Y1915D01*
X1313Y1915D02*
X1360Y1915D01*
X1392Y1915D02*
X1438Y1915D01*
X1471Y1915D02*
X1517Y1915D01*
X1550Y1915D02*
X1596Y1915D01*
X1628Y1915D02*
X1675Y1915D01*
X1707Y1915D02*
X1753Y1915D01*
X1786Y1915D02*
X1832Y1915D01*
X1235Y1914D02*
X1281Y1914D01*
X1313Y1914D02*
X1360Y1914D01*
X1392Y1914D02*
X1438Y1914D01*
X1471Y1914D02*
X1517Y1914D01*
X1550Y1914D02*
X1596Y1914D01*
X1628Y1914D02*
X1675Y1914D01*
X1707Y1914D02*
X1753Y1914D01*
X1786Y1914D02*
X1832Y1914D01*
X1235Y1913D02*
X1281Y1913D01*
X1313Y1913D02*
X1360Y1913D01*
X1392Y1913D02*
X1438Y1913D01*
X1471Y1913D02*
X1517Y1913D01*
X1550Y1913D02*
X1596Y1913D01*
X1628Y1913D02*
X1675Y1913D01*
X1707Y1913D02*
X1753Y1913D01*
X1786Y1913D02*
X1832Y1913D01*
X1235Y1912D02*
X1281Y1912D01*
X1313Y1912D02*
X1360Y1912D01*
X1392Y1912D02*
X1438Y1912D01*
X1471Y1912D02*
X1517Y1912D01*
X1550Y1912D02*
X1596Y1912D01*
X1628Y1912D02*
X1675Y1912D01*
X1707Y1912D02*
X1753Y1912D01*
X1786Y1912D02*
X1832Y1912D01*
X1235Y1911D02*
X1254Y1911D01*
X1262Y1911D02*
X1281Y1911D01*
X1313Y1911D02*
X1333Y1911D01*
X1340Y1911D02*
X1360Y1911D01*
X1392Y1911D02*
X1411Y1911D01*
X1419Y1911D02*
X1438Y1911D01*
X1471Y1911D02*
X1490Y1911D01*
X1498Y1911D02*
X1517Y1911D01*
X1550Y1911D02*
X1569Y1911D01*
X1576Y1911D02*
X1596Y1911D01*
X1628Y1911D02*
X1648Y1911D01*
X1655Y1911D02*
X1675Y1911D01*
X1707Y1911D02*
X1726Y1911D01*
X1734Y1911D02*
X1753Y1911D01*
X1786Y1911D02*
X1805Y1911D01*
X1813Y1911D02*
X1832Y1911D01*
X1235Y1910D02*
X1252Y1910D01*
X1264Y1910D02*
X1281Y1910D01*
X1313Y1910D02*
X1330Y1910D01*
X1343Y1910D02*
X1360Y1910D01*
X1392Y1910D02*
X1409Y1910D01*
X1421Y1910D02*
X1438Y1910D01*
X1471Y1910D02*
X1488Y1910D01*
X1500Y1910D02*
X1517Y1910D01*
X1550Y1910D02*
X1566Y1910D01*
X1579Y1910D02*
X1596Y1910D01*
X1628Y1910D02*
X1645Y1910D01*
X1658Y1910D02*
X1675Y1910D01*
X1707Y1910D02*
X1724Y1910D01*
X1736Y1910D02*
X1753Y1910D01*
X1786Y1910D02*
X1803Y1910D01*
X1815Y1910D02*
X1832Y1910D01*
X1235Y1909D02*
X1250Y1909D01*
X1266Y1909D02*
X1281Y1909D01*
X1313Y1909D02*
X1329Y1909D01*
X1344Y1909D02*
X1360Y1909D01*
X1392Y1909D02*
X1407Y1909D01*
X1423Y1909D02*
X1438Y1909D01*
X1471Y1909D02*
X1486Y1909D01*
X1502Y1909D02*
X1517Y1909D01*
X1550Y1909D02*
X1565Y1909D01*
X1580Y1909D02*
X1596Y1909D01*
X1628Y1909D02*
X1644Y1909D01*
X1659Y1909D02*
X1675Y1909D01*
X1707Y1909D02*
X1722Y1909D01*
X1738Y1909D02*
X1753Y1909D01*
X1786Y1909D02*
X1801Y1909D01*
X1817Y1909D02*
X1832Y1909D01*
X1235Y1908D02*
X1249Y1908D01*
X1267Y1908D02*
X1281Y1908D01*
X1313Y1908D02*
X1327Y1908D01*
X1345Y1908D02*
X1360Y1908D01*
X1392Y1908D02*
X1406Y1908D01*
X1424Y1908D02*
X1438Y1908D01*
X1471Y1908D02*
X1485Y1908D01*
X1503Y1908D02*
X1517Y1908D01*
X1550Y1908D02*
X1564Y1908D01*
X1582Y1908D02*
X1596Y1908D01*
X1628Y1908D02*
X1642Y1908D01*
X1660Y1908D02*
X1675Y1908D01*
X1707Y1908D02*
X1721Y1908D01*
X1739Y1908D02*
X1753Y1908D01*
X1786Y1908D02*
X1800Y1908D01*
X1818Y1908D02*
X1832Y1908D01*
X1235Y1907D02*
X1248Y1907D01*
X1268Y1907D02*
X1281Y1907D01*
X1313Y1907D02*
X1327Y1907D01*
X1346Y1907D02*
X1360Y1907D01*
X1392Y1907D02*
X1405Y1907D01*
X1425Y1907D02*
X1438Y1907D01*
X1471Y1907D02*
X1484Y1907D01*
X1504Y1907D02*
X1517Y1907D01*
X1550Y1907D02*
X1563Y1907D01*
X1583Y1907D02*
X1596Y1907D01*
X1628Y1907D02*
X1642Y1907D01*
X1661Y1907D02*
X1675Y1907D01*
X1707Y1907D02*
X1720Y1907D01*
X1740Y1907D02*
X1753Y1907D01*
X1786Y1907D02*
X1799Y1907D01*
X1819Y1907D02*
X1832Y1907D01*
X1235Y1906D02*
X1247Y1906D01*
X1268Y1906D02*
X1281Y1906D01*
X1313Y1906D02*
X1326Y1906D01*
X1347Y1906D02*
X1360Y1906D01*
X1392Y1906D02*
X1405Y1906D01*
X1426Y1906D02*
X1438Y1906D01*
X1471Y1906D02*
X1483Y1906D01*
X1505Y1906D02*
X1517Y1906D01*
X1550Y1906D02*
X1562Y1906D01*
X1583Y1906D02*
X1596Y1906D01*
X1628Y1906D02*
X1641Y1906D01*
X1662Y1906D02*
X1675Y1906D01*
X1707Y1906D02*
X1719Y1906D01*
X1741Y1906D02*
X1753Y1906D01*
X1786Y1906D02*
X1798Y1906D01*
X1820Y1906D02*
X1832Y1906D01*
X1235Y1905D02*
X1247Y1905D01*
X1269Y1905D02*
X1281Y1905D01*
X1313Y1905D02*
X1325Y1905D01*
X1348Y1905D02*
X1360Y1905D01*
X1392Y1905D02*
X1404Y1905D01*
X1426Y1905D02*
X1438Y1905D01*
X1471Y1905D02*
X1483Y1905D01*
X1505Y1905D02*
X1517Y1905D01*
X1550Y1905D02*
X1561Y1905D01*
X1584Y1905D02*
X1596Y1905D01*
X1628Y1905D02*
X1640Y1905D01*
X1663Y1905D02*
X1675Y1905D01*
X1707Y1905D02*
X1719Y1905D01*
X1741Y1905D02*
X1753Y1905D01*
X1786Y1905D02*
X1798Y1905D01*
X1820Y1905D02*
X1832Y1905D01*
X1235Y1904D02*
X1246Y1904D01*
X1269Y1904D02*
X1281Y1904D01*
X1313Y1904D02*
X1325Y1904D01*
X1348Y1904D02*
X1360Y1904D01*
X1392Y1904D02*
X1404Y1904D01*
X1427Y1904D02*
X1438Y1904D01*
X1471Y1904D02*
X1482Y1904D01*
X1506Y1904D02*
X1517Y1904D01*
X1550Y1904D02*
X1561Y1904D01*
X1584Y1904D02*
X1596Y1904D01*
X1628Y1904D02*
X1640Y1904D01*
X1663Y1904D02*
X1675Y1904D01*
X1707Y1904D02*
X1718Y1904D01*
X1742Y1904D02*
X1753Y1904D01*
X1786Y1904D02*
X1797Y1904D01*
X1821Y1904D02*
X1832Y1904D01*
X1235Y1903D02*
X1246Y1903D01*
X1270Y1903D02*
X1281Y1903D01*
X1313Y1903D02*
X1324Y1903D01*
X1349Y1903D02*
X1360Y1903D01*
X1392Y1903D02*
X1403Y1903D01*
X1427Y1903D02*
X1438Y1903D01*
X1471Y1903D02*
X1482Y1903D01*
X1506Y1903D02*
X1517Y1903D01*
X1550Y1903D02*
X1561Y1903D01*
X1585Y1903D02*
X1596Y1903D01*
X1628Y1903D02*
X1639Y1903D01*
X1663Y1903D02*
X1675Y1903D01*
X1707Y1903D02*
X1718Y1903D01*
X1742Y1903D02*
X1753Y1903D01*
X1786Y1903D02*
X1797Y1903D01*
X1821Y1903D02*
X1832Y1903D01*
X1235Y1902D02*
X1245Y1902D01*
X1270Y1902D02*
X1281Y1902D01*
X1313Y1902D02*
X1324Y1902D01*
X1349Y1902D02*
X1360Y1902D01*
X1392Y1902D02*
X1403Y1902D01*
X1428Y1902D02*
X1438Y1902D01*
X1471Y1902D02*
X1482Y1902D01*
X1506Y1902D02*
X1517Y1902D01*
X1550Y1902D02*
X1560Y1902D01*
X1585Y1902D02*
X1596Y1902D01*
X1628Y1902D02*
X1639Y1902D01*
X1664Y1902D02*
X1675Y1902D01*
X1707Y1902D02*
X1718Y1902D01*
X1742Y1902D02*
X1753Y1902D01*
X1786Y1902D02*
X1797Y1902D01*
X1821Y1902D02*
X1832Y1902D01*
X1235Y1901D02*
X1245Y1901D01*
X1270Y1901D02*
X1281Y1901D01*
X1313Y1901D02*
X1324Y1901D01*
X1349Y1901D02*
X1360Y1901D01*
X1392Y1901D02*
X1403Y1901D01*
X1428Y1901D02*
X1438Y1901D01*
X1471Y1901D02*
X1481Y1901D01*
X1506Y1901D02*
X1517Y1901D01*
X1550Y1901D02*
X1560Y1901D01*
X1585Y1901D02*
X1596Y1901D01*
X1628Y1901D02*
X1639Y1901D01*
X1664Y1901D02*
X1675Y1901D01*
X1707Y1901D02*
X1718Y1901D01*
X1743Y1901D02*
X1753Y1901D01*
X1786Y1901D02*
X1796Y1901D01*
X1821Y1901D02*
X1832Y1901D01*
X1235Y1900D02*
X1245Y1900D01*
X1270Y1900D02*
X1281Y1900D01*
X1313Y1900D02*
X1324Y1900D01*
X1349Y1900D02*
X1360Y1900D01*
X1392Y1900D02*
X1403Y1900D01*
X1428Y1900D02*
X1438Y1900D01*
X1471Y1900D02*
X1481Y1900D01*
X1507Y1900D02*
X1517Y1900D01*
X1550Y1900D02*
X1560Y1900D01*
X1585Y1900D02*
X1596Y1900D01*
X1628Y1900D02*
X1639Y1900D01*
X1664Y1900D02*
X1675Y1900D01*
X1707Y1900D02*
X1718Y1900D01*
X1743Y1900D02*
X1753Y1900D01*
X1786Y1900D02*
X1796Y1900D01*
X1821Y1900D02*
X1832Y1900D01*
X1235Y1899D02*
X1245Y1899D01*
X1270Y1899D02*
X1281Y1899D01*
X1313Y1899D02*
X1324Y1899D01*
X1349Y1899D02*
X1360Y1899D01*
X1392Y1899D02*
X1403Y1899D01*
X1428Y1899D02*
X1438Y1899D01*
X1471Y1899D02*
X1481Y1899D01*
X1507Y1899D02*
X1517Y1899D01*
X1550Y1899D02*
X1560Y1899D01*
X1585Y1899D02*
X1596Y1899D01*
X1628Y1899D02*
X1639Y1899D01*
X1664Y1899D02*
X1675Y1899D01*
X1707Y1899D02*
X1718Y1899D01*
X1743Y1899D02*
X1753Y1899D01*
X1786Y1899D02*
X1796Y1899D01*
X1821Y1899D02*
X1832Y1899D01*
X1235Y1898D02*
X1245Y1898D01*
X1270Y1898D02*
X1281Y1898D01*
X1313Y1898D02*
X1324Y1898D01*
X1349Y1898D02*
X1360Y1898D01*
X1392Y1898D02*
X1403Y1898D01*
X1428Y1898D02*
X1438Y1898D01*
X1471Y1898D02*
X1481Y1898D01*
X1506Y1898D02*
X1517Y1898D01*
X1550Y1898D02*
X1560Y1898D01*
X1585Y1898D02*
X1596Y1898D01*
X1628Y1898D02*
X1639Y1898D01*
X1664Y1898D02*
X1675Y1898D01*
X1707Y1898D02*
X1718Y1898D01*
X1743Y1898D02*
X1753Y1898D01*
X1786Y1898D02*
X1796Y1898D01*
X1821Y1898D02*
X1832Y1898D01*
X1235Y1897D02*
X1245Y1897D01*
X1270Y1897D02*
X1281Y1897D01*
X1313Y1897D02*
X1324Y1897D01*
X1349Y1897D02*
X1360Y1897D01*
X1392Y1897D02*
X1403Y1897D01*
X1428Y1897D02*
X1438Y1897D01*
X1471Y1897D02*
X1482Y1897D01*
X1506Y1897D02*
X1517Y1897D01*
X1550Y1897D02*
X1560Y1897D01*
X1585Y1897D02*
X1596Y1897D01*
X1628Y1897D02*
X1639Y1897D01*
X1664Y1897D02*
X1675Y1897D01*
X1707Y1897D02*
X1718Y1897D01*
X1743Y1897D02*
X1753Y1897D01*
X1786Y1897D02*
X1796Y1897D01*
X1821Y1897D02*
X1832Y1897D01*
X1235Y1896D02*
X1246Y1896D01*
X1270Y1896D02*
X1281Y1896D01*
X1313Y1896D02*
X1324Y1896D01*
X1349Y1896D02*
X1360Y1896D01*
X1392Y1896D02*
X1403Y1896D01*
X1427Y1896D02*
X1438Y1896D01*
X1471Y1896D02*
X1482Y1896D01*
X1506Y1896D02*
X1517Y1896D01*
X1550Y1896D02*
X1561Y1896D01*
X1585Y1896D02*
X1596Y1896D01*
X1628Y1896D02*
X1639Y1896D01*
X1664Y1896D02*
X1675Y1896D01*
X1707Y1896D02*
X1718Y1896D01*
X1742Y1896D02*
X1753Y1896D01*
X1786Y1896D02*
X1797Y1896D01*
X1821Y1896D02*
X1832Y1896D01*
X1235Y1895D02*
X1246Y1895D01*
X1270Y1895D02*
X1281Y1895D01*
X1313Y1895D02*
X1325Y1895D01*
X1348Y1895D02*
X1360Y1895D01*
X1392Y1895D02*
X1403Y1895D01*
X1427Y1895D02*
X1438Y1895D01*
X1471Y1895D02*
X1482Y1895D01*
X1506Y1895D02*
X1517Y1895D01*
X1550Y1895D02*
X1561Y1895D01*
X1584Y1895D02*
X1596Y1895D01*
X1628Y1895D02*
X1640Y1895D01*
X1663Y1895D02*
X1675Y1895D01*
X1707Y1895D02*
X1718Y1895D01*
X1742Y1895D02*
X1753Y1895D01*
X1786Y1895D02*
X1797Y1895D01*
X1821Y1895D02*
X1832Y1895D01*
X1235Y1894D02*
X1246Y1894D01*
X1269Y1894D02*
X1281Y1894D01*
X1313Y1894D02*
X1325Y1894D01*
X1348Y1894D02*
X1360Y1894D01*
X1392Y1894D02*
X1404Y1894D01*
X1427Y1894D02*
X1438Y1894D01*
X1471Y1894D02*
X1483Y1894D01*
X1505Y1894D02*
X1517Y1894D01*
X1550Y1894D02*
X1561Y1894D01*
X1584Y1894D02*
X1596Y1894D01*
X1628Y1894D02*
X1640Y1894D01*
X1663Y1894D02*
X1675Y1894D01*
X1707Y1894D02*
X1719Y1894D01*
X1741Y1894D02*
X1753Y1894D01*
X1786Y1894D02*
X1798Y1894D01*
X1820Y1894D02*
X1832Y1894D01*
X1235Y1893D02*
X1247Y1893D01*
X1269Y1893D02*
X1281Y1893D01*
X1313Y1893D02*
X1326Y1893D01*
X1347Y1893D02*
X1360Y1893D01*
X1392Y1893D02*
X1404Y1893D01*
X1426Y1893D02*
X1438Y1893D01*
X1471Y1893D02*
X1483Y1893D01*
X1505Y1893D02*
X1517Y1893D01*
X1550Y1893D02*
X1562Y1893D01*
X1583Y1893D02*
X1596Y1893D01*
X1628Y1893D02*
X1641Y1893D01*
X1662Y1893D02*
X1675Y1893D01*
X1707Y1893D02*
X1719Y1893D01*
X1741Y1893D02*
X1753Y1893D01*
X1786Y1893D02*
X1798Y1893D01*
X1820Y1893D02*
X1832Y1893D01*
X1235Y1892D02*
X1248Y1892D01*
X1268Y1892D02*
X1281Y1892D01*
X1313Y1892D02*
X1326Y1892D01*
X1347Y1892D02*
X1360Y1892D01*
X1392Y1892D02*
X1405Y1892D01*
X1425Y1892D02*
X1438Y1892D01*
X1471Y1892D02*
X1484Y1892D01*
X1504Y1892D02*
X1517Y1892D01*
X1550Y1892D02*
X1563Y1892D01*
X1583Y1892D02*
X1596Y1892D01*
X1628Y1892D02*
X1641Y1892D01*
X1662Y1892D02*
X1675Y1892D01*
X1707Y1892D02*
X1720Y1892D01*
X1740Y1892D02*
X1753Y1892D01*
X1786Y1892D02*
X1799Y1892D01*
X1819Y1892D02*
X1832Y1892D01*
X1235Y1891D02*
X1248Y1891D01*
X1267Y1891D02*
X1281Y1891D01*
X1313Y1891D02*
X1327Y1891D01*
X1346Y1891D02*
X1360Y1891D01*
X1392Y1891D02*
X1406Y1891D01*
X1424Y1891D02*
X1438Y1891D01*
X1471Y1891D02*
X1485Y1891D01*
X1503Y1891D02*
X1517Y1891D01*
X1550Y1891D02*
X1563Y1891D01*
X1582Y1891D02*
X1596Y1891D01*
X1628Y1891D02*
X1642Y1891D01*
X1661Y1891D02*
X1675Y1891D01*
X1707Y1891D02*
X1721Y1891D01*
X1739Y1891D02*
X1753Y1891D01*
X1786Y1891D02*
X1800Y1891D01*
X1818Y1891D02*
X1832Y1891D01*
X1235Y1890D02*
X1250Y1890D01*
X1266Y1890D02*
X1281Y1890D01*
X1313Y1890D02*
X1328Y1890D01*
X1345Y1890D02*
X1360Y1890D01*
X1392Y1890D02*
X1407Y1890D01*
X1423Y1890D02*
X1438Y1890D01*
X1471Y1890D02*
X1486Y1890D01*
X1502Y1890D02*
X1517Y1890D01*
X1550Y1890D02*
X1565Y1890D01*
X1581Y1890D02*
X1596Y1890D01*
X1628Y1890D02*
X1643Y1890D01*
X1660Y1890D02*
X1675Y1890D01*
X1707Y1890D02*
X1722Y1890D01*
X1738Y1890D02*
X1753Y1890D01*
X1786Y1890D02*
X1801Y1890D01*
X1817Y1890D02*
X1832Y1890D01*
X1235Y1889D02*
X1251Y1889D01*
X1265Y1889D02*
X1281Y1889D01*
X1313Y1889D02*
X1330Y1889D01*
X1343Y1889D02*
X1360Y1889D01*
X1392Y1889D02*
X1408Y1889D01*
X1422Y1889D02*
X1438Y1889D01*
X1471Y1889D02*
X1487Y1889D01*
X1501Y1889D02*
X1517Y1889D01*
X1550Y1889D02*
X1566Y1889D01*
X1579Y1889D02*
X1596Y1889D01*
X1628Y1889D02*
X1645Y1889D01*
X1658Y1889D02*
X1675Y1889D01*
X1707Y1889D02*
X1723Y1889D01*
X1737Y1889D02*
X1753Y1889D01*
X1786Y1889D02*
X1802Y1889D01*
X1816Y1889D02*
X1832Y1889D01*
X1235Y1888D02*
X1253Y1888D01*
X1262Y1888D02*
X1281Y1888D01*
X1313Y1888D02*
X1332Y1888D01*
X1341Y1888D02*
X1360Y1888D01*
X1392Y1888D02*
X1411Y1888D01*
X1420Y1888D02*
X1438Y1888D01*
X1471Y1888D02*
X1489Y1888D01*
X1499Y1888D02*
X1517Y1888D01*
X1550Y1888D02*
X1568Y1888D01*
X1577Y1888D02*
X1596Y1888D01*
X1628Y1888D02*
X1647Y1888D01*
X1656Y1888D02*
X1675Y1888D01*
X1707Y1888D02*
X1725Y1888D01*
X1735Y1888D02*
X1753Y1888D01*
X1786Y1888D02*
X1804Y1888D01*
X1814Y1888D02*
X1832Y1888D01*
X1235Y1887D02*
X1281Y1887D01*
X1313Y1887D02*
X1360Y1887D01*
X1392Y1887D02*
X1438Y1887D01*
X1471Y1887D02*
X1517Y1887D01*
X1550Y1887D02*
X1596Y1887D01*
X1628Y1887D02*
X1675Y1887D01*
X1707Y1887D02*
X1753Y1887D01*
X1786Y1887D02*
X1832Y1887D01*
X1235Y1886D02*
X1281Y1886D01*
X1313Y1886D02*
X1360Y1886D01*
X1392Y1886D02*
X1438Y1886D01*
X1471Y1886D02*
X1517Y1886D01*
X1550Y1886D02*
X1596Y1886D01*
X1628Y1886D02*
X1675Y1886D01*
X1707Y1886D02*
X1753Y1886D01*
X1786Y1886D02*
X1832Y1886D01*
X1235Y1885D02*
X1281Y1885D01*
X1313Y1885D02*
X1360Y1885D01*
X1392Y1885D02*
X1438Y1885D01*
X1471Y1885D02*
X1517Y1885D01*
X1550Y1885D02*
X1596Y1885D01*
X1628Y1885D02*
X1675Y1885D01*
X1707Y1885D02*
X1753Y1885D01*
X1786Y1885D02*
X1832Y1885D01*
X1235Y1884D02*
X1281Y1884D01*
X1313Y1884D02*
X1360Y1884D01*
X1392Y1884D02*
X1438Y1884D01*
X1471Y1884D02*
X1517Y1884D01*
X1550Y1884D02*
X1596Y1884D01*
X1628Y1884D02*
X1675Y1884D01*
X1707Y1884D02*
X1753Y1884D01*
X1786Y1884D02*
X1832Y1884D01*
X1235Y1883D02*
X1281Y1883D01*
X1313Y1883D02*
X1360Y1883D01*
X1392Y1883D02*
X1438Y1883D01*
X1471Y1883D02*
X1517Y1883D01*
X1550Y1883D02*
X1596Y1883D01*
X1628Y1883D02*
X1675Y1883D01*
X1707Y1883D02*
X1753Y1883D01*
X1786Y1883D02*
X1832Y1883D01*
X1235Y1882D02*
X1281Y1882D01*
X1313Y1882D02*
X1360Y1882D01*
X1392Y1882D02*
X1438Y1882D01*
X1471Y1882D02*
X1517Y1882D01*
X1550Y1882D02*
X1596Y1882D01*
X1628Y1882D02*
X1675Y1882D01*
X1707Y1882D02*
X1753Y1882D01*
X1786Y1882D02*
X1832Y1882D01*
X1235Y1881D02*
X1281Y1881D01*
X1313Y1881D02*
X1360Y1881D01*
X1392Y1881D02*
X1438Y1881D01*
X1471Y1881D02*
X1517Y1881D01*
X1550Y1881D02*
X1596Y1881D01*
X1628Y1881D02*
X1675Y1881D01*
X1707Y1881D02*
X1753Y1881D01*
X1786Y1881D02*
X1832Y1881D01*
X1235Y1880D02*
X1281Y1880D01*
X1313Y1880D02*
X1360Y1880D01*
X1392Y1880D02*
X1438Y1880D01*
X1471Y1880D02*
X1517Y1880D01*
X1550Y1880D02*
X1596Y1880D01*
X1628Y1880D02*
X1675Y1880D01*
X1707Y1880D02*
X1753Y1880D01*
X1786Y1880D02*
X1832Y1880D01*
X1183Y1844D02*
X1270Y1844D01*
X1183Y1843D02*
X1271Y1843D01*
X1183Y1842D02*
X1271Y1842D01*
X1183Y1841D02*
X1271Y1841D01*
X1183Y1840D02*
X1271Y1840D01*
X1183Y1839D02*
X1271Y1839D01*
X1183Y1838D02*
X1271Y1838D01*
X1183Y1837D02*
X1271Y1837D01*
X1183Y1836D02*
X1271Y1836D01*
X1183Y1835D02*
X1271Y1835D01*
X1183Y1834D02*
X1271Y1834D01*
X1183Y1833D02*
X1271Y1833D01*
X1183Y1832D02*
X1199Y1832D01*
X1207Y1832D02*
X1271Y1832D01*
X1183Y1831D02*
X1196Y1831D01*
X1209Y1831D02*
X1271Y1831D01*
X1183Y1830D02*
X1195Y1830D01*
X1211Y1830D02*
X1271Y1830D01*
X1183Y1829D02*
X1194Y1829D01*
X1212Y1829D02*
X1271Y1829D01*
X1183Y1828D02*
X1193Y1828D01*
X1213Y1828D02*
X1271Y1828D01*
X1183Y1827D02*
X1192Y1827D01*
X1214Y1827D02*
X1271Y1827D01*
X1183Y1826D02*
X1192Y1826D01*
X1214Y1826D02*
X1271Y1826D01*
X1183Y1825D02*
X1191Y1825D01*
X1215Y1825D02*
X1271Y1825D01*
X1183Y1824D02*
X1191Y1824D01*
X1215Y1824D02*
X1271Y1824D01*
X1183Y1823D02*
X1190Y1823D01*
X1215Y1823D02*
X1271Y1823D01*
X1183Y1822D02*
X1190Y1822D01*
X1215Y1822D02*
X1271Y1822D01*
X1183Y1821D02*
X1190Y1821D01*
X1215Y1821D02*
X1271Y1821D01*
X1183Y1820D02*
X1190Y1820D01*
X1215Y1820D02*
X1271Y1820D01*
X1183Y1819D02*
X1190Y1819D01*
X1215Y1819D02*
X1271Y1819D01*
X1183Y1818D02*
X1190Y1818D01*
X1215Y1818D02*
X1271Y1818D01*
X1183Y1817D02*
X1191Y1817D01*
X1215Y1817D02*
X1271Y1817D01*
X1183Y1816D02*
X1191Y1816D01*
X1215Y1816D02*
X1271Y1816D01*
X1183Y1815D02*
X1192Y1815D01*
X1214Y1815D02*
X1271Y1815D01*
X1183Y1814D02*
X1192Y1814D01*
X1214Y1814D02*
X1271Y1814D01*
X1183Y1813D02*
X1193Y1813D01*
X1213Y1813D02*
X1271Y1813D01*
X1183Y1812D02*
X1194Y1812D01*
X1212Y1812D02*
X1271Y1812D01*
X1183Y1811D02*
X1195Y1811D01*
X1211Y1811D02*
X1271Y1811D01*
X1183Y1810D02*
X1196Y1810D01*
X1209Y1810D02*
X1271Y1810D01*
X1183Y1809D02*
X1198Y1809D01*
X1207Y1809D02*
X1271Y1809D01*
X1183Y1808D02*
X1271Y1808D01*
X1183Y1807D02*
X1271Y1807D01*
X1183Y1806D02*
X1271Y1806D01*
X1183Y1805D02*
X1271Y1805D01*
X1183Y1804D02*
X1271Y1804D01*
X1183Y1803D02*
X1271Y1803D01*
X1183Y1802D02*
X1271Y1802D01*
X1183Y1801D02*
X1271Y1801D01*
X1183Y1800D02*
X1271Y1800D01*
X1183Y1799D02*
X1271Y1799D01*
X1183Y1798D02*
X1271Y1798D01*
X1183Y1797D02*
X1270Y1797D01*
X1183Y1765D02*
X1270Y1765D01*
X1183Y1764D02*
X1271Y1764D01*
X1183Y1763D02*
X1271Y1763D01*
X1183Y1762D02*
X1271Y1762D01*
X1183Y1761D02*
X1271Y1761D01*
X1183Y1760D02*
X1271Y1760D01*
X1183Y1759D02*
X1271Y1759D01*
X1183Y1758D02*
X1271Y1758D01*
X1183Y1757D02*
X1271Y1757D01*
X1183Y1756D02*
X1271Y1756D01*
X1183Y1755D02*
X1271Y1755D01*
X1183Y1754D02*
X1271Y1754D01*
X1183Y1753D02*
X1198Y1753D01*
X1208Y1753D02*
X1271Y1753D01*
X1183Y1752D02*
X1196Y1752D01*
X1210Y1752D02*
X1271Y1752D01*
X1183Y1751D02*
X1194Y1751D01*
X1211Y1751D02*
X1271Y1751D01*
X1183Y1750D02*
X1193Y1750D01*
X1212Y1750D02*
X1271Y1750D01*
X1183Y1749D02*
X1193Y1749D01*
X1213Y1749D02*
X1271Y1749D01*
X1183Y1748D02*
X1192Y1748D01*
X1214Y1748D02*
X1271Y1748D01*
X1183Y1747D02*
X1191Y1747D01*
X1214Y1747D02*
X1271Y1747D01*
X1183Y1746D02*
X1191Y1746D01*
X1215Y1746D02*
X1271Y1746D01*
X1183Y1745D02*
X1191Y1745D01*
X1215Y1745D02*
X1271Y1745D01*
X1183Y1744D02*
X1190Y1744D01*
X1215Y1744D02*
X1271Y1744D01*
X1183Y1743D02*
X1190Y1743D01*
X1215Y1743D02*
X1271Y1743D01*
X1183Y1742D02*
X1190Y1742D01*
X1215Y1742D02*
X1271Y1742D01*
X1183Y1741D02*
X1190Y1741D01*
X1215Y1741D02*
X1271Y1741D01*
X1183Y1740D02*
X1190Y1740D01*
X1215Y1740D02*
X1271Y1740D01*
X1183Y1739D02*
X1190Y1739D01*
X1215Y1739D02*
X1271Y1739D01*
X1183Y1738D02*
X1191Y1738D01*
X1215Y1738D02*
X1271Y1738D01*
X1183Y1737D02*
X1191Y1737D01*
X1214Y1737D02*
X1271Y1737D01*
X1183Y1736D02*
X1192Y1736D01*
X1214Y1736D02*
X1271Y1736D01*
X1183Y1735D02*
X1192Y1735D01*
X1213Y1735D02*
X1271Y1735D01*
X1183Y1734D02*
X1193Y1734D01*
X1213Y1734D02*
X1271Y1734D01*
X1183Y1733D02*
X1194Y1733D01*
X1212Y1733D02*
X1271Y1733D01*
X1183Y1732D02*
X1195Y1732D01*
X1210Y1732D02*
X1271Y1732D01*
X1183Y1731D02*
X1197Y1731D01*
X1209Y1731D02*
X1271Y1731D01*
X1183Y1730D02*
X1199Y1730D01*
X1206Y1730D02*
X1271Y1730D01*
X1183Y1729D02*
X1271Y1729D01*
X1183Y1728D02*
X1271Y1728D01*
X1183Y1727D02*
X1271Y1727D01*
X1183Y1726D02*
X1271Y1726D01*
X1183Y1725D02*
X1271Y1725D01*
X1183Y1724D02*
X1271Y1724D01*
X1183Y1723D02*
X1271Y1723D01*
X1183Y1722D02*
X1271Y1722D01*
X1183Y1721D02*
X1271Y1721D01*
X1183Y1720D02*
X1271Y1720D01*
X1183Y1719D02*
X1271Y1719D01*
X1183Y1686D02*
X1271Y1686D01*
X1183Y1685D02*
X1271Y1685D01*
X1183Y1684D02*
X1271Y1684D01*
X1183Y1683D02*
X1271Y1683D01*
X1183Y1682D02*
X1271Y1682D01*
X1183Y1681D02*
X1271Y1681D01*
X1183Y1680D02*
X1271Y1680D01*
X1183Y1679D02*
X1271Y1679D01*
X1183Y1678D02*
X1271Y1678D01*
X1183Y1677D02*
X1271Y1677D01*
X1183Y1676D02*
X1271Y1676D01*
X1183Y1675D02*
X1200Y1675D01*
X1205Y1675D02*
X1271Y1675D01*
X1183Y1674D02*
X1197Y1674D01*
X1208Y1674D02*
X1271Y1674D01*
X1183Y1673D02*
X1195Y1673D01*
X1210Y1673D02*
X1271Y1673D01*
X1183Y1672D02*
X1194Y1672D01*
X1211Y1672D02*
X1271Y1672D01*
X1183Y1671D02*
X1193Y1671D01*
X1212Y1671D02*
X1271Y1671D01*
X1183Y1670D02*
X1192Y1670D01*
X1213Y1670D02*
X1271Y1670D01*
X1183Y1669D02*
X1192Y1669D01*
X1214Y1669D02*
X1271Y1669D01*
X1183Y1668D02*
X1191Y1668D01*
X1214Y1668D02*
X1271Y1668D01*
X1183Y1667D02*
X1191Y1667D01*
X1215Y1667D02*
X1271Y1667D01*
X1183Y1666D02*
X1191Y1666D01*
X1215Y1666D02*
X1271Y1666D01*
X1183Y1665D02*
X1190Y1665D01*
X1215Y1665D02*
X1271Y1665D01*
X1183Y1664D02*
X1190Y1664D01*
X1215Y1664D02*
X1271Y1664D01*
X1183Y1663D02*
X1190Y1663D01*
X1215Y1663D02*
X1271Y1663D01*
X1183Y1662D02*
X1190Y1662D01*
X1215Y1662D02*
X1271Y1662D01*
X1183Y1661D02*
X1190Y1661D01*
X1215Y1661D02*
X1271Y1661D01*
X1183Y1660D02*
X1191Y1660D01*
X1215Y1660D02*
X1271Y1660D01*
X1183Y1659D02*
X1191Y1659D01*
X1215Y1659D02*
X1271Y1659D01*
X1183Y1658D02*
X1191Y1658D01*
X1214Y1658D02*
X1271Y1658D01*
X1183Y1657D02*
X1192Y1657D01*
X1214Y1657D02*
X1271Y1657D01*
X1183Y1656D02*
X1192Y1656D01*
X1213Y1656D02*
X1271Y1656D01*
X1183Y1655D02*
X1193Y1655D01*
X1212Y1655D02*
X1271Y1655D01*
X1183Y1654D02*
X1194Y1654D01*
X1211Y1654D02*
X1271Y1654D01*
X1183Y1653D02*
X1196Y1653D01*
X1210Y1653D02*
X1271Y1653D01*
X1183Y1652D02*
X1197Y1652D01*
X1208Y1652D02*
X1271Y1652D01*
X1183Y1651D02*
X1201Y1651D01*
X1204Y1651D02*
X1271Y1651D01*
X1183Y1650D02*
X1271Y1650D01*
X1183Y1649D02*
X1271Y1649D01*
X1183Y1648D02*
X1271Y1648D01*
X1183Y1647D02*
X1271Y1647D01*
X1183Y1646D02*
X1271Y1646D01*
X1183Y1645D02*
X1271Y1645D01*
X1183Y1644D02*
X1271Y1644D01*
X1183Y1643D02*
X1271Y1643D01*
X1183Y1642D02*
X1271Y1642D01*
X1183Y1641D02*
X1271Y1641D01*
X1183Y1640D02*
X1271Y1640D01*
X1183Y1607D02*
X1271Y1607D01*
X1183Y1606D02*
X1271Y1606D01*
X1183Y1605D02*
X1271Y1605D01*
X1183Y1604D02*
X1271Y1604D01*
X1183Y1603D02*
X1271Y1603D01*
X1183Y1602D02*
X1271Y1602D01*
X1183Y1601D02*
X1271Y1601D01*
X1183Y1600D02*
X1271Y1600D01*
X1183Y1599D02*
X1271Y1599D01*
X1183Y1598D02*
X1271Y1598D01*
X1183Y1597D02*
X1271Y1597D01*
X1183Y1596D02*
X1199Y1596D01*
X1207Y1596D02*
X1271Y1596D01*
X1183Y1595D02*
X1197Y1595D01*
X1209Y1595D02*
X1271Y1595D01*
X1183Y1594D02*
X1195Y1594D01*
X1211Y1594D02*
X1271Y1594D01*
X1183Y1593D02*
X1194Y1593D01*
X1212Y1593D02*
X1271Y1593D01*
X1183Y1592D02*
X1193Y1592D01*
X1213Y1592D02*
X1271Y1592D01*
X1183Y1591D02*
X1192Y1591D01*
X1213Y1591D02*
X1271Y1591D01*
X1183Y1590D02*
X1192Y1590D01*
X1214Y1590D02*
X1271Y1590D01*
X1183Y1589D02*
X1191Y1589D01*
X1214Y1589D02*
X1271Y1589D01*
X1183Y1588D02*
X1191Y1588D01*
X1215Y1588D02*
X1271Y1588D01*
X1183Y1587D02*
X1190Y1587D01*
X1215Y1587D02*
X1271Y1587D01*
X1183Y1586D02*
X1190Y1586D01*
X1215Y1586D02*
X1271Y1586D01*
X1183Y1585D02*
X1190Y1585D01*
X1215Y1585D02*
X1271Y1585D01*
X1183Y1584D02*
X1190Y1584D01*
X1215Y1584D02*
X1271Y1584D01*
X1183Y1583D02*
X1190Y1583D01*
X1215Y1583D02*
X1271Y1583D01*
X1183Y1582D02*
X1190Y1582D01*
X1215Y1582D02*
X1271Y1582D01*
X1183Y1581D02*
X1191Y1581D01*
X1215Y1581D02*
X1271Y1581D01*
X1183Y1580D02*
X1191Y1580D01*
X1215Y1580D02*
X1271Y1580D01*
X1183Y1579D02*
X1191Y1579D01*
X1214Y1579D02*
X1271Y1579D01*
X1183Y1578D02*
X1192Y1578D01*
X1214Y1578D02*
X1271Y1578D01*
X1183Y1577D02*
X1193Y1577D01*
X1213Y1577D02*
X1271Y1577D01*
X1183Y1576D02*
X1193Y1576D01*
X1212Y1576D02*
X1271Y1576D01*
X1183Y1575D02*
X1195Y1575D01*
X1211Y1575D02*
X1271Y1575D01*
X1183Y1574D02*
X1196Y1574D01*
X1210Y1574D02*
X1271Y1574D01*
X1183Y1573D02*
X1198Y1573D01*
X1208Y1573D02*
X1271Y1573D01*
X1183Y1572D02*
X1271Y1572D01*
X1183Y1571D02*
X1271Y1571D01*
X1183Y1570D02*
X1271Y1570D01*
X1183Y1569D02*
X1271Y1569D01*
X1183Y1568D02*
X1271Y1568D01*
X1183Y1567D02*
X1271Y1567D01*
X1183Y1566D02*
X1271Y1566D01*
X1183Y1565D02*
X1271Y1565D01*
X1183Y1564D02*
X1271Y1564D01*
X1183Y1563D02*
X1271Y1563D01*
X1183Y1562D02*
X1271Y1562D01*
X1183Y1561D02*
X1270Y1561D01*
X1183Y1529D02*
X1270Y1529D01*
X1183Y1528D02*
X1271Y1528D01*
X1183Y1527D02*
X1271Y1527D01*
X1183Y1526D02*
X1271Y1526D01*
X1183Y1525D02*
X1271Y1525D01*
X1183Y1524D02*
X1271Y1524D01*
X1183Y1523D02*
X1271Y1523D01*
X1183Y1522D02*
X1271Y1522D01*
X1183Y1521D02*
X1271Y1521D01*
X1183Y1520D02*
X1271Y1520D01*
X1183Y1519D02*
X1271Y1519D01*
X1183Y1518D02*
X1271Y1518D01*
X1183Y1517D02*
X1198Y1517D01*
X1207Y1517D02*
X1271Y1517D01*
X1183Y1516D02*
X1196Y1516D01*
X1210Y1516D02*
X1271Y1516D01*
X1183Y1515D02*
X1195Y1515D01*
X1211Y1515D02*
X1271Y1515D01*
X1183Y1514D02*
X1194Y1514D01*
X1212Y1514D02*
X1271Y1514D01*
X1183Y1513D02*
X1193Y1513D01*
X1213Y1513D02*
X1271Y1513D01*
X1183Y1512D02*
X1192Y1512D01*
X1214Y1512D02*
X1271Y1512D01*
X1183Y1511D02*
X1191Y1511D01*
X1214Y1511D02*
X1271Y1511D01*
X1183Y1510D02*
X1191Y1510D01*
X1215Y1510D02*
X1271Y1510D01*
X1183Y1509D02*
X1191Y1509D01*
X1215Y1509D02*
X1271Y1509D01*
X1183Y1508D02*
X1190Y1508D01*
X1215Y1508D02*
X1271Y1508D01*
X1183Y1507D02*
X1190Y1507D01*
X1215Y1507D02*
X1271Y1507D01*
X1183Y1506D02*
X1190Y1506D01*
X1215Y1506D02*
X1271Y1506D01*
X1183Y1505D02*
X1190Y1505D01*
X1215Y1505D02*
X1271Y1505D01*
X1183Y1504D02*
X1190Y1504D01*
X1215Y1504D02*
X1271Y1504D01*
X1183Y1503D02*
X1190Y1503D01*
X1215Y1503D02*
X1271Y1503D01*
X1183Y1502D02*
X1191Y1502D01*
X1215Y1502D02*
X1271Y1502D01*
X1183Y1501D02*
X1191Y1501D01*
X1214Y1501D02*
X1271Y1501D01*
X1183Y1500D02*
X1192Y1500D01*
X1214Y1500D02*
X1271Y1500D01*
X1183Y1499D02*
X1192Y1499D01*
X1213Y1499D02*
X1271Y1499D01*
X1183Y1498D02*
X1193Y1498D01*
X1213Y1498D02*
X1271Y1498D01*
X1183Y1497D02*
X1194Y1497D01*
X1212Y1497D02*
X1271Y1497D01*
X1183Y1496D02*
X1195Y1496D01*
X1211Y1496D02*
X1271Y1496D01*
X1183Y1495D02*
X1197Y1495D01*
X1209Y1495D02*
X1271Y1495D01*
X1183Y1494D02*
X1199Y1494D01*
X1207Y1494D02*
X1271Y1494D01*
X1183Y1493D02*
X1271Y1493D01*
X1183Y1492D02*
X1271Y1492D01*
X1183Y1491D02*
X1271Y1491D01*
X1183Y1490D02*
X1271Y1490D01*
X1183Y1489D02*
X1271Y1489D01*
X1183Y1488D02*
X1271Y1488D01*
X1183Y1487D02*
X1271Y1487D01*
X1183Y1486D02*
X1271Y1486D01*
X1183Y1485D02*
X1271Y1485D01*
X1183Y1484D02*
X1271Y1484D01*
X1183Y1483D02*
X1271Y1483D01*
X1183Y1482D02*
X1270Y1482D01*
X1183Y1450D02*
X1271Y1450D01*
X1183Y1449D02*
X1271Y1449D01*
X1183Y1448D02*
X1271Y1448D01*
X1183Y1447D02*
X1271Y1447D01*
X1183Y1446D02*
X1271Y1446D01*
X1183Y1445D02*
X1271Y1445D01*
X1183Y1444D02*
X1271Y1444D01*
X1183Y1443D02*
X1271Y1443D01*
X1183Y1442D02*
X1271Y1442D01*
X1183Y1441D02*
X1271Y1441D01*
X1183Y1440D02*
X1271Y1440D01*
X1183Y1439D02*
X1202Y1439D01*
X1204Y1439D02*
X1271Y1439D01*
X1183Y1438D02*
X1197Y1438D01*
X1208Y1438D02*
X1271Y1438D01*
X1183Y1437D02*
X1196Y1437D01*
X1210Y1437D02*
X1271Y1437D01*
X1183Y1436D02*
X1194Y1436D01*
X1211Y1436D02*
X1271Y1436D01*
X1183Y1435D02*
X1193Y1435D01*
X1212Y1435D02*
X1271Y1435D01*
X1183Y1434D02*
X1192Y1434D01*
X1213Y1434D02*
X1271Y1434D01*
X1183Y1433D02*
X1192Y1433D01*
X1214Y1433D02*
X1271Y1433D01*
X1183Y1432D02*
X1191Y1432D01*
X1214Y1432D02*
X1271Y1432D01*
X1183Y1431D02*
X1191Y1431D01*
X1215Y1431D02*
X1271Y1431D01*
X1183Y1430D02*
X1191Y1430D01*
X1215Y1430D02*
X1271Y1430D01*
X1183Y1429D02*
X1190Y1429D01*
X1215Y1429D02*
X1271Y1429D01*
X1183Y1428D02*
X1190Y1428D01*
X1215Y1428D02*
X1271Y1428D01*
X1183Y1427D02*
X1190Y1427D01*
X1215Y1427D02*
X1271Y1427D01*
X1183Y1426D02*
X1190Y1426D01*
X1215Y1426D02*
X1271Y1426D01*
X1183Y1425D02*
X1190Y1425D01*
X1215Y1425D02*
X1271Y1425D01*
X1183Y1424D02*
X1191Y1424D01*
X1215Y1424D02*
X1271Y1424D01*
X1183Y1423D02*
X1191Y1423D01*
X1215Y1423D02*
X1271Y1423D01*
X1183Y1422D02*
X1191Y1422D01*
X1214Y1422D02*
X1271Y1422D01*
X1183Y1421D02*
X1192Y1421D01*
X1214Y1421D02*
X1271Y1421D01*
X1183Y1420D02*
X1192Y1420D01*
X1213Y1420D02*
X1271Y1420D01*
X1183Y1419D02*
X1193Y1419D01*
X1212Y1419D02*
X1271Y1419D01*
X1183Y1418D02*
X1194Y1418D01*
X1211Y1418D02*
X1271Y1418D01*
X1183Y1417D02*
X1195Y1417D01*
X1210Y1417D02*
X1271Y1417D01*
X1183Y1416D02*
X1197Y1416D01*
X1209Y1416D02*
X1271Y1416D01*
X1183Y1415D02*
X1200Y1415D01*
X1206Y1415D02*
X1271Y1415D01*
X1183Y1414D02*
X1271Y1414D01*
X1183Y1413D02*
X1271Y1413D01*
X1183Y1412D02*
X1271Y1412D01*
X1183Y1411D02*
X1271Y1411D01*
X1183Y1410D02*
X1271Y1410D01*
X1183Y1409D02*
X1271Y1409D01*
X1183Y1408D02*
X1271Y1408D01*
X1183Y1407D02*
X1271Y1407D01*
X1183Y1406D02*
X1271Y1406D01*
X1183Y1405D02*
X1271Y1405D01*
X1183Y1404D02*
X1271Y1404D01*
X1235Y1367D02*
X1281Y1367D01*
X1313Y1367D02*
X1360Y1367D01*
X1392Y1367D02*
X1438Y1367D01*
X1471Y1367D02*
X1517Y1367D01*
X1550Y1367D02*
X1596Y1367D01*
X1628Y1367D02*
X1675Y1367D01*
X1707Y1367D02*
X1753Y1367D01*
X1786Y1367D02*
X1832Y1367D01*
X1235Y1366D02*
X1281Y1366D01*
X1313Y1366D02*
X1360Y1366D01*
X1392Y1366D02*
X1438Y1366D01*
X1471Y1366D02*
X1517Y1366D01*
X1550Y1366D02*
X1596Y1366D01*
X1628Y1366D02*
X1675Y1366D01*
X1707Y1366D02*
X1753Y1366D01*
X1786Y1366D02*
X1832Y1366D01*
X1235Y1365D02*
X1281Y1365D01*
X1313Y1365D02*
X1360Y1365D01*
X1392Y1365D02*
X1438Y1365D01*
X1471Y1365D02*
X1517Y1365D01*
X1550Y1365D02*
X1596Y1365D01*
X1628Y1365D02*
X1675Y1365D01*
X1707Y1365D02*
X1753Y1365D01*
X1786Y1365D02*
X1832Y1365D01*
X1235Y1364D02*
X1281Y1364D01*
X1313Y1364D02*
X1360Y1364D01*
X1392Y1364D02*
X1438Y1364D01*
X1471Y1364D02*
X1517Y1364D01*
X1550Y1364D02*
X1596Y1364D01*
X1628Y1364D02*
X1675Y1364D01*
X1707Y1364D02*
X1753Y1364D01*
X1786Y1364D02*
X1832Y1364D01*
X1235Y1363D02*
X1281Y1363D01*
X1313Y1363D02*
X1360Y1363D01*
X1392Y1363D02*
X1438Y1363D01*
X1471Y1363D02*
X1517Y1363D01*
X1550Y1363D02*
X1596Y1363D01*
X1628Y1363D02*
X1675Y1363D01*
X1707Y1363D02*
X1753Y1363D01*
X1786Y1363D02*
X1832Y1363D01*
X1235Y1362D02*
X1281Y1362D01*
X1313Y1362D02*
X1360Y1362D01*
X1392Y1362D02*
X1438Y1362D01*
X1471Y1362D02*
X1517Y1362D01*
X1550Y1362D02*
X1596Y1362D01*
X1628Y1362D02*
X1675Y1362D01*
X1707Y1362D02*
X1753Y1362D01*
X1786Y1362D02*
X1832Y1362D01*
X1235Y1361D02*
X1281Y1361D01*
X1313Y1361D02*
X1360Y1361D01*
X1392Y1361D02*
X1438Y1361D01*
X1471Y1361D02*
X1517Y1361D01*
X1550Y1361D02*
X1596Y1361D01*
X1628Y1361D02*
X1675Y1361D01*
X1707Y1361D02*
X1753Y1361D01*
X1786Y1361D02*
X1832Y1361D01*
X1235Y1360D02*
X1281Y1360D01*
X1313Y1360D02*
X1360Y1360D01*
X1392Y1360D02*
X1438Y1360D01*
X1471Y1360D02*
X1517Y1360D01*
X1550Y1360D02*
X1596Y1360D01*
X1628Y1360D02*
X1675Y1360D01*
X1707Y1360D02*
X1753Y1360D01*
X1786Y1360D02*
X1832Y1360D01*
X1235Y1359D02*
X1254Y1359D01*
X1261Y1359D02*
X1281Y1359D01*
X1313Y1359D02*
X1333Y1359D01*
X1340Y1359D02*
X1360Y1359D01*
X1392Y1359D02*
X1412Y1359D01*
X1419Y1359D02*
X1438Y1359D01*
X1471Y1359D02*
X1491Y1359D01*
X1497Y1359D02*
X1517Y1359D01*
X1550Y1359D02*
X1569Y1359D01*
X1576Y1359D02*
X1596Y1359D01*
X1628Y1359D02*
X1648Y1359D01*
X1655Y1359D02*
X1675Y1359D01*
X1707Y1359D02*
X1727Y1359D01*
X1734Y1359D02*
X1753Y1359D01*
X1786Y1359D02*
X1805Y1359D01*
X1812Y1359D02*
X1832Y1359D01*
X1235Y1358D02*
X1252Y1358D01*
X1264Y1358D02*
X1281Y1358D01*
X1313Y1358D02*
X1330Y1358D01*
X1343Y1358D02*
X1360Y1358D01*
X1392Y1358D02*
X1409Y1358D01*
X1421Y1358D02*
X1438Y1358D01*
X1471Y1358D02*
X1488Y1358D01*
X1500Y1358D02*
X1517Y1358D01*
X1550Y1358D02*
X1567Y1358D01*
X1579Y1358D02*
X1596Y1358D01*
X1628Y1358D02*
X1645Y1358D01*
X1657Y1358D02*
X1675Y1358D01*
X1707Y1358D02*
X1724Y1358D01*
X1736Y1358D02*
X1753Y1358D01*
X1786Y1358D02*
X1803Y1358D01*
X1815Y1358D02*
X1832Y1358D01*
X1235Y1357D02*
X1250Y1357D01*
X1265Y1357D02*
X1281Y1357D01*
X1313Y1357D02*
X1329Y1357D01*
X1344Y1357D02*
X1360Y1357D01*
X1392Y1357D02*
X1408Y1357D01*
X1423Y1357D02*
X1438Y1357D01*
X1471Y1357D02*
X1486Y1357D01*
X1502Y1357D02*
X1517Y1357D01*
X1550Y1357D02*
X1565Y1357D01*
X1580Y1357D02*
X1596Y1357D01*
X1628Y1357D02*
X1644Y1357D01*
X1659Y1357D02*
X1675Y1357D01*
X1707Y1357D02*
X1722Y1357D01*
X1738Y1357D02*
X1753Y1357D01*
X1786Y1357D02*
X1801Y1357D01*
X1817Y1357D02*
X1832Y1357D01*
X1235Y1356D02*
X1249Y1356D01*
X1267Y1356D02*
X1281Y1356D01*
X1313Y1356D02*
X1328Y1356D01*
X1345Y1356D02*
X1360Y1356D01*
X1392Y1356D02*
X1406Y1356D01*
X1424Y1356D02*
X1438Y1356D01*
X1471Y1356D02*
X1485Y1356D01*
X1503Y1356D02*
X1517Y1356D01*
X1550Y1356D02*
X1564Y1356D01*
X1582Y1356D02*
X1596Y1356D01*
X1628Y1356D02*
X1643Y1356D01*
X1660Y1356D02*
X1675Y1356D01*
X1707Y1356D02*
X1721Y1356D01*
X1739Y1356D02*
X1753Y1356D01*
X1786Y1356D02*
X1800Y1356D01*
X1818Y1356D02*
X1832Y1356D01*
X1235Y1355D02*
X1248Y1355D01*
X1268Y1355D02*
X1281Y1355D01*
X1313Y1355D02*
X1327Y1355D01*
X1346Y1355D02*
X1360Y1355D01*
X1392Y1355D02*
X1405Y1355D01*
X1425Y1355D02*
X1438Y1355D01*
X1471Y1355D02*
X1484Y1355D01*
X1504Y1355D02*
X1517Y1355D01*
X1550Y1355D02*
X1563Y1355D01*
X1582Y1355D02*
X1596Y1355D01*
X1628Y1355D02*
X1642Y1355D01*
X1661Y1355D02*
X1675Y1355D01*
X1707Y1355D02*
X1720Y1355D01*
X1740Y1355D02*
X1753Y1355D01*
X1786Y1355D02*
X1799Y1355D01*
X1819Y1355D02*
X1832Y1355D01*
X1235Y1354D02*
X1247Y1354D01*
X1268Y1354D02*
X1281Y1354D01*
X1313Y1354D02*
X1326Y1354D01*
X1347Y1354D02*
X1360Y1354D01*
X1392Y1354D02*
X1405Y1354D01*
X1426Y1354D02*
X1438Y1354D01*
X1471Y1354D02*
X1483Y1354D01*
X1505Y1354D02*
X1517Y1354D01*
X1550Y1354D02*
X1562Y1354D01*
X1583Y1354D02*
X1596Y1354D01*
X1628Y1354D02*
X1641Y1354D01*
X1662Y1354D02*
X1675Y1354D01*
X1707Y1354D02*
X1720Y1354D01*
X1741Y1354D02*
X1753Y1354D01*
X1786Y1354D02*
X1798Y1354D01*
X1819Y1354D02*
X1832Y1354D01*
X1235Y1353D02*
X1247Y1353D01*
X1269Y1353D02*
X1281Y1353D01*
X1313Y1353D02*
X1325Y1353D01*
X1348Y1353D02*
X1360Y1353D01*
X1392Y1353D02*
X1404Y1353D01*
X1426Y1353D02*
X1438Y1353D01*
X1471Y1353D02*
X1483Y1353D01*
X1505Y1353D02*
X1517Y1353D01*
X1550Y1353D02*
X1562Y1353D01*
X1584Y1353D02*
X1596Y1353D01*
X1628Y1353D02*
X1640Y1353D01*
X1663Y1353D02*
X1675Y1353D01*
X1707Y1353D02*
X1719Y1353D01*
X1741Y1353D02*
X1753Y1353D01*
X1786Y1353D02*
X1798Y1353D01*
X1820Y1353D02*
X1832Y1353D01*
X1235Y1352D02*
X1246Y1352D01*
X1269Y1352D02*
X1281Y1352D01*
X1313Y1352D02*
X1325Y1352D01*
X1348Y1352D02*
X1360Y1352D01*
X1392Y1352D02*
X1404Y1352D01*
X1427Y1352D02*
X1438Y1352D01*
X1471Y1352D02*
X1482Y1352D01*
X1506Y1352D02*
X1517Y1352D01*
X1550Y1352D02*
X1561Y1352D01*
X1584Y1352D02*
X1596Y1352D01*
X1628Y1352D02*
X1640Y1352D01*
X1663Y1352D02*
X1675Y1352D01*
X1707Y1352D02*
X1718Y1352D01*
X1742Y1352D02*
X1753Y1352D01*
X1786Y1352D02*
X1797Y1352D01*
X1821Y1352D02*
X1832Y1352D01*
X1235Y1351D02*
X1246Y1351D01*
X1270Y1351D02*
X1281Y1351D01*
X1313Y1351D02*
X1324Y1351D01*
X1348Y1351D02*
X1360Y1351D01*
X1392Y1351D02*
X1403Y1351D01*
X1427Y1351D02*
X1438Y1351D01*
X1471Y1351D02*
X1482Y1351D01*
X1506Y1351D02*
X1517Y1351D01*
X1550Y1351D02*
X1561Y1351D01*
X1585Y1351D02*
X1596Y1351D01*
X1628Y1351D02*
X1639Y1351D01*
X1663Y1351D02*
X1675Y1351D01*
X1707Y1351D02*
X1718Y1351D01*
X1742Y1351D02*
X1753Y1351D01*
X1786Y1351D02*
X1797Y1351D01*
X1821Y1351D02*
X1832Y1351D01*
X1235Y1350D02*
X1245Y1350D01*
X1270Y1350D02*
X1281Y1350D01*
X1313Y1350D02*
X1324Y1350D01*
X1349Y1350D02*
X1360Y1350D01*
X1392Y1350D02*
X1403Y1350D01*
X1428Y1350D02*
X1438Y1350D01*
X1471Y1350D02*
X1482Y1350D01*
X1506Y1350D02*
X1517Y1350D01*
X1550Y1350D02*
X1560Y1350D01*
X1585Y1350D02*
X1596Y1350D01*
X1628Y1350D02*
X1639Y1350D01*
X1664Y1350D02*
X1675Y1350D01*
X1707Y1350D02*
X1718Y1350D01*
X1742Y1350D02*
X1753Y1350D01*
X1786Y1350D02*
X1797Y1350D01*
X1821Y1350D02*
X1832Y1350D01*
X1235Y1349D02*
X1245Y1349D01*
X1270Y1349D02*
X1281Y1349D01*
X1313Y1349D02*
X1324Y1349D01*
X1349Y1349D02*
X1360Y1349D01*
X1392Y1349D02*
X1403Y1349D01*
X1428Y1349D02*
X1438Y1349D01*
X1471Y1349D02*
X1481Y1349D01*
X1506Y1349D02*
X1517Y1349D01*
X1550Y1349D02*
X1560Y1349D01*
X1585Y1349D02*
X1596Y1349D01*
X1628Y1349D02*
X1639Y1349D01*
X1664Y1349D02*
X1675Y1349D01*
X1707Y1349D02*
X1718Y1349D01*
X1743Y1349D02*
X1753Y1349D01*
X1786Y1349D02*
X1796Y1349D01*
X1821Y1349D02*
X1832Y1349D01*
X1235Y1348D02*
X1245Y1348D01*
X1270Y1348D02*
X1281Y1348D01*
X1313Y1348D02*
X1324Y1348D01*
X1349Y1348D02*
X1360Y1348D01*
X1392Y1348D02*
X1403Y1348D01*
X1428Y1348D02*
X1438Y1348D01*
X1471Y1348D02*
X1481Y1348D01*
X1507Y1348D02*
X1517Y1348D01*
X1550Y1348D02*
X1560Y1348D01*
X1585Y1348D02*
X1596Y1348D01*
X1628Y1348D02*
X1639Y1348D01*
X1664Y1348D02*
X1675Y1348D01*
X1707Y1348D02*
X1718Y1348D01*
X1743Y1348D02*
X1753Y1348D01*
X1786Y1348D02*
X1796Y1348D01*
X1821Y1348D02*
X1832Y1348D01*
X1235Y1347D02*
X1245Y1347D01*
X1270Y1347D02*
X1281Y1347D01*
X1313Y1347D02*
X1324Y1347D01*
X1349Y1347D02*
X1360Y1347D01*
X1392Y1347D02*
X1403Y1347D01*
X1428Y1347D02*
X1438Y1347D01*
X1471Y1347D02*
X1481Y1347D01*
X1507Y1347D02*
X1517Y1347D01*
X1550Y1347D02*
X1560Y1347D01*
X1585Y1347D02*
X1596Y1347D01*
X1628Y1347D02*
X1639Y1347D01*
X1664Y1347D02*
X1675Y1347D01*
X1707Y1347D02*
X1718Y1347D01*
X1743Y1347D02*
X1753Y1347D01*
X1786Y1347D02*
X1796Y1347D01*
X1821Y1347D02*
X1832Y1347D01*
X1235Y1346D02*
X1245Y1346D01*
X1270Y1346D02*
X1281Y1346D01*
X1313Y1346D02*
X1324Y1346D01*
X1349Y1346D02*
X1360Y1346D01*
X1392Y1346D02*
X1403Y1346D01*
X1428Y1346D02*
X1438Y1346D01*
X1471Y1346D02*
X1481Y1346D01*
X1506Y1346D02*
X1517Y1346D01*
X1550Y1346D02*
X1560Y1346D01*
X1585Y1346D02*
X1596Y1346D01*
X1628Y1346D02*
X1639Y1346D01*
X1664Y1346D02*
X1675Y1346D01*
X1707Y1346D02*
X1718Y1346D01*
X1743Y1346D02*
X1753Y1346D01*
X1786Y1346D02*
X1796Y1346D01*
X1821Y1346D02*
X1832Y1346D01*
X1235Y1345D02*
X1245Y1345D01*
X1270Y1345D02*
X1281Y1345D01*
X1313Y1345D02*
X1324Y1345D01*
X1349Y1345D02*
X1360Y1345D01*
X1392Y1345D02*
X1403Y1345D01*
X1428Y1345D02*
X1438Y1345D01*
X1471Y1345D02*
X1482Y1345D01*
X1506Y1345D02*
X1517Y1345D01*
X1550Y1345D02*
X1560Y1345D01*
X1585Y1345D02*
X1596Y1345D01*
X1628Y1345D02*
X1639Y1345D01*
X1664Y1345D02*
X1675Y1345D01*
X1707Y1345D02*
X1718Y1345D01*
X1743Y1345D02*
X1753Y1345D01*
X1786Y1345D02*
X1796Y1345D01*
X1821Y1345D02*
X1832Y1345D01*
X1235Y1344D02*
X1246Y1344D01*
X1270Y1344D02*
X1281Y1344D01*
X1313Y1344D02*
X1324Y1344D01*
X1349Y1344D02*
X1360Y1344D01*
X1392Y1344D02*
X1403Y1344D01*
X1427Y1344D02*
X1438Y1344D01*
X1471Y1344D02*
X1482Y1344D01*
X1506Y1344D02*
X1517Y1344D01*
X1550Y1344D02*
X1561Y1344D01*
X1585Y1344D02*
X1596Y1344D01*
X1628Y1344D02*
X1639Y1344D01*
X1664Y1344D02*
X1675Y1344D01*
X1707Y1344D02*
X1718Y1344D01*
X1742Y1344D02*
X1753Y1344D01*
X1786Y1344D02*
X1797Y1344D01*
X1821Y1344D02*
X1832Y1344D01*
X1235Y1343D02*
X1246Y1343D01*
X1270Y1343D02*
X1281Y1343D01*
X1313Y1343D02*
X1325Y1343D01*
X1348Y1343D02*
X1360Y1343D01*
X1392Y1343D02*
X1403Y1343D01*
X1427Y1343D02*
X1438Y1343D01*
X1471Y1343D02*
X1482Y1343D01*
X1506Y1343D02*
X1517Y1343D01*
X1550Y1343D02*
X1561Y1343D01*
X1585Y1343D02*
X1596Y1343D01*
X1628Y1343D02*
X1640Y1343D01*
X1663Y1343D02*
X1675Y1343D01*
X1707Y1343D02*
X1718Y1343D01*
X1742Y1343D02*
X1753Y1343D01*
X1786Y1343D02*
X1797Y1343D01*
X1821Y1343D02*
X1832Y1343D01*
X1235Y1342D02*
X1246Y1342D01*
X1269Y1342D02*
X1281Y1342D01*
X1313Y1342D02*
X1325Y1342D01*
X1348Y1342D02*
X1360Y1342D01*
X1392Y1342D02*
X1404Y1342D01*
X1427Y1342D02*
X1438Y1342D01*
X1471Y1342D02*
X1483Y1342D01*
X1505Y1342D02*
X1517Y1342D01*
X1550Y1342D02*
X1561Y1342D01*
X1584Y1342D02*
X1596Y1342D01*
X1628Y1342D02*
X1640Y1342D01*
X1663Y1342D02*
X1675Y1342D01*
X1707Y1342D02*
X1719Y1342D01*
X1742Y1342D02*
X1753Y1342D01*
X1786Y1342D02*
X1797Y1342D01*
X1820Y1342D02*
X1832Y1342D01*
X1235Y1341D02*
X1247Y1341D01*
X1269Y1341D02*
X1281Y1341D01*
X1313Y1341D02*
X1326Y1341D01*
X1347Y1341D02*
X1360Y1341D01*
X1392Y1341D02*
X1404Y1341D01*
X1426Y1341D02*
X1438Y1341D01*
X1471Y1341D02*
X1483Y1341D01*
X1505Y1341D02*
X1517Y1341D01*
X1550Y1341D02*
X1562Y1341D01*
X1584Y1341D02*
X1596Y1341D01*
X1628Y1341D02*
X1641Y1341D01*
X1662Y1341D02*
X1675Y1341D01*
X1707Y1341D02*
X1719Y1341D01*
X1741Y1341D02*
X1753Y1341D01*
X1786Y1341D02*
X1798Y1341D01*
X1820Y1341D02*
X1832Y1341D01*
X1235Y1340D02*
X1248Y1340D01*
X1268Y1340D02*
X1281Y1340D01*
X1313Y1340D02*
X1326Y1340D01*
X1347Y1340D02*
X1360Y1340D01*
X1392Y1340D02*
X1405Y1340D01*
X1425Y1340D02*
X1438Y1340D01*
X1471Y1340D02*
X1484Y1340D01*
X1504Y1340D02*
X1517Y1340D01*
X1550Y1340D02*
X1562Y1340D01*
X1583Y1340D02*
X1596Y1340D01*
X1628Y1340D02*
X1641Y1340D01*
X1662Y1340D02*
X1675Y1340D01*
X1707Y1340D02*
X1720Y1340D01*
X1740Y1340D02*
X1753Y1340D01*
X1786Y1340D02*
X1799Y1340D01*
X1819Y1340D02*
X1832Y1340D01*
X1235Y1339D02*
X1248Y1339D01*
X1267Y1339D02*
X1281Y1339D01*
X1313Y1339D02*
X1327Y1339D01*
X1346Y1339D02*
X1360Y1339D01*
X1392Y1339D02*
X1406Y1339D01*
X1425Y1339D02*
X1438Y1339D01*
X1471Y1339D02*
X1485Y1339D01*
X1503Y1339D02*
X1517Y1339D01*
X1550Y1339D02*
X1563Y1339D01*
X1582Y1339D02*
X1596Y1339D01*
X1628Y1339D02*
X1642Y1339D01*
X1661Y1339D02*
X1675Y1339D01*
X1707Y1339D02*
X1721Y1339D01*
X1740Y1339D02*
X1753Y1339D01*
X1786Y1339D02*
X1799Y1339D01*
X1818Y1339D02*
X1832Y1339D01*
X1235Y1338D02*
X1249Y1338D01*
X1266Y1338D02*
X1281Y1338D01*
X1313Y1338D02*
X1328Y1338D01*
X1345Y1338D02*
X1360Y1338D01*
X1392Y1338D02*
X1407Y1338D01*
X1424Y1338D02*
X1438Y1338D01*
X1471Y1338D02*
X1486Y1338D01*
X1502Y1338D02*
X1517Y1338D01*
X1550Y1338D02*
X1564Y1338D01*
X1581Y1338D02*
X1596Y1338D01*
X1628Y1338D02*
X1643Y1338D01*
X1660Y1338D02*
X1675Y1338D01*
X1707Y1338D02*
X1722Y1338D01*
X1738Y1338D02*
X1753Y1338D01*
X1786Y1338D02*
X1801Y1338D01*
X1817Y1338D02*
X1832Y1338D01*
X1235Y1337D02*
X1251Y1337D01*
X1265Y1337D02*
X1281Y1337D01*
X1313Y1337D02*
X1330Y1337D01*
X1343Y1337D02*
X1360Y1337D01*
X1392Y1337D02*
X1408Y1337D01*
X1422Y1337D02*
X1438Y1337D01*
X1471Y1337D02*
X1487Y1337D01*
X1501Y1337D02*
X1517Y1337D01*
X1550Y1337D02*
X1566Y1337D01*
X1580Y1337D02*
X1596Y1337D01*
X1628Y1337D02*
X1644Y1337D01*
X1658Y1337D02*
X1675Y1337D01*
X1707Y1337D02*
X1723Y1337D01*
X1737Y1337D02*
X1753Y1337D01*
X1786Y1337D02*
X1802Y1337D01*
X1816Y1337D02*
X1832Y1337D01*
X1235Y1336D02*
X1253Y1336D01*
X1263Y1336D02*
X1281Y1336D01*
X1313Y1336D02*
X1331Y1336D01*
X1342Y1336D02*
X1360Y1336D01*
X1392Y1336D02*
X1410Y1336D01*
X1420Y1336D02*
X1438Y1336D01*
X1471Y1336D02*
X1489Y1336D01*
X1499Y1336D02*
X1517Y1336D01*
X1550Y1336D02*
X1568Y1336D01*
X1578Y1336D02*
X1596Y1336D01*
X1628Y1336D02*
X1646Y1336D01*
X1656Y1336D02*
X1675Y1336D01*
X1707Y1336D02*
X1725Y1336D01*
X1735Y1336D02*
X1753Y1336D01*
X1786Y1336D02*
X1804Y1336D01*
X1814Y1336D02*
X1832Y1336D01*
X1235Y1335D02*
X1281Y1335D01*
X1313Y1335D02*
X1360Y1335D01*
X1392Y1335D02*
X1438Y1335D01*
X1471Y1335D02*
X1517Y1335D01*
X1550Y1335D02*
X1596Y1335D01*
X1628Y1335D02*
X1675Y1335D01*
X1707Y1335D02*
X1753Y1335D01*
X1786Y1335D02*
X1832Y1335D01*
X1235Y1334D02*
X1281Y1334D01*
X1313Y1334D02*
X1360Y1334D01*
X1392Y1334D02*
X1438Y1334D01*
X1471Y1334D02*
X1517Y1334D01*
X1550Y1334D02*
X1596Y1334D01*
X1628Y1334D02*
X1675Y1334D01*
X1707Y1334D02*
X1753Y1334D01*
X1786Y1334D02*
X1832Y1334D01*
X1235Y1333D02*
X1281Y1333D01*
X1313Y1333D02*
X1360Y1333D01*
X1392Y1333D02*
X1438Y1333D01*
X1471Y1333D02*
X1517Y1333D01*
X1550Y1333D02*
X1596Y1333D01*
X1628Y1333D02*
X1675Y1333D01*
X1707Y1333D02*
X1753Y1333D01*
X1786Y1333D02*
X1832Y1333D01*
X1235Y1332D02*
X1281Y1332D01*
X1313Y1332D02*
X1360Y1332D01*
X1392Y1332D02*
X1438Y1332D01*
X1471Y1332D02*
X1517Y1332D01*
X1550Y1332D02*
X1596Y1332D01*
X1628Y1332D02*
X1675Y1332D01*
X1707Y1332D02*
X1753Y1332D01*
X1786Y1332D02*
X1832Y1332D01*
X1235Y1331D02*
X1281Y1331D01*
X1313Y1331D02*
X1360Y1331D01*
X1392Y1331D02*
X1438Y1331D01*
X1471Y1331D02*
X1517Y1331D01*
X1550Y1331D02*
X1596Y1331D01*
X1628Y1331D02*
X1675Y1331D01*
X1707Y1331D02*
X1753Y1331D01*
X1786Y1331D02*
X1832Y1331D01*
X1235Y1330D02*
X1281Y1330D01*
X1313Y1330D02*
X1360Y1330D01*
X1392Y1330D02*
X1438Y1330D01*
X1471Y1330D02*
X1517Y1330D01*
X1550Y1330D02*
X1596Y1330D01*
X1628Y1330D02*
X1675Y1330D01*
X1707Y1330D02*
X1753Y1330D01*
X1786Y1330D02*
X1832Y1330D01*
X1235Y1329D02*
X1281Y1329D01*
X1313Y1329D02*
X1360Y1329D01*
X1392Y1329D02*
X1438Y1329D01*
X1471Y1329D02*
X1517Y1329D01*
X1550Y1329D02*
X1596Y1329D01*
X1628Y1329D02*
X1675Y1329D01*
X1707Y1329D02*
X1753Y1329D01*
X1786Y1329D02*
X1832Y1329D01*
X1235Y1328D02*
X1281Y1328D01*
X1313Y1328D02*
X1360Y1328D01*
X1392Y1328D02*
X1438Y1328D01*
X1471Y1328D02*
X1517Y1328D01*
X1550Y1328D02*
X1596Y1328D01*
X1628Y1328D02*
X1675Y1328D01*
X1707Y1328D02*
X1753Y1328D01*
X1786Y1328D02*
X1832Y1328D01*
X1235Y1327D02*
X1281Y1327D01*
X1313Y1327D02*
X1360Y1327D01*
X1392Y1327D02*
X1438Y1327D01*
X1471Y1327D02*
X1517Y1327D01*
X1550Y1327D02*
X1596Y1327D01*
X1628Y1327D02*
X1675Y1327D01*
X1707Y1327D02*
X1753Y1327D01*
X1786Y1327D02*
X1832Y1327D01*
X1235Y1326D02*
X1281Y1326D01*
X1313Y1326D02*
X1360Y1326D01*
X1392Y1326D02*
X1438Y1326D01*
X1471Y1326D02*
X1517Y1326D01*
X1550Y1326D02*
X1596Y1326D01*
X1628Y1326D02*
X1675Y1326D01*
X1707Y1326D02*
X1753Y1326D01*
X1786Y1326D02*
X1832Y1326D01*
X1235Y1325D02*
X1281Y1325D01*
X1313Y1325D02*
X1360Y1325D01*
X1392Y1325D02*
X1438Y1325D01*
X1471Y1325D02*
X1517Y1325D01*
X1550Y1325D02*
X1596Y1325D01*
X1628Y1325D02*
X1675Y1325D01*
X1707Y1325D02*
X1753Y1325D01*
X1786Y1325D02*
X1832Y1325D01*
X1235Y1324D02*
X1281Y1324D01*
X1313Y1324D02*
X1360Y1324D01*
X1392Y1324D02*
X1438Y1324D01*
X1471Y1324D02*
X1517Y1324D01*
X1550Y1324D02*
X1596Y1324D01*
X1628Y1324D02*
X1675Y1324D01*
X1707Y1324D02*
X1753Y1324D01*
X1786Y1324D02*
X1832Y1324D01*
X1235Y1323D02*
X1281Y1323D01*
X1313Y1323D02*
X1360Y1323D01*
X1392Y1323D02*
X1438Y1323D01*
X1471Y1323D02*
X1517Y1323D01*
X1550Y1323D02*
X1596Y1323D01*
X1628Y1323D02*
X1675Y1323D01*
X1707Y1323D02*
X1753Y1323D01*
X1786Y1323D02*
X1832Y1323D01*
X1235Y1322D02*
X1281Y1322D01*
X1313Y1322D02*
X1360Y1322D01*
X1392Y1322D02*
X1438Y1322D01*
X1471Y1322D02*
X1517Y1322D01*
X1550Y1322D02*
X1596Y1322D01*
X1628Y1322D02*
X1675Y1322D01*
X1707Y1322D02*
X1753Y1322D01*
X1786Y1322D02*
X1832Y1322D01*
X1235Y1321D02*
X1281Y1321D01*
X1313Y1321D02*
X1360Y1321D01*
X1392Y1321D02*
X1438Y1321D01*
X1471Y1321D02*
X1517Y1321D01*
X1550Y1321D02*
X1596Y1321D01*
X1628Y1321D02*
X1675Y1321D01*
X1707Y1321D02*
X1753Y1321D01*
X1786Y1321D02*
X1832Y1321D01*
X1235Y1320D02*
X1281Y1320D01*
X1313Y1320D02*
X1360Y1320D01*
X1392Y1320D02*
X1438Y1320D01*
X1471Y1320D02*
X1517Y1320D01*
X1550Y1320D02*
X1596Y1320D01*
X1628Y1320D02*
X1675Y1320D01*
X1707Y1320D02*
X1753Y1320D01*
X1786Y1320D02*
X1832Y1320D01*
X1235Y1319D02*
X1281Y1319D01*
X1313Y1319D02*
X1360Y1319D01*
X1392Y1319D02*
X1438Y1319D01*
X1471Y1319D02*
X1517Y1319D01*
X1550Y1319D02*
X1596Y1319D01*
X1628Y1319D02*
X1675Y1319D01*
X1707Y1319D02*
X1753Y1319D01*
X1786Y1319D02*
X1832Y1319D01*
X1235Y1318D02*
X1281Y1318D01*
X1313Y1318D02*
X1360Y1318D01*
X1392Y1318D02*
X1438Y1318D01*
X1471Y1318D02*
X1517Y1318D01*
X1550Y1318D02*
X1596Y1318D01*
X1628Y1318D02*
X1675Y1318D01*
X1707Y1318D02*
X1753Y1318D01*
X1786Y1318D02*
X1832Y1318D01*
X1235Y1317D02*
X1281Y1317D01*
X1313Y1317D02*
X1360Y1317D01*
X1392Y1317D02*
X1438Y1317D01*
X1471Y1317D02*
X1517Y1317D01*
X1550Y1317D02*
X1596Y1317D01*
X1628Y1317D02*
X1675Y1317D01*
X1707Y1317D02*
X1753Y1317D01*
X1786Y1317D02*
X1832Y1317D01*
X1235Y1316D02*
X1281Y1316D01*
X1313Y1316D02*
X1360Y1316D01*
X1392Y1316D02*
X1438Y1316D01*
X1471Y1316D02*
X1517Y1316D01*
X1550Y1316D02*
X1596Y1316D01*
X1628Y1316D02*
X1675Y1316D01*
X1707Y1316D02*
X1753Y1316D01*
X1786Y1316D02*
X1832Y1316D01*
X1235Y1315D02*
X1281Y1315D01*
X1313Y1315D02*
X1360Y1315D01*
X1392Y1315D02*
X1438Y1315D01*
X1471Y1315D02*
X1517Y1315D01*
X1550Y1315D02*
X1596Y1315D01*
X1628Y1315D02*
X1675Y1315D01*
X1707Y1315D02*
X1753Y1315D01*
X1786Y1315D02*
X1832Y1315D01*
X1235Y1314D02*
X1281Y1314D01*
X1313Y1314D02*
X1360Y1314D01*
X1392Y1314D02*
X1438Y1314D01*
X1471Y1314D02*
X1517Y1314D01*
X1550Y1314D02*
X1596Y1314D01*
X1628Y1314D02*
X1675Y1314D01*
X1707Y1314D02*
X1753Y1314D01*
X1786Y1314D02*
X1832Y1314D01*
X1235Y1313D02*
X1281Y1313D01*
X1313Y1313D02*
X1360Y1313D01*
X1392Y1313D02*
X1438Y1313D01*
X1471Y1313D02*
X1517Y1313D01*
X1550Y1313D02*
X1596Y1313D01*
X1628Y1313D02*
X1675Y1313D01*
X1707Y1313D02*
X1753Y1313D01*
X1786Y1313D02*
X1832Y1313D01*
X1235Y1312D02*
X1281Y1312D01*
X1313Y1312D02*
X1360Y1312D01*
X1392Y1312D02*
X1438Y1312D01*
X1471Y1312D02*
X1517Y1312D01*
X1550Y1312D02*
X1596Y1312D01*
X1628Y1312D02*
X1675Y1312D01*
X1707Y1312D02*
X1753Y1312D01*
X1786Y1312D02*
X1832Y1312D01*
X1235Y1311D02*
X1281Y1311D01*
X1313Y1311D02*
X1360Y1311D01*
X1392Y1311D02*
X1438Y1311D01*
X1471Y1311D02*
X1517Y1311D01*
X1550Y1311D02*
X1596Y1311D01*
X1628Y1311D02*
X1675Y1311D01*
X1707Y1311D02*
X1753Y1311D01*
X1786Y1311D02*
X1832Y1311D01*
X1235Y1310D02*
X1281Y1310D01*
X1313Y1310D02*
X1360Y1310D01*
X1392Y1310D02*
X1438Y1310D01*
X1471Y1310D02*
X1517Y1310D01*
X1550Y1310D02*
X1596Y1310D01*
X1628Y1310D02*
X1675Y1310D01*
X1707Y1310D02*
X1753Y1310D01*
X1786Y1310D02*
X1832Y1310D01*
X1235Y1309D02*
X1281Y1309D01*
X1313Y1309D02*
X1360Y1309D01*
X1392Y1309D02*
X1438Y1309D01*
X1471Y1309D02*
X1517Y1309D01*
X1550Y1309D02*
X1596Y1309D01*
X1628Y1309D02*
X1675Y1309D01*
X1707Y1309D02*
X1753Y1309D01*
X1786Y1309D02*
X1832Y1309D01*
X1235Y1308D02*
X1281Y1308D01*
X1313Y1308D02*
X1360Y1308D01*
X1392Y1308D02*
X1438Y1308D01*
X1471Y1308D02*
X1517Y1308D01*
X1550Y1308D02*
X1596Y1308D01*
X1628Y1308D02*
X1675Y1308D01*
X1707Y1308D02*
X1753Y1308D01*
X1786Y1308D02*
X1832Y1308D01*
X1235Y1307D02*
X1281Y1307D01*
X1313Y1307D02*
X1360Y1307D01*
X1392Y1307D02*
X1438Y1307D01*
X1471Y1307D02*
X1517Y1307D01*
X1550Y1307D02*
X1596Y1307D01*
X1628Y1307D02*
X1675Y1307D01*
X1707Y1307D02*
X1753Y1307D01*
X1786Y1307D02*
X1832Y1307D01*
X1235Y1306D02*
X1281Y1306D01*
X1313Y1306D02*
X1360Y1306D01*
X1392Y1306D02*
X1438Y1306D01*
X1471Y1306D02*
X1517Y1306D01*
X1550Y1306D02*
X1596Y1306D01*
X1628Y1306D02*
X1675Y1306D01*
X1707Y1306D02*
X1753Y1306D01*
X1786Y1306D02*
X1832Y1306D01*
X1235Y1305D02*
X1281Y1305D01*
X1313Y1305D02*
X1360Y1305D01*
X1392Y1305D02*
X1438Y1305D01*
X1471Y1305D02*
X1517Y1305D01*
X1550Y1305D02*
X1596Y1305D01*
X1628Y1305D02*
X1675Y1305D01*
X1707Y1305D02*
X1753Y1305D01*
X1786Y1305D02*
X1832Y1305D01*
X1235Y1304D02*
X1281Y1304D01*
X1313Y1304D02*
X1360Y1304D01*
X1392Y1304D02*
X1438Y1304D01*
X1471Y1304D02*
X1517Y1304D01*
X1550Y1304D02*
X1596Y1304D01*
X1628Y1304D02*
X1675Y1304D01*
X1707Y1304D02*
X1753Y1304D01*
X1786Y1304D02*
X1832Y1304D01*
X1235Y1303D02*
X1281Y1303D01*
X1313Y1303D02*
X1360Y1303D01*
X1392Y1303D02*
X1438Y1303D01*
X1471Y1303D02*
X1517Y1303D01*
X1550Y1303D02*
X1596Y1303D01*
X1628Y1303D02*
X1675Y1303D01*
X1707Y1303D02*
X1753Y1303D01*
X1786Y1303D02*
X1832Y1303D01*
X1235Y1302D02*
X1281Y1302D01*
X1313Y1302D02*
X1360Y1302D01*
X1392Y1302D02*
X1438Y1302D01*
X1471Y1302D02*
X1517Y1302D01*
X1550Y1302D02*
X1596Y1302D01*
X1628Y1302D02*
X1675Y1302D01*
X1707Y1302D02*
X1753Y1302D01*
X1786Y1302D02*
X1832Y1302D01*
X1235Y1301D02*
X1281Y1301D01*
X1313Y1301D02*
X1360Y1301D01*
X1392Y1301D02*
X1438Y1301D01*
X1471Y1301D02*
X1517Y1301D01*
X1550Y1301D02*
X1596Y1301D01*
X1628Y1301D02*
X1675Y1301D01*
X1707Y1301D02*
X1753Y1301D01*
X1786Y1301D02*
X1832Y1301D01*
X1235Y1300D02*
X1281Y1300D01*
X1313Y1300D02*
X1360Y1300D01*
X1392Y1300D02*
X1438Y1300D01*
X1471Y1300D02*
X1517Y1300D01*
X1550Y1300D02*
X1596Y1300D01*
X1628Y1300D02*
X1675Y1300D01*
X1707Y1300D02*
X1753Y1300D01*
X1786Y1300D02*
X1832Y1300D01*
X1235Y1299D02*
X1281Y1299D01*
X1313Y1299D02*
X1360Y1299D01*
X1392Y1299D02*
X1438Y1299D01*
X1471Y1299D02*
X1517Y1299D01*
X1550Y1299D02*
X1596Y1299D01*
X1628Y1299D02*
X1675Y1299D01*
X1707Y1299D02*
X1753Y1299D01*
X1786Y1299D02*
X1832Y1299D01*
X1235Y1298D02*
X1281Y1298D01*
X1313Y1298D02*
X1360Y1298D01*
X1392Y1298D02*
X1438Y1298D01*
X1471Y1298D02*
X1517Y1298D01*
X1550Y1298D02*
X1596Y1298D01*
X1628Y1298D02*
X1675Y1298D01*
X1707Y1298D02*
X1753Y1298D01*
X1786Y1298D02*
X1832Y1298D01*
X1235Y1297D02*
X1281Y1297D01*
X1313Y1297D02*
X1360Y1297D01*
X1392Y1297D02*
X1438Y1297D01*
X1471Y1297D02*
X1517Y1297D01*
X1550Y1297D02*
X1596Y1297D01*
X1628Y1297D02*
X1675Y1297D01*
X1707Y1297D02*
X1753Y1297D01*
X1786Y1297D02*
X1832Y1297D01*
X1235Y1296D02*
X1281Y1296D01*
X1313Y1296D02*
X1360Y1296D01*
X1392Y1296D02*
X1438Y1296D01*
X1471Y1296D02*
X1517Y1296D01*
X1550Y1296D02*
X1596Y1296D01*
X1628Y1296D02*
X1675Y1296D01*
X1707Y1296D02*
X1753Y1296D01*
X1786Y1296D02*
X1832Y1296D01*
X1235Y1295D02*
X1281Y1295D01*
X1313Y1295D02*
X1360Y1295D01*
X1392Y1295D02*
X1438Y1295D01*
X1471Y1295D02*
X1517Y1295D01*
X1550Y1295D02*
X1596Y1295D01*
X1628Y1295D02*
X1675Y1295D01*
X1707Y1295D02*
X1753Y1295D01*
X1786Y1295D02*
X1832Y1295D01*
X1235Y1294D02*
X1281Y1294D01*
X1313Y1294D02*
X1360Y1294D01*
X1392Y1294D02*
X1438Y1294D01*
X1471Y1294D02*
X1517Y1294D01*
X1550Y1294D02*
X1596Y1294D01*
X1628Y1294D02*
X1675Y1294D01*
X1707Y1294D02*
X1753Y1294D01*
X1786Y1294D02*
X1832Y1294D01*
X1235Y1293D02*
X1281Y1293D01*
X1313Y1293D02*
X1360Y1293D01*
X1392Y1293D02*
X1438Y1293D01*
X1471Y1293D02*
X1517Y1293D01*
X1550Y1293D02*
X1596Y1293D01*
X1628Y1293D02*
X1675Y1293D01*
X1707Y1293D02*
X1753Y1293D01*
X1786Y1293D02*
X1832Y1293D01*
X1235Y1292D02*
X1281Y1292D01*
X1313Y1292D02*
X1360Y1292D01*
X1392Y1292D02*
X1438Y1292D01*
X1471Y1292D02*
X1517Y1292D01*
X1550Y1292D02*
X1596Y1292D01*
X1628Y1292D02*
X1675Y1292D01*
X1707Y1292D02*
X1753Y1292D01*
X1786Y1292D02*
X1832Y1292D01*
X1235Y1291D02*
X1281Y1291D01*
X1313Y1291D02*
X1360Y1291D01*
X1392Y1291D02*
X1438Y1291D01*
X1471Y1291D02*
X1517Y1291D01*
X1550Y1291D02*
X1596Y1291D01*
X1628Y1291D02*
X1675Y1291D01*
X1707Y1291D02*
X1753Y1291D01*
X1786Y1291D02*
X1832Y1291D01*
X1235Y1290D02*
X1281Y1290D01*
X1313Y1290D02*
X1360Y1290D01*
X1392Y1290D02*
X1438Y1290D01*
X1471Y1290D02*
X1517Y1290D01*
X1550Y1290D02*
X1596Y1290D01*
X1628Y1290D02*
X1675Y1290D01*
X1707Y1290D02*
X1753Y1290D01*
X1786Y1290D02*
X1832Y1290D01*
X1235Y1289D02*
X1281Y1289D01*
X1313Y1289D02*
X1360Y1289D01*
X1392Y1289D02*
X1438Y1289D01*
X1471Y1289D02*
X1517Y1289D01*
X1550Y1289D02*
X1596Y1289D01*
X1628Y1289D02*
X1675Y1289D01*
X1707Y1289D02*
X1753Y1289D01*
X1786Y1289D02*
X1832Y1289D01*
X1235Y1288D02*
X1281Y1288D01*
X1313Y1288D02*
X1360Y1288D01*
X1392Y1288D02*
X1438Y1288D01*
X1471Y1288D02*
X1517Y1288D01*
X1550Y1288D02*
X1596Y1288D01*
X1628Y1288D02*
X1675Y1288D01*
X1707Y1288D02*
X1753Y1288D01*
X1786Y1288D02*
X1832Y1288D01*
X1235Y1287D02*
X1281Y1287D01*
X1313Y1287D02*
X1360Y1287D01*
X1392Y1287D02*
X1438Y1287D01*
X1471Y1287D02*
X1517Y1287D01*
X1550Y1287D02*
X1596Y1287D01*
X1628Y1287D02*
X1675Y1287D01*
X1707Y1287D02*
X1753Y1287D01*
X1786Y1287D02*
X1832Y1287D01*
X1235Y1286D02*
X1281Y1286D01*
X1313Y1286D02*
X1360Y1286D01*
X1392Y1286D02*
X1438Y1286D01*
X1471Y1286D02*
X1517Y1286D01*
X1550Y1286D02*
X1596Y1286D01*
X1628Y1286D02*
X1675Y1286D01*
X1707Y1286D02*
X1753Y1286D01*
X1786Y1286D02*
X1832Y1286D01*
X1235Y1285D02*
X1281Y1285D01*
X1313Y1285D02*
X1360Y1285D01*
X1392Y1285D02*
X1438Y1285D01*
X1471Y1285D02*
X1517Y1285D01*
X1550Y1285D02*
X1596Y1285D01*
X1628Y1285D02*
X1675Y1285D01*
X1707Y1285D02*
X1753Y1285D01*
X1786Y1285D02*
X1832Y1285D01*
X1235Y1284D02*
X1281Y1284D01*
X1313Y1284D02*
X1360Y1284D01*
X1392Y1284D02*
X1438Y1284D01*
X1471Y1284D02*
X1517Y1284D01*
X1550Y1284D02*
X1596Y1284D01*
X1628Y1284D02*
X1675Y1284D01*
X1707Y1284D02*
X1753Y1284D01*
X1786Y1284D02*
X1832Y1284D01*
X1235Y1283D02*
X1281Y1283D01*
X1313Y1283D02*
X1360Y1283D01*
X1392Y1283D02*
X1438Y1283D01*
X1471Y1283D02*
X1517Y1283D01*
X1550Y1283D02*
X1596Y1283D01*
X1628Y1283D02*
X1675Y1283D01*
X1707Y1283D02*
X1753Y1283D01*
X1786Y1283D02*
X1832Y1283D01*
X1235Y1282D02*
X1281Y1282D01*
X1313Y1282D02*
X1360Y1282D01*
X1392Y1282D02*
X1438Y1282D01*
X1471Y1282D02*
X1517Y1282D01*
X1550Y1282D02*
X1596Y1282D01*
X1628Y1282D02*
X1675Y1282D01*
X1707Y1282D02*
X1753Y1282D01*
X1786Y1282D02*
X1832Y1282D01*
X1235Y1281D02*
X1281Y1281D01*
X1313Y1281D02*
X1360Y1281D01*
X1392Y1281D02*
X1438Y1281D01*
X1471Y1281D02*
X1517Y1281D01*
X1550Y1281D02*
X1596Y1281D01*
X1628Y1281D02*
X1675Y1281D01*
X1707Y1281D02*
X1753Y1281D01*
X1786Y1281D02*
X1832Y1281D01*
X1235Y1280D02*
X1281Y1280D01*
X1313Y1280D02*
X1360Y1280D01*
X1392Y1280D02*
X1438Y1280D01*
X1471Y1280D02*
X1517Y1280D01*
X1550Y1280D02*
X1596Y1280D01*
X1628Y1280D02*
X1675Y1280D01*
X1707Y1280D02*
X1753Y1280D01*
X1786Y1280D02*
X1832Y1280D01*
X1235Y1279D02*
X1280Y1279D01*
X1314Y1279D02*
X1359Y1279D01*
X1393Y1279D02*
X1438Y1279D01*
X1471Y1279D02*
X1517Y1279D01*
X1550Y1279D02*
X1595Y1279D01*
X1629Y1279D02*
X1674Y1279D01*
X1708Y1279D02*
X1753Y1279D01*
X1786Y1279D02*
X1831Y1279D01*
D02*
G04 End of Copper1*
M02*