; NON-PLATED HOLES START AT T1
; THROUGH (PLATED) HOLES START AT T100
M48
INCH
T100C0.035433
T101C0.031496
T102C0.030000
T103C0.022422
T104C0.040000
T105C0.035000
T106C0.015748
T107C0.043307
%
T100
X004872Y003221
X020151Y023001
X016372Y007221
X016372Y001221
X017592Y023001
X004872Y005221
T101
X002872Y005721
X002872Y003721
X000872Y005721
X000872Y003721
T102
X019374Y004221
X018372Y004221
T103
X016441Y007265
X004872Y003249
X016441Y001205
X004872Y005221
T104
X019872Y011221
X019872Y007221
X019872Y010221
X019872Y008221
X019872Y009221
T105
X018372Y001721
X016872Y009221
X012872Y010721
X012872Y009221
X019372Y001721
X010372Y011721
X016872Y010721
X014372Y011721
T106
X018881Y019205
X013887Y021211
X009365Y010712
X012353Y020228
X016875Y020228
T107
X010872Y009221
X002872Y001721
X008872Y009221
X004872Y009221
X007872Y009221
X006872Y009221
X011872Y009221
X001494Y001721
X005872Y009221
X009872Y009221
T00
M30
