G04 MADE WITH FRITZING*
G04 WWW.FRITZING.ORG*
G04 DOUBLE SIDED*
G04 HOLES PLATED*
G04 CONTOUR ON CENTER OF CONTOUR VECTOR*
%ASAXBY*%
%FSLAX23Y23*%
%MOIN*%
%OFA0B0*%
%SFA1.0B1.0*%
%ADD10R,0.001000X0.001000*%
%LNPASTEMASK1*%
G90*
G70*
G54D10*
X1235Y1967D02*
X1281Y1967D01*
X1313Y1967D02*
X1360Y1967D01*
X1392Y1967D02*
X1438Y1967D01*
X1471Y1967D02*
X1517Y1967D01*
X1550Y1967D02*
X1596Y1967D01*
X1628Y1967D02*
X1675Y1967D01*
X1707Y1967D02*
X1753Y1967D01*
X1786Y1967D02*
X1832Y1967D01*
X1235Y1966D02*
X1281Y1966D01*
X1313Y1966D02*
X1360Y1966D01*
X1392Y1966D02*
X1438Y1966D01*
X1471Y1966D02*
X1517Y1966D01*
X1550Y1966D02*
X1596Y1966D01*
X1628Y1966D02*
X1675Y1966D01*
X1707Y1966D02*
X1753Y1966D01*
X1786Y1966D02*
X1832Y1966D01*
X1235Y1965D02*
X1281Y1965D01*
X1313Y1965D02*
X1360Y1965D01*
X1392Y1965D02*
X1438Y1965D01*
X1471Y1965D02*
X1517Y1965D01*
X1550Y1965D02*
X1596Y1965D01*
X1628Y1965D02*
X1675Y1965D01*
X1707Y1965D02*
X1753Y1965D01*
X1786Y1965D02*
X1832Y1965D01*
X1235Y1964D02*
X1281Y1964D01*
X1313Y1964D02*
X1360Y1964D01*
X1392Y1964D02*
X1438Y1964D01*
X1471Y1964D02*
X1517Y1964D01*
X1550Y1964D02*
X1596Y1964D01*
X1628Y1964D02*
X1675Y1964D01*
X1707Y1964D02*
X1753Y1964D01*
X1786Y1964D02*
X1832Y1964D01*
X1235Y1963D02*
X1281Y1963D01*
X1313Y1963D02*
X1360Y1963D01*
X1392Y1963D02*
X1438Y1963D01*
X1471Y1963D02*
X1517Y1963D01*
X1550Y1963D02*
X1596Y1963D01*
X1628Y1963D02*
X1675Y1963D01*
X1707Y1963D02*
X1753Y1963D01*
X1786Y1963D02*
X1832Y1963D01*
X1235Y1962D02*
X1281Y1962D01*
X1313Y1962D02*
X1360Y1962D01*
X1392Y1962D02*
X1438Y1962D01*
X1471Y1962D02*
X1517Y1962D01*
X1550Y1962D02*
X1596Y1962D01*
X1628Y1962D02*
X1675Y1962D01*
X1707Y1962D02*
X1753Y1962D01*
X1786Y1962D02*
X1832Y1962D01*
X1235Y1961D02*
X1281Y1961D01*
X1313Y1961D02*
X1360Y1961D01*
X1392Y1961D02*
X1438Y1961D01*
X1471Y1961D02*
X1517Y1961D01*
X1550Y1961D02*
X1596Y1961D01*
X1628Y1961D02*
X1675Y1961D01*
X1707Y1961D02*
X1753Y1961D01*
X1786Y1961D02*
X1832Y1961D01*
X1235Y1960D02*
X1281Y1960D01*
X1313Y1960D02*
X1360Y1960D01*
X1392Y1960D02*
X1438Y1960D01*
X1471Y1960D02*
X1517Y1960D01*
X1550Y1960D02*
X1596Y1960D01*
X1628Y1960D02*
X1675Y1960D01*
X1707Y1960D02*
X1753Y1960D01*
X1786Y1960D02*
X1832Y1960D01*
X1235Y1959D02*
X1281Y1959D01*
X1313Y1959D02*
X1360Y1959D01*
X1392Y1959D02*
X1438Y1959D01*
X1471Y1959D02*
X1517Y1959D01*
X1550Y1959D02*
X1596Y1959D01*
X1628Y1959D02*
X1675Y1959D01*
X1707Y1959D02*
X1753Y1959D01*
X1786Y1959D02*
X1832Y1959D01*
X1235Y1958D02*
X1281Y1958D01*
X1313Y1958D02*
X1360Y1958D01*
X1392Y1958D02*
X1438Y1958D01*
X1471Y1958D02*
X1517Y1958D01*
X1550Y1958D02*
X1596Y1958D01*
X1628Y1958D02*
X1675Y1958D01*
X1707Y1958D02*
X1753Y1958D01*
X1786Y1958D02*
X1832Y1958D01*
X1235Y1957D02*
X1281Y1957D01*
X1313Y1957D02*
X1360Y1957D01*
X1392Y1957D02*
X1438Y1957D01*
X1471Y1957D02*
X1517Y1957D01*
X1550Y1957D02*
X1596Y1957D01*
X1628Y1957D02*
X1675Y1957D01*
X1707Y1957D02*
X1753Y1957D01*
X1786Y1957D02*
X1832Y1957D01*
X1235Y1956D02*
X1281Y1956D01*
X1313Y1956D02*
X1360Y1956D01*
X1392Y1956D02*
X1438Y1956D01*
X1471Y1956D02*
X1517Y1956D01*
X1550Y1956D02*
X1596Y1956D01*
X1628Y1956D02*
X1675Y1956D01*
X1707Y1956D02*
X1753Y1956D01*
X1786Y1956D02*
X1832Y1956D01*
X1235Y1955D02*
X1281Y1955D01*
X1313Y1955D02*
X1360Y1955D01*
X1392Y1955D02*
X1438Y1955D01*
X1471Y1955D02*
X1517Y1955D01*
X1550Y1955D02*
X1596Y1955D01*
X1628Y1955D02*
X1675Y1955D01*
X1707Y1955D02*
X1753Y1955D01*
X1786Y1955D02*
X1832Y1955D01*
X1235Y1954D02*
X1281Y1954D01*
X1313Y1954D02*
X1360Y1954D01*
X1392Y1954D02*
X1438Y1954D01*
X1471Y1954D02*
X1517Y1954D01*
X1550Y1954D02*
X1596Y1954D01*
X1628Y1954D02*
X1675Y1954D01*
X1707Y1954D02*
X1753Y1954D01*
X1786Y1954D02*
X1832Y1954D01*
X1235Y1953D02*
X1281Y1953D01*
X1313Y1953D02*
X1360Y1953D01*
X1392Y1953D02*
X1438Y1953D01*
X1471Y1953D02*
X1517Y1953D01*
X1550Y1953D02*
X1596Y1953D01*
X1628Y1953D02*
X1675Y1953D01*
X1707Y1953D02*
X1753Y1953D01*
X1786Y1953D02*
X1832Y1953D01*
X1235Y1952D02*
X1281Y1952D01*
X1313Y1952D02*
X1360Y1952D01*
X1392Y1952D02*
X1438Y1952D01*
X1471Y1952D02*
X1517Y1952D01*
X1550Y1952D02*
X1596Y1952D01*
X1628Y1952D02*
X1675Y1952D01*
X1707Y1952D02*
X1753Y1952D01*
X1786Y1952D02*
X1832Y1952D01*
X1235Y1951D02*
X1281Y1951D01*
X1313Y1951D02*
X1360Y1951D01*
X1392Y1951D02*
X1438Y1951D01*
X1471Y1951D02*
X1517Y1951D01*
X1550Y1951D02*
X1596Y1951D01*
X1628Y1951D02*
X1675Y1951D01*
X1707Y1951D02*
X1753Y1951D01*
X1786Y1951D02*
X1832Y1951D01*
X1235Y1950D02*
X1281Y1950D01*
X1313Y1950D02*
X1360Y1950D01*
X1392Y1950D02*
X1438Y1950D01*
X1471Y1950D02*
X1517Y1950D01*
X1550Y1950D02*
X1596Y1950D01*
X1628Y1950D02*
X1675Y1950D01*
X1707Y1950D02*
X1753Y1950D01*
X1786Y1950D02*
X1832Y1950D01*
X1235Y1949D02*
X1281Y1949D01*
X1313Y1949D02*
X1360Y1949D01*
X1392Y1949D02*
X1438Y1949D01*
X1471Y1949D02*
X1517Y1949D01*
X1550Y1949D02*
X1596Y1949D01*
X1628Y1949D02*
X1675Y1949D01*
X1707Y1949D02*
X1753Y1949D01*
X1786Y1949D02*
X1832Y1949D01*
X1235Y1948D02*
X1281Y1948D01*
X1313Y1948D02*
X1360Y1948D01*
X1392Y1948D02*
X1438Y1948D01*
X1471Y1948D02*
X1517Y1948D01*
X1550Y1948D02*
X1596Y1948D01*
X1628Y1948D02*
X1675Y1948D01*
X1707Y1948D02*
X1753Y1948D01*
X1786Y1948D02*
X1832Y1948D01*
X1235Y1947D02*
X1281Y1947D01*
X1313Y1947D02*
X1360Y1947D01*
X1392Y1947D02*
X1438Y1947D01*
X1471Y1947D02*
X1517Y1947D01*
X1550Y1947D02*
X1596Y1947D01*
X1628Y1947D02*
X1675Y1947D01*
X1707Y1947D02*
X1753Y1947D01*
X1786Y1947D02*
X1832Y1947D01*
X1235Y1946D02*
X1281Y1946D01*
X1313Y1946D02*
X1360Y1946D01*
X1392Y1946D02*
X1438Y1946D01*
X1471Y1946D02*
X1517Y1946D01*
X1550Y1946D02*
X1596Y1946D01*
X1628Y1946D02*
X1675Y1946D01*
X1707Y1946D02*
X1753Y1946D01*
X1786Y1946D02*
X1832Y1946D01*
X1235Y1945D02*
X1281Y1945D01*
X1313Y1945D02*
X1360Y1945D01*
X1392Y1945D02*
X1438Y1945D01*
X1471Y1945D02*
X1517Y1945D01*
X1550Y1945D02*
X1596Y1945D01*
X1628Y1945D02*
X1675Y1945D01*
X1707Y1945D02*
X1753Y1945D01*
X1786Y1945D02*
X1832Y1945D01*
X1235Y1944D02*
X1281Y1944D01*
X1313Y1944D02*
X1360Y1944D01*
X1392Y1944D02*
X1438Y1944D01*
X1471Y1944D02*
X1517Y1944D01*
X1550Y1944D02*
X1596Y1944D01*
X1628Y1944D02*
X1675Y1944D01*
X1707Y1944D02*
X1753Y1944D01*
X1786Y1944D02*
X1832Y1944D01*
X1235Y1943D02*
X1281Y1943D01*
X1313Y1943D02*
X1360Y1943D01*
X1392Y1943D02*
X1438Y1943D01*
X1471Y1943D02*
X1517Y1943D01*
X1550Y1943D02*
X1596Y1943D01*
X1628Y1943D02*
X1675Y1943D01*
X1707Y1943D02*
X1753Y1943D01*
X1786Y1943D02*
X1832Y1943D01*
X1235Y1942D02*
X1281Y1942D01*
X1313Y1942D02*
X1360Y1942D01*
X1392Y1942D02*
X1438Y1942D01*
X1471Y1942D02*
X1517Y1942D01*
X1550Y1942D02*
X1596Y1942D01*
X1628Y1942D02*
X1675Y1942D01*
X1707Y1942D02*
X1753Y1942D01*
X1786Y1942D02*
X1832Y1942D01*
X1235Y1941D02*
X1281Y1941D01*
X1313Y1941D02*
X1360Y1941D01*
X1392Y1941D02*
X1438Y1941D01*
X1471Y1941D02*
X1517Y1941D01*
X1550Y1941D02*
X1596Y1941D01*
X1628Y1941D02*
X1675Y1941D01*
X1707Y1941D02*
X1753Y1941D01*
X1786Y1941D02*
X1832Y1941D01*
X1235Y1940D02*
X1281Y1940D01*
X1313Y1940D02*
X1360Y1940D01*
X1392Y1940D02*
X1438Y1940D01*
X1471Y1940D02*
X1517Y1940D01*
X1550Y1940D02*
X1596Y1940D01*
X1628Y1940D02*
X1675Y1940D01*
X1707Y1940D02*
X1753Y1940D01*
X1786Y1940D02*
X1832Y1940D01*
X1235Y1939D02*
X1281Y1939D01*
X1313Y1939D02*
X1360Y1939D01*
X1392Y1939D02*
X1438Y1939D01*
X1471Y1939D02*
X1517Y1939D01*
X1550Y1939D02*
X1596Y1939D01*
X1628Y1939D02*
X1675Y1939D01*
X1707Y1939D02*
X1753Y1939D01*
X1786Y1939D02*
X1832Y1939D01*
X1235Y1938D02*
X1281Y1938D01*
X1313Y1938D02*
X1360Y1938D01*
X1392Y1938D02*
X1438Y1938D01*
X1471Y1938D02*
X1517Y1938D01*
X1550Y1938D02*
X1596Y1938D01*
X1628Y1938D02*
X1675Y1938D01*
X1707Y1938D02*
X1753Y1938D01*
X1786Y1938D02*
X1832Y1938D01*
X1235Y1937D02*
X1281Y1937D01*
X1313Y1937D02*
X1360Y1937D01*
X1392Y1937D02*
X1438Y1937D01*
X1471Y1937D02*
X1517Y1937D01*
X1550Y1937D02*
X1596Y1937D01*
X1628Y1937D02*
X1675Y1937D01*
X1707Y1937D02*
X1753Y1937D01*
X1786Y1937D02*
X1832Y1937D01*
X1235Y1936D02*
X1281Y1936D01*
X1313Y1936D02*
X1360Y1936D01*
X1392Y1936D02*
X1438Y1936D01*
X1471Y1936D02*
X1517Y1936D01*
X1550Y1936D02*
X1596Y1936D01*
X1628Y1936D02*
X1675Y1936D01*
X1707Y1936D02*
X1753Y1936D01*
X1786Y1936D02*
X1832Y1936D01*
X1235Y1935D02*
X1281Y1935D01*
X1313Y1935D02*
X1360Y1935D01*
X1392Y1935D02*
X1438Y1935D01*
X1471Y1935D02*
X1517Y1935D01*
X1550Y1935D02*
X1596Y1935D01*
X1628Y1935D02*
X1675Y1935D01*
X1707Y1935D02*
X1753Y1935D01*
X1786Y1935D02*
X1832Y1935D01*
X1235Y1934D02*
X1281Y1934D01*
X1313Y1934D02*
X1360Y1934D01*
X1392Y1934D02*
X1438Y1934D01*
X1471Y1934D02*
X1517Y1934D01*
X1550Y1934D02*
X1596Y1934D01*
X1628Y1934D02*
X1675Y1934D01*
X1707Y1934D02*
X1753Y1934D01*
X1786Y1934D02*
X1832Y1934D01*
X1235Y1933D02*
X1281Y1933D01*
X1313Y1933D02*
X1360Y1933D01*
X1392Y1933D02*
X1438Y1933D01*
X1471Y1933D02*
X1517Y1933D01*
X1550Y1933D02*
X1596Y1933D01*
X1628Y1933D02*
X1675Y1933D01*
X1707Y1933D02*
X1753Y1933D01*
X1786Y1933D02*
X1832Y1933D01*
X1235Y1932D02*
X1281Y1932D01*
X1313Y1932D02*
X1360Y1932D01*
X1392Y1932D02*
X1438Y1932D01*
X1471Y1932D02*
X1517Y1932D01*
X1550Y1932D02*
X1596Y1932D01*
X1628Y1932D02*
X1675Y1932D01*
X1707Y1932D02*
X1753Y1932D01*
X1786Y1932D02*
X1832Y1932D01*
X1235Y1931D02*
X1281Y1931D01*
X1313Y1931D02*
X1360Y1931D01*
X1392Y1931D02*
X1438Y1931D01*
X1471Y1931D02*
X1517Y1931D01*
X1550Y1931D02*
X1596Y1931D01*
X1628Y1931D02*
X1675Y1931D01*
X1707Y1931D02*
X1753Y1931D01*
X1786Y1931D02*
X1832Y1931D01*
X1235Y1930D02*
X1281Y1930D01*
X1313Y1930D02*
X1360Y1930D01*
X1392Y1930D02*
X1438Y1930D01*
X1471Y1930D02*
X1517Y1930D01*
X1550Y1930D02*
X1596Y1930D01*
X1628Y1930D02*
X1675Y1930D01*
X1707Y1930D02*
X1753Y1930D01*
X1786Y1930D02*
X1832Y1930D01*
X1235Y1929D02*
X1281Y1929D01*
X1313Y1929D02*
X1360Y1929D01*
X1392Y1929D02*
X1438Y1929D01*
X1471Y1929D02*
X1517Y1929D01*
X1550Y1929D02*
X1596Y1929D01*
X1628Y1929D02*
X1675Y1929D01*
X1707Y1929D02*
X1753Y1929D01*
X1786Y1929D02*
X1832Y1929D01*
X1235Y1928D02*
X1281Y1928D01*
X1313Y1928D02*
X1360Y1928D01*
X1392Y1928D02*
X1438Y1928D01*
X1471Y1928D02*
X1517Y1928D01*
X1550Y1928D02*
X1596Y1928D01*
X1628Y1928D02*
X1675Y1928D01*
X1707Y1928D02*
X1753Y1928D01*
X1786Y1928D02*
X1832Y1928D01*
X1235Y1927D02*
X1281Y1927D01*
X1313Y1927D02*
X1360Y1927D01*
X1392Y1927D02*
X1438Y1927D01*
X1471Y1927D02*
X1517Y1927D01*
X1550Y1927D02*
X1596Y1927D01*
X1628Y1927D02*
X1675Y1927D01*
X1707Y1927D02*
X1753Y1927D01*
X1786Y1927D02*
X1832Y1927D01*
X1235Y1926D02*
X1281Y1926D01*
X1313Y1926D02*
X1360Y1926D01*
X1392Y1926D02*
X1438Y1926D01*
X1471Y1926D02*
X1517Y1926D01*
X1550Y1926D02*
X1596Y1926D01*
X1628Y1926D02*
X1675Y1926D01*
X1707Y1926D02*
X1753Y1926D01*
X1786Y1926D02*
X1832Y1926D01*
X1235Y1925D02*
X1281Y1925D01*
X1313Y1925D02*
X1360Y1925D01*
X1392Y1925D02*
X1438Y1925D01*
X1471Y1925D02*
X1517Y1925D01*
X1550Y1925D02*
X1596Y1925D01*
X1628Y1925D02*
X1675Y1925D01*
X1707Y1925D02*
X1753Y1925D01*
X1786Y1925D02*
X1832Y1925D01*
X1235Y1924D02*
X1281Y1924D01*
X1313Y1924D02*
X1360Y1924D01*
X1392Y1924D02*
X1438Y1924D01*
X1471Y1924D02*
X1517Y1924D01*
X1550Y1924D02*
X1596Y1924D01*
X1628Y1924D02*
X1675Y1924D01*
X1707Y1924D02*
X1753Y1924D01*
X1786Y1924D02*
X1832Y1924D01*
X1235Y1923D02*
X1281Y1923D01*
X1313Y1923D02*
X1360Y1923D01*
X1392Y1923D02*
X1438Y1923D01*
X1471Y1923D02*
X1517Y1923D01*
X1550Y1923D02*
X1596Y1923D01*
X1628Y1923D02*
X1675Y1923D01*
X1707Y1923D02*
X1753Y1923D01*
X1786Y1923D02*
X1832Y1923D01*
X1235Y1922D02*
X1281Y1922D01*
X1313Y1922D02*
X1360Y1922D01*
X1392Y1922D02*
X1438Y1922D01*
X1471Y1922D02*
X1517Y1922D01*
X1550Y1922D02*
X1596Y1922D01*
X1628Y1922D02*
X1675Y1922D01*
X1707Y1922D02*
X1753Y1922D01*
X1786Y1922D02*
X1832Y1922D01*
X1235Y1921D02*
X1281Y1921D01*
X1313Y1921D02*
X1360Y1921D01*
X1392Y1921D02*
X1438Y1921D01*
X1471Y1921D02*
X1517Y1921D01*
X1550Y1921D02*
X1596Y1921D01*
X1628Y1921D02*
X1675Y1921D01*
X1707Y1921D02*
X1753Y1921D01*
X1786Y1921D02*
X1832Y1921D01*
X1235Y1920D02*
X1281Y1920D01*
X1313Y1920D02*
X1360Y1920D01*
X1392Y1920D02*
X1438Y1920D01*
X1471Y1920D02*
X1517Y1920D01*
X1550Y1920D02*
X1596Y1920D01*
X1628Y1920D02*
X1675Y1920D01*
X1707Y1920D02*
X1753Y1920D01*
X1786Y1920D02*
X1832Y1920D01*
X1235Y1919D02*
X1281Y1919D01*
X1313Y1919D02*
X1360Y1919D01*
X1392Y1919D02*
X1438Y1919D01*
X1471Y1919D02*
X1517Y1919D01*
X1550Y1919D02*
X1596Y1919D01*
X1628Y1919D02*
X1675Y1919D01*
X1707Y1919D02*
X1753Y1919D01*
X1786Y1919D02*
X1832Y1919D01*
X1235Y1918D02*
X1281Y1918D01*
X1313Y1918D02*
X1360Y1918D01*
X1392Y1918D02*
X1438Y1918D01*
X1471Y1918D02*
X1517Y1918D01*
X1550Y1918D02*
X1596Y1918D01*
X1628Y1918D02*
X1675Y1918D01*
X1707Y1918D02*
X1753Y1918D01*
X1786Y1918D02*
X1832Y1918D01*
X1235Y1917D02*
X1281Y1917D01*
X1313Y1917D02*
X1360Y1917D01*
X1392Y1917D02*
X1438Y1917D01*
X1471Y1917D02*
X1517Y1917D01*
X1550Y1917D02*
X1596Y1917D01*
X1628Y1917D02*
X1675Y1917D01*
X1707Y1917D02*
X1753Y1917D01*
X1786Y1917D02*
X1832Y1917D01*
X1235Y1916D02*
X1281Y1916D01*
X1313Y1916D02*
X1360Y1916D01*
X1392Y1916D02*
X1438Y1916D01*
X1471Y1916D02*
X1517Y1916D01*
X1550Y1916D02*
X1596Y1916D01*
X1628Y1916D02*
X1675Y1916D01*
X1707Y1916D02*
X1753Y1916D01*
X1786Y1916D02*
X1832Y1916D01*
X1235Y1915D02*
X1281Y1915D01*
X1313Y1915D02*
X1360Y1915D01*
X1392Y1915D02*
X1438Y1915D01*
X1471Y1915D02*
X1517Y1915D01*
X1550Y1915D02*
X1596Y1915D01*
X1628Y1915D02*
X1675Y1915D01*
X1707Y1915D02*
X1753Y1915D01*
X1786Y1915D02*
X1832Y1915D01*
X1235Y1914D02*
X1281Y1914D01*
X1313Y1914D02*
X1360Y1914D01*
X1392Y1914D02*
X1438Y1914D01*
X1471Y1914D02*
X1517Y1914D01*
X1550Y1914D02*
X1596Y1914D01*
X1628Y1914D02*
X1675Y1914D01*
X1707Y1914D02*
X1753Y1914D01*
X1786Y1914D02*
X1832Y1914D01*
X1235Y1913D02*
X1281Y1913D01*
X1313Y1913D02*
X1360Y1913D01*
X1392Y1913D02*
X1438Y1913D01*
X1471Y1913D02*
X1517Y1913D01*
X1550Y1913D02*
X1596Y1913D01*
X1628Y1913D02*
X1675Y1913D01*
X1707Y1913D02*
X1753Y1913D01*
X1786Y1913D02*
X1832Y1913D01*
X1235Y1912D02*
X1281Y1912D01*
X1313Y1912D02*
X1360Y1912D01*
X1392Y1912D02*
X1438Y1912D01*
X1471Y1912D02*
X1517Y1912D01*
X1550Y1912D02*
X1596Y1912D01*
X1628Y1912D02*
X1675Y1912D01*
X1707Y1912D02*
X1753Y1912D01*
X1786Y1912D02*
X1832Y1912D01*
X1235Y1911D02*
X1254Y1911D01*
X1262Y1911D02*
X1281Y1911D01*
X1313Y1911D02*
X1333Y1911D01*
X1340Y1911D02*
X1360Y1911D01*
X1392Y1911D02*
X1411Y1911D01*
X1419Y1911D02*
X1438Y1911D01*
X1471Y1911D02*
X1490Y1911D01*
X1498Y1911D02*
X1517Y1911D01*
X1550Y1911D02*
X1569Y1911D01*
X1576Y1911D02*
X1596Y1911D01*
X1628Y1911D02*
X1648Y1911D01*
X1655Y1911D02*
X1675Y1911D01*
X1707Y1911D02*
X1726Y1911D01*
X1734Y1911D02*
X1753Y1911D01*
X1786Y1911D02*
X1805Y1911D01*
X1813Y1911D02*
X1832Y1911D01*
X1235Y1910D02*
X1252Y1910D01*
X1264Y1910D02*
X1281Y1910D01*
X1313Y1910D02*
X1330Y1910D01*
X1343Y1910D02*
X1360Y1910D01*
X1392Y1910D02*
X1409Y1910D01*
X1421Y1910D02*
X1438Y1910D01*
X1471Y1910D02*
X1488Y1910D01*
X1500Y1910D02*
X1517Y1910D01*
X1550Y1910D02*
X1566Y1910D01*
X1579Y1910D02*
X1596Y1910D01*
X1628Y1910D02*
X1645Y1910D01*
X1658Y1910D02*
X1675Y1910D01*
X1707Y1910D02*
X1724Y1910D01*
X1736Y1910D02*
X1753Y1910D01*
X1786Y1910D02*
X1803Y1910D01*
X1815Y1910D02*
X1832Y1910D01*
X1235Y1909D02*
X1250Y1909D01*
X1266Y1909D02*
X1281Y1909D01*
X1313Y1909D02*
X1329Y1909D01*
X1344Y1909D02*
X1360Y1909D01*
X1392Y1909D02*
X1407Y1909D01*
X1423Y1909D02*
X1438Y1909D01*
X1471Y1909D02*
X1486Y1909D01*
X1502Y1909D02*
X1517Y1909D01*
X1550Y1909D02*
X1565Y1909D01*
X1580Y1909D02*
X1596Y1909D01*
X1628Y1909D02*
X1644Y1909D01*
X1659Y1909D02*
X1675Y1909D01*
X1707Y1909D02*
X1722Y1909D01*
X1738Y1909D02*
X1753Y1909D01*
X1786Y1909D02*
X1801Y1909D01*
X1817Y1909D02*
X1832Y1909D01*
X1235Y1908D02*
X1249Y1908D01*
X1267Y1908D02*
X1281Y1908D01*
X1313Y1908D02*
X1327Y1908D01*
X1345Y1908D02*
X1360Y1908D01*
X1392Y1908D02*
X1406Y1908D01*
X1424Y1908D02*
X1438Y1908D01*
X1471Y1908D02*
X1485Y1908D01*
X1503Y1908D02*
X1517Y1908D01*
X1550Y1908D02*
X1564Y1908D01*
X1582Y1908D02*
X1596Y1908D01*
X1628Y1908D02*
X1642Y1908D01*
X1660Y1908D02*
X1675Y1908D01*
X1707Y1908D02*
X1721Y1908D01*
X1739Y1908D02*
X1753Y1908D01*
X1786Y1908D02*
X1800Y1908D01*
X1818Y1908D02*
X1832Y1908D01*
X1235Y1907D02*
X1248Y1907D01*
X1268Y1907D02*
X1281Y1907D01*
X1313Y1907D02*
X1327Y1907D01*
X1346Y1907D02*
X1360Y1907D01*
X1392Y1907D02*
X1405Y1907D01*
X1425Y1907D02*
X1438Y1907D01*
X1471Y1907D02*
X1484Y1907D01*
X1504Y1907D02*
X1517Y1907D01*
X1550Y1907D02*
X1563Y1907D01*
X1583Y1907D02*
X1596Y1907D01*
X1628Y1907D02*
X1642Y1907D01*
X1661Y1907D02*
X1675Y1907D01*
X1707Y1907D02*
X1720Y1907D01*
X1740Y1907D02*
X1753Y1907D01*
X1786Y1907D02*
X1799Y1907D01*
X1819Y1907D02*
X1832Y1907D01*
X1235Y1906D02*
X1247Y1906D01*
X1268Y1906D02*
X1281Y1906D01*
X1313Y1906D02*
X1326Y1906D01*
X1347Y1906D02*
X1360Y1906D01*
X1392Y1906D02*
X1405Y1906D01*
X1426Y1906D02*
X1438Y1906D01*
X1471Y1906D02*
X1483Y1906D01*
X1505Y1906D02*
X1517Y1906D01*
X1550Y1906D02*
X1562Y1906D01*
X1583Y1906D02*
X1596Y1906D01*
X1628Y1906D02*
X1641Y1906D01*
X1662Y1906D02*
X1675Y1906D01*
X1707Y1906D02*
X1719Y1906D01*
X1741Y1906D02*
X1753Y1906D01*
X1786Y1906D02*
X1798Y1906D01*
X1820Y1906D02*
X1832Y1906D01*
X1235Y1905D02*
X1247Y1905D01*
X1269Y1905D02*
X1281Y1905D01*
X1313Y1905D02*
X1325Y1905D01*
X1348Y1905D02*
X1360Y1905D01*
X1392Y1905D02*
X1404Y1905D01*
X1426Y1905D02*
X1438Y1905D01*
X1471Y1905D02*
X1483Y1905D01*
X1505Y1905D02*
X1517Y1905D01*
X1550Y1905D02*
X1561Y1905D01*
X1584Y1905D02*
X1596Y1905D01*
X1628Y1905D02*
X1640Y1905D01*
X1663Y1905D02*
X1675Y1905D01*
X1707Y1905D02*
X1719Y1905D01*
X1741Y1905D02*
X1753Y1905D01*
X1786Y1905D02*
X1798Y1905D01*
X1820Y1905D02*
X1832Y1905D01*
X1235Y1904D02*
X1246Y1904D01*
X1269Y1904D02*
X1281Y1904D01*
X1313Y1904D02*
X1325Y1904D01*
X1348Y1904D02*
X1360Y1904D01*
X1392Y1904D02*
X1404Y1904D01*
X1427Y1904D02*
X1438Y1904D01*
X1471Y1904D02*
X1482Y1904D01*
X1506Y1904D02*
X1517Y1904D01*
X1550Y1904D02*
X1561Y1904D01*
X1584Y1904D02*
X1596Y1904D01*
X1628Y1904D02*
X1640Y1904D01*
X1663Y1904D02*
X1675Y1904D01*
X1707Y1904D02*
X1718Y1904D01*
X1742Y1904D02*
X1753Y1904D01*
X1786Y1904D02*
X1797Y1904D01*
X1821Y1904D02*
X1832Y1904D01*
X1235Y1903D02*
X1246Y1903D01*
X1270Y1903D02*
X1281Y1903D01*
X1313Y1903D02*
X1324Y1903D01*
X1349Y1903D02*
X1360Y1903D01*
X1392Y1903D02*
X1403Y1903D01*
X1427Y1903D02*
X1438Y1903D01*
X1471Y1903D02*
X1482Y1903D01*
X1506Y1903D02*
X1517Y1903D01*
X1550Y1903D02*
X1561Y1903D01*
X1585Y1903D02*
X1596Y1903D01*
X1628Y1903D02*
X1639Y1903D01*
X1663Y1903D02*
X1675Y1903D01*
X1707Y1903D02*
X1718Y1903D01*
X1742Y1903D02*
X1753Y1903D01*
X1786Y1903D02*
X1797Y1903D01*
X1821Y1903D02*
X1832Y1903D01*
X1235Y1902D02*
X1245Y1902D01*
X1270Y1902D02*
X1281Y1902D01*
X1313Y1902D02*
X1324Y1902D01*
X1349Y1902D02*
X1360Y1902D01*
X1392Y1902D02*
X1403Y1902D01*
X1428Y1902D02*
X1438Y1902D01*
X1471Y1902D02*
X1482Y1902D01*
X1506Y1902D02*
X1517Y1902D01*
X1550Y1902D02*
X1560Y1902D01*
X1585Y1902D02*
X1596Y1902D01*
X1628Y1902D02*
X1639Y1902D01*
X1664Y1902D02*
X1675Y1902D01*
X1707Y1902D02*
X1718Y1902D01*
X1742Y1902D02*
X1753Y1902D01*
X1786Y1902D02*
X1797Y1902D01*
X1821Y1902D02*
X1832Y1902D01*
X1235Y1901D02*
X1245Y1901D01*
X1270Y1901D02*
X1281Y1901D01*
X1313Y1901D02*
X1324Y1901D01*
X1349Y1901D02*
X1360Y1901D01*
X1392Y1901D02*
X1403Y1901D01*
X1428Y1901D02*
X1438Y1901D01*
X1471Y1901D02*
X1481Y1901D01*
X1506Y1901D02*
X1517Y1901D01*
X1550Y1901D02*
X1560Y1901D01*
X1585Y1901D02*
X1596Y1901D01*
X1628Y1901D02*
X1639Y1901D01*
X1664Y1901D02*
X1675Y1901D01*
X1707Y1901D02*
X1718Y1901D01*
X1743Y1901D02*
X1753Y1901D01*
X1786Y1901D02*
X1796Y1901D01*
X1821Y1901D02*
X1832Y1901D01*
X1235Y1900D02*
X1245Y1900D01*
X1270Y1900D02*
X1281Y1900D01*
X1313Y1900D02*
X1324Y1900D01*
X1349Y1900D02*
X1360Y1900D01*
X1392Y1900D02*
X1403Y1900D01*
X1428Y1900D02*
X1438Y1900D01*
X1471Y1900D02*
X1481Y1900D01*
X1507Y1900D02*
X1517Y1900D01*
X1550Y1900D02*
X1560Y1900D01*
X1585Y1900D02*
X1596Y1900D01*
X1628Y1900D02*
X1639Y1900D01*
X1664Y1900D02*
X1675Y1900D01*
X1707Y1900D02*
X1718Y1900D01*
X1743Y1900D02*
X1753Y1900D01*
X1786Y1900D02*
X1796Y1900D01*
X1821Y1900D02*
X1832Y1900D01*
X1235Y1899D02*
X1245Y1899D01*
X1270Y1899D02*
X1281Y1899D01*
X1313Y1899D02*
X1324Y1899D01*
X1349Y1899D02*
X1360Y1899D01*
X1392Y1899D02*
X1403Y1899D01*
X1428Y1899D02*
X1438Y1899D01*
X1471Y1899D02*
X1481Y1899D01*
X1507Y1899D02*
X1517Y1899D01*
X1550Y1899D02*
X1560Y1899D01*
X1585Y1899D02*
X1596Y1899D01*
X1628Y1899D02*
X1639Y1899D01*
X1664Y1899D02*
X1675Y1899D01*
X1707Y1899D02*
X1718Y1899D01*
X1743Y1899D02*
X1753Y1899D01*
X1786Y1899D02*
X1796Y1899D01*
X1821Y1899D02*
X1832Y1899D01*
X1235Y1898D02*
X1245Y1898D01*
X1270Y1898D02*
X1281Y1898D01*
X1313Y1898D02*
X1324Y1898D01*
X1349Y1898D02*
X1360Y1898D01*
X1392Y1898D02*
X1403Y1898D01*
X1428Y1898D02*
X1438Y1898D01*
X1471Y1898D02*
X1481Y1898D01*
X1506Y1898D02*
X1517Y1898D01*
X1550Y1898D02*
X1560Y1898D01*
X1585Y1898D02*
X1596Y1898D01*
X1628Y1898D02*
X1639Y1898D01*
X1664Y1898D02*
X1675Y1898D01*
X1707Y1898D02*
X1718Y1898D01*
X1743Y1898D02*
X1753Y1898D01*
X1786Y1898D02*
X1796Y1898D01*
X1821Y1898D02*
X1832Y1898D01*
X1235Y1897D02*
X1245Y1897D01*
X1270Y1897D02*
X1281Y1897D01*
X1313Y1897D02*
X1324Y1897D01*
X1349Y1897D02*
X1360Y1897D01*
X1392Y1897D02*
X1403Y1897D01*
X1428Y1897D02*
X1438Y1897D01*
X1471Y1897D02*
X1482Y1897D01*
X1506Y1897D02*
X1517Y1897D01*
X1550Y1897D02*
X1560Y1897D01*
X1585Y1897D02*
X1596Y1897D01*
X1628Y1897D02*
X1639Y1897D01*
X1664Y1897D02*
X1675Y1897D01*
X1707Y1897D02*
X1718Y1897D01*
X1743Y1897D02*
X1753Y1897D01*
X1786Y1897D02*
X1796Y1897D01*
X1821Y1897D02*
X1832Y1897D01*
X1235Y1896D02*
X1246Y1896D01*
X1270Y1896D02*
X1281Y1896D01*
X1313Y1896D02*
X1324Y1896D01*
X1349Y1896D02*
X1360Y1896D01*
X1392Y1896D02*
X1403Y1896D01*
X1427Y1896D02*
X1438Y1896D01*
X1471Y1896D02*
X1482Y1896D01*
X1506Y1896D02*
X1517Y1896D01*
X1550Y1896D02*
X1561Y1896D01*
X1585Y1896D02*
X1596Y1896D01*
X1628Y1896D02*
X1639Y1896D01*
X1664Y1896D02*
X1675Y1896D01*
X1707Y1896D02*
X1718Y1896D01*
X1742Y1896D02*
X1753Y1896D01*
X1786Y1896D02*
X1797Y1896D01*
X1821Y1896D02*
X1832Y1896D01*
X1235Y1895D02*
X1246Y1895D01*
X1270Y1895D02*
X1281Y1895D01*
X1313Y1895D02*
X1325Y1895D01*
X1348Y1895D02*
X1360Y1895D01*
X1392Y1895D02*
X1403Y1895D01*
X1427Y1895D02*
X1438Y1895D01*
X1471Y1895D02*
X1482Y1895D01*
X1506Y1895D02*
X1517Y1895D01*
X1550Y1895D02*
X1561Y1895D01*
X1584Y1895D02*
X1596Y1895D01*
X1628Y1895D02*
X1640Y1895D01*
X1663Y1895D02*
X1675Y1895D01*
X1707Y1895D02*
X1718Y1895D01*
X1742Y1895D02*
X1753Y1895D01*
X1786Y1895D02*
X1797Y1895D01*
X1821Y1895D02*
X1832Y1895D01*
X1235Y1894D02*
X1246Y1894D01*
X1269Y1894D02*
X1281Y1894D01*
X1313Y1894D02*
X1325Y1894D01*
X1348Y1894D02*
X1360Y1894D01*
X1392Y1894D02*
X1404Y1894D01*
X1427Y1894D02*
X1438Y1894D01*
X1471Y1894D02*
X1483Y1894D01*
X1505Y1894D02*
X1517Y1894D01*
X1550Y1894D02*
X1561Y1894D01*
X1584Y1894D02*
X1596Y1894D01*
X1628Y1894D02*
X1640Y1894D01*
X1663Y1894D02*
X1675Y1894D01*
X1707Y1894D02*
X1719Y1894D01*
X1741Y1894D02*
X1753Y1894D01*
X1786Y1894D02*
X1798Y1894D01*
X1820Y1894D02*
X1832Y1894D01*
X1235Y1893D02*
X1247Y1893D01*
X1269Y1893D02*
X1281Y1893D01*
X1313Y1893D02*
X1326Y1893D01*
X1347Y1893D02*
X1360Y1893D01*
X1392Y1893D02*
X1404Y1893D01*
X1426Y1893D02*
X1438Y1893D01*
X1471Y1893D02*
X1483Y1893D01*
X1505Y1893D02*
X1517Y1893D01*
X1550Y1893D02*
X1562Y1893D01*
X1583Y1893D02*
X1596Y1893D01*
X1628Y1893D02*
X1641Y1893D01*
X1662Y1893D02*
X1675Y1893D01*
X1707Y1893D02*
X1719Y1893D01*
X1741Y1893D02*
X1753Y1893D01*
X1786Y1893D02*
X1798Y1893D01*
X1820Y1893D02*
X1832Y1893D01*
X1235Y1892D02*
X1248Y1892D01*
X1268Y1892D02*
X1281Y1892D01*
X1313Y1892D02*
X1326Y1892D01*
X1347Y1892D02*
X1360Y1892D01*
X1392Y1892D02*
X1405Y1892D01*
X1425Y1892D02*
X1438Y1892D01*
X1471Y1892D02*
X1484Y1892D01*
X1504Y1892D02*
X1517Y1892D01*
X1550Y1892D02*
X1563Y1892D01*
X1583Y1892D02*
X1596Y1892D01*
X1628Y1892D02*
X1641Y1892D01*
X1662Y1892D02*
X1675Y1892D01*
X1707Y1892D02*
X1720Y1892D01*
X1740Y1892D02*
X1753Y1892D01*
X1786Y1892D02*
X1799Y1892D01*
X1819Y1892D02*
X1832Y1892D01*
X1235Y1891D02*
X1248Y1891D01*
X1267Y1891D02*
X1281Y1891D01*
X1313Y1891D02*
X1327Y1891D01*
X1346Y1891D02*
X1360Y1891D01*
X1392Y1891D02*
X1406Y1891D01*
X1424Y1891D02*
X1438Y1891D01*
X1471Y1891D02*
X1485Y1891D01*
X1503Y1891D02*
X1517Y1891D01*
X1550Y1891D02*
X1563Y1891D01*
X1582Y1891D02*
X1596Y1891D01*
X1628Y1891D02*
X1642Y1891D01*
X1661Y1891D02*
X1675Y1891D01*
X1707Y1891D02*
X1721Y1891D01*
X1739Y1891D02*
X1753Y1891D01*
X1786Y1891D02*
X1800Y1891D01*
X1818Y1891D02*
X1832Y1891D01*
X1235Y1890D02*
X1250Y1890D01*
X1266Y1890D02*
X1281Y1890D01*
X1313Y1890D02*
X1328Y1890D01*
X1345Y1890D02*
X1360Y1890D01*
X1392Y1890D02*
X1407Y1890D01*
X1423Y1890D02*
X1438Y1890D01*
X1471Y1890D02*
X1486Y1890D01*
X1502Y1890D02*
X1517Y1890D01*
X1550Y1890D02*
X1565Y1890D01*
X1581Y1890D02*
X1596Y1890D01*
X1628Y1890D02*
X1643Y1890D01*
X1660Y1890D02*
X1675Y1890D01*
X1707Y1890D02*
X1722Y1890D01*
X1738Y1890D02*
X1753Y1890D01*
X1786Y1890D02*
X1801Y1890D01*
X1817Y1890D02*
X1832Y1890D01*
X1235Y1889D02*
X1251Y1889D01*
X1265Y1889D02*
X1281Y1889D01*
X1313Y1889D02*
X1330Y1889D01*
X1343Y1889D02*
X1360Y1889D01*
X1392Y1889D02*
X1408Y1889D01*
X1422Y1889D02*
X1438Y1889D01*
X1471Y1889D02*
X1487Y1889D01*
X1501Y1889D02*
X1517Y1889D01*
X1550Y1889D02*
X1566Y1889D01*
X1579Y1889D02*
X1596Y1889D01*
X1628Y1889D02*
X1645Y1889D01*
X1658Y1889D02*
X1675Y1889D01*
X1707Y1889D02*
X1723Y1889D01*
X1737Y1889D02*
X1753Y1889D01*
X1786Y1889D02*
X1802Y1889D01*
X1816Y1889D02*
X1832Y1889D01*
X1235Y1888D02*
X1253Y1888D01*
X1262Y1888D02*
X1281Y1888D01*
X1313Y1888D02*
X1332Y1888D01*
X1341Y1888D02*
X1360Y1888D01*
X1392Y1888D02*
X1411Y1888D01*
X1420Y1888D02*
X1438Y1888D01*
X1471Y1888D02*
X1489Y1888D01*
X1499Y1888D02*
X1517Y1888D01*
X1550Y1888D02*
X1568Y1888D01*
X1577Y1888D02*
X1596Y1888D01*
X1628Y1888D02*
X1647Y1888D01*
X1656Y1888D02*
X1675Y1888D01*
X1707Y1888D02*
X1725Y1888D01*
X1735Y1888D02*
X1753Y1888D01*
X1786Y1888D02*
X1804Y1888D01*
X1814Y1888D02*
X1832Y1888D01*
X1235Y1887D02*
X1281Y1887D01*
X1313Y1887D02*
X1360Y1887D01*
X1392Y1887D02*
X1438Y1887D01*
X1471Y1887D02*
X1517Y1887D01*
X1550Y1887D02*
X1596Y1887D01*
X1628Y1887D02*
X1675Y1887D01*
X1707Y1887D02*
X1753Y1887D01*
X1786Y1887D02*
X1832Y1887D01*
X1235Y1886D02*
X1281Y1886D01*
X1313Y1886D02*
X1360Y1886D01*
X1392Y1886D02*
X1438Y1886D01*
X1471Y1886D02*
X1517Y1886D01*
X1550Y1886D02*
X1596Y1886D01*
X1628Y1886D02*
X1675Y1886D01*
X1707Y1886D02*
X1753Y1886D01*
X1786Y1886D02*
X1832Y1886D01*
X1235Y1885D02*
X1281Y1885D01*
X1313Y1885D02*
X1360Y1885D01*
X1392Y1885D02*
X1438Y1885D01*
X1471Y1885D02*
X1517Y1885D01*
X1550Y1885D02*
X1596Y1885D01*
X1628Y1885D02*
X1675Y1885D01*
X1707Y1885D02*
X1753Y1885D01*
X1786Y1885D02*
X1832Y1885D01*
X1235Y1884D02*
X1281Y1884D01*
X1313Y1884D02*
X1360Y1884D01*
X1392Y1884D02*
X1438Y1884D01*
X1471Y1884D02*
X1517Y1884D01*
X1550Y1884D02*
X1596Y1884D01*
X1628Y1884D02*
X1675Y1884D01*
X1707Y1884D02*
X1753Y1884D01*
X1786Y1884D02*
X1832Y1884D01*
X1235Y1883D02*
X1281Y1883D01*
X1313Y1883D02*
X1360Y1883D01*
X1392Y1883D02*
X1438Y1883D01*
X1471Y1883D02*
X1517Y1883D01*
X1550Y1883D02*
X1596Y1883D01*
X1628Y1883D02*
X1675Y1883D01*
X1707Y1883D02*
X1753Y1883D01*
X1786Y1883D02*
X1832Y1883D01*
X1235Y1882D02*
X1281Y1882D01*
X1313Y1882D02*
X1360Y1882D01*
X1392Y1882D02*
X1438Y1882D01*
X1471Y1882D02*
X1517Y1882D01*
X1550Y1882D02*
X1596Y1882D01*
X1628Y1882D02*
X1675Y1882D01*
X1707Y1882D02*
X1753Y1882D01*
X1786Y1882D02*
X1832Y1882D01*
X1235Y1881D02*
X1281Y1881D01*
X1313Y1881D02*
X1360Y1881D01*
X1392Y1881D02*
X1438Y1881D01*
X1471Y1881D02*
X1517Y1881D01*
X1550Y1881D02*
X1596Y1881D01*
X1628Y1881D02*
X1675Y1881D01*
X1707Y1881D02*
X1753Y1881D01*
X1786Y1881D02*
X1832Y1881D01*
X1235Y1880D02*
X1281Y1880D01*
X1313Y1880D02*
X1360Y1880D01*
X1392Y1880D02*
X1438Y1880D01*
X1471Y1880D02*
X1517Y1880D01*
X1550Y1880D02*
X1596Y1880D01*
X1628Y1880D02*
X1675Y1880D01*
X1707Y1880D02*
X1753Y1880D01*
X1786Y1880D02*
X1832Y1880D01*
X1183Y1844D02*
X1270Y1844D01*
X1183Y1843D02*
X1271Y1843D01*
X1183Y1842D02*
X1271Y1842D01*
X1183Y1841D02*
X1271Y1841D01*
X1183Y1840D02*
X1271Y1840D01*
X1183Y1839D02*
X1271Y1839D01*
X1183Y1838D02*
X1271Y1838D01*
X1183Y1837D02*
X1271Y1837D01*
X1183Y1836D02*
X1271Y1836D01*
X1183Y1835D02*
X1271Y1835D01*
X1183Y1834D02*
X1271Y1834D01*
X1183Y1833D02*
X1271Y1833D01*
X1183Y1832D02*
X1199Y1832D01*
X1207Y1832D02*
X1271Y1832D01*
X1183Y1831D02*
X1196Y1831D01*
X1209Y1831D02*
X1271Y1831D01*
X1183Y1830D02*
X1195Y1830D01*
X1211Y1830D02*
X1271Y1830D01*
X1183Y1829D02*
X1194Y1829D01*
X1212Y1829D02*
X1271Y1829D01*
X1183Y1828D02*
X1193Y1828D01*
X1213Y1828D02*
X1271Y1828D01*
X1183Y1827D02*
X1192Y1827D01*
X1214Y1827D02*
X1271Y1827D01*
X1183Y1826D02*
X1192Y1826D01*
X1214Y1826D02*
X1271Y1826D01*
X1183Y1825D02*
X1191Y1825D01*
X1215Y1825D02*
X1271Y1825D01*
X1183Y1824D02*
X1191Y1824D01*
X1215Y1824D02*
X1271Y1824D01*
X1183Y1823D02*
X1190Y1823D01*
X1215Y1823D02*
X1271Y1823D01*
X1183Y1822D02*
X1190Y1822D01*
X1215Y1822D02*
X1271Y1822D01*
X1183Y1821D02*
X1190Y1821D01*
X1215Y1821D02*
X1271Y1821D01*
X1183Y1820D02*
X1190Y1820D01*
X1215Y1820D02*
X1271Y1820D01*
X1183Y1819D02*
X1190Y1819D01*
X1215Y1819D02*
X1271Y1819D01*
X1183Y1818D02*
X1190Y1818D01*
X1215Y1818D02*
X1271Y1818D01*
X1183Y1817D02*
X1191Y1817D01*
X1215Y1817D02*
X1271Y1817D01*
X1183Y1816D02*
X1191Y1816D01*
X1215Y1816D02*
X1271Y1816D01*
X1183Y1815D02*
X1192Y1815D01*
X1214Y1815D02*
X1271Y1815D01*
X1183Y1814D02*
X1192Y1814D01*
X1214Y1814D02*
X1271Y1814D01*
X1183Y1813D02*
X1193Y1813D01*
X1213Y1813D02*
X1271Y1813D01*
X1183Y1812D02*
X1194Y1812D01*
X1212Y1812D02*
X1271Y1812D01*
X1183Y1811D02*
X1195Y1811D01*
X1211Y1811D02*
X1271Y1811D01*
X1183Y1810D02*
X1196Y1810D01*
X1209Y1810D02*
X1271Y1810D01*
X1183Y1809D02*
X1198Y1809D01*
X1207Y1809D02*
X1271Y1809D01*
X1183Y1808D02*
X1271Y1808D01*
X1183Y1807D02*
X1271Y1807D01*
X1183Y1806D02*
X1271Y1806D01*
X1183Y1805D02*
X1271Y1805D01*
X1183Y1804D02*
X1271Y1804D01*
X1183Y1803D02*
X1271Y1803D01*
X1183Y1802D02*
X1271Y1802D01*
X1183Y1801D02*
X1271Y1801D01*
X1183Y1800D02*
X1271Y1800D01*
X1183Y1799D02*
X1271Y1799D01*
X1183Y1798D02*
X1271Y1798D01*
X1183Y1797D02*
X1270Y1797D01*
X1183Y1765D02*
X1270Y1765D01*
X1183Y1764D02*
X1271Y1764D01*
X1183Y1763D02*
X1271Y1763D01*
X1183Y1762D02*
X1271Y1762D01*
X1183Y1761D02*
X1271Y1761D01*
X1183Y1760D02*
X1271Y1760D01*
X1183Y1759D02*
X1271Y1759D01*
X1183Y1758D02*
X1271Y1758D01*
X1183Y1757D02*
X1271Y1757D01*
X1183Y1756D02*
X1271Y1756D01*
X1183Y1755D02*
X1271Y1755D01*
X1183Y1754D02*
X1271Y1754D01*
X1183Y1753D02*
X1198Y1753D01*
X1208Y1753D02*
X1271Y1753D01*
X1183Y1752D02*
X1196Y1752D01*
X1210Y1752D02*
X1271Y1752D01*
X1183Y1751D02*
X1194Y1751D01*
X1211Y1751D02*
X1271Y1751D01*
X1183Y1750D02*
X1193Y1750D01*
X1212Y1750D02*
X1271Y1750D01*
X1183Y1749D02*
X1193Y1749D01*
X1213Y1749D02*
X1271Y1749D01*
X1183Y1748D02*
X1192Y1748D01*
X1214Y1748D02*
X1271Y1748D01*
X1183Y1747D02*
X1191Y1747D01*
X1214Y1747D02*
X1271Y1747D01*
X1183Y1746D02*
X1191Y1746D01*
X1215Y1746D02*
X1271Y1746D01*
X1183Y1745D02*
X1191Y1745D01*
X1215Y1745D02*
X1271Y1745D01*
X1183Y1744D02*
X1190Y1744D01*
X1215Y1744D02*
X1271Y1744D01*
X1183Y1743D02*
X1190Y1743D01*
X1215Y1743D02*
X1271Y1743D01*
X1183Y1742D02*
X1190Y1742D01*
X1215Y1742D02*
X1271Y1742D01*
X1183Y1741D02*
X1190Y1741D01*
X1215Y1741D02*
X1271Y1741D01*
X1183Y1740D02*
X1190Y1740D01*
X1215Y1740D02*
X1271Y1740D01*
X1183Y1739D02*
X1190Y1739D01*
X1215Y1739D02*
X1271Y1739D01*
X1183Y1738D02*
X1191Y1738D01*
X1215Y1738D02*
X1271Y1738D01*
X1183Y1737D02*
X1191Y1737D01*
X1214Y1737D02*
X1271Y1737D01*
X1183Y1736D02*
X1192Y1736D01*
X1214Y1736D02*
X1271Y1736D01*
X1183Y1735D02*
X1192Y1735D01*
X1213Y1735D02*
X1271Y1735D01*
X1183Y1734D02*
X1193Y1734D01*
X1213Y1734D02*
X1271Y1734D01*
X1183Y1733D02*
X1194Y1733D01*
X1212Y1733D02*
X1271Y1733D01*
X1183Y1732D02*
X1195Y1732D01*
X1210Y1732D02*
X1271Y1732D01*
X1183Y1731D02*
X1197Y1731D01*
X1209Y1731D02*
X1271Y1731D01*
X1183Y1730D02*
X1199Y1730D01*
X1206Y1730D02*
X1271Y1730D01*
X1183Y1729D02*
X1271Y1729D01*
X1183Y1728D02*
X1271Y1728D01*
X1183Y1727D02*
X1271Y1727D01*
X1183Y1726D02*
X1271Y1726D01*
X1183Y1725D02*
X1271Y1725D01*
X1183Y1724D02*
X1271Y1724D01*
X1183Y1723D02*
X1271Y1723D01*
X1183Y1722D02*
X1271Y1722D01*
X1183Y1721D02*
X1271Y1721D01*
X1183Y1720D02*
X1271Y1720D01*
X1183Y1719D02*
X1271Y1719D01*
X1183Y1686D02*
X1271Y1686D01*
X1183Y1685D02*
X1271Y1685D01*
X1183Y1684D02*
X1271Y1684D01*
X1183Y1683D02*
X1271Y1683D01*
X1183Y1682D02*
X1271Y1682D01*
X1183Y1681D02*
X1271Y1681D01*
X1183Y1680D02*
X1271Y1680D01*
X1183Y1679D02*
X1271Y1679D01*
X1183Y1678D02*
X1271Y1678D01*
X1183Y1677D02*
X1271Y1677D01*
X1183Y1676D02*
X1271Y1676D01*
X1183Y1675D02*
X1200Y1675D01*
X1205Y1675D02*
X1271Y1675D01*
X1183Y1674D02*
X1197Y1674D01*
X1208Y1674D02*
X1271Y1674D01*
X1183Y1673D02*
X1195Y1673D01*
X1210Y1673D02*
X1271Y1673D01*
X1183Y1672D02*
X1194Y1672D01*
X1211Y1672D02*
X1271Y1672D01*
X1183Y1671D02*
X1193Y1671D01*
X1212Y1671D02*
X1271Y1671D01*
X1183Y1670D02*
X1192Y1670D01*
X1213Y1670D02*
X1271Y1670D01*
X1183Y1669D02*
X1192Y1669D01*
X1214Y1669D02*
X1271Y1669D01*
X1183Y1668D02*
X1191Y1668D01*
X1214Y1668D02*
X1271Y1668D01*
X1183Y1667D02*
X1191Y1667D01*
X1215Y1667D02*
X1271Y1667D01*
X1183Y1666D02*
X1191Y1666D01*
X1215Y1666D02*
X1271Y1666D01*
X1183Y1665D02*
X1190Y1665D01*
X1215Y1665D02*
X1271Y1665D01*
X1183Y1664D02*
X1190Y1664D01*
X1215Y1664D02*
X1271Y1664D01*
X1183Y1663D02*
X1190Y1663D01*
X1215Y1663D02*
X1271Y1663D01*
X1183Y1662D02*
X1190Y1662D01*
X1215Y1662D02*
X1271Y1662D01*
X1183Y1661D02*
X1190Y1661D01*
X1215Y1661D02*
X1271Y1661D01*
X1183Y1660D02*
X1191Y1660D01*
X1215Y1660D02*
X1271Y1660D01*
X1183Y1659D02*
X1191Y1659D01*
X1215Y1659D02*
X1271Y1659D01*
X1183Y1658D02*
X1191Y1658D01*
X1214Y1658D02*
X1271Y1658D01*
X1183Y1657D02*
X1192Y1657D01*
X1214Y1657D02*
X1271Y1657D01*
X1183Y1656D02*
X1192Y1656D01*
X1213Y1656D02*
X1271Y1656D01*
X1183Y1655D02*
X1193Y1655D01*
X1212Y1655D02*
X1271Y1655D01*
X1183Y1654D02*
X1194Y1654D01*
X1211Y1654D02*
X1271Y1654D01*
X1183Y1653D02*
X1196Y1653D01*
X1210Y1653D02*
X1271Y1653D01*
X1183Y1652D02*
X1197Y1652D01*
X1208Y1652D02*
X1271Y1652D01*
X1183Y1651D02*
X1201Y1651D01*
X1204Y1651D02*
X1271Y1651D01*
X1183Y1650D02*
X1271Y1650D01*
X1183Y1649D02*
X1271Y1649D01*
X1183Y1648D02*
X1271Y1648D01*
X1183Y1647D02*
X1271Y1647D01*
X1183Y1646D02*
X1271Y1646D01*
X1183Y1645D02*
X1271Y1645D01*
X1183Y1644D02*
X1271Y1644D01*
X1183Y1643D02*
X1271Y1643D01*
X1183Y1642D02*
X1271Y1642D01*
X1183Y1641D02*
X1271Y1641D01*
X1183Y1640D02*
X1271Y1640D01*
X1183Y1607D02*
X1271Y1607D01*
X1183Y1606D02*
X1271Y1606D01*
X1183Y1605D02*
X1271Y1605D01*
X1183Y1604D02*
X1271Y1604D01*
X1183Y1603D02*
X1271Y1603D01*
X1183Y1602D02*
X1271Y1602D01*
X1183Y1601D02*
X1271Y1601D01*
X1183Y1600D02*
X1271Y1600D01*
X1183Y1599D02*
X1271Y1599D01*
X1183Y1598D02*
X1271Y1598D01*
X1183Y1597D02*
X1271Y1597D01*
X1183Y1596D02*
X1199Y1596D01*
X1207Y1596D02*
X1271Y1596D01*
X1183Y1595D02*
X1197Y1595D01*
X1209Y1595D02*
X1271Y1595D01*
X1183Y1594D02*
X1195Y1594D01*
X1211Y1594D02*
X1271Y1594D01*
X1183Y1593D02*
X1194Y1593D01*
X1212Y1593D02*
X1271Y1593D01*
X1183Y1592D02*
X1193Y1592D01*
X1213Y1592D02*
X1271Y1592D01*
X1183Y1591D02*
X1192Y1591D01*
X1213Y1591D02*
X1271Y1591D01*
X1183Y1590D02*
X1192Y1590D01*
X1214Y1590D02*
X1271Y1590D01*
X1183Y1589D02*
X1191Y1589D01*
X1214Y1589D02*
X1271Y1589D01*
X1183Y1588D02*
X1191Y1588D01*
X1215Y1588D02*
X1271Y1588D01*
X1183Y1587D02*
X1190Y1587D01*
X1215Y1587D02*
X1271Y1587D01*
X1183Y1586D02*
X1190Y1586D01*
X1215Y1586D02*
X1271Y1586D01*
X1183Y1585D02*
X1190Y1585D01*
X1215Y1585D02*
X1271Y1585D01*
X1183Y1584D02*
X1190Y1584D01*
X1215Y1584D02*
X1271Y1584D01*
X1183Y1583D02*
X1190Y1583D01*
X1215Y1583D02*
X1271Y1583D01*
X1183Y1582D02*
X1190Y1582D01*
X1215Y1582D02*
X1271Y1582D01*
X1183Y1581D02*
X1191Y1581D01*
X1215Y1581D02*
X1271Y1581D01*
X1183Y1580D02*
X1191Y1580D01*
X1215Y1580D02*
X1271Y1580D01*
X1183Y1579D02*
X1191Y1579D01*
X1214Y1579D02*
X1271Y1579D01*
X1183Y1578D02*
X1192Y1578D01*
X1214Y1578D02*
X1271Y1578D01*
X1183Y1577D02*
X1193Y1577D01*
X1213Y1577D02*
X1271Y1577D01*
X1183Y1576D02*
X1193Y1576D01*
X1212Y1576D02*
X1271Y1576D01*
X1183Y1575D02*
X1195Y1575D01*
X1211Y1575D02*
X1271Y1575D01*
X1183Y1574D02*
X1196Y1574D01*
X1210Y1574D02*
X1271Y1574D01*
X1183Y1573D02*
X1198Y1573D01*
X1208Y1573D02*
X1271Y1573D01*
X1183Y1572D02*
X1271Y1572D01*
X1183Y1571D02*
X1271Y1571D01*
X1183Y1570D02*
X1271Y1570D01*
X1183Y1569D02*
X1271Y1569D01*
X1183Y1568D02*
X1271Y1568D01*
X1183Y1567D02*
X1271Y1567D01*
X1183Y1566D02*
X1271Y1566D01*
X1183Y1565D02*
X1271Y1565D01*
X1183Y1564D02*
X1271Y1564D01*
X1183Y1563D02*
X1271Y1563D01*
X1183Y1562D02*
X1271Y1562D01*
X1183Y1561D02*
X1270Y1561D01*
X1183Y1529D02*
X1270Y1529D01*
X1183Y1528D02*
X1271Y1528D01*
X1183Y1527D02*
X1271Y1527D01*
X1183Y1526D02*
X1271Y1526D01*
X1183Y1525D02*
X1271Y1525D01*
X1183Y1524D02*
X1271Y1524D01*
X1183Y1523D02*
X1271Y1523D01*
X1183Y1522D02*
X1271Y1522D01*
X1183Y1521D02*
X1271Y1521D01*
X1183Y1520D02*
X1271Y1520D01*
X1183Y1519D02*
X1271Y1519D01*
X1183Y1518D02*
X1271Y1518D01*
X1183Y1517D02*
X1198Y1517D01*
X1207Y1517D02*
X1271Y1517D01*
X1183Y1516D02*
X1196Y1516D01*
X1210Y1516D02*
X1271Y1516D01*
X1183Y1515D02*
X1195Y1515D01*
X1211Y1515D02*
X1271Y1515D01*
X1183Y1514D02*
X1194Y1514D01*
X1212Y1514D02*
X1271Y1514D01*
X1183Y1513D02*
X1193Y1513D01*
X1213Y1513D02*
X1271Y1513D01*
X1183Y1512D02*
X1192Y1512D01*
X1214Y1512D02*
X1271Y1512D01*
X1183Y1511D02*
X1191Y1511D01*
X1214Y1511D02*
X1271Y1511D01*
X1183Y1510D02*
X1191Y1510D01*
X1215Y1510D02*
X1271Y1510D01*
X1183Y1509D02*
X1191Y1509D01*
X1215Y1509D02*
X1271Y1509D01*
X1183Y1508D02*
X1190Y1508D01*
X1215Y1508D02*
X1271Y1508D01*
X1183Y1507D02*
X1190Y1507D01*
X1215Y1507D02*
X1271Y1507D01*
X1183Y1506D02*
X1190Y1506D01*
X1215Y1506D02*
X1271Y1506D01*
X1183Y1505D02*
X1190Y1505D01*
X1215Y1505D02*
X1271Y1505D01*
X1183Y1504D02*
X1190Y1504D01*
X1215Y1504D02*
X1271Y1504D01*
X1183Y1503D02*
X1190Y1503D01*
X1215Y1503D02*
X1271Y1503D01*
X1183Y1502D02*
X1191Y1502D01*
X1215Y1502D02*
X1271Y1502D01*
X1183Y1501D02*
X1191Y1501D01*
X1214Y1501D02*
X1271Y1501D01*
X1183Y1500D02*
X1192Y1500D01*
X1214Y1500D02*
X1271Y1500D01*
X1183Y1499D02*
X1192Y1499D01*
X1213Y1499D02*
X1271Y1499D01*
X1183Y1498D02*
X1193Y1498D01*
X1213Y1498D02*
X1271Y1498D01*
X1183Y1497D02*
X1194Y1497D01*
X1212Y1497D02*
X1271Y1497D01*
X1183Y1496D02*
X1195Y1496D01*
X1211Y1496D02*
X1271Y1496D01*
X1183Y1495D02*
X1197Y1495D01*
X1209Y1495D02*
X1271Y1495D01*
X1183Y1494D02*
X1199Y1494D01*
X1207Y1494D02*
X1271Y1494D01*
X1183Y1493D02*
X1271Y1493D01*
X1183Y1492D02*
X1271Y1492D01*
X1183Y1491D02*
X1271Y1491D01*
X1183Y1490D02*
X1271Y1490D01*
X1183Y1489D02*
X1271Y1489D01*
X1183Y1488D02*
X1271Y1488D01*
X1183Y1487D02*
X1271Y1487D01*
X1183Y1486D02*
X1271Y1486D01*
X1183Y1485D02*
X1271Y1485D01*
X1183Y1484D02*
X1271Y1484D01*
X1183Y1483D02*
X1271Y1483D01*
X1183Y1482D02*
X1270Y1482D01*
X1183Y1450D02*
X1271Y1450D01*
X1183Y1449D02*
X1271Y1449D01*
X1183Y1448D02*
X1271Y1448D01*
X1183Y1447D02*
X1271Y1447D01*
X1183Y1446D02*
X1271Y1446D01*
X1183Y1445D02*
X1271Y1445D01*
X1183Y1444D02*
X1271Y1444D01*
X1183Y1443D02*
X1271Y1443D01*
X1183Y1442D02*
X1271Y1442D01*
X1183Y1441D02*
X1271Y1441D01*
X1183Y1440D02*
X1271Y1440D01*
X1183Y1439D02*
X1202Y1439D01*
X1204Y1439D02*
X1271Y1439D01*
X1183Y1438D02*
X1197Y1438D01*
X1208Y1438D02*
X1271Y1438D01*
X1183Y1437D02*
X1196Y1437D01*
X1210Y1437D02*
X1271Y1437D01*
X1183Y1436D02*
X1194Y1436D01*
X1211Y1436D02*
X1271Y1436D01*
X1183Y1435D02*
X1193Y1435D01*
X1212Y1435D02*
X1271Y1435D01*
X1183Y1434D02*
X1192Y1434D01*
X1213Y1434D02*
X1271Y1434D01*
X1183Y1433D02*
X1192Y1433D01*
X1214Y1433D02*
X1271Y1433D01*
X1183Y1432D02*
X1191Y1432D01*
X1214Y1432D02*
X1271Y1432D01*
X1183Y1431D02*
X1191Y1431D01*
X1215Y1431D02*
X1271Y1431D01*
X1183Y1430D02*
X1191Y1430D01*
X1215Y1430D02*
X1271Y1430D01*
X1183Y1429D02*
X1190Y1429D01*
X1215Y1429D02*
X1271Y1429D01*
X1183Y1428D02*
X1190Y1428D01*
X1215Y1428D02*
X1271Y1428D01*
X1183Y1427D02*
X1190Y1427D01*
X1215Y1427D02*
X1271Y1427D01*
X1183Y1426D02*
X1190Y1426D01*
X1215Y1426D02*
X1271Y1426D01*
X1183Y1425D02*
X1190Y1425D01*
X1215Y1425D02*
X1271Y1425D01*
X1183Y1424D02*
X1191Y1424D01*
X1215Y1424D02*
X1271Y1424D01*
X1183Y1423D02*
X1191Y1423D01*
X1215Y1423D02*
X1271Y1423D01*
X1183Y1422D02*
X1191Y1422D01*
X1214Y1422D02*
X1271Y1422D01*
X1183Y1421D02*
X1192Y1421D01*
X1214Y1421D02*
X1271Y1421D01*
X1183Y1420D02*
X1192Y1420D01*
X1213Y1420D02*
X1271Y1420D01*
X1183Y1419D02*
X1193Y1419D01*
X1212Y1419D02*
X1271Y1419D01*
X1183Y1418D02*
X1194Y1418D01*
X1211Y1418D02*
X1271Y1418D01*
X1183Y1417D02*
X1195Y1417D01*
X1210Y1417D02*
X1271Y1417D01*
X1183Y1416D02*
X1197Y1416D01*
X1209Y1416D02*
X1271Y1416D01*
X1183Y1415D02*
X1200Y1415D01*
X1206Y1415D02*
X1271Y1415D01*
X1183Y1414D02*
X1271Y1414D01*
X1183Y1413D02*
X1271Y1413D01*
X1183Y1412D02*
X1271Y1412D01*
X1183Y1411D02*
X1271Y1411D01*
X1183Y1410D02*
X1271Y1410D01*
X1183Y1409D02*
X1271Y1409D01*
X1183Y1408D02*
X1271Y1408D01*
X1183Y1407D02*
X1271Y1407D01*
X1183Y1406D02*
X1271Y1406D01*
X1183Y1405D02*
X1271Y1405D01*
X1183Y1404D02*
X1271Y1404D01*
X1235Y1367D02*
X1281Y1367D01*
X1313Y1367D02*
X1360Y1367D01*
X1392Y1367D02*
X1438Y1367D01*
X1471Y1367D02*
X1517Y1367D01*
X1550Y1367D02*
X1596Y1367D01*
X1628Y1367D02*
X1675Y1367D01*
X1707Y1367D02*
X1753Y1367D01*
X1786Y1367D02*
X1832Y1367D01*
X1235Y1366D02*
X1281Y1366D01*
X1313Y1366D02*
X1360Y1366D01*
X1392Y1366D02*
X1438Y1366D01*
X1471Y1366D02*
X1517Y1366D01*
X1550Y1366D02*
X1596Y1366D01*
X1628Y1366D02*
X1675Y1366D01*
X1707Y1366D02*
X1753Y1366D01*
X1786Y1366D02*
X1832Y1366D01*
X1235Y1365D02*
X1281Y1365D01*
X1313Y1365D02*
X1360Y1365D01*
X1392Y1365D02*
X1438Y1365D01*
X1471Y1365D02*
X1517Y1365D01*
X1550Y1365D02*
X1596Y1365D01*
X1628Y1365D02*
X1675Y1365D01*
X1707Y1365D02*
X1753Y1365D01*
X1786Y1365D02*
X1832Y1365D01*
X1235Y1364D02*
X1281Y1364D01*
X1313Y1364D02*
X1360Y1364D01*
X1392Y1364D02*
X1438Y1364D01*
X1471Y1364D02*
X1517Y1364D01*
X1550Y1364D02*
X1596Y1364D01*
X1628Y1364D02*
X1675Y1364D01*
X1707Y1364D02*
X1753Y1364D01*
X1786Y1364D02*
X1832Y1364D01*
X1235Y1363D02*
X1281Y1363D01*
X1313Y1363D02*
X1360Y1363D01*
X1392Y1363D02*
X1438Y1363D01*
X1471Y1363D02*
X1517Y1363D01*
X1550Y1363D02*
X1596Y1363D01*
X1628Y1363D02*
X1675Y1363D01*
X1707Y1363D02*
X1753Y1363D01*
X1786Y1363D02*
X1832Y1363D01*
X1235Y1362D02*
X1281Y1362D01*
X1313Y1362D02*
X1360Y1362D01*
X1392Y1362D02*
X1438Y1362D01*
X1471Y1362D02*
X1517Y1362D01*
X1550Y1362D02*
X1596Y1362D01*
X1628Y1362D02*
X1675Y1362D01*
X1707Y1362D02*
X1753Y1362D01*
X1786Y1362D02*
X1832Y1362D01*
X1235Y1361D02*
X1281Y1361D01*
X1313Y1361D02*
X1360Y1361D01*
X1392Y1361D02*
X1438Y1361D01*
X1471Y1361D02*
X1517Y1361D01*
X1550Y1361D02*
X1596Y1361D01*
X1628Y1361D02*
X1675Y1361D01*
X1707Y1361D02*
X1753Y1361D01*
X1786Y1361D02*
X1832Y1361D01*
X1235Y1360D02*
X1281Y1360D01*
X1313Y1360D02*
X1360Y1360D01*
X1392Y1360D02*
X1438Y1360D01*
X1471Y1360D02*
X1517Y1360D01*
X1550Y1360D02*
X1596Y1360D01*
X1628Y1360D02*
X1675Y1360D01*
X1707Y1360D02*
X1753Y1360D01*
X1786Y1360D02*
X1832Y1360D01*
X1235Y1359D02*
X1254Y1359D01*
X1261Y1359D02*
X1281Y1359D01*
X1313Y1359D02*
X1333Y1359D01*
X1340Y1359D02*
X1360Y1359D01*
X1392Y1359D02*
X1412Y1359D01*
X1419Y1359D02*
X1438Y1359D01*
X1471Y1359D02*
X1491Y1359D01*
X1497Y1359D02*
X1517Y1359D01*
X1550Y1359D02*
X1569Y1359D01*
X1576Y1359D02*
X1596Y1359D01*
X1628Y1359D02*
X1648Y1359D01*
X1655Y1359D02*
X1675Y1359D01*
X1707Y1359D02*
X1727Y1359D01*
X1734Y1359D02*
X1753Y1359D01*
X1786Y1359D02*
X1805Y1359D01*
X1812Y1359D02*
X1832Y1359D01*
X1235Y1358D02*
X1252Y1358D01*
X1264Y1358D02*
X1281Y1358D01*
X1313Y1358D02*
X1330Y1358D01*
X1343Y1358D02*
X1360Y1358D01*
X1392Y1358D02*
X1409Y1358D01*
X1421Y1358D02*
X1438Y1358D01*
X1471Y1358D02*
X1488Y1358D01*
X1500Y1358D02*
X1517Y1358D01*
X1550Y1358D02*
X1567Y1358D01*
X1579Y1358D02*
X1596Y1358D01*
X1628Y1358D02*
X1645Y1358D01*
X1657Y1358D02*
X1675Y1358D01*
X1707Y1358D02*
X1724Y1358D01*
X1736Y1358D02*
X1753Y1358D01*
X1786Y1358D02*
X1803Y1358D01*
X1815Y1358D02*
X1832Y1358D01*
X1235Y1357D02*
X1250Y1357D01*
X1265Y1357D02*
X1281Y1357D01*
X1313Y1357D02*
X1329Y1357D01*
X1344Y1357D02*
X1360Y1357D01*
X1392Y1357D02*
X1408Y1357D01*
X1423Y1357D02*
X1438Y1357D01*
X1471Y1357D02*
X1486Y1357D01*
X1502Y1357D02*
X1517Y1357D01*
X1550Y1357D02*
X1565Y1357D01*
X1580Y1357D02*
X1596Y1357D01*
X1628Y1357D02*
X1644Y1357D01*
X1659Y1357D02*
X1675Y1357D01*
X1707Y1357D02*
X1722Y1357D01*
X1738Y1357D02*
X1753Y1357D01*
X1786Y1357D02*
X1801Y1357D01*
X1817Y1357D02*
X1832Y1357D01*
X1235Y1356D02*
X1249Y1356D01*
X1267Y1356D02*
X1281Y1356D01*
X1313Y1356D02*
X1328Y1356D01*
X1345Y1356D02*
X1360Y1356D01*
X1392Y1356D02*
X1406Y1356D01*
X1424Y1356D02*
X1438Y1356D01*
X1471Y1356D02*
X1485Y1356D01*
X1503Y1356D02*
X1517Y1356D01*
X1550Y1356D02*
X1564Y1356D01*
X1582Y1356D02*
X1596Y1356D01*
X1628Y1356D02*
X1643Y1356D01*
X1660Y1356D02*
X1675Y1356D01*
X1707Y1356D02*
X1721Y1356D01*
X1739Y1356D02*
X1753Y1356D01*
X1786Y1356D02*
X1800Y1356D01*
X1818Y1356D02*
X1832Y1356D01*
X1235Y1355D02*
X1248Y1355D01*
X1268Y1355D02*
X1281Y1355D01*
X1313Y1355D02*
X1327Y1355D01*
X1346Y1355D02*
X1360Y1355D01*
X1392Y1355D02*
X1405Y1355D01*
X1425Y1355D02*
X1438Y1355D01*
X1471Y1355D02*
X1484Y1355D01*
X1504Y1355D02*
X1517Y1355D01*
X1550Y1355D02*
X1563Y1355D01*
X1582Y1355D02*
X1596Y1355D01*
X1628Y1355D02*
X1642Y1355D01*
X1661Y1355D02*
X1675Y1355D01*
X1707Y1355D02*
X1720Y1355D01*
X1740Y1355D02*
X1753Y1355D01*
X1786Y1355D02*
X1799Y1355D01*
X1819Y1355D02*
X1832Y1355D01*
X1235Y1354D02*
X1247Y1354D01*
X1268Y1354D02*
X1281Y1354D01*
X1313Y1354D02*
X1326Y1354D01*
X1347Y1354D02*
X1360Y1354D01*
X1392Y1354D02*
X1405Y1354D01*
X1426Y1354D02*
X1438Y1354D01*
X1471Y1354D02*
X1483Y1354D01*
X1505Y1354D02*
X1517Y1354D01*
X1550Y1354D02*
X1562Y1354D01*
X1583Y1354D02*
X1596Y1354D01*
X1628Y1354D02*
X1641Y1354D01*
X1662Y1354D02*
X1675Y1354D01*
X1707Y1354D02*
X1720Y1354D01*
X1741Y1354D02*
X1753Y1354D01*
X1786Y1354D02*
X1798Y1354D01*
X1819Y1354D02*
X1832Y1354D01*
X1235Y1353D02*
X1247Y1353D01*
X1269Y1353D02*
X1281Y1353D01*
X1313Y1353D02*
X1325Y1353D01*
X1348Y1353D02*
X1360Y1353D01*
X1392Y1353D02*
X1404Y1353D01*
X1426Y1353D02*
X1438Y1353D01*
X1471Y1353D02*
X1483Y1353D01*
X1505Y1353D02*
X1517Y1353D01*
X1550Y1353D02*
X1562Y1353D01*
X1584Y1353D02*
X1596Y1353D01*
X1628Y1353D02*
X1640Y1353D01*
X1663Y1353D02*
X1675Y1353D01*
X1707Y1353D02*
X1719Y1353D01*
X1741Y1353D02*
X1753Y1353D01*
X1786Y1353D02*
X1798Y1353D01*
X1820Y1353D02*
X1832Y1353D01*
X1235Y1352D02*
X1246Y1352D01*
X1269Y1352D02*
X1281Y1352D01*
X1313Y1352D02*
X1325Y1352D01*
X1348Y1352D02*
X1360Y1352D01*
X1392Y1352D02*
X1404Y1352D01*
X1427Y1352D02*
X1438Y1352D01*
X1471Y1352D02*
X1482Y1352D01*
X1506Y1352D02*
X1517Y1352D01*
X1550Y1352D02*
X1561Y1352D01*
X1584Y1352D02*
X1596Y1352D01*
X1628Y1352D02*
X1640Y1352D01*
X1663Y1352D02*
X1675Y1352D01*
X1707Y1352D02*
X1718Y1352D01*
X1742Y1352D02*
X1753Y1352D01*
X1786Y1352D02*
X1797Y1352D01*
X1821Y1352D02*
X1832Y1352D01*
X1235Y1351D02*
X1246Y1351D01*
X1270Y1351D02*
X1281Y1351D01*
X1313Y1351D02*
X1324Y1351D01*
X1348Y1351D02*
X1360Y1351D01*
X1392Y1351D02*
X1403Y1351D01*
X1427Y1351D02*
X1438Y1351D01*
X1471Y1351D02*
X1482Y1351D01*
X1506Y1351D02*
X1517Y1351D01*
X1550Y1351D02*
X1561Y1351D01*
X1585Y1351D02*
X1596Y1351D01*
X1628Y1351D02*
X1639Y1351D01*
X1663Y1351D02*
X1675Y1351D01*
X1707Y1351D02*
X1718Y1351D01*
X1742Y1351D02*
X1753Y1351D01*
X1786Y1351D02*
X1797Y1351D01*
X1821Y1351D02*
X1832Y1351D01*
X1235Y1350D02*
X1245Y1350D01*
X1270Y1350D02*
X1281Y1350D01*
X1313Y1350D02*
X1324Y1350D01*
X1349Y1350D02*
X1360Y1350D01*
X1392Y1350D02*
X1403Y1350D01*
X1428Y1350D02*
X1438Y1350D01*
X1471Y1350D02*
X1482Y1350D01*
X1506Y1350D02*
X1517Y1350D01*
X1550Y1350D02*
X1560Y1350D01*
X1585Y1350D02*
X1596Y1350D01*
X1628Y1350D02*
X1639Y1350D01*
X1664Y1350D02*
X1675Y1350D01*
X1707Y1350D02*
X1718Y1350D01*
X1742Y1350D02*
X1753Y1350D01*
X1786Y1350D02*
X1797Y1350D01*
X1821Y1350D02*
X1832Y1350D01*
X1235Y1349D02*
X1245Y1349D01*
X1270Y1349D02*
X1281Y1349D01*
X1313Y1349D02*
X1324Y1349D01*
X1349Y1349D02*
X1360Y1349D01*
X1392Y1349D02*
X1403Y1349D01*
X1428Y1349D02*
X1438Y1349D01*
X1471Y1349D02*
X1481Y1349D01*
X1506Y1349D02*
X1517Y1349D01*
X1550Y1349D02*
X1560Y1349D01*
X1585Y1349D02*
X1596Y1349D01*
X1628Y1349D02*
X1639Y1349D01*
X1664Y1349D02*
X1675Y1349D01*
X1707Y1349D02*
X1718Y1349D01*
X1743Y1349D02*
X1753Y1349D01*
X1786Y1349D02*
X1796Y1349D01*
X1821Y1349D02*
X1832Y1349D01*
X1235Y1348D02*
X1245Y1348D01*
X1270Y1348D02*
X1281Y1348D01*
X1313Y1348D02*
X1324Y1348D01*
X1349Y1348D02*
X1360Y1348D01*
X1392Y1348D02*
X1403Y1348D01*
X1428Y1348D02*
X1438Y1348D01*
X1471Y1348D02*
X1481Y1348D01*
X1507Y1348D02*
X1517Y1348D01*
X1550Y1348D02*
X1560Y1348D01*
X1585Y1348D02*
X1596Y1348D01*
X1628Y1348D02*
X1639Y1348D01*
X1664Y1348D02*
X1675Y1348D01*
X1707Y1348D02*
X1718Y1348D01*
X1743Y1348D02*
X1753Y1348D01*
X1786Y1348D02*
X1796Y1348D01*
X1821Y1348D02*
X1832Y1348D01*
X1235Y1347D02*
X1245Y1347D01*
X1270Y1347D02*
X1281Y1347D01*
X1313Y1347D02*
X1324Y1347D01*
X1349Y1347D02*
X1360Y1347D01*
X1392Y1347D02*
X1403Y1347D01*
X1428Y1347D02*
X1438Y1347D01*
X1471Y1347D02*
X1481Y1347D01*
X1507Y1347D02*
X1517Y1347D01*
X1550Y1347D02*
X1560Y1347D01*
X1585Y1347D02*
X1596Y1347D01*
X1628Y1347D02*
X1639Y1347D01*
X1664Y1347D02*
X1675Y1347D01*
X1707Y1347D02*
X1718Y1347D01*
X1743Y1347D02*
X1753Y1347D01*
X1786Y1347D02*
X1796Y1347D01*
X1821Y1347D02*
X1832Y1347D01*
X1235Y1346D02*
X1245Y1346D01*
X1270Y1346D02*
X1281Y1346D01*
X1313Y1346D02*
X1324Y1346D01*
X1349Y1346D02*
X1360Y1346D01*
X1392Y1346D02*
X1403Y1346D01*
X1428Y1346D02*
X1438Y1346D01*
X1471Y1346D02*
X1481Y1346D01*
X1506Y1346D02*
X1517Y1346D01*
X1550Y1346D02*
X1560Y1346D01*
X1585Y1346D02*
X1596Y1346D01*
X1628Y1346D02*
X1639Y1346D01*
X1664Y1346D02*
X1675Y1346D01*
X1707Y1346D02*
X1718Y1346D01*
X1743Y1346D02*
X1753Y1346D01*
X1786Y1346D02*
X1796Y1346D01*
X1821Y1346D02*
X1832Y1346D01*
X1235Y1345D02*
X1245Y1345D01*
X1270Y1345D02*
X1281Y1345D01*
X1313Y1345D02*
X1324Y1345D01*
X1349Y1345D02*
X1360Y1345D01*
X1392Y1345D02*
X1403Y1345D01*
X1428Y1345D02*
X1438Y1345D01*
X1471Y1345D02*
X1482Y1345D01*
X1506Y1345D02*
X1517Y1345D01*
X1550Y1345D02*
X1560Y1345D01*
X1585Y1345D02*
X1596Y1345D01*
X1628Y1345D02*
X1639Y1345D01*
X1664Y1345D02*
X1675Y1345D01*
X1707Y1345D02*
X1718Y1345D01*
X1743Y1345D02*
X1753Y1345D01*
X1786Y1345D02*
X1796Y1345D01*
X1821Y1345D02*
X1832Y1345D01*
X1235Y1344D02*
X1246Y1344D01*
X1270Y1344D02*
X1281Y1344D01*
X1313Y1344D02*
X1324Y1344D01*
X1349Y1344D02*
X1360Y1344D01*
X1392Y1344D02*
X1403Y1344D01*
X1427Y1344D02*
X1438Y1344D01*
X1471Y1344D02*
X1482Y1344D01*
X1506Y1344D02*
X1517Y1344D01*
X1550Y1344D02*
X1561Y1344D01*
X1585Y1344D02*
X1596Y1344D01*
X1628Y1344D02*
X1639Y1344D01*
X1664Y1344D02*
X1675Y1344D01*
X1707Y1344D02*
X1718Y1344D01*
X1742Y1344D02*
X1753Y1344D01*
X1786Y1344D02*
X1797Y1344D01*
X1821Y1344D02*
X1832Y1344D01*
X1235Y1343D02*
X1246Y1343D01*
X1270Y1343D02*
X1281Y1343D01*
X1313Y1343D02*
X1325Y1343D01*
X1348Y1343D02*
X1360Y1343D01*
X1392Y1343D02*
X1403Y1343D01*
X1427Y1343D02*
X1438Y1343D01*
X1471Y1343D02*
X1482Y1343D01*
X1506Y1343D02*
X1517Y1343D01*
X1550Y1343D02*
X1561Y1343D01*
X1585Y1343D02*
X1596Y1343D01*
X1628Y1343D02*
X1640Y1343D01*
X1663Y1343D02*
X1675Y1343D01*
X1707Y1343D02*
X1718Y1343D01*
X1742Y1343D02*
X1753Y1343D01*
X1786Y1343D02*
X1797Y1343D01*
X1821Y1343D02*
X1832Y1343D01*
X1235Y1342D02*
X1246Y1342D01*
X1269Y1342D02*
X1281Y1342D01*
X1313Y1342D02*
X1325Y1342D01*
X1348Y1342D02*
X1360Y1342D01*
X1392Y1342D02*
X1404Y1342D01*
X1427Y1342D02*
X1438Y1342D01*
X1471Y1342D02*
X1483Y1342D01*
X1505Y1342D02*
X1517Y1342D01*
X1550Y1342D02*
X1561Y1342D01*
X1584Y1342D02*
X1596Y1342D01*
X1628Y1342D02*
X1640Y1342D01*
X1663Y1342D02*
X1675Y1342D01*
X1707Y1342D02*
X1719Y1342D01*
X1742Y1342D02*
X1753Y1342D01*
X1786Y1342D02*
X1797Y1342D01*
X1820Y1342D02*
X1832Y1342D01*
X1235Y1341D02*
X1247Y1341D01*
X1269Y1341D02*
X1281Y1341D01*
X1313Y1341D02*
X1326Y1341D01*
X1347Y1341D02*
X1360Y1341D01*
X1392Y1341D02*
X1404Y1341D01*
X1426Y1341D02*
X1438Y1341D01*
X1471Y1341D02*
X1483Y1341D01*
X1505Y1341D02*
X1517Y1341D01*
X1550Y1341D02*
X1562Y1341D01*
X1584Y1341D02*
X1596Y1341D01*
X1628Y1341D02*
X1641Y1341D01*
X1662Y1341D02*
X1675Y1341D01*
X1707Y1341D02*
X1719Y1341D01*
X1741Y1341D02*
X1753Y1341D01*
X1786Y1341D02*
X1798Y1341D01*
X1820Y1341D02*
X1832Y1341D01*
X1235Y1340D02*
X1248Y1340D01*
X1268Y1340D02*
X1281Y1340D01*
X1313Y1340D02*
X1326Y1340D01*
X1347Y1340D02*
X1360Y1340D01*
X1392Y1340D02*
X1405Y1340D01*
X1425Y1340D02*
X1438Y1340D01*
X1471Y1340D02*
X1484Y1340D01*
X1504Y1340D02*
X1517Y1340D01*
X1550Y1340D02*
X1562Y1340D01*
X1583Y1340D02*
X1596Y1340D01*
X1628Y1340D02*
X1641Y1340D01*
X1662Y1340D02*
X1675Y1340D01*
X1707Y1340D02*
X1720Y1340D01*
X1740Y1340D02*
X1753Y1340D01*
X1786Y1340D02*
X1799Y1340D01*
X1819Y1340D02*
X1832Y1340D01*
X1235Y1339D02*
X1248Y1339D01*
X1267Y1339D02*
X1281Y1339D01*
X1313Y1339D02*
X1327Y1339D01*
X1346Y1339D02*
X1360Y1339D01*
X1392Y1339D02*
X1406Y1339D01*
X1425Y1339D02*
X1438Y1339D01*
X1471Y1339D02*
X1485Y1339D01*
X1503Y1339D02*
X1517Y1339D01*
X1550Y1339D02*
X1563Y1339D01*
X1582Y1339D02*
X1596Y1339D01*
X1628Y1339D02*
X1642Y1339D01*
X1661Y1339D02*
X1675Y1339D01*
X1707Y1339D02*
X1721Y1339D01*
X1740Y1339D02*
X1753Y1339D01*
X1786Y1339D02*
X1799Y1339D01*
X1818Y1339D02*
X1832Y1339D01*
X1235Y1338D02*
X1249Y1338D01*
X1266Y1338D02*
X1281Y1338D01*
X1313Y1338D02*
X1328Y1338D01*
X1345Y1338D02*
X1360Y1338D01*
X1392Y1338D02*
X1407Y1338D01*
X1424Y1338D02*
X1438Y1338D01*
X1471Y1338D02*
X1486Y1338D01*
X1502Y1338D02*
X1517Y1338D01*
X1550Y1338D02*
X1564Y1338D01*
X1581Y1338D02*
X1596Y1338D01*
X1628Y1338D02*
X1643Y1338D01*
X1660Y1338D02*
X1675Y1338D01*
X1707Y1338D02*
X1722Y1338D01*
X1738Y1338D02*
X1753Y1338D01*
X1786Y1338D02*
X1801Y1338D01*
X1817Y1338D02*
X1832Y1338D01*
X1235Y1337D02*
X1251Y1337D01*
X1265Y1337D02*
X1281Y1337D01*
X1313Y1337D02*
X1330Y1337D01*
X1343Y1337D02*
X1360Y1337D01*
X1392Y1337D02*
X1408Y1337D01*
X1422Y1337D02*
X1438Y1337D01*
X1471Y1337D02*
X1487Y1337D01*
X1501Y1337D02*
X1517Y1337D01*
X1550Y1337D02*
X1566Y1337D01*
X1580Y1337D02*
X1596Y1337D01*
X1628Y1337D02*
X1644Y1337D01*
X1658Y1337D02*
X1675Y1337D01*
X1707Y1337D02*
X1723Y1337D01*
X1737Y1337D02*
X1753Y1337D01*
X1786Y1337D02*
X1802Y1337D01*
X1816Y1337D02*
X1832Y1337D01*
X1235Y1336D02*
X1253Y1336D01*
X1263Y1336D02*
X1281Y1336D01*
X1313Y1336D02*
X1331Y1336D01*
X1342Y1336D02*
X1360Y1336D01*
X1392Y1336D02*
X1410Y1336D01*
X1420Y1336D02*
X1438Y1336D01*
X1471Y1336D02*
X1489Y1336D01*
X1499Y1336D02*
X1517Y1336D01*
X1550Y1336D02*
X1568Y1336D01*
X1578Y1336D02*
X1596Y1336D01*
X1628Y1336D02*
X1646Y1336D01*
X1656Y1336D02*
X1675Y1336D01*
X1707Y1336D02*
X1725Y1336D01*
X1735Y1336D02*
X1753Y1336D01*
X1786Y1336D02*
X1804Y1336D01*
X1814Y1336D02*
X1832Y1336D01*
X1235Y1335D02*
X1281Y1335D01*
X1313Y1335D02*
X1360Y1335D01*
X1392Y1335D02*
X1438Y1335D01*
X1471Y1335D02*
X1517Y1335D01*
X1550Y1335D02*
X1596Y1335D01*
X1628Y1335D02*
X1675Y1335D01*
X1707Y1335D02*
X1753Y1335D01*
X1786Y1335D02*
X1832Y1335D01*
X1235Y1334D02*
X1281Y1334D01*
X1313Y1334D02*
X1360Y1334D01*
X1392Y1334D02*
X1438Y1334D01*
X1471Y1334D02*
X1517Y1334D01*
X1550Y1334D02*
X1596Y1334D01*
X1628Y1334D02*
X1675Y1334D01*
X1707Y1334D02*
X1753Y1334D01*
X1786Y1334D02*
X1832Y1334D01*
X1235Y1333D02*
X1281Y1333D01*
X1313Y1333D02*
X1360Y1333D01*
X1392Y1333D02*
X1438Y1333D01*
X1471Y1333D02*
X1517Y1333D01*
X1550Y1333D02*
X1596Y1333D01*
X1628Y1333D02*
X1675Y1333D01*
X1707Y1333D02*
X1753Y1333D01*
X1786Y1333D02*
X1832Y1333D01*
X1235Y1332D02*
X1281Y1332D01*
X1313Y1332D02*
X1360Y1332D01*
X1392Y1332D02*
X1438Y1332D01*
X1471Y1332D02*
X1517Y1332D01*
X1550Y1332D02*
X1596Y1332D01*
X1628Y1332D02*
X1675Y1332D01*
X1707Y1332D02*
X1753Y1332D01*
X1786Y1332D02*
X1832Y1332D01*
X1235Y1331D02*
X1281Y1331D01*
X1313Y1331D02*
X1360Y1331D01*
X1392Y1331D02*
X1438Y1331D01*
X1471Y1331D02*
X1517Y1331D01*
X1550Y1331D02*
X1596Y1331D01*
X1628Y1331D02*
X1675Y1331D01*
X1707Y1331D02*
X1753Y1331D01*
X1786Y1331D02*
X1832Y1331D01*
X1235Y1330D02*
X1281Y1330D01*
X1313Y1330D02*
X1360Y1330D01*
X1392Y1330D02*
X1438Y1330D01*
X1471Y1330D02*
X1517Y1330D01*
X1550Y1330D02*
X1596Y1330D01*
X1628Y1330D02*
X1675Y1330D01*
X1707Y1330D02*
X1753Y1330D01*
X1786Y1330D02*
X1832Y1330D01*
X1235Y1329D02*
X1281Y1329D01*
X1313Y1329D02*
X1360Y1329D01*
X1392Y1329D02*
X1438Y1329D01*
X1471Y1329D02*
X1517Y1329D01*
X1550Y1329D02*
X1596Y1329D01*
X1628Y1329D02*
X1675Y1329D01*
X1707Y1329D02*
X1753Y1329D01*
X1786Y1329D02*
X1832Y1329D01*
X1235Y1328D02*
X1281Y1328D01*
X1313Y1328D02*
X1360Y1328D01*
X1392Y1328D02*
X1438Y1328D01*
X1471Y1328D02*
X1517Y1328D01*
X1550Y1328D02*
X1596Y1328D01*
X1628Y1328D02*
X1675Y1328D01*
X1707Y1328D02*
X1753Y1328D01*
X1786Y1328D02*
X1832Y1328D01*
X1235Y1327D02*
X1281Y1327D01*
X1313Y1327D02*
X1360Y1327D01*
X1392Y1327D02*
X1438Y1327D01*
X1471Y1327D02*
X1517Y1327D01*
X1550Y1327D02*
X1596Y1327D01*
X1628Y1327D02*
X1675Y1327D01*
X1707Y1327D02*
X1753Y1327D01*
X1786Y1327D02*
X1832Y1327D01*
X1235Y1326D02*
X1281Y1326D01*
X1313Y1326D02*
X1360Y1326D01*
X1392Y1326D02*
X1438Y1326D01*
X1471Y1326D02*
X1517Y1326D01*
X1550Y1326D02*
X1596Y1326D01*
X1628Y1326D02*
X1675Y1326D01*
X1707Y1326D02*
X1753Y1326D01*
X1786Y1326D02*
X1832Y1326D01*
X1235Y1325D02*
X1281Y1325D01*
X1313Y1325D02*
X1360Y1325D01*
X1392Y1325D02*
X1438Y1325D01*
X1471Y1325D02*
X1517Y1325D01*
X1550Y1325D02*
X1596Y1325D01*
X1628Y1325D02*
X1675Y1325D01*
X1707Y1325D02*
X1753Y1325D01*
X1786Y1325D02*
X1832Y1325D01*
X1235Y1324D02*
X1281Y1324D01*
X1313Y1324D02*
X1360Y1324D01*
X1392Y1324D02*
X1438Y1324D01*
X1471Y1324D02*
X1517Y1324D01*
X1550Y1324D02*
X1596Y1324D01*
X1628Y1324D02*
X1675Y1324D01*
X1707Y1324D02*
X1753Y1324D01*
X1786Y1324D02*
X1832Y1324D01*
X1235Y1323D02*
X1281Y1323D01*
X1313Y1323D02*
X1360Y1323D01*
X1392Y1323D02*
X1438Y1323D01*
X1471Y1323D02*
X1517Y1323D01*
X1550Y1323D02*
X1596Y1323D01*
X1628Y1323D02*
X1675Y1323D01*
X1707Y1323D02*
X1753Y1323D01*
X1786Y1323D02*
X1832Y1323D01*
X1235Y1322D02*
X1281Y1322D01*
X1313Y1322D02*
X1360Y1322D01*
X1392Y1322D02*
X1438Y1322D01*
X1471Y1322D02*
X1517Y1322D01*
X1550Y1322D02*
X1596Y1322D01*
X1628Y1322D02*
X1675Y1322D01*
X1707Y1322D02*
X1753Y1322D01*
X1786Y1322D02*
X1832Y1322D01*
X1235Y1321D02*
X1281Y1321D01*
X1313Y1321D02*
X1360Y1321D01*
X1392Y1321D02*
X1438Y1321D01*
X1471Y1321D02*
X1517Y1321D01*
X1550Y1321D02*
X1596Y1321D01*
X1628Y1321D02*
X1675Y1321D01*
X1707Y1321D02*
X1753Y1321D01*
X1786Y1321D02*
X1832Y1321D01*
X1235Y1320D02*
X1281Y1320D01*
X1313Y1320D02*
X1360Y1320D01*
X1392Y1320D02*
X1438Y1320D01*
X1471Y1320D02*
X1517Y1320D01*
X1550Y1320D02*
X1596Y1320D01*
X1628Y1320D02*
X1675Y1320D01*
X1707Y1320D02*
X1753Y1320D01*
X1786Y1320D02*
X1832Y1320D01*
X1235Y1319D02*
X1281Y1319D01*
X1313Y1319D02*
X1360Y1319D01*
X1392Y1319D02*
X1438Y1319D01*
X1471Y1319D02*
X1517Y1319D01*
X1550Y1319D02*
X1596Y1319D01*
X1628Y1319D02*
X1675Y1319D01*
X1707Y1319D02*
X1753Y1319D01*
X1786Y1319D02*
X1832Y1319D01*
X1235Y1318D02*
X1281Y1318D01*
X1313Y1318D02*
X1360Y1318D01*
X1392Y1318D02*
X1438Y1318D01*
X1471Y1318D02*
X1517Y1318D01*
X1550Y1318D02*
X1596Y1318D01*
X1628Y1318D02*
X1675Y1318D01*
X1707Y1318D02*
X1753Y1318D01*
X1786Y1318D02*
X1832Y1318D01*
X1235Y1317D02*
X1281Y1317D01*
X1313Y1317D02*
X1360Y1317D01*
X1392Y1317D02*
X1438Y1317D01*
X1471Y1317D02*
X1517Y1317D01*
X1550Y1317D02*
X1596Y1317D01*
X1628Y1317D02*
X1675Y1317D01*
X1707Y1317D02*
X1753Y1317D01*
X1786Y1317D02*
X1832Y1317D01*
X1235Y1316D02*
X1281Y1316D01*
X1313Y1316D02*
X1360Y1316D01*
X1392Y1316D02*
X1438Y1316D01*
X1471Y1316D02*
X1517Y1316D01*
X1550Y1316D02*
X1596Y1316D01*
X1628Y1316D02*
X1675Y1316D01*
X1707Y1316D02*
X1753Y1316D01*
X1786Y1316D02*
X1832Y1316D01*
X1235Y1315D02*
X1281Y1315D01*
X1313Y1315D02*
X1360Y1315D01*
X1392Y1315D02*
X1438Y1315D01*
X1471Y1315D02*
X1517Y1315D01*
X1550Y1315D02*
X1596Y1315D01*
X1628Y1315D02*
X1675Y1315D01*
X1707Y1315D02*
X1753Y1315D01*
X1786Y1315D02*
X1832Y1315D01*
X1235Y1314D02*
X1281Y1314D01*
X1313Y1314D02*
X1360Y1314D01*
X1392Y1314D02*
X1438Y1314D01*
X1471Y1314D02*
X1517Y1314D01*
X1550Y1314D02*
X1596Y1314D01*
X1628Y1314D02*
X1675Y1314D01*
X1707Y1314D02*
X1753Y1314D01*
X1786Y1314D02*
X1832Y1314D01*
X1235Y1313D02*
X1281Y1313D01*
X1313Y1313D02*
X1360Y1313D01*
X1392Y1313D02*
X1438Y1313D01*
X1471Y1313D02*
X1517Y1313D01*
X1550Y1313D02*
X1596Y1313D01*
X1628Y1313D02*
X1675Y1313D01*
X1707Y1313D02*
X1753Y1313D01*
X1786Y1313D02*
X1832Y1313D01*
X1235Y1312D02*
X1281Y1312D01*
X1313Y1312D02*
X1360Y1312D01*
X1392Y1312D02*
X1438Y1312D01*
X1471Y1312D02*
X1517Y1312D01*
X1550Y1312D02*
X1596Y1312D01*
X1628Y1312D02*
X1675Y1312D01*
X1707Y1312D02*
X1753Y1312D01*
X1786Y1312D02*
X1832Y1312D01*
X1235Y1311D02*
X1281Y1311D01*
X1313Y1311D02*
X1360Y1311D01*
X1392Y1311D02*
X1438Y1311D01*
X1471Y1311D02*
X1517Y1311D01*
X1550Y1311D02*
X1596Y1311D01*
X1628Y1311D02*
X1675Y1311D01*
X1707Y1311D02*
X1753Y1311D01*
X1786Y1311D02*
X1832Y1311D01*
X1235Y1310D02*
X1281Y1310D01*
X1313Y1310D02*
X1360Y1310D01*
X1392Y1310D02*
X1438Y1310D01*
X1471Y1310D02*
X1517Y1310D01*
X1550Y1310D02*
X1596Y1310D01*
X1628Y1310D02*
X1675Y1310D01*
X1707Y1310D02*
X1753Y1310D01*
X1786Y1310D02*
X1832Y1310D01*
X1235Y1309D02*
X1281Y1309D01*
X1313Y1309D02*
X1360Y1309D01*
X1392Y1309D02*
X1438Y1309D01*
X1471Y1309D02*
X1517Y1309D01*
X1550Y1309D02*
X1596Y1309D01*
X1628Y1309D02*
X1675Y1309D01*
X1707Y1309D02*
X1753Y1309D01*
X1786Y1309D02*
X1832Y1309D01*
X1235Y1308D02*
X1281Y1308D01*
X1313Y1308D02*
X1360Y1308D01*
X1392Y1308D02*
X1438Y1308D01*
X1471Y1308D02*
X1517Y1308D01*
X1550Y1308D02*
X1596Y1308D01*
X1628Y1308D02*
X1675Y1308D01*
X1707Y1308D02*
X1753Y1308D01*
X1786Y1308D02*
X1832Y1308D01*
X1235Y1307D02*
X1281Y1307D01*
X1313Y1307D02*
X1360Y1307D01*
X1392Y1307D02*
X1438Y1307D01*
X1471Y1307D02*
X1517Y1307D01*
X1550Y1307D02*
X1596Y1307D01*
X1628Y1307D02*
X1675Y1307D01*
X1707Y1307D02*
X1753Y1307D01*
X1786Y1307D02*
X1832Y1307D01*
X1235Y1306D02*
X1281Y1306D01*
X1313Y1306D02*
X1360Y1306D01*
X1392Y1306D02*
X1438Y1306D01*
X1471Y1306D02*
X1517Y1306D01*
X1550Y1306D02*
X1596Y1306D01*
X1628Y1306D02*
X1675Y1306D01*
X1707Y1306D02*
X1753Y1306D01*
X1786Y1306D02*
X1832Y1306D01*
X1235Y1305D02*
X1281Y1305D01*
X1313Y1305D02*
X1360Y1305D01*
X1392Y1305D02*
X1438Y1305D01*
X1471Y1305D02*
X1517Y1305D01*
X1550Y1305D02*
X1596Y1305D01*
X1628Y1305D02*
X1675Y1305D01*
X1707Y1305D02*
X1753Y1305D01*
X1786Y1305D02*
X1832Y1305D01*
X1235Y1304D02*
X1281Y1304D01*
X1313Y1304D02*
X1360Y1304D01*
X1392Y1304D02*
X1438Y1304D01*
X1471Y1304D02*
X1517Y1304D01*
X1550Y1304D02*
X1596Y1304D01*
X1628Y1304D02*
X1675Y1304D01*
X1707Y1304D02*
X1753Y1304D01*
X1786Y1304D02*
X1832Y1304D01*
X1235Y1303D02*
X1281Y1303D01*
X1313Y1303D02*
X1360Y1303D01*
X1392Y1303D02*
X1438Y1303D01*
X1471Y1303D02*
X1517Y1303D01*
X1550Y1303D02*
X1596Y1303D01*
X1628Y1303D02*
X1675Y1303D01*
X1707Y1303D02*
X1753Y1303D01*
X1786Y1303D02*
X1832Y1303D01*
X1235Y1302D02*
X1281Y1302D01*
X1313Y1302D02*
X1360Y1302D01*
X1392Y1302D02*
X1438Y1302D01*
X1471Y1302D02*
X1517Y1302D01*
X1550Y1302D02*
X1596Y1302D01*
X1628Y1302D02*
X1675Y1302D01*
X1707Y1302D02*
X1753Y1302D01*
X1786Y1302D02*
X1832Y1302D01*
X1235Y1301D02*
X1281Y1301D01*
X1313Y1301D02*
X1360Y1301D01*
X1392Y1301D02*
X1438Y1301D01*
X1471Y1301D02*
X1517Y1301D01*
X1550Y1301D02*
X1596Y1301D01*
X1628Y1301D02*
X1675Y1301D01*
X1707Y1301D02*
X1753Y1301D01*
X1786Y1301D02*
X1832Y1301D01*
X1235Y1300D02*
X1281Y1300D01*
X1313Y1300D02*
X1360Y1300D01*
X1392Y1300D02*
X1438Y1300D01*
X1471Y1300D02*
X1517Y1300D01*
X1550Y1300D02*
X1596Y1300D01*
X1628Y1300D02*
X1675Y1300D01*
X1707Y1300D02*
X1753Y1300D01*
X1786Y1300D02*
X1832Y1300D01*
X1235Y1299D02*
X1281Y1299D01*
X1313Y1299D02*
X1360Y1299D01*
X1392Y1299D02*
X1438Y1299D01*
X1471Y1299D02*
X1517Y1299D01*
X1550Y1299D02*
X1596Y1299D01*
X1628Y1299D02*
X1675Y1299D01*
X1707Y1299D02*
X1753Y1299D01*
X1786Y1299D02*
X1832Y1299D01*
X1235Y1298D02*
X1281Y1298D01*
X1313Y1298D02*
X1360Y1298D01*
X1392Y1298D02*
X1438Y1298D01*
X1471Y1298D02*
X1517Y1298D01*
X1550Y1298D02*
X1596Y1298D01*
X1628Y1298D02*
X1675Y1298D01*
X1707Y1298D02*
X1753Y1298D01*
X1786Y1298D02*
X1832Y1298D01*
X1235Y1297D02*
X1281Y1297D01*
X1313Y1297D02*
X1360Y1297D01*
X1392Y1297D02*
X1438Y1297D01*
X1471Y1297D02*
X1517Y1297D01*
X1550Y1297D02*
X1596Y1297D01*
X1628Y1297D02*
X1675Y1297D01*
X1707Y1297D02*
X1753Y1297D01*
X1786Y1297D02*
X1832Y1297D01*
X1235Y1296D02*
X1281Y1296D01*
X1313Y1296D02*
X1360Y1296D01*
X1392Y1296D02*
X1438Y1296D01*
X1471Y1296D02*
X1517Y1296D01*
X1550Y1296D02*
X1596Y1296D01*
X1628Y1296D02*
X1675Y1296D01*
X1707Y1296D02*
X1753Y1296D01*
X1786Y1296D02*
X1832Y1296D01*
X1235Y1295D02*
X1281Y1295D01*
X1313Y1295D02*
X1360Y1295D01*
X1392Y1295D02*
X1438Y1295D01*
X1471Y1295D02*
X1517Y1295D01*
X1550Y1295D02*
X1596Y1295D01*
X1628Y1295D02*
X1675Y1295D01*
X1707Y1295D02*
X1753Y1295D01*
X1786Y1295D02*
X1832Y1295D01*
X1235Y1294D02*
X1281Y1294D01*
X1313Y1294D02*
X1360Y1294D01*
X1392Y1294D02*
X1438Y1294D01*
X1471Y1294D02*
X1517Y1294D01*
X1550Y1294D02*
X1596Y1294D01*
X1628Y1294D02*
X1675Y1294D01*
X1707Y1294D02*
X1753Y1294D01*
X1786Y1294D02*
X1832Y1294D01*
X1235Y1293D02*
X1281Y1293D01*
X1313Y1293D02*
X1360Y1293D01*
X1392Y1293D02*
X1438Y1293D01*
X1471Y1293D02*
X1517Y1293D01*
X1550Y1293D02*
X1596Y1293D01*
X1628Y1293D02*
X1675Y1293D01*
X1707Y1293D02*
X1753Y1293D01*
X1786Y1293D02*
X1832Y1293D01*
X1235Y1292D02*
X1281Y1292D01*
X1313Y1292D02*
X1360Y1292D01*
X1392Y1292D02*
X1438Y1292D01*
X1471Y1292D02*
X1517Y1292D01*
X1550Y1292D02*
X1596Y1292D01*
X1628Y1292D02*
X1675Y1292D01*
X1707Y1292D02*
X1753Y1292D01*
X1786Y1292D02*
X1832Y1292D01*
X1235Y1291D02*
X1281Y1291D01*
X1313Y1291D02*
X1360Y1291D01*
X1392Y1291D02*
X1438Y1291D01*
X1471Y1291D02*
X1517Y1291D01*
X1550Y1291D02*
X1596Y1291D01*
X1628Y1291D02*
X1675Y1291D01*
X1707Y1291D02*
X1753Y1291D01*
X1786Y1291D02*
X1832Y1291D01*
X1235Y1290D02*
X1281Y1290D01*
X1313Y1290D02*
X1360Y1290D01*
X1392Y1290D02*
X1438Y1290D01*
X1471Y1290D02*
X1517Y1290D01*
X1550Y1290D02*
X1596Y1290D01*
X1628Y1290D02*
X1675Y1290D01*
X1707Y1290D02*
X1753Y1290D01*
X1786Y1290D02*
X1832Y1290D01*
X1235Y1289D02*
X1281Y1289D01*
X1313Y1289D02*
X1360Y1289D01*
X1392Y1289D02*
X1438Y1289D01*
X1471Y1289D02*
X1517Y1289D01*
X1550Y1289D02*
X1596Y1289D01*
X1628Y1289D02*
X1675Y1289D01*
X1707Y1289D02*
X1753Y1289D01*
X1786Y1289D02*
X1832Y1289D01*
X1235Y1288D02*
X1281Y1288D01*
X1313Y1288D02*
X1360Y1288D01*
X1392Y1288D02*
X1438Y1288D01*
X1471Y1288D02*
X1517Y1288D01*
X1550Y1288D02*
X1596Y1288D01*
X1628Y1288D02*
X1675Y1288D01*
X1707Y1288D02*
X1753Y1288D01*
X1786Y1288D02*
X1832Y1288D01*
X1235Y1287D02*
X1281Y1287D01*
X1313Y1287D02*
X1360Y1287D01*
X1392Y1287D02*
X1438Y1287D01*
X1471Y1287D02*
X1517Y1287D01*
X1550Y1287D02*
X1596Y1287D01*
X1628Y1287D02*
X1675Y1287D01*
X1707Y1287D02*
X1753Y1287D01*
X1786Y1287D02*
X1832Y1287D01*
X1235Y1286D02*
X1281Y1286D01*
X1313Y1286D02*
X1360Y1286D01*
X1392Y1286D02*
X1438Y1286D01*
X1471Y1286D02*
X1517Y1286D01*
X1550Y1286D02*
X1596Y1286D01*
X1628Y1286D02*
X1675Y1286D01*
X1707Y1286D02*
X1753Y1286D01*
X1786Y1286D02*
X1832Y1286D01*
X1235Y1285D02*
X1281Y1285D01*
X1313Y1285D02*
X1360Y1285D01*
X1392Y1285D02*
X1438Y1285D01*
X1471Y1285D02*
X1517Y1285D01*
X1550Y1285D02*
X1596Y1285D01*
X1628Y1285D02*
X1675Y1285D01*
X1707Y1285D02*
X1753Y1285D01*
X1786Y1285D02*
X1832Y1285D01*
X1235Y1284D02*
X1281Y1284D01*
X1313Y1284D02*
X1360Y1284D01*
X1392Y1284D02*
X1438Y1284D01*
X1471Y1284D02*
X1517Y1284D01*
X1550Y1284D02*
X1596Y1284D01*
X1628Y1284D02*
X1675Y1284D01*
X1707Y1284D02*
X1753Y1284D01*
X1786Y1284D02*
X1832Y1284D01*
X1235Y1283D02*
X1281Y1283D01*
X1313Y1283D02*
X1360Y1283D01*
X1392Y1283D02*
X1438Y1283D01*
X1471Y1283D02*
X1517Y1283D01*
X1550Y1283D02*
X1596Y1283D01*
X1628Y1283D02*
X1675Y1283D01*
X1707Y1283D02*
X1753Y1283D01*
X1786Y1283D02*
X1832Y1283D01*
X1235Y1282D02*
X1281Y1282D01*
X1313Y1282D02*
X1360Y1282D01*
X1392Y1282D02*
X1438Y1282D01*
X1471Y1282D02*
X1517Y1282D01*
X1550Y1282D02*
X1596Y1282D01*
X1628Y1282D02*
X1675Y1282D01*
X1707Y1282D02*
X1753Y1282D01*
X1786Y1282D02*
X1832Y1282D01*
X1235Y1281D02*
X1281Y1281D01*
X1313Y1281D02*
X1360Y1281D01*
X1392Y1281D02*
X1438Y1281D01*
X1471Y1281D02*
X1517Y1281D01*
X1550Y1281D02*
X1596Y1281D01*
X1628Y1281D02*
X1675Y1281D01*
X1707Y1281D02*
X1753Y1281D01*
X1786Y1281D02*
X1832Y1281D01*
X1235Y1280D02*
X1281Y1280D01*
X1313Y1280D02*
X1360Y1280D01*
X1392Y1280D02*
X1438Y1280D01*
X1471Y1280D02*
X1517Y1280D01*
X1550Y1280D02*
X1596Y1280D01*
X1628Y1280D02*
X1675Y1280D01*
X1707Y1280D02*
X1753Y1280D01*
X1786Y1280D02*
X1832Y1280D01*
X1235Y1279D02*
X1280Y1279D01*
X1314Y1279D02*
X1359Y1279D01*
X1393Y1279D02*
X1438Y1279D01*
X1471Y1279D02*
X1517Y1279D01*
X1550Y1279D02*
X1595Y1279D01*
X1629Y1279D02*
X1674Y1279D01*
X1708Y1279D02*
X1753Y1279D01*
X1786Y1279D02*
X1831Y1279D01*
D02*
G04 End of PasteMask1*
M02*