G04 MADE WITH FRITZING*
G04 WWW.FRITZING.ORG*
G04 DOUBLE SIDED*
G04 HOLES PLATED*
G04 CONTOUR ON CENTER OF CONTOUR VECTOR*
%ASAXBY*%
%FSLAX23Y23*%
%MOIN*%
%OFA0B0*%
%SFA1.0B1.0*%
%ADD10C,0.084000*%
%ADD11C,0.057978*%
%ADD12C,0.090000*%
%ADD13C,0.085000*%
%ADD14C,0.080000*%
%ADD15C,0.093307*%
%ADD16C,0.049370*%
%ADD17R,0.090000X0.090000*%
%ADD18R,0.085000X0.085000*%
%ADD19R,0.093307X0.093307*%
%ADD20R,0.001000X0.001000*%
%LNMASK1*%
G90*
G70*
G54D10*
X87Y372D03*
X87Y572D03*
X87Y372D03*
X87Y572D03*
X287Y572D03*
X287Y372D03*
X287Y572D03*
X287Y372D03*
G54D11*
X487Y325D03*
X487Y522D03*
X1644Y727D03*
X1644Y121D03*
G54D12*
X1987Y1122D03*
X1987Y1022D03*
X1987Y922D03*
X1987Y822D03*
X1987Y722D03*
G54D13*
X1937Y172D03*
X1837Y172D03*
G54D14*
X1937Y422D03*
X1837Y422D03*
X1937Y422D03*
X1837Y422D03*
G54D13*
X1687Y922D03*
X1287Y922D03*
X1737Y1072D03*
X1337Y1072D03*
G54D15*
X487Y922D03*
X587Y922D03*
X687Y922D03*
X787Y922D03*
X887Y922D03*
X987Y922D03*
X1087Y922D03*
X1187Y922D03*
G54D14*
X2015Y2300D03*
X1759Y2300D03*
X2015Y2300D03*
X1759Y2300D03*
G54D16*
X1389Y2121D03*
X1888Y1921D03*
X1688Y2023D03*
X1235Y2023D03*
X937Y1071D03*
X488Y1173D03*
X1636Y1173D03*
G54D15*
X287Y172D03*
X149Y172D03*
G54D17*
X1987Y1122D03*
G54D18*
X1937Y172D03*
G54D19*
X487Y922D03*
X287Y172D03*
G54D20*
X1230Y1972D02*
X1286Y1972D01*
X1308Y1972D02*
X1365Y1972D01*
X1387Y1972D02*
X1443Y1972D01*
X1466Y1972D02*
X1522Y1972D01*
X1545Y1972D02*
X1601Y1972D01*
X1623Y1972D02*
X1680Y1972D01*
X1702Y1972D02*
X1758Y1972D01*
X1781Y1972D02*
X1837Y1972D01*
X1230Y1971D02*
X1286Y1971D01*
X1308Y1971D02*
X1365Y1971D01*
X1387Y1971D02*
X1443Y1971D01*
X1466Y1971D02*
X1522Y1971D01*
X1545Y1971D02*
X1601Y1971D01*
X1623Y1971D02*
X1680Y1971D01*
X1702Y1971D02*
X1758Y1971D01*
X1781Y1971D02*
X1837Y1971D01*
X1230Y1970D02*
X1286Y1970D01*
X1308Y1970D02*
X1365Y1970D01*
X1387Y1970D02*
X1443Y1970D01*
X1466Y1970D02*
X1522Y1970D01*
X1545Y1970D02*
X1601Y1970D01*
X1623Y1970D02*
X1680Y1970D01*
X1702Y1970D02*
X1758Y1970D01*
X1781Y1970D02*
X1837Y1970D01*
X1230Y1969D02*
X1286Y1969D01*
X1308Y1969D02*
X1365Y1969D01*
X1387Y1969D02*
X1443Y1969D01*
X1466Y1969D02*
X1522Y1969D01*
X1545Y1969D02*
X1601Y1969D01*
X1623Y1969D02*
X1680Y1969D01*
X1702Y1969D02*
X1758Y1969D01*
X1781Y1969D02*
X1837Y1969D01*
X1230Y1968D02*
X1286Y1968D01*
X1308Y1968D02*
X1365Y1968D01*
X1387Y1968D02*
X1443Y1968D01*
X1466Y1968D02*
X1522Y1968D01*
X1545Y1968D02*
X1601Y1968D01*
X1623Y1968D02*
X1680Y1968D01*
X1702Y1968D02*
X1758Y1968D01*
X1781Y1968D02*
X1837Y1968D01*
X1230Y1967D02*
X1286Y1967D01*
X1308Y1967D02*
X1365Y1967D01*
X1387Y1967D02*
X1443Y1967D01*
X1466Y1967D02*
X1522Y1967D01*
X1545Y1967D02*
X1601Y1967D01*
X1623Y1967D02*
X1680Y1967D01*
X1702Y1967D02*
X1758Y1967D01*
X1781Y1967D02*
X1837Y1967D01*
X1230Y1966D02*
X1286Y1966D01*
X1308Y1966D02*
X1365Y1966D01*
X1387Y1966D02*
X1443Y1966D01*
X1466Y1966D02*
X1522Y1966D01*
X1545Y1966D02*
X1601Y1966D01*
X1623Y1966D02*
X1680Y1966D01*
X1702Y1966D02*
X1758Y1966D01*
X1781Y1966D02*
X1837Y1966D01*
X1230Y1965D02*
X1286Y1965D01*
X1308Y1965D02*
X1365Y1965D01*
X1387Y1965D02*
X1443Y1965D01*
X1466Y1965D02*
X1522Y1965D01*
X1545Y1965D02*
X1601Y1965D01*
X1623Y1965D02*
X1680Y1965D01*
X1702Y1965D02*
X1758Y1965D01*
X1781Y1965D02*
X1837Y1965D01*
X1230Y1964D02*
X1286Y1964D01*
X1308Y1964D02*
X1365Y1964D01*
X1387Y1964D02*
X1443Y1964D01*
X1466Y1964D02*
X1522Y1964D01*
X1545Y1964D02*
X1601Y1964D01*
X1623Y1964D02*
X1680Y1964D01*
X1702Y1964D02*
X1758Y1964D01*
X1781Y1964D02*
X1837Y1964D01*
X1230Y1963D02*
X1286Y1963D01*
X1308Y1963D02*
X1365Y1963D01*
X1387Y1963D02*
X1443Y1963D01*
X1466Y1963D02*
X1522Y1963D01*
X1545Y1963D02*
X1601Y1963D01*
X1623Y1963D02*
X1680Y1963D01*
X1702Y1963D02*
X1758Y1963D01*
X1781Y1963D02*
X1837Y1963D01*
X1230Y1962D02*
X1286Y1962D01*
X1308Y1962D02*
X1365Y1962D01*
X1387Y1962D02*
X1443Y1962D01*
X1466Y1962D02*
X1522Y1962D01*
X1545Y1962D02*
X1601Y1962D01*
X1623Y1962D02*
X1680Y1962D01*
X1702Y1962D02*
X1758Y1962D01*
X1781Y1962D02*
X1837Y1962D01*
X1230Y1961D02*
X1286Y1961D01*
X1308Y1961D02*
X1365Y1961D01*
X1387Y1961D02*
X1443Y1961D01*
X1466Y1961D02*
X1522Y1961D01*
X1545Y1961D02*
X1601Y1961D01*
X1623Y1961D02*
X1680Y1961D01*
X1702Y1961D02*
X1758Y1961D01*
X1781Y1961D02*
X1837Y1961D01*
X1230Y1960D02*
X1286Y1960D01*
X1308Y1960D02*
X1365Y1960D01*
X1387Y1960D02*
X1443Y1960D01*
X1466Y1960D02*
X1522Y1960D01*
X1545Y1960D02*
X1601Y1960D01*
X1623Y1960D02*
X1680Y1960D01*
X1702Y1960D02*
X1758Y1960D01*
X1781Y1960D02*
X1837Y1960D01*
X1230Y1959D02*
X1286Y1959D01*
X1308Y1959D02*
X1365Y1959D01*
X1387Y1959D02*
X1443Y1959D01*
X1466Y1959D02*
X1522Y1959D01*
X1545Y1959D02*
X1601Y1959D01*
X1623Y1959D02*
X1680Y1959D01*
X1702Y1959D02*
X1758Y1959D01*
X1781Y1959D02*
X1837Y1959D01*
X1230Y1958D02*
X1286Y1958D01*
X1308Y1958D02*
X1365Y1958D01*
X1387Y1958D02*
X1443Y1958D01*
X1466Y1958D02*
X1522Y1958D01*
X1545Y1958D02*
X1601Y1958D01*
X1623Y1958D02*
X1680Y1958D01*
X1702Y1958D02*
X1758Y1958D01*
X1781Y1958D02*
X1837Y1958D01*
X1230Y1957D02*
X1286Y1957D01*
X1308Y1957D02*
X1365Y1957D01*
X1387Y1957D02*
X1443Y1957D01*
X1466Y1957D02*
X1522Y1957D01*
X1545Y1957D02*
X1601Y1957D01*
X1623Y1957D02*
X1680Y1957D01*
X1702Y1957D02*
X1758Y1957D01*
X1781Y1957D02*
X1837Y1957D01*
X1230Y1956D02*
X1286Y1956D01*
X1308Y1956D02*
X1365Y1956D01*
X1387Y1956D02*
X1443Y1956D01*
X1466Y1956D02*
X1522Y1956D01*
X1545Y1956D02*
X1601Y1956D01*
X1623Y1956D02*
X1680Y1956D01*
X1702Y1956D02*
X1758Y1956D01*
X1781Y1956D02*
X1837Y1956D01*
X1230Y1955D02*
X1286Y1955D01*
X1308Y1955D02*
X1365Y1955D01*
X1387Y1955D02*
X1443Y1955D01*
X1466Y1955D02*
X1522Y1955D01*
X1545Y1955D02*
X1601Y1955D01*
X1623Y1955D02*
X1680Y1955D01*
X1702Y1955D02*
X1758Y1955D01*
X1781Y1955D02*
X1837Y1955D01*
X1230Y1954D02*
X1286Y1954D01*
X1308Y1954D02*
X1365Y1954D01*
X1387Y1954D02*
X1443Y1954D01*
X1466Y1954D02*
X1522Y1954D01*
X1545Y1954D02*
X1601Y1954D01*
X1623Y1954D02*
X1680Y1954D01*
X1702Y1954D02*
X1758Y1954D01*
X1781Y1954D02*
X1837Y1954D01*
X1230Y1953D02*
X1286Y1953D01*
X1308Y1953D02*
X1365Y1953D01*
X1387Y1953D02*
X1443Y1953D01*
X1466Y1953D02*
X1522Y1953D01*
X1545Y1953D02*
X1601Y1953D01*
X1623Y1953D02*
X1680Y1953D01*
X1702Y1953D02*
X1758Y1953D01*
X1781Y1953D02*
X1837Y1953D01*
X1230Y1952D02*
X1286Y1952D01*
X1308Y1952D02*
X1365Y1952D01*
X1387Y1952D02*
X1443Y1952D01*
X1466Y1952D02*
X1522Y1952D01*
X1545Y1952D02*
X1601Y1952D01*
X1623Y1952D02*
X1680Y1952D01*
X1702Y1952D02*
X1758Y1952D01*
X1781Y1952D02*
X1837Y1952D01*
X1230Y1951D02*
X1286Y1951D01*
X1308Y1951D02*
X1365Y1951D01*
X1387Y1951D02*
X1443Y1951D01*
X1466Y1951D02*
X1522Y1951D01*
X1545Y1951D02*
X1601Y1951D01*
X1623Y1951D02*
X1680Y1951D01*
X1702Y1951D02*
X1758Y1951D01*
X1781Y1951D02*
X1837Y1951D01*
X1230Y1950D02*
X1286Y1950D01*
X1308Y1950D02*
X1365Y1950D01*
X1387Y1950D02*
X1443Y1950D01*
X1466Y1950D02*
X1522Y1950D01*
X1545Y1950D02*
X1601Y1950D01*
X1623Y1950D02*
X1680Y1950D01*
X1702Y1950D02*
X1758Y1950D01*
X1781Y1950D02*
X1837Y1950D01*
X1230Y1949D02*
X1286Y1949D01*
X1308Y1949D02*
X1365Y1949D01*
X1387Y1949D02*
X1443Y1949D01*
X1466Y1949D02*
X1522Y1949D01*
X1545Y1949D02*
X1601Y1949D01*
X1623Y1949D02*
X1680Y1949D01*
X1702Y1949D02*
X1758Y1949D01*
X1781Y1949D02*
X1837Y1949D01*
X1230Y1948D02*
X1286Y1948D01*
X1308Y1948D02*
X1365Y1948D01*
X1387Y1948D02*
X1443Y1948D01*
X1466Y1948D02*
X1522Y1948D01*
X1545Y1948D02*
X1601Y1948D01*
X1623Y1948D02*
X1680Y1948D01*
X1702Y1948D02*
X1758Y1948D01*
X1781Y1948D02*
X1837Y1948D01*
X1230Y1947D02*
X1286Y1947D01*
X1308Y1947D02*
X1365Y1947D01*
X1387Y1947D02*
X1443Y1947D01*
X1466Y1947D02*
X1522Y1947D01*
X1545Y1947D02*
X1601Y1947D01*
X1623Y1947D02*
X1680Y1947D01*
X1702Y1947D02*
X1758Y1947D01*
X1781Y1947D02*
X1837Y1947D01*
X1230Y1946D02*
X1286Y1946D01*
X1308Y1946D02*
X1365Y1946D01*
X1387Y1946D02*
X1443Y1946D01*
X1466Y1946D02*
X1522Y1946D01*
X1545Y1946D02*
X1601Y1946D01*
X1623Y1946D02*
X1680Y1946D01*
X1702Y1946D02*
X1758Y1946D01*
X1781Y1946D02*
X1837Y1946D01*
X1230Y1945D02*
X1286Y1945D01*
X1308Y1945D02*
X1365Y1945D01*
X1387Y1945D02*
X1443Y1945D01*
X1466Y1945D02*
X1522Y1945D01*
X1545Y1945D02*
X1601Y1945D01*
X1623Y1945D02*
X1680Y1945D01*
X1702Y1945D02*
X1758Y1945D01*
X1781Y1945D02*
X1837Y1945D01*
X1230Y1944D02*
X1286Y1944D01*
X1308Y1944D02*
X1365Y1944D01*
X1387Y1944D02*
X1443Y1944D01*
X1466Y1944D02*
X1522Y1944D01*
X1545Y1944D02*
X1601Y1944D01*
X1623Y1944D02*
X1680Y1944D01*
X1702Y1944D02*
X1758Y1944D01*
X1781Y1944D02*
X1837Y1944D01*
X1230Y1943D02*
X1286Y1943D01*
X1308Y1943D02*
X1365Y1943D01*
X1387Y1943D02*
X1443Y1943D01*
X1466Y1943D02*
X1522Y1943D01*
X1545Y1943D02*
X1601Y1943D01*
X1623Y1943D02*
X1680Y1943D01*
X1702Y1943D02*
X1758Y1943D01*
X1781Y1943D02*
X1837Y1943D01*
X1230Y1942D02*
X1286Y1942D01*
X1308Y1942D02*
X1365Y1942D01*
X1387Y1942D02*
X1443Y1942D01*
X1466Y1942D02*
X1522Y1942D01*
X1545Y1942D02*
X1601Y1942D01*
X1623Y1942D02*
X1680Y1942D01*
X1702Y1942D02*
X1758Y1942D01*
X1781Y1942D02*
X1837Y1942D01*
X1230Y1941D02*
X1286Y1941D01*
X1308Y1941D02*
X1365Y1941D01*
X1387Y1941D02*
X1443Y1941D01*
X1466Y1941D02*
X1522Y1941D01*
X1545Y1941D02*
X1601Y1941D01*
X1623Y1941D02*
X1680Y1941D01*
X1702Y1941D02*
X1758Y1941D01*
X1781Y1941D02*
X1837Y1941D01*
X1230Y1940D02*
X1286Y1940D01*
X1308Y1940D02*
X1365Y1940D01*
X1387Y1940D02*
X1443Y1940D01*
X1466Y1940D02*
X1522Y1940D01*
X1545Y1940D02*
X1601Y1940D01*
X1623Y1940D02*
X1680Y1940D01*
X1702Y1940D02*
X1758Y1940D01*
X1781Y1940D02*
X1837Y1940D01*
X1230Y1939D02*
X1286Y1939D01*
X1308Y1939D02*
X1365Y1939D01*
X1387Y1939D02*
X1443Y1939D01*
X1466Y1939D02*
X1522Y1939D01*
X1545Y1939D02*
X1601Y1939D01*
X1623Y1939D02*
X1680Y1939D01*
X1702Y1939D02*
X1758Y1939D01*
X1781Y1939D02*
X1837Y1939D01*
X1230Y1938D02*
X1286Y1938D01*
X1308Y1938D02*
X1365Y1938D01*
X1387Y1938D02*
X1443Y1938D01*
X1466Y1938D02*
X1522Y1938D01*
X1545Y1938D02*
X1601Y1938D01*
X1623Y1938D02*
X1680Y1938D01*
X1702Y1938D02*
X1758Y1938D01*
X1781Y1938D02*
X1837Y1938D01*
X1230Y1937D02*
X1286Y1937D01*
X1308Y1937D02*
X1365Y1937D01*
X1387Y1937D02*
X1443Y1937D01*
X1466Y1937D02*
X1522Y1937D01*
X1545Y1937D02*
X1601Y1937D01*
X1623Y1937D02*
X1680Y1937D01*
X1702Y1937D02*
X1758Y1937D01*
X1781Y1937D02*
X1837Y1937D01*
X1230Y1936D02*
X1286Y1936D01*
X1308Y1936D02*
X1365Y1936D01*
X1387Y1936D02*
X1443Y1936D01*
X1466Y1936D02*
X1522Y1936D01*
X1545Y1936D02*
X1601Y1936D01*
X1623Y1936D02*
X1680Y1936D01*
X1702Y1936D02*
X1758Y1936D01*
X1781Y1936D02*
X1837Y1936D01*
X1230Y1935D02*
X1286Y1935D01*
X1308Y1935D02*
X1365Y1935D01*
X1387Y1935D02*
X1443Y1935D01*
X1466Y1935D02*
X1522Y1935D01*
X1545Y1935D02*
X1601Y1935D01*
X1623Y1935D02*
X1680Y1935D01*
X1702Y1935D02*
X1758Y1935D01*
X1781Y1935D02*
X1837Y1935D01*
X1230Y1934D02*
X1286Y1934D01*
X1308Y1934D02*
X1365Y1934D01*
X1387Y1934D02*
X1443Y1934D01*
X1466Y1934D02*
X1522Y1934D01*
X1545Y1934D02*
X1601Y1934D01*
X1623Y1934D02*
X1680Y1934D01*
X1702Y1934D02*
X1758Y1934D01*
X1781Y1934D02*
X1837Y1934D01*
X1230Y1933D02*
X1286Y1933D01*
X1308Y1933D02*
X1365Y1933D01*
X1387Y1933D02*
X1443Y1933D01*
X1466Y1933D02*
X1522Y1933D01*
X1545Y1933D02*
X1601Y1933D01*
X1623Y1933D02*
X1680Y1933D01*
X1702Y1933D02*
X1758Y1933D01*
X1781Y1933D02*
X1837Y1933D01*
X1230Y1932D02*
X1286Y1932D01*
X1308Y1932D02*
X1365Y1932D01*
X1387Y1932D02*
X1443Y1932D01*
X1466Y1932D02*
X1522Y1932D01*
X1545Y1932D02*
X1601Y1932D01*
X1623Y1932D02*
X1680Y1932D01*
X1702Y1932D02*
X1758Y1932D01*
X1781Y1932D02*
X1837Y1932D01*
X1230Y1931D02*
X1286Y1931D01*
X1308Y1931D02*
X1365Y1931D01*
X1387Y1931D02*
X1443Y1931D01*
X1466Y1931D02*
X1522Y1931D01*
X1545Y1931D02*
X1601Y1931D01*
X1623Y1931D02*
X1680Y1931D01*
X1702Y1931D02*
X1758Y1931D01*
X1781Y1931D02*
X1837Y1931D01*
X1230Y1930D02*
X1286Y1930D01*
X1308Y1930D02*
X1365Y1930D01*
X1387Y1930D02*
X1443Y1930D01*
X1466Y1930D02*
X1522Y1930D01*
X1545Y1930D02*
X1601Y1930D01*
X1623Y1930D02*
X1680Y1930D01*
X1702Y1930D02*
X1758Y1930D01*
X1781Y1930D02*
X1837Y1930D01*
X1230Y1929D02*
X1286Y1929D01*
X1308Y1929D02*
X1365Y1929D01*
X1387Y1929D02*
X1443Y1929D01*
X1466Y1929D02*
X1522Y1929D01*
X1545Y1929D02*
X1601Y1929D01*
X1623Y1929D02*
X1680Y1929D01*
X1702Y1929D02*
X1758Y1929D01*
X1781Y1929D02*
X1837Y1929D01*
X1230Y1928D02*
X1286Y1928D01*
X1308Y1928D02*
X1365Y1928D01*
X1387Y1928D02*
X1443Y1928D01*
X1466Y1928D02*
X1522Y1928D01*
X1545Y1928D02*
X1601Y1928D01*
X1623Y1928D02*
X1680Y1928D01*
X1702Y1928D02*
X1758Y1928D01*
X1781Y1928D02*
X1837Y1928D01*
X1230Y1927D02*
X1286Y1927D01*
X1308Y1927D02*
X1365Y1927D01*
X1387Y1927D02*
X1443Y1927D01*
X1466Y1927D02*
X1522Y1927D01*
X1545Y1927D02*
X1601Y1927D01*
X1623Y1927D02*
X1680Y1927D01*
X1702Y1927D02*
X1758Y1927D01*
X1781Y1927D02*
X1837Y1927D01*
X1230Y1926D02*
X1286Y1926D01*
X1308Y1926D02*
X1365Y1926D01*
X1387Y1926D02*
X1443Y1926D01*
X1466Y1926D02*
X1522Y1926D01*
X1545Y1926D02*
X1601Y1926D01*
X1623Y1926D02*
X1680Y1926D01*
X1702Y1926D02*
X1758Y1926D01*
X1781Y1926D02*
X1837Y1926D01*
X1230Y1925D02*
X1286Y1925D01*
X1308Y1925D02*
X1365Y1925D01*
X1387Y1925D02*
X1443Y1925D01*
X1466Y1925D02*
X1522Y1925D01*
X1545Y1925D02*
X1601Y1925D01*
X1623Y1925D02*
X1680Y1925D01*
X1702Y1925D02*
X1758Y1925D01*
X1781Y1925D02*
X1837Y1925D01*
X1230Y1924D02*
X1286Y1924D01*
X1308Y1924D02*
X1365Y1924D01*
X1387Y1924D02*
X1443Y1924D01*
X1466Y1924D02*
X1522Y1924D01*
X1545Y1924D02*
X1601Y1924D01*
X1623Y1924D02*
X1680Y1924D01*
X1702Y1924D02*
X1758Y1924D01*
X1781Y1924D02*
X1837Y1924D01*
X1230Y1923D02*
X1286Y1923D01*
X1308Y1923D02*
X1365Y1923D01*
X1387Y1923D02*
X1443Y1923D01*
X1466Y1923D02*
X1522Y1923D01*
X1545Y1923D02*
X1601Y1923D01*
X1623Y1923D02*
X1680Y1923D01*
X1702Y1923D02*
X1758Y1923D01*
X1781Y1923D02*
X1837Y1923D01*
X1230Y1922D02*
X1286Y1922D01*
X1308Y1922D02*
X1365Y1922D01*
X1387Y1922D02*
X1443Y1922D01*
X1466Y1922D02*
X1522Y1922D01*
X1545Y1922D02*
X1601Y1922D01*
X1623Y1922D02*
X1680Y1922D01*
X1702Y1922D02*
X1758Y1922D01*
X1781Y1922D02*
X1837Y1922D01*
X1230Y1921D02*
X1286Y1921D01*
X1308Y1921D02*
X1365Y1921D01*
X1387Y1921D02*
X1443Y1921D01*
X1466Y1921D02*
X1522Y1921D01*
X1545Y1921D02*
X1601Y1921D01*
X1623Y1921D02*
X1680Y1921D01*
X1702Y1921D02*
X1758Y1921D01*
X1781Y1921D02*
X1837Y1921D01*
X1230Y1920D02*
X1286Y1920D01*
X1308Y1920D02*
X1365Y1920D01*
X1387Y1920D02*
X1443Y1920D01*
X1466Y1920D02*
X1522Y1920D01*
X1545Y1920D02*
X1601Y1920D01*
X1623Y1920D02*
X1680Y1920D01*
X1702Y1920D02*
X1758Y1920D01*
X1781Y1920D02*
X1837Y1920D01*
X1230Y1919D02*
X1286Y1919D01*
X1308Y1919D02*
X1365Y1919D01*
X1387Y1919D02*
X1443Y1919D01*
X1466Y1919D02*
X1522Y1919D01*
X1545Y1919D02*
X1601Y1919D01*
X1623Y1919D02*
X1680Y1919D01*
X1702Y1919D02*
X1758Y1919D01*
X1781Y1919D02*
X1837Y1919D01*
X1230Y1918D02*
X1286Y1918D01*
X1308Y1918D02*
X1365Y1918D01*
X1387Y1918D02*
X1443Y1918D01*
X1466Y1918D02*
X1522Y1918D01*
X1545Y1918D02*
X1601Y1918D01*
X1623Y1918D02*
X1680Y1918D01*
X1702Y1918D02*
X1758Y1918D01*
X1781Y1918D02*
X1837Y1918D01*
X1230Y1917D02*
X1286Y1917D01*
X1308Y1917D02*
X1365Y1917D01*
X1387Y1917D02*
X1443Y1917D01*
X1466Y1917D02*
X1522Y1917D01*
X1545Y1917D02*
X1601Y1917D01*
X1623Y1917D02*
X1680Y1917D01*
X1702Y1917D02*
X1758Y1917D01*
X1781Y1917D02*
X1837Y1917D01*
X1230Y1916D02*
X1286Y1916D01*
X1308Y1916D02*
X1365Y1916D01*
X1387Y1916D02*
X1443Y1916D01*
X1466Y1916D02*
X1522Y1916D01*
X1545Y1916D02*
X1601Y1916D01*
X1623Y1916D02*
X1680Y1916D01*
X1702Y1916D02*
X1758Y1916D01*
X1781Y1916D02*
X1837Y1916D01*
X1230Y1915D02*
X1286Y1915D01*
X1308Y1915D02*
X1365Y1915D01*
X1387Y1915D02*
X1443Y1915D01*
X1466Y1915D02*
X1522Y1915D01*
X1545Y1915D02*
X1601Y1915D01*
X1623Y1915D02*
X1680Y1915D01*
X1702Y1915D02*
X1758Y1915D01*
X1781Y1915D02*
X1837Y1915D01*
X1230Y1914D02*
X1286Y1914D01*
X1308Y1914D02*
X1365Y1914D01*
X1387Y1914D02*
X1443Y1914D01*
X1466Y1914D02*
X1522Y1914D01*
X1545Y1914D02*
X1601Y1914D01*
X1623Y1914D02*
X1680Y1914D01*
X1702Y1914D02*
X1758Y1914D01*
X1781Y1914D02*
X1837Y1914D01*
X1230Y1913D02*
X1286Y1913D01*
X1308Y1913D02*
X1365Y1913D01*
X1387Y1913D02*
X1443Y1913D01*
X1466Y1913D02*
X1522Y1913D01*
X1545Y1913D02*
X1601Y1913D01*
X1623Y1913D02*
X1680Y1913D01*
X1702Y1913D02*
X1758Y1913D01*
X1781Y1913D02*
X1837Y1913D01*
X1230Y1912D02*
X1286Y1912D01*
X1308Y1912D02*
X1365Y1912D01*
X1387Y1912D02*
X1443Y1912D01*
X1466Y1912D02*
X1522Y1912D01*
X1545Y1912D02*
X1601Y1912D01*
X1623Y1912D02*
X1680Y1912D01*
X1702Y1912D02*
X1758Y1912D01*
X1781Y1912D02*
X1837Y1912D01*
X1230Y1911D02*
X1286Y1911D01*
X1308Y1911D02*
X1365Y1911D01*
X1387Y1911D02*
X1443Y1911D01*
X1466Y1911D02*
X1522Y1911D01*
X1545Y1911D02*
X1601Y1911D01*
X1623Y1911D02*
X1680Y1911D01*
X1702Y1911D02*
X1758Y1911D01*
X1781Y1911D02*
X1837Y1911D01*
X1230Y1910D02*
X1286Y1910D01*
X1308Y1910D02*
X1365Y1910D01*
X1387Y1910D02*
X1443Y1910D01*
X1466Y1910D02*
X1522Y1910D01*
X1545Y1910D02*
X1601Y1910D01*
X1623Y1910D02*
X1680Y1910D01*
X1702Y1910D02*
X1758Y1910D01*
X1781Y1910D02*
X1837Y1910D01*
X1230Y1909D02*
X1286Y1909D01*
X1308Y1909D02*
X1365Y1909D01*
X1387Y1909D02*
X1443Y1909D01*
X1466Y1909D02*
X1522Y1909D01*
X1545Y1909D02*
X1601Y1909D01*
X1623Y1909D02*
X1680Y1909D01*
X1702Y1909D02*
X1758Y1909D01*
X1781Y1909D02*
X1837Y1909D01*
X1230Y1908D02*
X1286Y1908D01*
X1308Y1908D02*
X1365Y1908D01*
X1387Y1908D02*
X1443Y1908D01*
X1466Y1908D02*
X1522Y1908D01*
X1545Y1908D02*
X1601Y1908D01*
X1623Y1908D02*
X1680Y1908D01*
X1702Y1908D02*
X1758Y1908D01*
X1781Y1908D02*
X1837Y1908D01*
X1230Y1907D02*
X1286Y1907D01*
X1308Y1907D02*
X1365Y1907D01*
X1387Y1907D02*
X1443Y1907D01*
X1466Y1907D02*
X1522Y1907D01*
X1545Y1907D02*
X1601Y1907D01*
X1623Y1907D02*
X1680Y1907D01*
X1702Y1907D02*
X1758Y1907D01*
X1781Y1907D02*
X1837Y1907D01*
X1230Y1906D02*
X1254Y1906D01*
X1261Y1906D02*
X1286Y1906D01*
X1308Y1906D02*
X1333Y1906D01*
X1340Y1906D02*
X1365Y1906D01*
X1387Y1906D02*
X1412Y1906D01*
X1419Y1906D02*
X1443Y1906D01*
X1466Y1906D02*
X1491Y1906D01*
X1497Y1906D02*
X1522Y1906D01*
X1545Y1906D02*
X1569Y1906D01*
X1576Y1906D02*
X1601Y1906D01*
X1623Y1906D02*
X1648Y1906D01*
X1655Y1906D02*
X1680Y1906D01*
X1702Y1906D02*
X1727Y1906D01*
X1733Y1906D02*
X1758Y1906D01*
X1781Y1906D02*
X1806Y1906D01*
X1812Y1906D02*
X1837Y1906D01*
X1230Y1905D02*
X1253Y1905D01*
X1263Y1905D02*
X1286Y1905D01*
X1308Y1905D02*
X1332Y1905D01*
X1341Y1905D02*
X1365Y1905D01*
X1387Y1905D02*
X1410Y1905D01*
X1420Y1905D02*
X1443Y1905D01*
X1466Y1905D02*
X1489Y1905D01*
X1499Y1905D02*
X1522Y1905D01*
X1545Y1905D02*
X1568Y1905D01*
X1578Y1905D02*
X1601Y1905D01*
X1623Y1905D02*
X1647Y1905D01*
X1656Y1905D02*
X1680Y1905D01*
X1702Y1905D02*
X1725Y1905D01*
X1735Y1905D02*
X1758Y1905D01*
X1781Y1905D02*
X1804Y1905D01*
X1814Y1905D02*
X1837Y1905D01*
X1230Y1904D02*
X1252Y1904D01*
X1264Y1904D02*
X1286Y1904D01*
X1308Y1904D02*
X1331Y1904D01*
X1342Y1904D02*
X1365Y1904D01*
X1387Y1904D02*
X1409Y1904D01*
X1421Y1904D02*
X1443Y1904D01*
X1466Y1904D02*
X1488Y1904D01*
X1500Y1904D02*
X1522Y1904D01*
X1545Y1904D02*
X1567Y1904D01*
X1579Y1904D02*
X1601Y1904D01*
X1623Y1904D02*
X1645Y1904D01*
X1657Y1904D02*
X1680Y1904D01*
X1702Y1904D02*
X1724Y1904D01*
X1736Y1904D02*
X1758Y1904D01*
X1781Y1904D02*
X1803Y1904D01*
X1815Y1904D02*
X1837Y1904D01*
X1230Y1903D02*
X1251Y1903D01*
X1264Y1903D02*
X1286Y1903D01*
X1308Y1903D02*
X1330Y1903D01*
X1343Y1903D02*
X1365Y1903D01*
X1387Y1903D02*
X1409Y1903D01*
X1422Y1903D02*
X1443Y1903D01*
X1466Y1903D02*
X1487Y1903D01*
X1501Y1903D02*
X1522Y1903D01*
X1545Y1903D02*
X1566Y1903D01*
X1579Y1903D02*
X1601Y1903D01*
X1623Y1903D02*
X1645Y1903D01*
X1658Y1903D02*
X1680Y1903D01*
X1702Y1903D02*
X1723Y1903D01*
X1737Y1903D02*
X1758Y1903D01*
X1781Y1903D02*
X1802Y1903D01*
X1816Y1903D02*
X1837Y1903D01*
X1230Y1902D02*
X1251Y1902D01*
X1265Y1902D02*
X1286Y1902D01*
X1308Y1902D02*
X1329Y1902D01*
X1344Y1902D02*
X1365Y1902D01*
X1387Y1902D02*
X1408Y1902D01*
X1422Y1902D02*
X1443Y1902D01*
X1466Y1902D02*
X1487Y1902D01*
X1501Y1902D02*
X1522Y1902D01*
X1545Y1902D02*
X1565Y1902D01*
X1580Y1902D02*
X1601Y1902D01*
X1623Y1902D02*
X1644Y1902D01*
X1659Y1902D02*
X1680Y1902D01*
X1702Y1902D02*
X1723Y1902D01*
X1737Y1902D02*
X1758Y1902D01*
X1781Y1902D02*
X1802Y1902D01*
X1816Y1902D02*
X1837Y1902D01*
X1230Y1901D02*
X1250Y1901D01*
X1265Y1901D02*
X1286Y1901D01*
X1308Y1901D02*
X1329Y1901D01*
X1344Y1901D02*
X1365Y1901D01*
X1387Y1901D02*
X1408Y1901D01*
X1423Y1901D02*
X1443Y1901D01*
X1466Y1901D02*
X1486Y1901D01*
X1501Y1901D02*
X1522Y1901D01*
X1545Y1901D02*
X1565Y1901D01*
X1580Y1901D02*
X1601Y1901D01*
X1623Y1901D02*
X1644Y1901D01*
X1659Y1901D02*
X1680Y1901D01*
X1702Y1901D02*
X1723Y1901D01*
X1738Y1901D02*
X1758Y1901D01*
X1781Y1901D02*
X1801Y1901D01*
X1816Y1901D02*
X1837Y1901D01*
X1230Y1900D02*
X1250Y1900D01*
X1265Y1900D02*
X1286Y1900D01*
X1308Y1900D02*
X1329Y1900D01*
X1344Y1900D02*
X1365Y1900D01*
X1387Y1900D02*
X1408Y1900D01*
X1423Y1900D02*
X1443Y1900D01*
X1466Y1900D02*
X1486Y1900D01*
X1502Y1900D02*
X1522Y1900D01*
X1545Y1900D02*
X1565Y1900D01*
X1580Y1900D02*
X1601Y1900D01*
X1623Y1900D02*
X1644Y1900D01*
X1659Y1900D02*
X1680Y1900D01*
X1702Y1900D02*
X1723Y1900D01*
X1738Y1900D02*
X1758Y1900D01*
X1781Y1900D02*
X1801Y1900D01*
X1816Y1900D02*
X1837Y1900D01*
X1230Y1899D02*
X1250Y1899D01*
X1265Y1899D02*
X1286Y1899D01*
X1308Y1899D02*
X1329Y1899D01*
X1344Y1899D02*
X1365Y1899D01*
X1387Y1899D02*
X1408Y1899D01*
X1423Y1899D02*
X1443Y1899D01*
X1466Y1899D02*
X1486Y1899D01*
X1502Y1899D02*
X1522Y1899D01*
X1545Y1899D02*
X1565Y1899D01*
X1580Y1899D02*
X1601Y1899D01*
X1623Y1899D02*
X1644Y1899D01*
X1659Y1899D02*
X1680Y1899D01*
X1702Y1899D02*
X1723Y1899D01*
X1738Y1899D02*
X1758Y1899D01*
X1781Y1899D02*
X1801Y1899D01*
X1816Y1899D02*
X1837Y1899D01*
X1230Y1898D02*
X1250Y1898D01*
X1265Y1898D02*
X1286Y1898D01*
X1308Y1898D02*
X1329Y1898D01*
X1344Y1898D02*
X1365Y1898D01*
X1387Y1898D02*
X1408Y1898D01*
X1423Y1898D02*
X1443Y1898D01*
X1466Y1898D02*
X1486Y1898D01*
X1502Y1898D02*
X1522Y1898D01*
X1545Y1898D02*
X1565Y1898D01*
X1580Y1898D02*
X1601Y1898D01*
X1623Y1898D02*
X1644Y1898D01*
X1659Y1898D02*
X1680Y1898D01*
X1702Y1898D02*
X1723Y1898D01*
X1738Y1898D02*
X1758Y1898D01*
X1781Y1898D02*
X1801Y1898D01*
X1816Y1898D02*
X1837Y1898D01*
X1230Y1897D02*
X1250Y1897D01*
X1265Y1897D02*
X1286Y1897D01*
X1308Y1897D02*
X1329Y1897D01*
X1344Y1897D02*
X1365Y1897D01*
X1387Y1897D02*
X1408Y1897D01*
X1423Y1897D02*
X1443Y1897D01*
X1466Y1897D02*
X1487Y1897D01*
X1501Y1897D02*
X1522Y1897D01*
X1545Y1897D02*
X1565Y1897D01*
X1580Y1897D02*
X1601Y1897D01*
X1623Y1897D02*
X1644Y1897D01*
X1659Y1897D02*
X1680Y1897D01*
X1702Y1897D02*
X1723Y1897D01*
X1737Y1897D02*
X1758Y1897D01*
X1781Y1897D02*
X1802Y1897D01*
X1816Y1897D02*
X1837Y1897D01*
X1230Y1896D02*
X1251Y1896D01*
X1265Y1896D02*
X1286Y1896D01*
X1308Y1896D02*
X1330Y1896D01*
X1343Y1896D02*
X1365Y1896D01*
X1387Y1896D02*
X1408Y1896D01*
X1422Y1896D02*
X1443Y1896D01*
X1466Y1896D02*
X1487Y1896D01*
X1501Y1896D02*
X1522Y1896D01*
X1545Y1896D02*
X1566Y1896D01*
X1580Y1896D02*
X1601Y1896D01*
X1623Y1896D02*
X1645Y1896D01*
X1658Y1896D02*
X1680Y1896D01*
X1702Y1896D02*
X1723Y1896D01*
X1737Y1896D02*
X1758Y1896D01*
X1781Y1896D02*
X1802Y1896D01*
X1816Y1896D02*
X1837Y1896D01*
X1230Y1895D02*
X1252Y1895D01*
X1264Y1895D02*
X1286Y1895D01*
X1308Y1895D02*
X1330Y1895D01*
X1343Y1895D02*
X1365Y1895D01*
X1387Y1895D02*
X1409Y1895D01*
X1421Y1895D02*
X1443Y1895D01*
X1466Y1895D02*
X1488Y1895D01*
X1500Y1895D02*
X1522Y1895D01*
X1545Y1895D02*
X1567Y1895D01*
X1579Y1895D02*
X1601Y1895D01*
X1623Y1895D02*
X1645Y1895D01*
X1658Y1895D02*
X1680Y1895D01*
X1702Y1895D02*
X1724Y1895D01*
X1736Y1895D02*
X1758Y1895D01*
X1781Y1895D02*
X1803Y1895D01*
X1815Y1895D02*
X1837Y1895D01*
X1230Y1894D02*
X1253Y1894D01*
X1263Y1894D02*
X1286Y1894D01*
X1308Y1894D02*
X1331Y1894D01*
X1342Y1894D02*
X1365Y1894D01*
X1387Y1894D02*
X1410Y1894D01*
X1420Y1894D02*
X1443Y1894D01*
X1466Y1894D02*
X1489Y1894D01*
X1499Y1894D02*
X1522Y1894D01*
X1545Y1894D02*
X1567Y1894D01*
X1578Y1894D02*
X1601Y1894D01*
X1623Y1894D02*
X1646Y1894D01*
X1657Y1894D02*
X1680Y1894D01*
X1702Y1894D02*
X1725Y1894D01*
X1735Y1894D02*
X1758Y1894D01*
X1781Y1894D02*
X1804Y1894D01*
X1814Y1894D02*
X1837Y1894D01*
X1230Y1893D02*
X1254Y1893D01*
X1262Y1893D02*
X1286Y1893D01*
X1308Y1893D02*
X1333Y1893D01*
X1340Y1893D02*
X1365Y1893D01*
X1387Y1893D02*
X1411Y1893D01*
X1419Y1893D02*
X1443Y1893D01*
X1466Y1893D02*
X1490Y1893D01*
X1498Y1893D02*
X1522Y1893D01*
X1545Y1893D02*
X1569Y1893D01*
X1577Y1893D02*
X1601Y1893D01*
X1623Y1893D02*
X1648Y1893D01*
X1655Y1893D02*
X1680Y1893D01*
X1702Y1893D02*
X1726Y1893D01*
X1734Y1893D02*
X1758Y1893D01*
X1781Y1893D02*
X1805Y1893D01*
X1813Y1893D02*
X1837Y1893D01*
X1230Y1892D02*
X1286Y1892D01*
X1308Y1892D02*
X1365Y1892D01*
X1387Y1892D02*
X1443Y1892D01*
X1466Y1892D02*
X1522Y1892D01*
X1545Y1892D02*
X1601Y1892D01*
X1623Y1892D02*
X1680Y1892D01*
X1702Y1892D02*
X1758Y1892D01*
X1781Y1892D02*
X1837Y1892D01*
X1230Y1891D02*
X1286Y1891D01*
X1308Y1891D02*
X1365Y1891D01*
X1387Y1891D02*
X1443Y1891D01*
X1466Y1891D02*
X1522Y1891D01*
X1545Y1891D02*
X1601Y1891D01*
X1623Y1891D02*
X1680Y1891D01*
X1702Y1891D02*
X1758Y1891D01*
X1781Y1891D02*
X1837Y1891D01*
X1230Y1890D02*
X1286Y1890D01*
X1308Y1890D02*
X1365Y1890D01*
X1387Y1890D02*
X1443Y1890D01*
X1466Y1890D02*
X1522Y1890D01*
X1545Y1890D02*
X1601Y1890D01*
X1623Y1890D02*
X1680Y1890D01*
X1702Y1890D02*
X1758Y1890D01*
X1781Y1890D02*
X1837Y1890D01*
X1230Y1889D02*
X1286Y1889D01*
X1308Y1889D02*
X1365Y1889D01*
X1387Y1889D02*
X1443Y1889D01*
X1466Y1889D02*
X1522Y1889D01*
X1545Y1889D02*
X1601Y1889D01*
X1623Y1889D02*
X1680Y1889D01*
X1702Y1889D02*
X1758Y1889D01*
X1781Y1889D02*
X1837Y1889D01*
X1230Y1888D02*
X1286Y1888D01*
X1308Y1888D02*
X1365Y1888D01*
X1387Y1888D02*
X1443Y1888D01*
X1466Y1888D02*
X1522Y1888D01*
X1545Y1888D02*
X1601Y1888D01*
X1623Y1888D02*
X1680Y1888D01*
X1702Y1888D02*
X1758Y1888D01*
X1781Y1888D02*
X1837Y1888D01*
X1230Y1887D02*
X1286Y1887D01*
X1308Y1887D02*
X1365Y1887D01*
X1387Y1887D02*
X1443Y1887D01*
X1466Y1887D02*
X1522Y1887D01*
X1545Y1887D02*
X1601Y1887D01*
X1623Y1887D02*
X1680Y1887D01*
X1702Y1887D02*
X1758Y1887D01*
X1781Y1887D02*
X1837Y1887D01*
X1230Y1886D02*
X1286Y1886D01*
X1308Y1886D02*
X1365Y1886D01*
X1387Y1886D02*
X1443Y1886D01*
X1466Y1886D02*
X1522Y1886D01*
X1545Y1886D02*
X1601Y1886D01*
X1623Y1886D02*
X1680Y1886D01*
X1702Y1886D02*
X1758Y1886D01*
X1781Y1886D02*
X1837Y1886D01*
X1230Y1885D02*
X1286Y1885D01*
X1308Y1885D02*
X1365Y1885D01*
X1387Y1885D02*
X1443Y1885D01*
X1466Y1885D02*
X1522Y1885D01*
X1545Y1885D02*
X1601Y1885D01*
X1623Y1885D02*
X1680Y1885D01*
X1702Y1885D02*
X1758Y1885D01*
X1781Y1885D02*
X1837Y1885D01*
X1230Y1884D02*
X1286Y1884D01*
X1308Y1884D02*
X1365Y1884D01*
X1387Y1884D02*
X1443Y1884D01*
X1466Y1884D02*
X1522Y1884D01*
X1545Y1884D02*
X1601Y1884D01*
X1623Y1884D02*
X1680Y1884D01*
X1702Y1884D02*
X1758Y1884D01*
X1781Y1884D02*
X1837Y1884D01*
X1230Y1883D02*
X1286Y1883D01*
X1308Y1883D02*
X1365Y1883D01*
X1387Y1883D02*
X1443Y1883D01*
X1466Y1883D02*
X1522Y1883D01*
X1545Y1883D02*
X1601Y1883D01*
X1623Y1883D02*
X1680Y1883D01*
X1702Y1883D02*
X1758Y1883D01*
X1781Y1883D02*
X1837Y1883D01*
X1230Y1882D02*
X1286Y1882D01*
X1308Y1882D02*
X1365Y1882D01*
X1387Y1882D02*
X1443Y1882D01*
X1466Y1882D02*
X1522Y1882D01*
X1545Y1882D02*
X1601Y1882D01*
X1623Y1882D02*
X1680Y1882D01*
X1702Y1882D02*
X1758Y1882D01*
X1781Y1882D02*
X1837Y1882D01*
X1230Y1881D02*
X1286Y1881D01*
X1308Y1881D02*
X1365Y1881D01*
X1387Y1881D02*
X1443Y1881D01*
X1466Y1881D02*
X1522Y1881D01*
X1545Y1881D02*
X1601Y1881D01*
X1623Y1881D02*
X1680Y1881D01*
X1702Y1881D02*
X1758Y1881D01*
X1781Y1881D02*
X1837Y1881D01*
X1230Y1880D02*
X1286Y1880D01*
X1308Y1880D02*
X1365Y1880D01*
X1387Y1880D02*
X1443Y1880D01*
X1466Y1880D02*
X1522Y1880D01*
X1545Y1880D02*
X1601Y1880D01*
X1623Y1880D02*
X1680Y1880D01*
X1702Y1880D02*
X1758Y1880D01*
X1781Y1880D02*
X1837Y1880D01*
X1230Y1879D02*
X1286Y1879D01*
X1308Y1879D02*
X1365Y1879D01*
X1387Y1879D02*
X1443Y1879D01*
X1466Y1879D02*
X1522Y1879D01*
X1545Y1879D02*
X1601Y1879D01*
X1623Y1879D02*
X1680Y1879D01*
X1702Y1879D02*
X1758Y1879D01*
X1781Y1879D02*
X1837Y1879D01*
X1230Y1878D02*
X1286Y1878D01*
X1308Y1878D02*
X1365Y1878D01*
X1387Y1878D02*
X1443Y1878D01*
X1466Y1878D02*
X1522Y1878D01*
X1545Y1878D02*
X1601Y1878D01*
X1623Y1878D02*
X1680Y1878D01*
X1702Y1878D02*
X1758Y1878D01*
X1781Y1878D02*
X1837Y1878D01*
X1230Y1877D02*
X1286Y1877D01*
X1308Y1877D02*
X1365Y1877D01*
X1387Y1877D02*
X1443Y1877D01*
X1466Y1877D02*
X1522Y1877D01*
X1545Y1877D02*
X1601Y1877D01*
X1623Y1877D02*
X1680Y1877D01*
X1702Y1877D02*
X1758Y1877D01*
X1781Y1877D02*
X1837Y1877D01*
X1230Y1876D02*
X1286Y1876D01*
X1308Y1876D02*
X1365Y1876D01*
X1387Y1876D02*
X1443Y1876D01*
X1466Y1876D02*
X1522Y1876D01*
X1545Y1876D02*
X1601Y1876D01*
X1623Y1876D02*
X1680Y1876D01*
X1702Y1876D02*
X1758Y1876D01*
X1781Y1876D02*
X1837Y1876D01*
X1230Y1875D02*
X1286Y1875D01*
X1308Y1875D02*
X1365Y1875D01*
X1387Y1875D02*
X1443Y1875D01*
X1466Y1875D02*
X1522Y1875D01*
X1545Y1875D02*
X1601Y1875D01*
X1623Y1875D02*
X1680Y1875D01*
X1702Y1875D02*
X1758Y1875D01*
X1781Y1875D02*
X1837Y1875D01*
X1178Y1849D02*
X1275Y1849D01*
X1178Y1848D02*
X1276Y1848D01*
X1178Y1847D02*
X1276Y1847D01*
X1178Y1846D02*
X1276Y1846D01*
X1178Y1845D02*
X1276Y1845D01*
X1178Y1844D02*
X1276Y1844D01*
X1178Y1843D02*
X1276Y1843D01*
X1178Y1842D02*
X1276Y1842D01*
X1178Y1841D02*
X1276Y1841D01*
X1178Y1840D02*
X1276Y1840D01*
X1178Y1839D02*
X1276Y1839D01*
X1178Y1838D02*
X1276Y1838D01*
X1178Y1837D02*
X1276Y1837D01*
X1178Y1836D02*
X1276Y1836D01*
X1178Y1835D02*
X1276Y1835D01*
X1178Y1834D02*
X1276Y1834D01*
X1178Y1833D02*
X1276Y1833D01*
X1178Y1832D02*
X1276Y1832D01*
X1178Y1831D02*
X1276Y1831D01*
X1178Y1830D02*
X1276Y1830D01*
X1178Y1829D02*
X1276Y1829D01*
X1178Y1828D02*
X1276Y1828D01*
X1178Y1827D02*
X1199Y1827D01*
X1206Y1827D02*
X1276Y1827D01*
X1178Y1826D02*
X1198Y1826D01*
X1208Y1826D02*
X1276Y1826D01*
X1178Y1825D02*
X1197Y1825D01*
X1209Y1825D02*
X1276Y1825D01*
X1178Y1824D02*
X1196Y1824D01*
X1210Y1824D02*
X1276Y1824D01*
X1178Y1823D02*
X1196Y1823D01*
X1210Y1823D02*
X1276Y1823D01*
X1178Y1822D02*
X1195Y1822D01*
X1210Y1822D02*
X1276Y1822D01*
X1178Y1821D02*
X1195Y1821D01*
X1210Y1821D02*
X1276Y1821D01*
X1178Y1820D02*
X1195Y1820D01*
X1210Y1820D02*
X1276Y1820D01*
X1178Y1819D02*
X1195Y1819D01*
X1210Y1819D02*
X1276Y1819D01*
X1178Y1818D02*
X1196Y1818D01*
X1210Y1818D02*
X1276Y1818D01*
X1178Y1817D02*
X1196Y1817D01*
X1210Y1817D02*
X1276Y1817D01*
X1178Y1816D02*
X1197Y1816D01*
X1209Y1816D02*
X1276Y1816D01*
X1178Y1815D02*
X1198Y1815D01*
X1208Y1815D02*
X1276Y1815D01*
X1178Y1814D02*
X1199Y1814D01*
X1206Y1814D02*
X1276Y1814D01*
X1178Y1813D02*
X1276Y1813D01*
X1178Y1812D02*
X1276Y1812D01*
X1178Y1811D02*
X1276Y1811D01*
X1178Y1810D02*
X1276Y1810D01*
X1178Y1809D02*
X1276Y1809D01*
X1178Y1808D02*
X1276Y1808D01*
X1178Y1807D02*
X1276Y1807D01*
X1178Y1806D02*
X1276Y1806D01*
X1178Y1805D02*
X1276Y1805D01*
X1178Y1804D02*
X1276Y1804D01*
X1178Y1803D02*
X1276Y1803D01*
X1178Y1802D02*
X1276Y1802D01*
X1178Y1801D02*
X1276Y1801D01*
X1178Y1800D02*
X1276Y1800D01*
X1178Y1799D02*
X1276Y1799D01*
X1178Y1798D02*
X1276Y1798D01*
X1178Y1797D02*
X1276Y1797D01*
X1178Y1796D02*
X1276Y1796D01*
X1178Y1795D02*
X1276Y1795D01*
X1178Y1794D02*
X1276Y1794D01*
X1178Y1793D02*
X1276Y1793D01*
X1178Y1792D02*
X1275Y1792D01*
X1178Y1770D02*
X1275Y1770D01*
X1178Y1769D02*
X1276Y1769D01*
X1178Y1768D02*
X1276Y1768D01*
X1178Y1767D02*
X1276Y1767D01*
X1178Y1766D02*
X1276Y1766D01*
X1178Y1765D02*
X1276Y1765D01*
X1178Y1764D02*
X1276Y1764D01*
X1178Y1763D02*
X1276Y1763D01*
X1178Y1762D02*
X1276Y1762D01*
X1178Y1761D02*
X1276Y1761D01*
X1178Y1760D02*
X1276Y1760D01*
X1178Y1759D02*
X1276Y1759D01*
X1178Y1758D02*
X1276Y1758D01*
X1178Y1757D02*
X1276Y1757D01*
X1178Y1756D02*
X1276Y1756D01*
X1178Y1755D02*
X1276Y1755D01*
X1178Y1754D02*
X1276Y1754D01*
X1178Y1753D02*
X1276Y1753D01*
X1178Y1752D02*
X1276Y1752D01*
X1178Y1751D02*
X1276Y1751D01*
X1178Y1750D02*
X1276Y1750D01*
X1178Y1749D02*
X1276Y1749D01*
X1178Y1748D02*
X1199Y1748D01*
X1207Y1748D02*
X1276Y1748D01*
X1178Y1747D02*
X1197Y1747D01*
X1208Y1747D02*
X1276Y1747D01*
X1178Y1746D02*
X1197Y1746D01*
X1209Y1746D02*
X1276Y1746D01*
X1178Y1745D02*
X1196Y1745D01*
X1210Y1745D02*
X1276Y1745D01*
X1178Y1744D02*
X1195Y1744D01*
X1210Y1744D02*
X1276Y1744D01*
X1178Y1743D02*
X1195Y1743D01*
X1210Y1743D02*
X1276Y1743D01*
X1178Y1742D02*
X1195Y1742D01*
X1210Y1742D02*
X1276Y1742D01*
X1178Y1741D02*
X1195Y1741D01*
X1210Y1741D02*
X1276Y1741D01*
X1178Y1740D02*
X1195Y1740D01*
X1210Y1740D02*
X1276Y1740D01*
X1178Y1739D02*
X1196Y1739D01*
X1210Y1739D02*
X1276Y1739D01*
X1178Y1738D02*
X1196Y1738D01*
X1209Y1738D02*
X1276Y1738D01*
X1178Y1737D02*
X1197Y1737D01*
X1209Y1737D02*
X1276Y1737D01*
X1178Y1736D02*
X1198Y1736D01*
X1208Y1736D02*
X1276Y1736D01*
X1178Y1735D02*
X1200Y1735D01*
X1206Y1735D02*
X1276Y1735D01*
X1178Y1734D02*
X1276Y1734D01*
X1178Y1733D02*
X1276Y1733D01*
X1178Y1732D02*
X1276Y1732D01*
X1178Y1731D02*
X1276Y1731D01*
X1178Y1730D02*
X1276Y1730D01*
X1178Y1729D02*
X1276Y1729D01*
X1178Y1728D02*
X1276Y1728D01*
X1178Y1727D02*
X1276Y1727D01*
X1178Y1726D02*
X1276Y1726D01*
X1178Y1725D02*
X1276Y1725D01*
X1178Y1724D02*
X1276Y1724D01*
X1178Y1723D02*
X1276Y1723D01*
X1178Y1722D02*
X1276Y1722D01*
X1178Y1721D02*
X1276Y1721D01*
X1178Y1720D02*
X1276Y1720D01*
X1178Y1719D02*
X1276Y1719D01*
X1178Y1718D02*
X1276Y1718D01*
X1178Y1717D02*
X1276Y1717D01*
X1178Y1716D02*
X1276Y1716D01*
X1178Y1715D02*
X1276Y1715D01*
X1178Y1714D02*
X1276Y1714D01*
X1178Y1691D02*
X1276Y1691D01*
X1178Y1690D02*
X1276Y1690D01*
X1178Y1689D02*
X1276Y1689D01*
X1178Y1688D02*
X1276Y1688D01*
X1178Y1687D02*
X1276Y1687D01*
X1178Y1686D02*
X1276Y1686D01*
X1178Y1685D02*
X1276Y1685D01*
X1178Y1684D02*
X1276Y1684D01*
X1178Y1683D02*
X1276Y1683D01*
X1178Y1682D02*
X1276Y1682D01*
X1178Y1681D02*
X1276Y1681D01*
X1178Y1680D02*
X1276Y1680D01*
X1178Y1679D02*
X1276Y1679D01*
X1178Y1678D02*
X1276Y1678D01*
X1178Y1677D02*
X1276Y1677D01*
X1178Y1676D02*
X1276Y1676D01*
X1178Y1675D02*
X1276Y1675D01*
X1178Y1674D02*
X1276Y1674D01*
X1178Y1673D02*
X1276Y1673D01*
X1178Y1672D02*
X1276Y1672D01*
X1178Y1671D02*
X1276Y1671D01*
X1178Y1670D02*
X1200Y1670D01*
X1205Y1670D02*
X1276Y1670D01*
X1178Y1669D02*
X1198Y1669D01*
X1207Y1669D02*
X1276Y1669D01*
X1178Y1668D02*
X1197Y1668D01*
X1208Y1668D02*
X1276Y1668D01*
X1178Y1667D02*
X1196Y1667D01*
X1209Y1667D02*
X1276Y1667D01*
X1178Y1666D02*
X1196Y1666D01*
X1210Y1666D02*
X1276Y1666D01*
X1178Y1665D02*
X1195Y1665D01*
X1210Y1665D02*
X1276Y1665D01*
X1178Y1664D02*
X1195Y1664D01*
X1210Y1664D02*
X1276Y1664D01*
X1178Y1663D02*
X1195Y1663D01*
X1210Y1663D02*
X1276Y1663D01*
X1178Y1662D02*
X1195Y1662D01*
X1210Y1662D02*
X1276Y1662D01*
X1178Y1661D02*
X1195Y1661D01*
X1210Y1661D02*
X1276Y1661D01*
X1178Y1660D02*
X1196Y1660D01*
X1210Y1660D02*
X1276Y1660D01*
X1178Y1659D02*
X1196Y1659D01*
X1209Y1659D02*
X1276Y1659D01*
X1178Y1658D02*
X1197Y1658D01*
X1208Y1658D02*
X1276Y1658D01*
X1178Y1657D02*
X1198Y1657D01*
X1207Y1657D02*
X1276Y1657D01*
X1178Y1656D02*
X1201Y1656D01*
X1205Y1656D02*
X1276Y1656D01*
X1178Y1655D02*
X1276Y1655D01*
X1178Y1654D02*
X1276Y1654D01*
X1178Y1653D02*
X1276Y1653D01*
X1178Y1652D02*
X1276Y1652D01*
X1178Y1651D02*
X1276Y1651D01*
X1178Y1650D02*
X1276Y1650D01*
X1178Y1649D02*
X1276Y1649D01*
X1178Y1648D02*
X1276Y1648D01*
X1178Y1647D02*
X1276Y1647D01*
X1178Y1646D02*
X1276Y1646D01*
X1178Y1645D02*
X1276Y1645D01*
X1178Y1644D02*
X1276Y1644D01*
X1178Y1643D02*
X1276Y1643D01*
X1178Y1642D02*
X1276Y1642D01*
X1178Y1641D02*
X1276Y1641D01*
X1178Y1640D02*
X1276Y1640D01*
X1178Y1639D02*
X1276Y1639D01*
X1178Y1638D02*
X1276Y1638D01*
X1178Y1637D02*
X1276Y1637D01*
X1178Y1636D02*
X1276Y1636D01*
X1178Y1635D02*
X1276Y1635D01*
X1178Y1612D02*
X1276Y1612D01*
X1178Y1611D02*
X1276Y1611D01*
X1178Y1610D02*
X1276Y1610D01*
X1178Y1609D02*
X1276Y1609D01*
X1178Y1608D02*
X1276Y1608D01*
X1178Y1607D02*
X1276Y1607D01*
X1178Y1606D02*
X1276Y1606D01*
X1178Y1605D02*
X1276Y1605D01*
X1178Y1604D02*
X1276Y1604D01*
X1178Y1603D02*
X1276Y1603D01*
X1178Y1602D02*
X1276Y1602D01*
X1178Y1601D02*
X1276Y1601D01*
X1178Y1600D02*
X1276Y1600D01*
X1178Y1599D02*
X1276Y1599D01*
X1178Y1598D02*
X1276Y1598D01*
X1178Y1597D02*
X1276Y1597D01*
X1178Y1596D02*
X1276Y1596D01*
X1178Y1595D02*
X1276Y1595D01*
X1178Y1594D02*
X1276Y1594D01*
X1178Y1593D02*
X1276Y1593D01*
X1178Y1592D02*
X1276Y1592D01*
X1178Y1591D02*
X1200Y1591D01*
X1206Y1591D02*
X1276Y1591D01*
X1178Y1590D02*
X1198Y1590D01*
X1208Y1590D02*
X1276Y1590D01*
X1178Y1589D02*
X1197Y1589D01*
X1209Y1589D02*
X1276Y1589D01*
X1178Y1588D02*
X1196Y1588D01*
X1209Y1588D02*
X1276Y1588D01*
X1178Y1587D02*
X1196Y1587D01*
X1210Y1587D02*
X1276Y1587D01*
X1178Y1586D02*
X1195Y1586D01*
X1210Y1586D02*
X1276Y1586D01*
X1178Y1585D02*
X1195Y1585D01*
X1210Y1585D02*
X1276Y1585D01*
X1178Y1584D02*
X1195Y1584D01*
X1210Y1584D02*
X1276Y1584D01*
X1178Y1583D02*
X1195Y1583D01*
X1210Y1583D02*
X1276Y1583D01*
X1178Y1582D02*
X1195Y1582D01*
X1210Y1582D02*
X1276Y1582D01*
X1178Y1581D02*
X1196Y1581D01*
X1210Y1581D02*
X1276Y1581D01*
X1178Y1580D02*
X1197Y1580D01*
X1209Y1580D02*
X1276Y1580D01*
X1178Y1579D02*
X1198Y1579D01*
X1208Y1579D02*
X1276Y1579D01*
X1178Y1578D02*
X1199Y1578D01*
X1207Y1578D02*
X1276Y1578D01*
X1178Y1577D02*
X1276Y1577D01*
X1178Y1576D02*
X1276Y1576D01*
X1178Y1575D02*
X1276Y1575D01*
X1178Y1574D02*
X1276Y1574D01*
X1178Y1573D02*
X1276Y1573D01*
X1178Y1572D02*
X1276Y1572D01*
X1178Y1571D02*
X1276Y1571D01*
X1178Y1570D02*
X1276Y1570D01*
X1178Y1569D02*
X1276Y1569D01*
X1178Y1568D02*
X1276Y1568D01*
X1178Y1567D02*
X1276Y1567D01*
X1178Y1566D02*
X1276Y1566D01*
X1178Y1565D02*
X1276Y1565D01*
X1178Y1564D02*
X1276Y1564D01*
X1178Y1563D02*
X1276Y1563D01*
X1178Y1562D02*
X1276Y1562D01*
X1178Y1561D02*
X1276Y1561D01*
X1178Y1560D02*
X1276Y1560D01*
X1178Y1559D02*
X1276Y1559D01*
X1178Y1558D02*
X1276Y1558D01*
X1178Y1557D02*
X1276Y1557D01*
X1178Y1556D02*
X1275Y1556D01*
X1178Y1534D02*
X1275Y1534D01*
X1178Y1533D02*
X1276Y1533D01*
X1178Y1532D02*
X1276Y1532D01*
X1178Y1531D02*
X1276Y1531D01*
X1178Y1530D02*
X1276Y1530D01*
X1178Y1529D02*
X1276Y1529D01*
X1178Y1528D02*
X1276Y1528D01*
X1178Y1527D02*
X1276Y1527D01*
X1178Y1526D02*
X1276Y1526D01*
X1178Y1525D02*
X1276Y1525D01*
X1178Y1524D02*
X1276Y1524D01*
X1178Y1523D02*
X1276Y1523D01*
X1178Y1522D02*
X1276Y1522D01*
X1178Y1521D02*
X1276Y1521D01*
X1178Y1520D02*
X1276Y1520D01*
X1178Y1519D02*
X1276Y1519D01*
X1178Y1518D02*
X1276Y1518D01*
X1178Y1517D02*
X1276Y1517D01*
X1178Y1516D02*
X1276Y1516D01*
X1178Y1515D02*
X1276Y1515D01*
X1178Y1514D02*
X1276Y1514D01*
X1178Y1513D02*
X1276Y1513D01*
X1178Y1512D02*
X1199Y1512D01*
X1207Y1512D02*
X1276Y1512D01*
X1178Y1511D02*
X1198Y1511D01*
X1208Y1511D02*
X1276Y1511D01*
X1178Y1510D02*
X1197Y1510D01*
X1209Y1510D02*
X1276Y1510D01*
X1178Y1509D02*
X1196Y1509D01*
X1210Y1509D02*
X1276Y1509D01*
X1178Y1508D02*
X1195Y1508D01*
X1210Y1508D02*
X1276Y1508D01*
X1178Y1507D02*
X1195Y1507D01*
X1210Y1507D02*
X1276Y1507D01*
X1178Y1506D02*
X1195Y1506D01*
X1210Y1506D02*
X1276Y1506D01*
X1178Y1505D02*
X1195Y1505D01*
X1210Y1505D02*
X1276Y1505D01*
X1178Y1504D02*
X1195Y1504D01*
X1210Y1504D02*
X1276Y1504D01*
X1178Y1503D02*
X1196Y1503D01*
X1210Y1503D02*
X1276Y1503D01*
X1178Y1502D02*
X1196Y1502D01*
X1209Y1502D02*
X1276Y1502D01*
X1178Y1501D02*
X1197Y1501D01*
X1209Y1501D02*
X1276Y1501D01*
X1178Y1500D02*
X1198Y1500D01*
X1208Y1500D02*
X1276Y1500D01*
X1178Y1499D02*
X1199Y1499D01*
X1206Y1499D02*
X1276Y1499D01*
X1178Y1498D02*
X1276Y1498D01*
X1178Y1497D02*
X1276Y1497D01*
X1178Y1496D02*
X1276Y1496D01*
X1178Y1495D02*
X1276Y1495D01*
X1178Y1494D02*
X1276Y1494D01*
X1178Y1493D02*
X1276Y1493D01*
X1178Y1492D02*
X1276Y1492D01*
X1178Y1491D02*
X1276Y1491D01*
X1178Y1490D02*
X1276Y1490D01*
X1178Y1489D02*
X1276Y1489D01*
X1178Y1488D02*
X1276Y1488D01*
X1178Y1487D02*
X1276Y1487D01*
X1178Y1486D02*
X1276Y1486D01*
X1178Y1485D02*
X1276Y1485D01*
X1178Y1484D02*
X1276Y1484D01*
X1178Y1483D02*
X1276Y1483D01*
X1178Y1482D02*
X1276Y1482D01*
X1178Y1481D02*
X1276Y1481D01*
X1178Y1480D02*
X1276Y1480D01*
X1178Y1479D02*
X1276Y1479D01*
X1178Y1478D02*
X1276Y1478D01*
X1178Y1477D02*
X1275Y1477D01*
X1178Y1455D02*
X1276Y1455D01*
X1178Y1454D02*
X1276Y1454D01*
X1178Y1453D02*
X1276Y1453D01*
X1178Y1452D02*
X1276Y1452D01*
X1178Y1451D02*
X1276Y1451D01*
X1178Y1450D02*
X1276Y1450D01*
X1178Y1449D02*
X1276Y1449D01*
X1178Y1448D02*
X1276Y1448D01*
X1178Y1447D02*
X1276Y1447D01*
X1178Y1446D02*
X1276Y1446D01*
X1178Y1445D02*
X1276Y1445D01*
X1178Y1444D02*
X1276Y1444D01*
X1178Y1443D02*
X1276Y1443D01*
X1178Y1442D02*
X1276Y1442D01*
X1178Y1441D02*
X1276Y1441D01*
X1178Y1440D02*
X1276Y1440D01*
X1178Y1439D02*
X1276Y1439D01*
X1178Y1438D02*
X1276Y1438D01*
X1178Y1437D02*
X1276Y1437D01*
X1178Y1436D02*
X1276Y1436D01*
X1178Y1435D02*
X1276Y1435D01*
X1178Y1434D02*
X1201Y1434D01*
X1204Y1434D02*
X1276Y1434D01*
X1178Y1433D02*
X1198Y1433D01*
X1207Y1433D02*
X1276Y1433D01*
X1178Y1432D02*
X1197Y1432D01*
X1208Y1432D02*
X1276Y1432D01*
X1178Y1431D02*
X1196Y1431D01*
X1209Y1431D02*
X1276Y1431D01*
X1178Y1430D02*
X1196Y1430D01*
X1210Y1430D02*
X1276Y1430D01*
X1178Y1429D02*
X1195Y1429D01*
X1210Y1429D02*
X1276Y1429D01*
X1178Y1428D02*
X1195Y1428D01*
X1210Y1428D02*
X1276Y1428D01*
X1178Y1427D02*
X1195Y1427D01*
X1210Y1427D02*
X1276Y1427D01*
X1178Y1426D02*
X1195Y1426D01*
X1210Y1426D02*
X1276Y1426D01*
X1178Y1425D02*
X1195Y1425D01*
X1210Y1425D02*
X1276Y1425D01*
X1178Y1424D02*
X1196Y1424D01*
X1210Y1424D02*
X1276Y1424D01*
X1178Y1423D02*
X1196Y1423D01*
X1209Y1423D02*
X1276Y1423D01*
X1178Y1422D02*
X1197Y1422D01*
X1208Y1422D02*
X1276Y1422D01*
X1178Y1421D02*
X1198Y1421D01*
X1207Y1421D02*
X1276Y1421D01*
X1178Y1420D02*
X1200Y1420D01*
X1205Y1420D02*
X1276Y1420D01*
X1178Y1419D02*
X1276Y1419D01*
X1178Y1418D02*
X1276Y1418D01*
X1178Y1417D02*
X1276Y1417D01*
X1178Y1416D02*
X1276Y1416D01*
X1178Y1415D02*
X1276Y1415D01*
X1178Y1414D02*
X1276Y1414D01*
X1178Y1413D02*
X1276Y1413D01*
X1178Y1412D02*
X1276Y1412D01*
X1178Y1411D02*
X1276Y1411D01*
X1178Y1410D02*
X1276Y1410D01*
X1178Y1409D02*
X1276Y1409D01*
X1178Y1408D02*
X1276Y1408D01*
X1178Y1407D02*
X1276Y1407D01*
X1178Y1406D02*
X1276Y1406D01*
X1178Y1405D02*
X1276Y1405D01*
X1178Y1404D02*
X1276Y1404D01*
X1178Y1403D02*
X1276Y1403D01*
X1178Y1402D02*
X1276Y1402D01*
X1178Y1401D02*
X1276Y1401D01*
X1178Y1400D02*
X1276Y1400D01*
X1178Y1399D02*
X1276Y1399D01*
X1230Y1372D02*
X1286Y1372D01*
X1308Y1372D02*
X1365Y1372D01*
X1387Y1372D02*
X1443Y1372D01*
X1466Y1372D02*
X1522Y1372D01*
X1545Y1372D02*
X1601Y1372D01*
X1623Y1372D02*
X1680Y1372D01*
X1702Y1372D02*
X1758Y1372D01*
X1781Y1372D02*
X1837Y1372D01*
X1230Y1371D02*
X1286Y1371D01*
X1308Y1371D02*
X1365Y1371D01*
X1387Y1371D02*
X1443Y1371D01*
X1466Y1371D02*
X1522Y1371D01*
X1545Y1371D02*
X1601Y1371D01*
X1623Y1371D02*
X1680Y1371D01*
X1702Y1371D02*
X1758Y1371D01*
X1781Y1371D02*
X1837Y1371D01*
X1230Y1370D02*
X1286Y1370D01*
X1308Y1370D02*
X1365Y1370D01*
X1387Y1370D02*
X1443Y1370D01*
X1466Y1370D02*
X1522Y1370D01*
X1545Y1370D02*
X1601Y1370D01*
X1623Y1370D02*
X1680Y1370D01*
X1702Y1370D02*
X1758Y1370D01*
X1781Y1370D02*
X1837Y1370D01*
X1230Y1369D02*
X1286Y1369D01*
X1308Y1369D02*
X1365Y1369D01*
X1387Y1369D02*
X1443Y1369D01*
X1466Y1369D02*
X1522Y1369D01*
X1545Y1369D02*
X1601Y1369D01*
X1623Y1369D02*
X1680Y1369D01*
X1702Y1369D02*
X1758Y1369D01*
X1781Y1369D02*
X1837Y1369D01*
X1230Y1368D02*
X1286Y1368D01*
X1308Y1368D02*
X1365Y1368D01*
X1387Y1368D02*
X1443Y1368D01*
X1466Y1368D02*
X1522Y1368D01*
X1545Y1368D02*
X1601Y1368D01*
X1623Y1368D02*
X1680Y1368D01*
X1702Y1368D02*
X1758Y1368D01*
X1781Y1368D02*
X1837Y1368D01*
X1230Y1367D02*
X1286Y1367D01*
X1308Y1367D02*
X1365Y1367D01*
X1387Y1367D02*
X1443Y1367D01*
X1466Y1367D02*
X1522Y1367D01*
X1545Y1367D02*
X1601Y1367D01*
X1623Y1367D02*
X1680Y1367D01*
X1702Y1367D02*
X1758Y1367D01*
X1781Y1367D02*
X1837Y1367D01*
X1230Y1366D02*
X1286Y1366D01*
X1308Y1366D02*
X1365Y1366D01*
X1387Y1366D02*
X1443Y1366D01*
X1466Y1366D02*
X1522Y1366D01*
X1545Y1366D02*
X1601Y1366D01*
X1623Y1366D02*
X1680Y1366D01*
X1702Y1366D02*
X1758Y1366D01*
X1781Y1366D02*
X1837Y1366D01*
X1230Y1365D02*
X1286Y1365D01*
X1308Y1365D02*
X1365Y1365D01*
X1387Y1365D02*
X1443Y1365D01*
X1466Y1365D02*
X1522Y1365D01*
X1545Y1365D02*
X1601Y1365D01*
X1623Y1365D02*
X1680Y1365D01*
X1702Y1365D02*
X1758Y1365D01*
X1781Y1365D02*
X1837Y1365D01*
X1230Y1364D02*
X1286Y1364D01*
X1308Y1364D02*
X1365Y1364D01*
X1387Y1364D02*
X1443Y1364D01*
X1466Y1364D02*
X1522Y1364D01*
X1545Y1364D02*
X1601Y1364D01*
X1623Y1364D02*
X1680Y1364D01*
X1702Y1364D02*
X1758Y1364D01*
X1781Y1364D02*
X1837Y1364D01*
X1230Y1363D02*
X1286Y1363D01*
X1308Y1363D02*
X1365Y1363D01*
X1387Y1363D02*
X1443Y1363D01*
X1466Y1363D02*
X1522Y1363D01*
X1545Y1363D02*
X1601Y1363D01*
X1623Y1363D02*
X1680Y1363D01*
X1702Y1363D02*
X1758Y1363D01*
X1781Y1363D02*
X1837Y1363D01*
X1230Y1362D02*
X1286Y1362D01*
X1308Y1362D02*
X1365Y1362D01*
X1387Y1362D02*
X1443Y1362D01*
X1466Y1362D02*
X1522Y1362D01*
X1545Y1362D02*
X1601Y1362D01*
X1623Y1362D02*
X1680Y1362D01*
X1702Y1362D02*
X1758Y1362D01*
X1781Y1362D02*
X1837Y1362D01*
X1230Y1361D02*
X1286Y1361D01*
X1308Y1361D02*
X1365Y1361D01*
X1387Y1361D02*
X1443Y1361D01*
X1466Y1361D02*
X1522Y1361D01*
X1545Y1361D02*
X1601Y1361D01*
X1623Y1361D02*
X1680Y1361D01*
X1702Y1361D02*
X1758Y1361D01*
X1781Y1361D02*
X1837Y1361D01*
X1230Y1360D02*
X1286Y1360D01*
X1308Y1360D02*
X1365Y1360D01*
X1387Y1360D02*
X1443Y1360D01*
X1466Y1360D02*
X1522Y1360D01*
X1545Y1360D02*
X1601Y1360D01*
X1623Y1360D02*
X1680Y1360D01*
X1702Y1360D02*
X1758Y1360D01*
X1781Y1360D02*
X1837Y1360D01*
X1230Y1359D02*
X1286Y1359D01*
X1308Y1359D02*
X1365Y1359D01*
X1387Y1359D02*
X1443Y1359D01*
X1466Y1359D02*
X1522Y1359D01*
X1545Y1359D02*
X1601Y1359D01*
X1623Y1359D02*
X1680Y1359D01*
X1702Y1359D02*
X1758Y1359D01*
X1781Y1359D02*
X1837Y1359D01*
X1230Y1358D02*
X1286Y1358D01*
X1308Y1358D02*
X1365Y1358D01*
X1387Y1358D02*
X1443Y1358D01*
X1466Y1358D02*
X1522Y1358D01*
X1545Y1358D02*
X1601Y1358D01*
X1623Y1358D02*
X1680Y1358D01*
X1702Y1358D02*
X1758Y1358D01*
X1781Y1358D02*
X1837Y1358D01*
X1230Y1357D02*
X1286Y1357D01*
X1308Y1357D02*
X1365Y1357D01*
X1387Y1357D02*
X1443Y1357D01*
X1466Y1357D02*
X1522Y1357D01*
X1545Y1357D02*
X1601Y1357D01*
X1623Y1357D02*
X1680Y1357D01*
X1702Y1357D02*
X1758Y1357D01*
X1781Y1357D02*
X1837Y1357D01*
X1230Y1356D02*
X1286Y1356D01*
X1308Y1356D02*
X1365Y1356D01*
X1387Y1356D02*
X1443Y1356D01*
X1466Y1356D02*
X1522Y1356D01*
X1545Y1356D02*
X1601Y1356D01*
X1623Y1356D02*
X1680Y1356D01*
X1702Y1356D02*
X1758Y1356D01*
X1781Y1356D02*
X1837Y1356D01*
X1230Y1355D02*
X1286Y1355D01*
X1308Y1355D02*
X1365Y1355D01*
X1387Y1355D02*
X1443Y1355D01*
X1466Y1355D02*
X1522Y1355D01*
X1545Y1355D02*
X1601Y1355D01*
X1623Y1355D02*
X1680Y1355D01*
X1702Y1355D02*
X1758Y1355D01*
X1781Y1355D02*
X1837Y1355D01*
X1230Y1354D02*
X1255Y1354D01*
X1261Y1354D02*
X1286Y1354D01*
X1308Y1354D02*
X1334Y1354D01*
X1340Y1354D02*
X1365Y1354D01*
X1387Y1354D02*
X1412Y1354D01*
X1418Y1354D02*
X1443Y1354D01*
X1466Y1354D02*
X1491Y1354D01*
X1497Y1354D02*
X1522Y1354D01*
X1545Y1354D02*
X1570Y1354D01*
X1576Y1354D02*
X1601Y1354D01*
X1623Y1354D02*
X1648Y1354D01*
X1654Y1354D02*
X1680Y1354D01*
X1702Y1354D02*
X1727Y1354D01*
X1733Y1354D02*
X1758Y1354D01*
X1781Y1354D02*
X1806Y1354D01*
X1812Y1354D02*
X1837Y1354D01*
X1230Y1353D02*
X1253Y1353D01*
X1262Y1353D02*
X1286Y1353D01*
X1308Y1353D02*
X1332Y1353D01*
X1341Y1353D02*
X1365Y1353D01*
X1387Y1353D02*
X1411Y1353D01*
X1420Y1353D02*
X1443Y1353D01*
X1466Y1353D02*
X1489Y1353D01*
X1499Y1353D02*
X1522Y1353D01*
X1545Y1353D02*
X1568Y1353D01*
X1577Y1353D02*
X1601Y1353D01*
X1623Y1353D02*
X1647Y1353D01*
X1656Y1353D02*
X1680Y1353D01*
X1702Y1353D02*
X1725Y1353D01*
X1735Y1353D02*
X1758Y1353D01*
X1781Y1353D02*
X1804Y1353D01*
X1814Y1353D02*
X1837Y1353D01*
X1230Y1352D02*
X1252Y1352D01*
X1264Y1352D02*
X1286Y1352D01*
X1308Y1352D02*
X1331Y1352D01*
X1342Y1352D02*
X1365Y1352D01*
X1387Y1352D02*
X1409Y1352D01*
X1421Y1352D02*
X1443Y1352D01*
X1466Y1352D02*
X1488Y1352D01*
X1500Y1352D02*
X1522Y1352D01*
X1545Y1352D02*
X1567Y1352D01*
X1578Y1352D02*
X1601Y1352D01*
X1623Y1352D02*
X1646Y1352D01*
X1657Y1352D02*
X1680Y1352D01*
X1702Y1352D02*
X1724Y1352D01*
X1736Y1352D02*
X1758Y1352D01*
X1781Y1352D02*
X1803Y1352D01*
X1815Y1352D02*
X1837Y1352D01*
X1230Y1351D02*
X1251Y1351D01*
X1264Y1351D02*
X1286Y1351D01*
X1308Y1351D02*
X1330Y1351D01*
X1343Y1351D02*
X1365Y1351D01*
X1387Y1351D02*
X1409Y1351D01*
X1422Y1351D02*
X1443Y1351D01*
X1466Y1351D02*
X1487Y1351D01*
X1501Y1351D02*
X1522Y1351D01*
X1545Y1351D02*
X1566Y1351D01*
X1579Y1351D02*
X1601Y1351D01*
X1623Y1351D02*
X1645Y1351D01*
X1658Y1351D02*
X1680Y1351D01*
X1702Y1351D02*
X1724Y1351D01*
X1737Y1351D02*
X1758Y1351D01*
X1781Y1351D02*
X1802Y1351D01*
X1815Y1351D02*
X1837Y1351D01*
X1230Y1350D02*
X1251Y1350D01*
X1265Y1350D02*
X1286Y1350D01*
X1308Y1350D02*
X1329Y1350D01*
X1344Y1350D02*
X1365Y1350D01*
X1387Y1350D02*
X1408Y1350D01*
X1422Y1350D02*
X1443Y1350D01*
X1466Y1350D02*
X1487Y1350D01*
X1501Y1350D02*
X1522Y1350D01*
X1545Y1350D02*
X1566Y1350D01*
X1580Y1350D02*
X1601Y1350D01*
X1623Y1350D02*
X1644Y1350D01*
X1659Y1350D02*
X1680Y1350D01*
X1702Y1350D02*
X1723Y1350D01*
X1737Y1350D02*
X1758Y1350D01*
X1781Y1350D02*
X1802Y1350D01*
X1816Y1350D02*
X1837Y1350D01*
X1230Y1349D02*
X1250Y1349D01*
X1265Y1349D02*
X1286Y1349D01*
X1308Y1349D02*
X1329Y1349D01*
X1344Y1349D02*
X1365Y1349D01*
X1387Y1349D02*
X1408Y1349D01*
X1423Y1349D02*
X1443Y1349D01*
X1466Y1349D02*
X1486Y1349D01*
X1501Y1349D02*
X1522Y1349D01*
X1545Y1349D02*
X1565Y1349D01*
X1580Y1349D02*
X1601Y1349D01*
X1623Y1349D02*
X1644Y1349D01*
X1659Y1349D02*
X1680Y1349D01*
X1702Y1349D02*
X1723Y1349D01*
X1738Y1349D02*
X1758Y1349D01*
X1781Y1349D02*
X1801Y1349D01*
X1816Y1349D02*
X1837Y1349D01*
X1230Y1348D02*
X1250Y1348D01*
X1265Y1348D02*
X1286Y1348D01*
X1308Y1348D02*
X1329Y1348D01*
X1344Y1348D02*
X1365Y1348D01*
X1387Y1348D02*
X1408Y1348D01*
X1423Y1348D02*
X1443Y1348D01*
X1466Y1348D02*
X1486Y1348D01*
X1502Y1348D02*
X1522Y1348D01*
X1545Y1348D02*
X1565Y1348D01*
X1580Y1348D02*
X1601Y1348D01*
X1623Y1348D02*
X1644Y1348D01*
X1659Y1348D02*
X1680Y1348D01*
X1702Y1348D02*
X1723Y1348D01*
X1738Y1348D02*
X1758Y1348D01*
X1781Y1348D02*
X1801Y1348D01*
X1816Y1348D02*
X1837Y1348D01*
X1230Y1347D02*
X1250Y1347D01*
X1265Y1347D02*
X1286Y1347D01*
X1308Y1347D02*
X1329Y1347D01*
X1344Y1347D02*
X1365Y1347D01*
X1387Y1347D02*
X1408Y1347D01*
X1423Y1347D02*
X1443Y1347D01*
X1466Y1347D02*
X1486Y1347D01*
X1502Y1347D02*
X1522Y1347D01*
X1545Y1347D02*
X1565Y1347D01*
X1580Y1347D02*
X1601Y1347D01*
X1623Y1347D02*
X1644Y1347D01*
X1659Y1347D02*
X1680Y1347D01*
X1702Y1347D02*
X1722Y1347D01*
X1738Y1347D02*
X1758Y1347D01*
X1781Y1347D02*
X1801Y1347D01*
X1817Y1347D02*
X1837Y1347D01*
X1230Y1346D02*
X1250Y1346D01*
X1265Y1346D02*
X1286Y1346D01*
X1308Y1346D02*
X1329Y1346D01*
X1344Y1346D02*
X1365Y1346D01*
X1387Y1346D02*
X1408Y1346D01*
X1423Y1346D02*
X1443Y1346D01*
X1466Y1346D02*
X1486Y1346D01*
X1502Y1346D02*
X1522Y1346D01*
X1545Y1346D02*
X1565Y1346D01*
X1580Y1346D02*
X1601Y1346D01*
X1623Y1346D02*
X1644Y1346D01*
X1659Y1346D02*
X1680Y1346D01*
X1702Y1346D02*
X1723Y1346D01*
X1738Y1346D02*
X1758Y1346D01*
X1781Y1346D02*
X1801Y1346D01*
X1816Y1346D02*
X1837Y1346D01*
X1230Y1345D02*
X1250Y1345D01*
X1265Y1345D02*
X1286Y1345D01*
X1308Y1345D02*
X1329Y1345D01*
X1344Y1345D02*
X1365Y1345D01*
X1387Y1345D02*
X1408Y1345D01*
X1423Y1345D02*
X1443Y1345D01*
X1466Y1345D02*
X1487Y1345D01*
X1501Y1345D02*
X1522Y1345D01*
X1545Y1345D02*
X1565Y1345D01*
X1580Y1345D02*
X1601Y1345D01*
X1623Y1345D02*
X1644Y1345D01*
X1659Y1345D02*
X1680Y1345D01*
X1702Y1345D02*
X1723Y1345D01*
X1737Y1345D02*
X1758Y1345D01*
X1781Y1345D02*
X1802Y1345D01*
X1816Y1345D02*
X1837Y1345D01*
X1230Y1344D02*
X1251Y1344D01*
X1265Y1344D02*
X1286Y1344D01*
X1308Y1344D02*
X1330Y1344D01*
X1343Y1344D02*
X1365Y1344D01*
X1387Y1344D02*
X1408Y1344D01*
X1422Y1344D02*
X1443Y1344D01*
X1466Y1344D02*
X1487Y1344D01*
X1501Y1344D02*
X1522Y1344D01*
X1545Y1344D02*
X1566Y1344D01*
X1580Y1344D02*
X1601Y1344D01*
X1623Y1344D02*
X1644Y1344D01*
X1658Y1344D02*
X1680Y1344D01*
X1702Y1344D02*
X1723Y1344D01*
X1737Y1344D02*
X1758Y1344D01*
X1781Y1344D02*
X1802Y1344D01*
X1816Y1344D02*
X1837Y1344D01*
X1230Y1343D02*
X1252Y1343D01*
X1264Y1343D02*
X1286Y1343D01*
X1308Y1343D02*
X1330Y1343D01*
X1343Y1343D02*
X1365Y1343D01*
X1387Y1343D02*
X1409Y1343D01*
X1422Y1343D02*
X1443Y1343D01*
X1466Y1343D02*
X1488Y1343D01*
X1500Y1343D02*
X1522Y1343D01*
X1545Y1343D02*
X1566Y1343D01*
X1579Y1343D02*
X1601Y1343D01*
X1623Y1343D02*
X1645Y1343D01*
X1658Y1343D02*
X1680Y1343D01*
X1702Y1343D02*
X1724Y1343D01*
X1736Y1343D02*
X1758Y1343D01*
X1781Y1343D02*
X1803Y1343D01*
X1815Y1343D02*
X1837Y1343D01*
X1230Y1342D02*
X1252Y1342D01*
X1263Y1342D02*
X1286Y1342D01*
X1308Y1342D02*
X1331Y1342D01*
X1342Y1342D02*
X1365Y1342D01*
X1387Y1342D02*
X1410Y1342D01*
X1421Y1342D02*
X1443Y1342D01*
X1466Y1342D02*
X1489Y1342D01*
X1499Y1342D02*
X1522Y1342D01*
X1545Y1342D02*
X1567Y1342D01*
X1578Y1342D02*
X1601Y1342D01*
X1623Y1342D02*
X1646Y1342D01*
X1657Y1342D02*
X1680Y1342D01*
X1702Y1342D02*
X1725Y1342D01*
X1735Y1342D02*
X1758Y1342D01*
X1781Y1342D02*
X1804Y1342D01*
X1814Y1342D02*
X1837Y1342D01*
X1230Y1341D02*
X1254Y1341D01*
X1262Y1341D02*
X1286Y1341D01*
X1308Y1341D02*
X1332Y1341D01*
X1341Y1341D02*
X1365Y1341D01*
X1387Y1341D02*
X1411Y1341D01*
X1419Y1341D02*
X1443Y1341D01*
X1466Y1341D02*
X1490Y1341D01*
X1498Y1341D02*
X1522Y1341D01*
X1545Y1341D02*
X1569Y1341D01*
X1577Y1341D02*
X1601Y1341D01*
X1623Y1341D02*
X1647Y1341D01*
X1655Y1341D02*
X1680Y1341D01*
X1702Y1341D02*
X1726Y1341D01*
X1734Y1341D02*
X1758Y1341D01*
X1781Y1341D02*
X1805Y1341D01*
X1813Y1341D02*
X1837Y1341D01*
X1230Y1340D02*
X1286Y1340D01*
X1308Y1340D02*
X1365Y1340D01*
X1387Y1340D02*
X1443Y1340D01*
X1466Y1340D02*
X1522Y1340D01*
X1545Y1340D02*
X1601Y1340D01*
X1623Y1340D02*
X1680Y1340D01*
X1702Y1340D02*
X1758Y1340D01*
X1781Y1340D02*
X1837Y1340D01*
X1230Y1339D02*
X1286Y1339D01*
X1308Y1339D02*
X1365Y1339D01*
X1387Y1339D02*
X1443Y1339D01*
X1466Y1339D02*
X1522Y1339D01*
X1545Y1339D02*
X1601Y1339D01*
X1623Y1339D02*
X1680Y1339D01*
X1702Y1339D02*
X1758Y1339D01*
X1781Y1339D02*
X1837Y1339D01*
X1230Y1338D02*
X1286Y1338D01*
X1308Y1338D02*
X1365Y1338D01*
X1387Y1338D02*
X1443Y1338D01*
X1466Y1338D02*
X1522Y1338D01*
X1545Y1338D02*
X1601Y1338D01*
X1623Y1338D02*
X1680Y1338D01*
X1702Y1338D02*
X1758Y1338D01*
X1781Y1338D02*
X1837Y1338D01*
X1230Y1337D02*
X1286Y1337D01*
X1308Y1337D02*
X1365Y1337D01*
X1387Y1337D02*
X1443Y1337D01*
X1466Y1337D02*
X1522Y1337D01*
X1545Y1337D02*
X1601Y1337D01*
X1623Y1337D02*
X1680Y1337D01*
X1702Y1337D02*
X1758Y1337D01*
X1781Y1337D02*
X1837Y1337D01*
X1230Y1336D02*
X1286Y1336D01*
X1308Y1336D02*
X1365Y1336D01*
X1387Y1336D02*
X1443Y1336D01*
X1466Y1336D02*
X1522Y1336D01*
X1545Y1336D02*
X1601Y1336D01*
X1623Y1336D02*
X1680Y1336D01*
X1702Y1336D02*
X1758Y1336D01*
X1781Y1336D02*
X1837Y1336D01*
X1230Y1335D02*
X1286Y1335D01*
X1308Y1335D02*
X1365Y1335D01*
X1387Y1335D02*
X1443Y1335D01*
X1466Y1335D02*
X1522Y1335D01*
X1545Y1335D02*
X1601Y1335D01*
X1623Y1335D02*
X1680Y1335D01*
X1702Y1335D02*
X1758Y1335D01*
X1781Y1335D02*
X1837Y1335D01*
X1230Y1334D02*
X1286Y1334D01*
X1308Y1334D02*
X1365Y1334D01*
X1387Y1334D02*
X1443Y1334D01*
X1466Y1334D02*
X1522Y1334D01*
X1545Y1334D02*
X1601Y1334D01*
X1623Y1334D02*
X1680Y1334D01*
X1702Y1334D02*
X1758Y1334D01*
X1781Y1334D02*
X1837Y1334D01*
X1230Y1333D02*
X1286Y1333D01*
X1308Y1333D02*
X1365Y1333D01*
X1387Y1333D02*
X1443Y1333D01*
X1466Y1333D02*
X1522Y1333D01*
X1545Y1333D02*
X1601Y1333D01*
X1623Y1333D02*
X1680Y1333D01*
X1702Y1333D02*
X1758Y1333D01*
X1781Y1333D02*
X1837Y1333D01*
X1230Y1332D02*
X1286Y1332D01*
X1308Y1332D02*
X1365Y1332D01*
X1387Y1332D02*
X1443Y1332D01*
X1466Y1332D02*
X1522Y1332D01*
X1545Y1332D02*
X1601Y1332D01*
X1623Y1332D02*
X1680Y1332D01*
X1702Y1332D02*
X1758Y1332D01*
X1781Y1332D02*
X1837Y1332D01*
X1230Y1331D02*
X1286Y1331D01*
X1308Y1331D02*
X1365Y1331D01*
X1387Y1331D02*
X1443Y1331D01*
X1466Y1331D02*
X1522Y1331D01*
X1545Y1331D02*
X1601Y1331D01*
X1623Y1331D02*
X1680Y1331D01*
X1702Y1331D02*
X1758Y1331D01*
X1781Y1331D02*
X1837Y1331D01*
X1230Y1330D02*
X1286Y1330D01*
X1308Y1330D02*
X1365Y1330D01*
X1387Y1330D02*
X1443Y1330D01*
X1466Y1330D02*
X1522Y1330D01*
X1545Y1330D02*
X1601Y1330D01*
X1623Y1330D02*
X1680Y1330D01*
X1702Y1330D02*
X1758Y1330D01*
X1781Y1330D02*
X1837Y1330D01*
X1230Y1329D02*
X1286Y1329D01*
X1308Y1329D02*
X1365Y1329D01*
X1387Y1329D02*
X1443Y1329D01*
X1466Y1329D02*
X1522Y1329D01*
X1545Y1329D02*
X1601Y1329D01*
X1623Y1329D02*
X1680Y1329D01*
X1702Y1329D02*
X1758Y1329D01*
X1781Y1329D02*
X1837Y1329D01*
X1230Y1328D02*
X1286Y1328D01*
X1308Y1328D02*
X1365Y1328D01*
X1387Y1328D02*
X1443Y1328D01*
X1466Y1328D02*
X1522Y1328D01*
X1545Y1328D02*
X1601Y1328D01*
X1623Y1328D02*
X1680Y1328D01*
X1702Y1328D02*
X1758Y1328D01*
X1781Y1328D02*
X1837Y1328D01*
X1230Y1327D02*
X1286Y1327D01*
X1308Y1327D02*
X1365Y1327D01*
X1387Y1327D02*
X1443Y1327D01*
X1466Y1327D02*
X1522Y1327D01*
X1545Y1327D02*
X1601Y1327D01*
X1623Y1327D02*
X1680Y1327D01*
X1702Y1327D02*
X1758Y1327D01*
X1781Y1327D02*
X1837Y1327D01*
X1230Y1326D02*
X1286Y1326D01*
X1308Y1326D02*
X1365Y1326D01*
X1387Y1326D02*
X1443Y1326D01*
X1466Y1326D02*
X1522Y1326D01*
X1545Y1326D02*
X1601Y1326D01*
X1623Y1326D02*
X1680Y1326D01*
X1702Y1326D02*
X1758Y1326D01*
X1781Y1326D02*
X1837Y1326D01*
X1230Y1325D02*
X1286Y1325D01*
X1308Y1325D02*
X1365Y1325D01*
X1387Y1325D02*
X1443Y1325D01*
X1466Y1325D02*
X1522Y1325D01*
X1545Y1325D02*
X1601Y1325D01*
X1623Y1325D02*
X1680Y1325D01*
X1702Y1325D02*
X1758Y1325D01*
X1781Y1325D02*
X1837Y1325D01*
X1230Y1324D02*
X1286Y1324D01*
X1308Y1324D02*
X1365Y1324D01*
X1387Y1324D02*
X1443Y1324D01*
X1466Y1324D02*
X1522Y1324D01*
X1545Y1324D02*
X1601Y1324D01*
X1623Y1324D02*
X1680Y1324D01*
X1702Y1324D02*
X1758Y1324D01*
X1781Y1324D02*
X1837Y1324D01*
X1230Y1323D02*
X1286Y1323D01*
X1308Y1323D02*
X1365Y1323D01*
X1387Y1323D02*
X1443Y1323D01*
X1466Y1323D02*
X1522Y1323D01*
X1545Y1323D02*
X1601Y1323D01*
X1623Y1323D02*
X1680Y1323D01*
X1702Y1323D02*
X1758Y1323D01*
X1781Y1323D02*
X1837Y1323D01*
X1230Y1322D02*
X1286Y1322D01*
X1308Y1322D02*
X1365Y1322D01*
X1387Y1322D02*
X1443Y1322D01*
X1466Y1322D02*
X1522Y1322D01*
X1545Y1322D02*
X1601Y1322D01*
X1623Y1322D02*
X1680Y1322D01*
X1702Y1322D02*
X1758Y1322D01*
X1781Y1322D02*
X1837Y1322D01*
X1230Y1321D02*
X1286Y1321D01*
X1308Y1321D02*
X1365Y1321D01*
X1387Y1321D02*
X1443Y1321D01*
X1466Y1321D02*
X1522Y1321D01*
X1545Y1321D02*
X1601Y1321D01*
X1623Y1321D02*
X1680Y1321D01*
X1702Y1321D02*
X1758Y1321D01*
X1781Y1321D02*
X1837Y1321D01*
X1230Y1320D02*
X1286Y1320D01*
X1308Y1320D02*
X1365Y1320D01*
X1387Y1320D02*
X1443Y1320D01*
X1466Y1320D02*
X1522Y1320D01*
X1545Y1320D02*
X1601Y1320D01*
X1623Y1320D02*
X1680Y1320D01*
X1702Y1320D02*
X1758Y1320D01*
X1781Y1320D02*
X1837Y1320D01*
X1230Y1319D02*
X1286Y1319D01*
X1308Y1319D02*
X1365Y1319D01*
X1387Y1319D02*
X1443Y1319D01*
X1466Y1319D02*
X1522Y1319D01*
X1545Y1319D02*
X1601Y1319D01*
X1623Y1319D02*
X1680Y1319D01*
X1702Y1319D02*
X1758Y1319D01*
X1781Y1319D02*
X1837Y1319D01*
X1230Y1318D02*
X1286Y1318D01*
X1308Y1318D02*
X1365Y1318D01*
X1387Y1318D02*
X1443Y1318D01*
X1466Y1318D02*
X1522Y1318D01*
X1545Y1318D02*
X1601Y1318D01*
X1623Y1318D02*
X1680Y1318D01*
X1702Y1318D02*
X1758Y1318D01*
X1781Y1318D02*
X1837Y1318D01*
X1230Y1317D02*
X1286Y1317D01*
X1308Y1317D02*
X1365Y1317D01*
X1387Y1317D02*
X1443Y1317D01*
X1466Y1317D02*
X1522Y1317D01*
X1545Y1317D02*
X1601Y1317D01*
X1623Y1317D02*
X1680Y1317D01*
X1702Y1317D02*
X1758Y1317D01*
X1781Y1317D02*
X1837Y1317D01*
X1230Y1316D02*
X1286Y1316D01*
X1308Y1316D02*
X1365Y1316D01*
X1387Y1316D02*
X1443Y1316D01*
X1466Y1316D02*
X1522Y1316D01*
X1545Y1316D02*
X1601Y1316D01*
X1623Y1316D02*
X1680Y1316D01*
X1702Y1316D02*
X1758Y1316D01*
X1781Y1316D02*
X1837Y1316D01*
X1230Y1315D02*
X1286Y1315D01*
X1308Y1315D02*
X1365Y1315D01*
X1387Y1315D02*
X1443Y1315D01*
X1466Y1315D02*
X1522Y1315D01*
X1545Y1315D02*
X1601Y1315D01*
X1623Y1315D02*
X1680Y1315D01*
X1702Y1315D02*
X1758Y1315D01*
X1781Y1315D02*
X1837Y1315D01*
X1230Y1314D02*
X1286Y1314D01*
X1308Y1314D02*
X1365Y1314D01*
X1387Y1314D02*
X1443Y1314D01*
X1466Y1314D02*
X1522Y1314D01*
X1545Y1314D02*
X1601Y1314D01*
X1623Y1314D02*
X1680Y1314D01*
X1702Y1314D02*
X1758Y1314D01*
X1781Y1314D02*
X1837Y1314D01*
X1230Y1313D02*
X1286Y1313D01*
X1308Y1313D02*
X1365Y1313D01*
X1387Y1313D02*
X1443Y1313D01*
X1466Y1313D02*
X1522Y1313D01*
X1545Y1313D02*
X1601Y1313D01*
X1623Y1313D02*
X1680Y1313D01*
X1702Y1313D02*
X1758Y1313D01*
X1781Y1313D02*
X1837Y1313D01*
X1230Y1312D02*
X1286Y1312D01*
X1308Y1312D02*
X1365Y1312D01*
X1387Y1312D02*
X1443Y1312D01*
X1466Y1312D02*
X1522Y1312D01*
X1545Y1312D02*
X1601Y1312D01*
X1623Y1312D02*
X1680Y1312D01*
X1702Y1312D02*
X1758Y1312D01*
X1781Y1312D02*
X1837Y1312D01*
X1230Y1311D02*
X1286Y1311D01*
X1308Y1311D02*
X1365Y1311D01*
X1387Y1311D02*
X1443Y1311D01*
X1466Y1311D02*
X1522Y1311D01*
X1545Y1311D02*
X1601Y1311D01*
X1623Y1311D02*
X1680Y1311D01*
X1702Y1311D02*
X1758Y1311D01*
X1781Y1311D02*
X1837Y1311D01*
X1230Y1310D02*
X1286Y1310D01*
X1308Y1310D02*
X1365Y1310D01*
X1387Y1310D02*
X1443Y1310D01*
X1466Y1310D02*
X1522Y1310D01*
X1545Y1310D02*
X1601Y1310D01*
X1623Y1310D02*
X1680Y1310D01*
X1702Y1310D02*
X1758Y1310D01*
X1781Y1310D02*
X1837Y1310D01*
X1230Y1309D02*
X1286Y1309D01*
X1308Y1309D02*
X1365Y1309D01*
X1387Y1309D02*
X1443Y1309D01*
X1466Y1309D02*
X1522Y1309D01*
X1545Y1309D02*
X1601Y1309D01*
X1623Y1309D02*
X1680Y1309D01*
X1702Y1309D02*
X1758Y1309D01*
X1781Y1309D02*
X1837Y1309D01*
X1230Y1308D02*
X1286Y1308D01*
X1308Y1308D02*
X1365Y1308D01*
X1387Y1308D02*
X1443Y1308D01*
X1466Y1308D02*
X1522Y1308D01*
X1545Y1308D02*
X1601Y1308D01*
X1623Y1308D02*
X1680Y1308D01*
X1702Y1308D02*
X1758Y1308D01*
X1781Y1308D02*
X1837Y1308D01*
X1230Y1307D02*
X1286Y1307D01*
X1308Y1307D02*
X1365Y1307D01*
X1387Y1307D02*
X1443Y1307D01*
X1466Y1307D02*
X1522Y1307D01*
X1545Y1307D02*
X1601Y1307D01*
X1623Y1307D02*
X1680Y1307D01*
X1702Y1307D02*
X1758Y1307D01*
X1781Y1307D02*
X1837Y1307D01*
X1230Y1306D02*
X1286Y1306D01*
X1308Y1306D02*
X1365Y1306D01*
X1387Y1306D02*
X1443Y1306D01*
X1466Y1306D02*
X1522Y1306D01*
X1545Y1306D02*
X1601Y1306D01*
X1623Y1306D02*
X1680Y1306D01*
X1702Y1306D02*
X1758Y1306D01*
X1781Y1306D02*
X1837Y1306D01*
X1230Y1305D02*
X1286Y1305D01*
X1308Y1305D02*
X1365Y1305D01*
X1387Y1305D02*
X1443Y1305D01*
X1466Y1305D02*
X1522Y1305D01*
X1545Y1305D02*
X1601Y1305D01*
X1623Y1305D02*
X1680Y1305D01*
X1702Y1305D02*
X1758Y1305D01*
X1781Y1305D02*
X1837Y1305D01*
X1230Y1304D02*
X1286Y1304D01*
X1308Y1304D02*
X1365Y1304D01*
X1387Y1304D02*
X1443Y1304D01*
X1466Y1304D02*
X1522Y1304D01*
X1545Y1304D02*
X1601Y1304D01*
X1623Y1304D02*
X1680Y1304D01*
X1702Y1304D02*
X1758Y1304D01*
X1781Y1304D02*
X1837Y1304D01*
X1230Y1303D02*
X1286Y1303D01*
X1308Y1303D02*
X1365Y1303D01*
X1387Y1303D02*
X1443Y1303D01*
X1466Y1303D02*
X1522Y1303D01*
X1545Y1303D02*
X1601Y1303D01*
X1623Y1303D02*
X1680Y1303D01*
X1702Y1303D02*
X1758Y1303D01*
X1781Y1303D02*
X1837Y1303D01*
X1230Y1302D02*
X1286Y1302D01*
X1308Y1302D02*
X1365Y1302D01*
X1387Y1302D02*
X1443Y1302D01*
X1466Y1302D02*
X1522Y1302D01*
X1545Y1302D02*
X1601Y1302D01*
X1623Y1302D02*
X1680Y1302D01*
X1702Y1302D02*
X1758Y1302D01*
X1781Y1302D02*
X1837Y1302D01*
X1230Y1301D02*
X1286Y1301D01*
X1308Y1301D02*
X1365Y1301D01*
X1387Y1301D02*
X1443Y1301D01*
X1466Y1301D02*
X1522Y1301D01*
X1545Y1301D02*
X1601Y1301D01*
X1623Y1301D02*
X1680Y1301D01*
X1702Y1301D02*
X1758Y1301D01*
X1781Y1301D02*
X1837Y1301D01*
X1230Y1300D02*
X1286Y1300D01*
X1308Y1300D02*
X1365Y1300D01*
X1387Y1300D02*
X1443Y1300D01*
X1466Y1300D02*
X1522Y1300D01*
X1545Y1300D02*
X1601Y1300D01*
X1623Y1300D02*
X1680Y1300D01*
X1702Y1300D02*
X1758Y1300D01*
X1781Y1300D02*
X1837Y1300D01*
X1230Y1299D02*
X1286Y1299D01*
X1308Y1299D02*
X1365Y1299D01*
X1387Y1299D02*
X1443Y1299D01*
X1466Y1299D02*
X1522Y1299D01*
X1545Y1299D02*
X1601Y1299D01*
X1623Y1299D02*
X1680Y1299D01*
X1702Y1299D02*
X1758Y1299D01*
X1781Y1299D02*
X1837Y1299D01*
X1230Y1298D02*
X1286Y1298D01*
X1308Y1298D02*
X1365Y1298D01*
X1387Y1298D02*
X1443Y1298D01*
X1466Y1298D02*
X1522Y1298D01*
X1545Y1298D02*
X1601Y1298D01*
X1623Y1298D02*
X1680Y1298D01*
X1702Y1298D02*
X1758Y1298D01*
X1781Y1298D02*
X1837Y1298D01*
X1230Y1297D02*
X1286Y1297D01*
X1308Y1297D02*
X1365Y1297D01*
X1387Y1297D02*
X1443Y1297D01*
X1466Y1297D02*
X1522Y1297D01*
X1545Y1297D02*
X1601Y1297D01*
X1623Y1297D02*
X1680Y1297D01*
X1702Y1297D02*
X1758Y1297D01*
X1781Y1297D02*
X1837Y1297D01*
X1230Y1296D02*
X1286Y1296D01*
X1308Y1296D02*
X1365Y1296D01*
X1387Y1296D02*
X1443Y1296D01*
X1466Y1296D02*
X1522Y1296D01*
X1545Y1296D02*
X1601Y1296D01*
X1623Y1296D02*
X1680Y1296D01*
X1702Y1296D02*
X1758Y1296D01*
X1781Y1296D02*
X1837Y1296D01*
X1230Y1295D02*
X1286Y1295D01*
X1308Y1295D02*
X1365Y1295D01*
X1387Y1295D02*
X1443Y1295D01*
X1466Y1295D02*
X1522Y1295D01*
X1545Y1295D02*
X1601Y1295D01*
X1623Y1295D02*
X1680Y1295D01*
X1702Y1295D02*
X1758Y1295D01*
X1781Y1295D02*
X1837Y1295D01*
X1230Y1294D02*
X1286Y1294D01*
X1308Y1294D02*
X1365Y1294D01*
X1387Y1294D02*
X1443Y1294D01*
X1466Y1294D02*
X1522Y1294D01*
X1545Y1294D02*
X1601Y1294D01*
X1623Y1294D02*
X1680Y1294D01*
X1702Y1294D02*
X1758Y1294D01*
X1781Y1294D02*
X1837Y1294D01*
X1230Y1293D02*
X1286Y1293D01*
X1308Y1293D02*
X1365Y1293D01*
X1387Y1293D02*
X1443Y1293D01*
X1466Y1293D02*
X1522Y1293D01*
X1545Y1293D02*
X1601Y1293D01*
X1623Y1293D02*
X1680Y1293D01*
X1702Y1293D02*
X1758Y1293D01*
X1781Y1293D02*
X1837Y1293D01*
X1230Y1292D02*
X1286Y1292D01*
X1308Y1292D02*
X1365Y1292D01*
X1387Y1292D02*
X1443Y1292D01*
X1466Y1292D02*
X1522Y1292D01*
X1545Y1292D02*
X1601Y1292D01*
X1623Y1292D02*
X1680Y1292D01*
X1702Y1292D02*
X1758Y1292D01*
X1781Y1292D02*
X1837Y1292D01*
X1230Y1291D02*
X1286Y1291D01*
X1308Y1291D02*
X1365Y1291D01*
X1387Y1291D02*
X1443Y1291D01*
X1466Y1291D02*
X1522Y1291D01*
X1545Y1291D02*
X1601Y1291D01*
X1623Y1291D02*
X1680Y1291D01*
X1702Y1291D02*
X1758Y1291D01*
X1781Y1291D02*
X1837Y1291D01*
X1230Y1290D02*
X1286Y1290D01*
X1308Y1290D02*
X1365Y1290D01*
X1387Y1290D02*
X1443Y1290D01*
X1466Y1290D02*
X1522Y1290D01*
X1545Y1290D02*
X1601Y1290D01*
X1623Y1290D02*
X1680Y1290D01*
X1702Y1290D02*
X1758Y1290D01*
X1781Y1290D02*
X1837Y1290D01*
X1230Y1289D02*
X1286Y1289D01*
X1308Y1289D02*
X1365Y1289D01*
X1387Y1289D02*
X1443Y1289D01*
X1466Y1289D02*
X1522Y1289D01*
X1545Y1289D02*
X1601Y1289D01*
X1623Y1289D02*
X1680Y1289D01*
X1702Y1289D02*
X1758Y1289D01*
X1781Y1289D02*
X1837Y1289D01*
X1230Y1288D02*
X1286Y1288D01*
X1308Y1288D02*
X1365Y1288D01*
X1387Y1288D02*
X1443Y1288D01*
X1466Y1288D02*
X1522Y1288D01*
X1545Y1288D02*
X1601Y1288D01*
X1623Y1288D02*
X1680Y1288D01*
X1702Y1288D02*
X1758Y1288D01*
X1781Y1288D02*
X1837Y1288D01*
X1230Y1287D02*
X1286Y1287D01*
X1308Y1287D02*
X1365Y1287D01*
X1387Y1287D02*
X1443Y1287D01*
X1466Y1287D02*
X1522Y1287D01*
X1545Y1287D02*
X1601Y1287D01*
X1623Y1287D02*
X1680Y1287D01*
X1702Y1287D02*
X1758Y1287D01*
X1781Y1287D02*
X1837Y1287D01*
X1230Y1286D02*
X1286Y1286D01*
X1308Y1286D02*
X1365Y1286D01*
X1387Y1286D02*
X1443Y1286D01*
X1466Y1286D02*
X1522Y1286D01*
X1545Y1286D02*
X1601Y1286D01*
X1623Y1286D02*
X1680Y1286D01*
X1702Y1286D02*
X1758Y1286D01*
X1781Y1286D02*
X1837Y1286D01*
X1230Y1285D02*
X1286Y1285D01*
X1308Y1285D02*
X1365Y1285D01*
X1387Y1285D02*
X1443Y1285D01*
X1466Y1285D02*
X1522Y1285D01*
X1545Y1285D02*
X1601Y1285D01*
X1623Y1285D02*
X1680Y1285D01*
X1702Y1285D02*
X1758Y1285D01*
X1781Y1285D02*
X1837Y1285D01*
X1230Y1284D02*
X1286Y1284D01*
X1308Y1284D02*
X1365Y1284D01*
X1387Y1284D02*
X1443Y1284D01*
X1466Y1284D02*
X1522Y1284D01*
X1545Y1284D02*
X1601Y1284D01*
X1623Y1284D02*
X1680Y1284D01*
X1702Y1284D02*
X1758Y1284D01*
X1781Y1284D02*
X1837Y1284D01*
X1230Y1283D02*
X1286Y1283D01*
X1308Y1283D02*
X1365Y1283D01*
X1387Y1283D02*
X1443Y1283D01*
X1466Y1283D02*
X1522Y1283D01*
X1545Y1283D02*
X1601Y1283D01*
X1623Y1283D02*
X1680Y1283D01*
X1702Y1283D02*
X1758Y1283D01*
X1781Y1283D02*
X1837Y1283D01*
X1230Y1282D02*
X1286Y1282D01*
X1308Y1282D02*
X1365Y1282D01*
X1387Y1282D02*
X1443Y1282D01*
X1466Y1282D02*
X1522Y1282D01*
X1545Y1282D02*
X1601Y1282D01*
X1623Y1282D02*
X1680Y1282D01*
X1702Y1282D02*
X1758Y1282D01*
X1781Y1282D02*
X1837Y1282D01*
X1230Y1281D02*
X1286Y1281D01*
X1308Y1281D02*
X1365Y1281D01*
X1387Y1281D02*
X1443Y1281D01*
X1466Y1281D02*
X1522Y1281D01*
X1545Y1281D02*
X1601Y1281D01*
X1623Y1281D02*
X1680Y1281D01*
X1702Y1281D02*
X1758Y1281D01*
X1781Y1281D02*
X1837Y1281D01*
X1230Y1280D02*
X1286Y1280D01*
X1308Y1280D02*
X1365Y1280D01*
X1387Y1280D02*
X1443Y1280D01*
X1466Y1280D02*
X1522Y1280D01*
X1545Y1280D02*
X1601Y1280D01*
X1623Y1280D02*
X1680Y1280D01*
X1702Y1280D02*
X1758Y1280D01*
X1781Y1280D02*
X1837Y1280D01*
X1230Y1279D02*
X1286Y1279D01*
X1308Y1279D02*
X1365Y1279D01*
X1387Y1279D02*
X1443Y1279D01*
X1466Y1279D02*
X1522Y1279D01*
X1545Y1279D02*
X1601Y1279D01*
X1623Y1279D02*
X1680Y1279D01*
X1702Y1279D02*
X1758Y1279D01*
X1781Y1279D02*
X1837Y1279D01*
X1230Y1278D02*
X1286Y1278D01*
X1308Y1278D02*
X1365Y1278D01*
X1387Y1278D02*
X1443Y1278D01*
X1466Y1278D02*
X1522Y1278D01*
X1545Y1278D02*
X1601Y1278D01*
X1623Y1278D02*
X1680Y1278D01*
X1702Y1278D02*
X1758Y1278D01*
X1781Y1278D02*
X1837Y1278D01*
X1230Y1277D02*
X1286Y1277D01*
X1308Y1277D02*
X1365Y1277D01*
X1387Y1277D02*
X1443Y1277D01*
X1466Y1277D02*
X1522Y1277D01*
X1545Y1277D02*
X1601Y1277D01*
X1623Y1277D02*
X1680Y1277D01*
X1702Y1277D02*
X1758Y1277D01*
X1781Y1277D02*
X1837Y1277D01*
X1230Y1276D02*
X1286Y1276D01*
X1308Y1276D02*
X1365Y1276D01*
X1387Y1276D02*
X1443Y1276D01*
X1466Y1276D02*
X1522Y1276D01*
X1545Y1276D02*
X1601Y1276D01*
X1623Y1276D02*
X1680Y1276D01*
X1702Y1276D02*
X1758Y1276D01*
X1781Y1276D02*
X1837Y1276D01*
X1230Y1275D02*
X1286Y1275D01*
X1308Y1275D02*
X1365Y1275D01*
X1387Y1275D02*
X1443Y1275D01*
X1466Y1275D02*
X1522Y1275D01*
X1545Y1275D02*
X1601Y1275D01*
X1623Y1275D02*
X1680Y1275D01*
X1702Y1275D02*
X1758Y1275D01*
X1781Y1275D02*
X1837Y1275D01*
X1230Y1274D02*
X1285Y1274D01*
X1309Y1274D02*
X1364Y1274D01*
X1388Y1274D02*
X1443Y1274D01*
X1466Y1274D02*
X1522Y1274D01*
X1545Y1274D02*
X1600Y1274D01*
X1624Y1274D02*
X1679Y1274D01*
X1703Y1274D02*
X1758Y1274D01*
X1781Y1274D02*
X1836Y1274D01*
D02*
G04 End of Mask1*
M02*