; NON-PLATED HOLES START AT T1
; THROUGH (PLATED) HOLES START AT T100
M48
INCH
T100C0.035433
T101C0.022422
T102C0.040000
T103C0.015748
T104C0.031496
T105C0.030000
T106C0.035000
T107C0.043307
%
T100
X017592Y023001
X020151Y023001
T101
X016441Y001205
X004872Y003249
X004872Y005221
X016441Y007265
T102
X019872Y010221
X019872Y011221
X019872Y007221
X019872Y008221
X019872Y009221
T103
X004882Y011734
X016875Y020228
X009365Y010712
X012353Y020228
X018881Y019205
X016364Y011734
X013887Y021211
T104
X000872Y003721
X002872Y003721
X000872Y005721
X002872Y005721
T105
X018372Y004221
X019374Y004221
T106
X017372Y010721
X016872Y009221
X012872Y009221
X019372Y001721
X013372Y010721
X018372Y001721
T107
X008872Y009221
X010872Y009221
X011872Y009221
X007872Y009221
X005872Y009221
X001494Y001721
X002872Y001721
X006872Y009221
X004872Y009221
X009872Y009221
T00
M30
