G04 MADE WITH FRITZING*
G04 WWW.FRITZING.ORG*
G04 DOUBLE SIDED*
G04 HOLES PLATED*
G04 CONTOUR ON CENTER OF CONTOUR VECTOR*
%ASAXBY*%
%FSLAX23Y23*%
%MOIN*%
%OFA0B0*%
%SFA1.0B1.0*%
%ADD10C,0.075000*%
%ADD11C,0.074000*%
%ADD12C,0.047978*%
%ADD13C,0.080000*%
%ADD14C,0.083307*%
%ADD15C,0.070000*%
%ADD16C,0.039370*%
%ADD17R,0.080000X0.080000*%
%ADD18R,0.083307X0.083307*%
%ADD19R,0.075000X0.075000*%
%ADD20C,0.048000*%
%ADD21C,0.024000*%
%LNCOPPER0*%
G90*
G70*
G54D10*
X122Y2451D03*
X2065Y628D03*
G54D11*
X87Y372D03*
X87Y572D03*
X287Y572D03*
X287Y372D03*
G54D12*
X487Y325D03*
X487Y522D03*
X1644Y727D03*
X1644Y121D03*
G54D13*
X1987Y1122D03*
X1987Y1022D03*
X1987Y922D03*
X1987Y822D03*
X1987Y722D03*
G54D14*
X487Y922D03*
X587Y922D03*
X687Y922D03*
X787Y922D03*
X887Y922D03*
X987Y922D03*
X1087Y922D03*
X1187Y922D03*
X287Y172D03*
X149Y172D03*
G54D10*
X1937Y172D03*
X1837Y172D03*
G54D15*
X1937Y422D03*
X1837Y422D03*
X1937Y422D03*
X1837Y422D03*
G54D10*
X1687Y922D03*
X1287Y922D03*
X1737Y1072D03*
X1337Y1072D03*
G54D15*
X2015Y2300D03*
X1759Y2300D03*
G54D16*
X1389Y2121D03*
X1888Y1921D03*
X1688Y2023D03*
X1235Y2023D03*
X937Y1071D03*
X488Y1173D03*
X1636Y1173D03*
G54D17*
X1987Y1122D03*
G54D18*
X487Y922D03*
X287Y172D03*
G54D19*
X1937Y172D03*
G54D20*
X455Y530D02*
X324Y563D01*
D02*
X249Y572D02*
X125Y572D01*
D02*
X98Y336D02*
X136Y214D01*
D02*
X287Y334D02*
X287Y216D01*
G54D21*
D02*
X1810Y165D02*
X1666Y126D01*
G54D20*
D02*
X322Y199D02*
X461Y305D01*
G54D21*
D02*
X1589Y570D02*
X1815Y436D01*
D02*
X1306Y900D02*
X1589Y570D01*
D02*
X1837Y396D02*
X1837Y201D01*
D02*
X1937Y396D02*
X1937Y201D01*
D02*
X1982Y691D02*
X1942Y448D01*
D02*
X1667Y726D02*
X1956Y723D01*
D02*
X1328Y1045D02*
X1296Y949D01*
D02*
X1711Y938D02*
X1961Y1105D01*
D02*
X885Y2121D02*
X1370Y2121D01*
D02*
X787Y2023D02*
X885Y2121D01*
D02*
X787Y955D02*
X787Y2023D01*
D02*
X2089Y1921D02*
X1907Y1921D01*
D02*
X2089Y1421D02*
X2089Y1921D01*
D02*
X1758Y1092D02*
X2089Y1421D01*
D02*
X1254Y2023D02*
X1669Y2023D01*
D02*
X956Y1071D02*
X1309Y1072D01*
D02*
X1617Y1173D02*
X507Y1173D01*
G36*
X1898Y1174D02*
X1898Y1172D01*
X1896Y1172D01*
X1896Y1170D01*
X1894Y1170D01*
X1894Y1168D01*
X1892Y1168D01*
X1892Y1166D01*
X1890Y1166D01*
X1890Y1164D01*
X1888Y1164D01*
X1888Y1162D01*
X1886Y1162D01*
X1886Y1160D01*
X1884Y1160D01*
X1884Y1158D01*
X1882Y1158D01*
X1882Y1156D01*
X1880Y1156D01*
X1880Y1154D01*
X1878Y1154D01*
X1878Y1152D01*
X1876Y1152D01*
X1876Y1150D01*
X1874Y1150D01*
X1874Y1148D01*
X1872Y1148D01*
X1872Y1146D01*
X1870Y1146D01*
X1870Y1144D01*
X1868Y1144D01*
X1868Y1142D01*
X1866Y1142D01*
X1866Y1140D01*
X1864Y1140D01*
X1864Y1138D01*
X1862Y1138D01*
X1862Y1136D01*
X1860Y1136D01*
X1860Y1134D01*
X1858Y1134D01*
X1858Y1132D01*
X1856Y1132D01*
X1856Y1130D01*
X1854Y1130D01*
X1854Y1128D01*
X1852Y1128D01*
X1852Y1126D01*
X1850Y1126D01*
X1850Y1124D01*
X1848Y1124D01*
X1848Y1122D01*
X1846Y1122D01*
X1846Y1120D01*
X1844Y1120D01*
X1844Y1118D01*
X1842Y1118D01*
X1842Y1116D01*
X1840Y1116D01*
X1840Y1114D01*
X1838Y1114D01*
X1838Y1112D01*
X1836Y1112D01*
X1836Y1110D01*
X1834Y1110D01*
X1834Y1108D01*
X1832Y1108D01*
X1832Y1106D01*
X1830Y1106D01*
X1830Y1104D01*
X1828Y1104D01*
X1828Y1102D01*
X1826Y1102D01*
X1826Y1100D01*
X1824Y1100D01*
X1824Y1098D01*
X1822Y1098D01*
X1822Y1096D01*
X1820Y1096D01*
X1820Y1094D01*
X1818Y1094D01*
X1818Y1092D01*
X1816Y1092D01*
X1816Y1090D01*
X1814Y1090D01*
X1814Y1088D01*
X1812Y1088D01*
X1812Y1086D01*
X1810Y1086D01*
X1810Y1084D01*
X1808Y1084D01*
X1808Y1082D01*
X1806Y1082D01*
X1806Y1080D01*
X1804Y1080D01*
X1804Y1064D01*
X1826Y1064D01*
X1826Y1066D01*
X1828Y1066D01*
X1828Y1068D01*
X1832Y1068D01*
X1832Y1070D01*
X1834Y1070D01*
X1834Y1072D01*
X1838Y1072D01*
X1838Y1074D01*
X1840Y1074D01*
X1840Y1076D01*
X1844Y1076D01*
X1844Y1078D01*
X1846Y1078D01*
X1846Y1080D01*
X1850Y1080D01*
X1850Y1082D01*
X1852Y1082D01*
X1852Y1084D01*
X1856Y1084D01*
X1856Y1086D01*
X1858Y1086D01*
X1858Y1088D01*
X1862Y1088D01*
X1862Y1090D01*
X1864Y1090D01*
X1864Y1092D01*
X1868Y1092D01*
X1868Y1094D01*
X1870Y1094D01*
X1870Y1096D01*
X1874Y1096D01*
X1874Y1098D01*
X1876Y1098D01*
X1876Y1100D01*
X1880Y1100D01*
X1880Y1102D01*
X1882Y1102D01*
X1882Y1104D01*
X1886Y1104D01*
X1886Y1106D01*
X1888Y1106D01*
X1888Y1108D01*
X1892Y1108D01*
X1892Y1110D01*
X1894Y1110D01*
X1894Y1112D01*
X1898Y1112D01*
X1898Y1114D01*
X1900Y1114D01*
X1900Y1116D01*
X1904Y1116D01*
X1904Y1118D01*
X1906Y1118D01*
X1906Y1120D01*
X1910Y1120D01*
X1910Y1122D01*
X1912Y1122D01*
X1912Y1124D01*
X1916Y1124D01*
X1916Y1126D01*
X1918Y1126D01*
X1918Y1174D01*
X1898Y1174D01*
G37*
D02*
G36*
X830Y1132D02*
X830Y1022D01*
X926Y1022D01*
X926Y1024D01*
X920Y1024D01*
X920Y1026D01*
X914Y1026D01*
X914Y1028D01*
X912Y1028D01*
X912Y1030D01*
X908Y1030D01*
X908Y1032D01*
X906Y1032D01*
X906Y1034D01*
X904Y1034D01*
X904Y1036D01*
X900Y1036D01*
X900Y1040D01*
X898Y1040D01*
X898Y1042D01*
X896Y1042D01*
X896Y1044D01*
X894Y1044D01*
X894Y1048D01*
X892Y1048D01*
X892Y1052D01*
X890Y1052D01*
X890Y1058D01*
X888Y1058D01*
X888Y1068D01*
X886Y1068D01*
X886Y1074D01*
X888Y1074D01*
X888Y1086D01*
X890Y1086D01*
X890Y1092D01*
X892Y1092D01*
X892Y1094D01*
X894Y1094D01*
X894Y1098D01*
X896Y1098D01*
X896Y1102D01*
X898Y1102D01*
X898Y1104D01*
X900Y1104D01*
X900Y1106D01*
X902Y1106D01*
X902Y1108D01*
X904Y1108D01*
X904Y1110D01*
X906Y1110D01*
X906Y1112D01*
X910Y1112D01*
X910Y1132D01*
X830Y1132D01*
G37*
D02*
G36*
X962Y1030D02*
X962Y1028D01*
X958Y1028D01*
X958Y1026D01*
X954Y1026D01*
X954Y1024D01*
X948Y1024D01*
X948Y1022D01*
X1272Y1022D01*
X1272Y1030D01*
X962Y1030D01*
G37*
D02*
G36*
X830Y1022D02*
X830Y1020D01*
X1272Y1020D01*
X1272Y1022D01*
X830Y1022D01*
G37*
D02*
G36*
X830Y1022D02*
X830Y1020D01*
X1272Y1020D01*
X1272Y1022D01*
X830Y1022D01*
G37*
D02*
G36*
X830Y1020D02*
X830Y994D01*
X1198Y994D01*
X1198Y992D01*
X1208Y992D01*
X1208Y990D01*
X1214Y990D01*
X1214Y988D01*
X1218Y988D01*
X1218Y986D01*
X1222Y986D01*
X1222Y984D01*
X1226Y984D01*
X1226Y982D01*
X1228Y982D01*
X1228Y980D01*
X1230Y980D01*
X1230Y978D01*
X1250Y978D01*
X1250Y980D01*
X1254Y980D01*
X1254Y982D01*
X1258Y982D01*
X1258Y984D01*
X1262Y984D01*
X1262Y986D01*
X1264Y986D01*
X1264Y988D01*
X1266Y988D01*
X1266Y994D01*
X1268Y994D01*
X1268Y1000D01*
X1270Y1000D01*
X1270Y1006D01*
X1272Y1006D01*
X1272Y1020D01*
X830Y1020D01*
G37*
D02*
G36*
X830Y994D02*
X830Y982D01*
X850Y982D01*
X850Y984D01*
X852Y984D01*
X852Y986D01*
X856Y986D01*
X856Y988D01*
X860Y988D01*
X860Y990D01*
X866Y990D01*
X866Y992D01*
X876Y992D01*
X876Y994D01*
X830Y994D01*
G37*
D02*
G36*
X898Y994D02*
X898Y992D01*
X908Y992D01*
X908Y990D01*
X914Y990D01*
X914Y988D01*
X918Y988D01*
X918Y986D01*
X922Y986D01*
X922Y984D01*
X926Y984D01*
X926Y982D01*
X950Y982D01*
X950Y984D01*
X952Y984D01*
X952Y986D01*
X956Y986D01*
X956Y988D01*
X960Y988D01*
X960Y990D01*
X966Y990D01*
X966Y992D01*
X976Y992D01*
X976Y994D01*
X898Y994D01*
G37*
D02*
G36*
X998Y994D02*
X998Y992D01*
X1008Y992D01*
X1008Y990D01*
X1014Y990D01*
X1014Y988D01*
X1018Y988D01*
X1018Y986D01*
X1022Y986D01*
X1022Y984D01*
X1026Y984D01*
X1026Y982D01*
X1050Y982D01*
X1050Y984D01*
X1052Y984D01*
X1052Y986D01*
X1056Y986D01*
X1056Y988D01*
X1060Y988D01*
X1060Y990D01*
X1066Y990D01*
X1066Y992D01*
X1076Y992D01*
X1076Y994D01*
X998Y994D01*
G37*
D02*
G36*
X1098Y994D02*
X1098Y992D01*
X1108Y992D01*
X1108Y990D01*
X1114Y990D01*
X1114Y988D01*
X1118Y988D01*
X1118Y986D01*
X1122Y986D01*
X1122Y984D01*
X1126Y984D01*
X1126Y982D01*
X1150Y982D01*
X1150Y984D01*
X1152Y984D01*
X1152Y986D01*
X1156Y986D01*
X1156Y988D01*
X1160Y988D01*
X1160Y990D01*
X1166Y990D01*
X1166Y992D01*
X1176Y992D01*
X1176Y994D01*
X1098Y994D01*
G37*
D02*
G36*
X40Y2522D02*
X40Y2366D01*
X2022Y2366D01*
X2022Y2364D01*
X2032Y2364D01*
X2032Y2362D01*
X2038Y2362D01*
X2038Y2360D01*
X2042Y2360D01*
X2042Y2358D01*
X2046Y2358D01*
X2046Y2356D01*
X2050Y2356D01*
X2050Y2354D01*
X2052Y2354D01*
X2052Y2352D01*
X2056Y2352D01*
X2056Y2350D01*
X2058Y2350D01*
X2058Y2348D01*
X2060Y2348D01*
X2060Y2346D01*
X2062Y2346D01*
X2062Y2344D01*
X2064Y2344D01*
X2064Y2342D01*
X2066Y2342D01*
X2066Y2340D01*
X2068Y2340D01*
X2068Y2336D01*
X2070Y2336D01*
X2070Y2334D01*
X2072Y2334D01*
X2072Y2330D01*
X2074Y2330D01*
X2074Y2326D01*
X2076Y2326D01*
X2076Y2320D01*
X2078Y2320D01*
X2078Y2312D01*
X2080Y2312D01*
X2080Y2288D01*
X2078Y2288D01*
X2078Y2280D01*
X2076Y2280D01*
X2076Y2274D01*
X2074Y2274D01*
X2074Y2270D01*
X2072Y2270D01*
X2072Y2268D01*
X2070Y2268D01*
X2070Y2264D01*
X2068Y2264D01*
X2068Y2262D01*
X2066Y2262D01*
X2066Y2258D01*
X2064Y2258D01*
X2064Y2256D01*
X2062Y2256D01*
X2062Y2254D01*
X2060Y2254D01*
X2060Y2252D01*
X2058Y2252D01*
X2058Y2250D01*
X2054Y2250D01*
X2054Y2248D01*
X2052Y2248D01*
X2052Y2246D01*
X2048Y2246D01*
X2048Y2244D01*
X2046Y2244D01*
X2046Y2242D01*
X2042Y2242D01*
X2042Y2240D01*
X2036Y2240D01*
X2036Y2238D01*
X2030Y2238D01*
X2030Y2236D01*
X2124Y2236D01*
X2124Y2522D01*
X40Y2522D01*
G37*
D02*
G36*
X40Y2366D02*
X40Y2236D01*
X1744Y2236D01*
X1744Y2238D01*
X1738Y2238D01*
X1738Y2240D01*
X1732Y2240D01*
X1732Y2242D01*
X1728Y2242D01*
X1728Y2244D01*
X1726Y2244D01*
X1726Y2246D01*
X1722Y2246D01*
X1722Y2248D01*
X1720Y2248D01*
X1720Y2250D01*
X1718Y2250D01*
X1718Y2252D01*
X1714Y2252D01*
X1714Y2254D01*
X1712Y2254D01*
X1712Y2256D01*
X1710Y2256D01*
X1710Y2260D01*
X1708Y2260D01*
X1708Y2262D01*
X1706Y2262D01*
X1706Y2264D01*
X1704Y2264D01*
X1704Y2268D01*
X1702Y2268D01*
X1702Y2272D01*
X1700Y2272D01*
X1700Y2276D01*
X1698Y2276D01*
X1698Y2282D01*
X1696Y2282D01*
X1696Y2292D01*
X1694Y2292D01*
X1694Y2310D01*
X1696Y2310D01*
X1696Y2318D01*
X1698Y2318D01*
X1698Y2324D01*
X1700Y2324D01*
X1700Y2328D01*
X1702Y2328D01*
X1702Y2332D01*
X1704Y2332D01*
X1704Y2336D01*
X1706Y2336D01*
X1706Y2338D01*
X1708Y2338D01*
X1708Y2342D01*
X1710Y2342D01*
X1710Y2344D01*
X1712Y2344D01*
X1712Y2346D01*
X1714Y2346D01*
X1714Y2348D01*
X1716Y2348D01*
X1716Y2350D01*
X1718Y2350D01*
X1718Y2352D01*
X1722Y2352D01*
X1722Y2354D01*
X1724Y2354D01*
X1724Y2356D01*
X1728Y2356D01*
X1728Y2358D01*
X1732Y2358D01*
X1732Y2360D01*
X1736Y2360D01*
X1736Y2362D01*
X1742Y2362D01*
X1742Y2364D01*
X1754Y2364D01*
X1754Y2366D01*
X40Y2366D01*
G37*
D02*
G36*
X1766Y2366D02*
X1766Y2364D01*
X1776Y2364D01*
X1776Y2362D01*
X1782Y2362D01*
X1782Y2360D01*
X1788Y2360D01*
X1788Y2358D01*
X1790Y2358D01*
X1790Y2356D01*
X1794Y2356D01*
X1794Y2354D01*
X1796Y2354D01*
X1796Y2352D01*
X1800Y2352D01*
X1800Y2350D01*
X1802Y2350D01*
X1802Y2348D01*
X1804Y2348D01*
X1804Y2346D01*
X1806Y2346D01*
X1806Y2344D01*
X1808Y2344D01*
X1808Y2342D01*
X1810Y2342D01*
X1810Y2340D01*
X1812Y2340D01*
X1812Y2336D01*
X1814Y2336D01*
X1814Y2334D01*
X1816Y2334D01*
X1816Y2330D01*
X1818Y2330D01*
X1818Y2326D01*
X1820Y2326D01*
X1820Y2320D01*
X1822Y2320D01*
X1822Y2312D01*
X1824Y2312D01*
X1824Y2288D01*
X1822Y2288D01*
X1822Y2280D01*
X1820Y2280D01*
X1820Y2274D01*
X1818Y2274D01*
X1818Y2270D01*
X1816Y2270D01*
X1816Y2268D01*
X1814Y2268D01*
X1814Y2264D01*
X1812Y2264D01*
X1812Y2262D01*
X1810Y2262D01*
X1810Y2258D01*
X1808Y2258D01*
X1808Y2256D01*
X1806Y2256D01*
X1806Y2254D01*
X1804Y2254D01*
X1804Y2252D01*
X1802Y2252D01*
X1802Y2250D01*
X1798Y2250D01*
X1798Y2248D01*
X1796Y2248D01*
X1796Y2246D01*
X1792Y2246D01*
X1792Y2244D01*
X1790Y2244D01*
X1790Y2242D01*
X1786Y2242D01*
X1786Y2240D01*
X1780Y2240D01*
X1780Y2238D01*
X1774Y2238D01*
X1774Y2236D01*
X2000Y2236D01*
X2000Y2238D01*
X1994Y2238D01*
X1994Y2240D01*
X1988Y2240D01*
X1988Y2242D01*
X1984Y2242D01*
X1984Y2244D01*
X1982Y2244D01*
X1982Y2246D01*
X1978Y2246D01*
X1978Y2248D01*
X1976Y2248D01*
X1976Y2250D01*
X1974Y2250D01*
X1974Y2252D01*
X1970Y2252D01*
X1970Y2254D01*
X1968Y2254D01*
X1968Y2256D01*
X1966Y2256D01*
X1966Y2260D01*
X1964Y2260D01*
X1964Y2262D01*
X1962Y2262D01*
X1962Y2264D01*
X1960Y2264D01*
X1960Y2268D01*
X1958Y2268D01*
X1958Y2272D01*
X1956Y2272D01*
X1956Y2276D01*
X1954Y2276D01*
X1954Y2282D01*
X1952Y2282D01*
X1952Y2290D01*
X1950Y2290D01*
X1950Y2310D01*
X1952Y2310D01*
X1952Y2320D01*
X1954Y2320D01*
X1954Y2324D01*
X1956Y2324D01*
X1956Y2330D01*
X1958Y2330D01*
X1958Y2332D01*
X1960Y2332D01*
X1960Y2336D01*
X1962Y2336D01*
X1962Y2338D01*
X1964Y2338D01*
X1964Y2342D01*
X1966Y2342D01*
X1966Y2344D01*
X1968Y2344D01*
X1968Y2346D01*
X1970Y2346D01*
X1970Y2348D01*
X1972Y2348D01*
X1972Y2350D01*
X1974Y2350D01*
X1974Y2352D01*
X1978Y2352D01*
X1978Y2354D01*
X1980Y2354D01*
X1980Y2356D01*
X1984Y2356D01*
X1984Y2358D01*
X1988Y2358D01*
X1988Y2360D01*
X1992Y2360D01*
X1992Y2362D01*
X1998Y2362D01*
X1998Y2364D01*
X2010Y2364D01*
X2010Y2366D01*
X1766Y2366D01*
G37*
D02*
G36*
X40Y2236D02*
X40Y2234D01*
X2124Y2234D01*
X2124Y2236D01*
X40Y2236D01*
G37*
D02*
G36*
X40Y2236D02*
X40Y2234D01*
X2124Y2234D01*
X2124Y2236D01*
X40Y2236D01*
G37*
D02*
G36*
X40Y2236D02*
X40Y2234D01*
X2124Y2234D01*
X2124Y2236D01*
X40Y2236D01*
G37*
D02*
G36*
X40Y2234D02*
X40Y2172D01*
X1390Y2172D01*
X1390Y2170D01*
X1402Y2170D01*
X1402Y2168D01*
X1408Y2168D01*
X1408Y2166D01*
X1412Y2166D01*
X1412Y2164D01*
X1416Y2164D01*
X1416Y2162D01*
X1418Y2162D01*
X1418Y2160D01*
X1420Y2160D01*
X1420Y2158D01*
X1424Y2158D01*
X1424Y2156D01*
X1426Y2156D01*
X1426Y2152D01*
X1428Y2152D01*
X1428Y2150D01*
X1430Y2150D01*
X1430Y2146D01*
X1432Y2146D01*
X1432Y2144D01*
X1434Y2144D01*
X1434Y2140D01*
X1436Y2140D01*
X1436Y2132D01*
X1438Y2132D01*
X1438Y2110D01*
X1436Y2110D01*
X1436Y2104D01*
X1434Y2104D01*
X1434Y2100D01*
X1432Y2100D01*
X1432Y2096D01*
X1430Y2096D01*
X1430Y2092D01*
X1428Y2092D01*
X1428Y2090D01*
X1426Y2090D01*
X1426Y2088D01*
X1424Y2088D01*
X1424Y2086D01*
X1422Y2086D01*
X1422Y2072D01*
X1700Y2072D01*
X1700Y2070D01*
X1706Y2070D01*
X1706Y2068D01*
X1710Y2068D01*
X1710Y2066D01*
X1714Y2066D01*
X1714Y2064D01*
X1716Y2064D01*
X1716Y2062D01*
X1720Y2062D01*
X1720Y2060D01*
X1722Y2060D01*
X1722Y2058D01*
X1724Y2058D01*
X1724Y2056D01*
X1726Y2056D01*
X1726Y2052D01*
X1728Y2052D01*
X1728Y2050D01*
X1730Y2050D01*
X1730Y2046D01*
X1732Y2046D01*
X1732Y2042D01*
X1734Y2042D01*
X1734Y2038D01*
X1736Y2038D01*
X1736Y2028D01*
X1738Y2028D01*
X1738Y2018D01*
X1736Y2018D01*
X1736Y2010D01*
X1734Y2010D01*
X1734Y2004D01*
X1732Y2004D01*
X1732Y2000D01*
X1730Y2000D01*
X1730Y1996D01*
X1728Y1996D01*
X1728Y1994D01*
X1726Y1994D01*
X1726Y1990D01*
X1724Y1990D01*
X1724Y1988D01*
X1722Y1988D01*
X1722Y1986D01*
X1720Y1986D01*
X1720Y1984D01*
X1716Y1984D01*
X1716Y1982D01*
X1714Y1982D01*
X1714Y1980D01*
X1710Y1980D01*
X1710Y1978D01*
X1706Y1978D01*
X1706Y1976D01*
X1700Y1976D01*
X1700Y1974D01*
X1832Y1974D01*
X1832Y2090D01*
X2124Y2090D01*
X2124Y2234D01*
X40Y2234D01*
G37*
D02*
G36*
X40Y2172D02*
X40Y1224D01*
X494Y1224D01*
X494Y1222D01*
X502Y1222D01*
X502Y1220D01*
X508Y1220D01*
X508Y1218D01*
X512Y1218D01*
X512Y1216D01*
X746Y1216D01*
X746Y2034D01*
X748Y2034D01*
X748Y2040D01*
X750Y2040D01*
X750Y2044D01*
X752Y2044D01*
X752Y2048D01*
X754Y2048D01*
X754Y2050D01*
X756Y2050D01*
X756Y2052D01*
X758Y2052D01*
X758Y2054D01*
X760Y2054D01*
X760Y2056D01*
X762Y2056D01*
X762Y2058D01*
X764Y2058D01*
X764Y2060D01*
X766Y2060D01*
X766Y2062D01*
X768Y2062D01*
X768Y2064D01*
X770Y2064D01*
X770Y2066D01*
X772Y2066D01*
X772Y2068D01*
X774Y2068D01*
X774Y2070D01*
X776Y2070D01*
X776Y2072D01*
X778Y2072D01*
X778Y2074D01*
X780Y2074D01*
X780Y2076D01*
X782Y2076D01*
X782Y2078D01*
X784Y2078D01*
X784Y2080D01*
X786Y2080D01*
X786Y2082D01*
X788Y2082D01*
X788Y2084D01*
X790Y2084D01*
X790Y2086D01*
X792Y2086D01*
X792Y2088D01*
X794Y2088D01*
X794Y2090D01*
X796Y2090D01*
X796Y2092D01*
X798Y2092D01*
X798Y2094D01*
X800Y2094D01*
X800Y2096D01*
X802Y2096D01*
X802Y2098D01*
X804Y2098D01*
X804Y2100D01*
X806Y2100D01*
X806Y2102D01*
X808Y2102D01*
X808Y2104D01*
X810Y2104D01*
X810Y2106D01*
X812Y2106D01*
X812Y2108D01*
X814Y2108D01*
X814Y2110D01*
X816Y2110D01*
X816Y2112D01*
X818Y2112D01*
X818Y2114D01*
X820Y2114D01*
X820Y2116D01*
X822Y2116D01*
X822Y2118D01*
X824Y2118D01*
X824Y2120D01*
X826Y2120D01*
X826Y2122D01*
X828Y2122D01*
X828Y2124D01*
X830Y2124D01*
X830Y2126D01*
X832Y2126D01*
X832Y2128D01*
X834Y2128D01*
X834Y2130D01*
X836Y2130D01*
X836Y2132D01*
X838Y2132D01*
X838Y2134D01*
X840Y2134D01*
X840Y2136D01*
X842Y2136D01*
X842Y2138D01*
X844Y2138D01*
X844Y2140D01*
X846Y2140D01*
X846Y2142D01*
X848Y2142D01*
X848Y2144D01*
X850Y2144D01*
X850Y2146D01*
X852Y2146D01*
X852Y2148D01*
X854Y2148D01*
X854Y2150D01*
X856Y2150D01*
X856Y2152D01*
X858Y2152D01*
X858Y2154D01*
X860Y2154D01*
X860Y2156D01*
X864Y2156D01*
X864Y2158D01*
X868Y2158D01*
X868Y2160D01*
X872Y2160D01*
X872Y2162D01*
X880Y2162D01*
X880Y2164D01*
X1366Y2164D01*
X1366Y2166D01*
X1370Y2166D01*
X1370Y2168D01*
X1376Y2168D01*
X1376Y2170D01*
X1388Y2170D01*
X1388Y2172D01*
X40Y2172D01*
G37*
D02*
G36*
X902Y2080D02*
X902Y2078D01*
X900Y2078D01*
X900Y2076D01*
X898Y2076D01*
X898Y2074D01*
X896Y2074D01*
X896Y2072D01*
X894Y2072D01*
X894Y2070D01*
X892Y2070D01*
X892Y2068D01*
X890Y2068D01*
X890Y2066D01*
X888Y2066D01*
X888Y2064D01*
X886Y2064D01*
X886Y2062D01*
X884Y2062D01*
X884Y2060D01*
X882Y2060D01*
X882Y2058D01*
X880Y2058D01*
X880Y2056D01*
X878Y2056D01*
X878Y2054D01*
X876Y2054D01*
X876Y2052D01*
X874Y2052D01*
X874Y2050D01*
X872Y2050D01*
X872Y2048D01*
X870Y2048D01*
X870Y2046D01*
X868Y2046D01*
X868Y2044D01*
X866Y2044D01*
X866Y2042D01*
X864Y2042D01*
X864Y2040D01*
X862Y2040D01*
X862Y2038D01*
X860Y2038D01*
X860Y2036D01*
X858Y2036D01*
X858Y2034D01*
X856Y2034D01*
X856Y2032D01*
X854Y2032D01*
X854Y2030D01*
X852Y2030D01*
X852Y2028D01*
X850Y2028D01*
X850Y2026D01*
X848Y2026D01*
X848Y2024D01*
X846Y2024D01*
X846Y2022D01*
X844Y2022D01*
X844Y2020D01*
X842Y2020D01*
X842Y2018D01*
X840Y2018D01*
X840Y2016D01*
X838Y2016D01*
X838Y2014D01*
X836Y2014D01*
X836Y2012D01*
X834Y2012D01*
X834Y2010D01*
X832Y2010D01*
X832Y2008D01*
X830Y2008D01*
X830Y1974D01*
X1224Y1974D01*
X1224Y1976D01*
X1216Y1976D01*
X1216Y1978D01*
X1212Y1978D01*
X1212Y1980D01*
X1210Y1980D01*
X1210Y1982D01*
X1206Y1982D01*
X1206Y1984D01*
X1204Y1984D01*
X1204Y1986D01*
X1202Y1986D01*
X1202Y1988D01*
X1200Y1988D01*
X1200Y1990D01*
X1198Y1990D01*
X1198Y1992D01*
X1196Y1992D01*
X1196Y1994D01*
X1194Y1994D01*
X1194Y1998D01*
X1192Y1998D01*
X1192Y2002D01*
X1190Y2002D01*
X1190Y2006D01*
X1188Y2006D01*
X1188Y2012D01*
X1186Y2012D01*
X1186Y2034D01*
X1188Y2034D01*
X1188Y2040D01*
X1190Y2040D01*
X1190Y2044D01*
X1192Y2044D01*
X1192Y2048D01*
X1194Y2048D01*
X1194Y2052D01*
X1196Y2052D01*
X1196Y2054D01*
X1198Y2054D01*
X1198Y2056D01*
X1200Y2056D01*
X1200Y2058D01*
X1202Y2058D01*
X1202Y2060D01*
X1204Y2060D01*
X1204Y2080D01*
X902Y2080D01*
G37*
D02*
G36*
X1422Y2072D02*
X1422Y2066D01*
X1666Y2066D01*
X1666Y2068D01*
X1668Y2068D01*
X1668Y2070D01*
X1676Y2070D01*
X1676Y2072D01*
X1422Y2072D01*
G37*
D02*
G36*
X1262Y1982D02*
X1262Y1980D01*
X1258Y1980D01*
X1258Y1978D01*
X1254Y1978D01*
X1254Y1976D01*
X1248Y1976D01*
X1248Y1974D01*
X1676Y1974D01*
X1676Y1976D01*
X1670Y1976D01*
X1670Y1978D01*
X1666Y1978D01*
X1666Y1980D01*
X1662Y1980D01*
X1662Y1982D01*
X1262Y1982D01*
G37*
D02*
G36*
X830Y1974D02*
X830Y1972D01*
X1832Y1972D01*
X1832Y1974D01*
X830Y1974D01*
G37*
D02*
G36*
X830Y1974D02*
X830Y1972D01*
X1832Y1972D01*
X1832Y1974D01*
X830Y1974D01*
G37*
D02*
G36*
X830Y1974D02*
X830Y1972D01*
X1832Y1972D01*
X1832Y1974D01*
X830Y1974D01*
G37*
D02*
G36*
X830Y1972D02*
X830Y1224D01*
X1642Y1224D01*
X1642Y1222D01*
X1650Y1222D01*
X1650Y1220D01*
X1656Y1220D01*
X1656Y1218D01*
X1660Y1218D01*
X1660Y1216D01*
X1664Y1216D01*
X1664Y1214D01*
X1666Y1214D01*
X1666Y1212D01*
X1668Y1212D01*
X1668Y1210D01*
X1672Y1210D01*
X1672Y1208D01*
X1674Y1208D01*
X1674Y1204D01*
X1676Y1204D01*
X1676Y1202D01*
X1678Y1202D01*
X1678Y1198D01*
X1680Y1198D01*
X1680Y1196D01*
X1682Y1196D01*
X1682Y1190D01*
X1684Y1190D01*
X1684Y1184D01*
X1686Y1184D01*
X1686Y1164D01*
X1684Y1164D01*
X1684Y1156D01*
X1682Y1156D01*
X1682Y1152D01*
X1680Y1152D01*
X1680Y1148D01*
X1678Y1148D01*
X1678Y1146D01*
X1676Y1146D01*
X1676Y1142D01*
X1674Y1142D01*
X1674Y1140D01*
X1672Y1140D01*
X1672Y1138D01*
X1670Y1138D01*
X1670Y1136D01*
X1668Y1136D01*
X1668Y1134D01*
X1664Y1134D01*
X1664Y1132D01*
X1662Y1132D01*
X1662Y1130D01*
X1658Y1130D01*
X1658Y1128D01*
X1652Y1128D01*
X1652Y1126D01*
X1646Y1126D01*
X1646Y1124D01*
X1696Y1124D01*
X1696Y1126D01*
X1698Y1126D01*
X1698Y1128D01*
X1700Y1128D01*
X1700Y1130D01*
X1704Y1130D01*
X1704Y1132D01*
X1708Y1132D01*
X1708Y1134D01*
X1712Y1134D01*
X1712Y1136D01*
X1718Y1136D01*
X1718Y1138D01*
X1726Y1138D01*
X1726Y1140D01*
X1746Y1140D01*
X1746Y1142D01*
X1748Y1142D01*
X1748Y1144D01*
X1750Y1144D01*
X1750Y1146D01*
X1752Y1146D01*
X1752Y1148D01*
X1754Y1148D01*
X1754Y1150D01*
X1756Y1150D01*
X1756Y1152D01*
X1758Y1152D01*
X1758Y1154D01*
X1760Y1154D01*
X1760Y1156D01*
X1762Y1156D01*
X1762Y1158D01*
X1764Y1158D01*
X1764Y1160D01*
X1766Y1160D01*
X1766Y1162D01*
X1768Y1162D01*
X1768Y1164D01*
X1770Y1164D01*
X1770Y1166D01*
X1772Y1166D01*
X1772Y1168D01*
X1774Y1168D01*
X1774Y1170D01*
X1776Y1170D01*
X1776Y1172D01*
X1778Y1172D01*
X1778Y1174D01*
X1780Y1174D01*
X1780Y1176D01*
X1782Y1176D01*
X1782Y1178D01*
X1784Y1178D01*
X1784Y1180D01*
X1786Y1180D01*
X1786Y1182D01*
X1788Y1182D01*
X1788Y1184D01*
X1790Y1184D01*
X1790Y1186D01*
X1794Y1186D01*
X1794Y1188D01*
X1796Y1188D01*
X1796Y1190D01*
X1798Y1190D01*
X1798Y1192D01*
X1800Y1192D01*
X1800Y1194D01*
X1802Y1194D01*
X1802Y1196D01*
X1804Y1196D01*
X1804Y1198D01*
X1806Y1198D01*
X1806Y1200D01*
X1808Y1200D01*
X1808Y1202D01*
X1810Y1202D01*
X1810Y1204D01*
X1812Y1204D01*
X1812Y1206D01*
X1814Y1206D01*
X1814Y1208D01*
X1816Y1208D01*
X1816Y1210D01*
X1818Y1210D01*
X1818Y1212D01*
X1820Y1212D01*
X1820Y1214D01*
X1822Y1214D01*
X1822Y1216D01*
X1824Y1216D01*
X1824Y1218D01*
X1826Y1218D01*
X1826Y1220D01*
X1828Y1220D01*
X1828Y1222D01*
X1830Y1222D01*
X1830Y1224D01*
X1832Y1224D01*
X1832Y1972D01*
X830Y1972D01*
G37*
D02*
G36*
X40Y1224D02*
X40Y1124D01*
X478Y1124D01*
X478Y1126D01*
X472Y1126D01*
X472Y1128D01*
X466Y1128D01*
X466Y1130D01*
X464Y1130D01*
X464Y1132D01*
X460Y1132D01*
X460Y1134D01*
X458Y1134D01*
X458Y1136D01*
X456Y1136D01*
X456Y1138D01*
X452Y1138D01*
X452Y1142D01*
X450Y1142D01*
X450Y1144D01*
X448Y1144D01*
X448Y1146D01*
X446Y1146D01*
X446Y1150D01*
X444Y1150D01*
X444Y1154D01*
X442Y1154D01*
X442Y1160D01*
X440Y1160D01*
X440Y1168D01*
X438Y1168D01*
X438Y1180D01*
X440Y1180D01*
X440Y1188D01*
X442Y1188D01*
X442Y1194D01*
X444Y1194D01*
X444Y1198D01*
X446Y1198D01*
X446Y1200D01*
X448Y1200D01*
X448Y1204D01*
X450Y1204D01*
X450Y1206D01*
X452Y1206D01*
X452Y1208D01*
X454Y1208D01*
X454Y1210D01*
X456Y1210D01*
X456Y1212D01*
X458Y1212D01*
X458Y1214D01*
X462Y1214D01*
X462Y1216D01*
X464Y1216D01*
X464Y1218D01*
X468Y1218D01*
X468Y1220D01*
X474Y1220D01*
X474Y1222D01*
X482Y1222D01*
X482Y1224D01*
X40Y1224D01*
G37*
D02*
G36*
X830Y1224D02*
X830Y1216D01*
X1612Y1216D01*
X1612Y1218D01*
X1616Y1218D01*
X1616Y1220D01*
X1622Y1220D01*
X1622Y1222D01*
X1630Y1222D01*
X1630Y1224D01*
X830Y1224D01*
G37*
D02*
G36*
X514Y1132D02*
X514Y1130D01*
X510Y1130D01*
X510Y1128D01*
X504Y1128D01*
X504Y1126D01*
X498Y1126D01*
X498Y1124D01*
X746Y1124D01*
X746Y1132D01*
X514Y1132D01*
G37*
D02*
G36*
X1390Y1132D02*
X1390Y1124D01*
X1626Y1124D01*
X1626Y1126D01*
X1620Y1126D01*
X1620Y1128D01*
X1616Y1128D01*
X1616Y1130D01*
X1612Y1130D01*
X1612Y1132D01*
X1390Y1132D01*
G37*
D02*
G36*
X40Y1124D02*
X40Y1122D01*
X746Y1122D01*
X746Y1124D01*
X40Y1124D01*
G37*
D02*
G36*
X40Y1124D02*
X40Y1122D01*
X746Y1122D01*
X746Y1124D01*
X40Y1124D01*
G37*
D02*
G36*
X1390Y1124D02*
X1390Y1122D01*
X1692Y1122D01*
X1692Y1124D01*
X1390Y1124D01*
G37*
D02*
G36*
X1390Y1124D02*
X1390Y1122D01*
X1692Y1122D01*
X1692Y1124D01*
X1390Y1124D01*
G37*
D02*
G36*
X40Y1122D02*
X40Y994D01*
X698Y994D01*
X698Y992D01*
X708Y992D01*
X708Y990D01*
X714Y990D01*
X714Y988D01*
X718Y988D01*
X718Y986D01*
X722Y986D01*
X722Y984D01*
X726Y984D01*
X726Y982D01*
X746Y982D01*
X746Y1122D01*
X40Y1122D01*
G37*
D02*
G36*
X1390Y1122D02*
X1390Y1112D01*
X1392Y1112D01*
X1392Y1110D01*
X1394Y1110D01*
X1394Y1106D01*
X1396Y1106D01*
X1396Y1104D01*
X1398Y1104D01*
X1398Y1100D01*
X1400Y1100D01*
X1400Y1094D01*
X1402Y1094D01*
X1402Y1088D01*
X1404Y1088D01*
X1404Y1058D01*
X1402Y1058D01*
X1402Y1050D01*
X1400Y1050D01*
X1400Y1046D01*
X1398Y1046D01*
X1398Y1042D01*
X1396Y1042D01*
X1396Y1038D01*
X1394Y1038D01*
X1394Y1034D01*
X1392Y1034D01*
X1392Y1032D01*
X1390Y1032D01*
X1390Y1030D01*
X1388Y1030D01*
X1388Y1026D01*
X1386Y1026D01*
X1386Y1024D01*
X1384Y1024D01*
X1384Y1022D01*
X1380Y1022D01*
X1380Y1020D01*
X1378Y1020D01*
X1378Y1018D01*
X1376Y1018D01*
X1376Y1016D01*
X1372Y1016D01*
X1372Y1014D01*
X1368Y1014D01*
X1368Y1012D01*
X1366Y1012D01*
X1366Y1010D01*
X1360Y1010D01*
X1360Y1004D01*
X1358Y1004D01*
X1358Y998D01*
X1356Y998D01*
X1356Y992D01*
X1354Y992D01*
X1354Y986D01*
X1352Y986D01*
X1352Y980D01*
X1350Y980D01*
X1350Y974D01*
X1348Y974D01*
X1348Y950D01*
X1350Y950D01*
X1350Y944D01*
X1352Y944D01*
X1352Y938D01*
X1354Y938D01*
X1354Y908D01*
X1356Y908D01*
X1356Y906D01*
X1358Y906D01*
X1358Y904D01*
X1360Y904D01*
X1360Y900D01*
X1362Y900D01*
X1362Y898D01*
X1364Y898D01*
X1364Y896D01*
X1366Y896D01*
X1366Y894D01*
X1368Y894D01*
X1368Y892D01*
X1370Y892D01*
X1370Y890D01*
X1372Y890D01*
X1372Y886D01*
X1374Y886D01*
X1374Y884D01*
X1376Y884D01*
X1376Y882D01*
X1378Y882D01*
X1378Y880D01*
X1380Y880D01*
X1380Y878D01*
X1382Y878D01*
X1382Y876D01*
X1384Y876D01*
X1384Y872D01*
X1386Y872D01*
X1386Y870D01*
X1388Y870D01*
X1388Y868D01*
X1390Y868D01*
X1390Y866D01*
X1392Y866D01*
X1392Y864D01*
X1394Y864D01*
X1394Y860D01*
X1396Y860D01*
X1396Y858D01*
X1398Y858D01*
X1398Y856D01*
X1400Y856D01*
X1400Y854D01*
X1686Y854D01*
X1686Y856D01*
X1670Y856D01*
X1670Y858D01*
X1664Y858D01*
X1664Y860D01*
X1660Y860D01*
X1660Y862D01*
X1656Y862D01*
X1656Y864D01*
X1652Y864D01*
X1652Y866D01*
X1648Y866D01*
X1648Y868D01*
X1646Y868D01*
X1646Y870D01*
X1644Y870D01*
X1644Y872D01*
X1642Y872D01*
X1642Y874D01*
X1640Y874D01*
X1640Y876D01*
X1638Y876D01*
X1638Y878D01*
X1636Y878D01*
X1636Y880D01*
X1634Y880D01*
X1634Y882D01*
X1632Y882D01*
X1632Y886D01*
X1630Y886D01*
X1630Y888D01*
X1628Y888D01*
X1628Y892D01*
X1626Y892D01*
X1626Y896D01*
X1624Y896D01*
X1624Y902D01*
X1622Y902D01*
X1622Y910D01*
X1620Y910D01*
X1620Y936D01*
X1622Y936D01*
X1622Y944D01*
X1624Y944D01*
X1624Y948D01*
X1626Y948D01*
X1626Y952D01*
X1628Y952D01*
X1628Y956D01*
X1630Y956D01*
X1630Y960D01*
X1632Y960D01*
X1632Y962D01*
X1634Y962D01*
X1634Y964D01*
X1636Y964D01*
X1636Y968D01*
X1638Y968D01*
X1638Y970D01*
X1640Y970D01*
X1640Y972D01*
X1642Y972D01*
X1642Y974D01*
X1646Y974D01*
X1646Y976D01*
X1648Y976D01*
X1648Y978D01*
X1650Y978D01*
X1650Y980D01*
X1654Y980D01*
X1654Y982D01*
X1658Y982D01*
X1658Y984D01*
X1662Y984D01*
X1662Y986D01*
X1668Y986D01*
X1668Y988D01*
X1676Y988D01*
X1676Y990D01*
X1714Y990D01*
X1714Y1010D01*
X1710Y1010D01*
X1710Y1012D01*
X1706Y1012D01*
X1706Y1014D01*
X1702Y1014D01*
X1702Y1016D01*
X1698Y1016D01*
X1698Y1018D01*
X1696Y1018D01*
X1696Y1020D01*
X1694Y1020D01*
X1694Y1022D01*
X1692Y1022D01*
X1692Y1024D01*
X1690Y1024D01*
X1690Y1026D01*
X1688Y1026D01*
X1688Y1028D01*
X1686Y1028D01*
X1686Y1030D01*
X1684Y1030D01*
X1684Y1032D01*
X1682Y1032D01*
X1682Y1036D01*
X1680Y1036D01*
X1680Y1038D01*
X1678Y1038D01*
X1678Y1042D01*
X1676Y1042D01*
X1676Y1046D01*
X1674Y1046D01*
X1674Y1052D01*
X1672Y1052D01*
X1672Y1060D01*
X1670Y1060D01*
X1670Y1086D01*
X1672Y1086D01*
X1672Y1094D01*
X1674Y1094D01*
X1674Y1098D01*
X1676Y1098D01*
X1676Y1102D01*
X1678Y1102D01*
X1678Y1106D01*
X1680Y1106D01*
X1680Y1110D01*
X1682Y1110D01*
X1682Y1112D01*
X1684Y1112D01*
X1684Y1114D01*
X1686Y1114D01*
X1686Y1118D01*
X1688Y1118D01*
X1688Y1120D01*
X1690Y1120D01*
X1690Y1122D01*
X1390Y1122D01*
G37*
D02*
G36*
X1898Y1014D02*
X1898Y1012D01*
X1896Y1012D01*
X1896Y1010D01*
X1892Y1010D01*
X1892Y1008D01*
X1890Y1008D01*
X1890Y1006D01*
X1886Y1006D01*
X1886Y1004D01*
X1884Y1004D01*
X1884Y1002D01*
X1880Y1002D01*
X1880Y1000D01*
X1878Y1000D01*
X1878Y998D01*
X1874Y998D01*
X1874Y996D01*
X1872Y996D01*
X1872Y994D01*
X1868Y994D01*
X1868Y992D01*
X1866Y992D01*
X1866Y990D01*
X1862Y990D01*
X1862Y988D01*
X1860Y988D01*
X1860Y986D01*
X1856Y986D01*
X1856Y984D01*
X1854Y984D01*
X1854Y982D01*
X1850Y982D01*
X1850Y980D01*
X1848Y980D01*
X1848Y978D01*
X1844Y978D01*
X1844Y976D01*
X1842Y976D01*
X1842Y974D01*
X1838Y974D01*
X1838Y972D01*
X1836Y972D01*
X1836Y970D01*
X1832Y970D01*
X1832Y968D01*
X1830Y968D01*
X1830Y966D01*
X1826Y966D01*
X1826Y964D01*
X1824Y964D01*
X1824Y962D01*
X1820Y962D01*
X1820Y960D01*
X1818Y960D01*
X1818Y958D01*
X1814Y958D01*
X1814Y956D01*
X1812Y956D01*
X1812Y954D01*
X1808Y954D01*
X1808Y952D01*
X1806Y952D01*
X1806Y950D01*
X1802Y950D01*
X1802Y948D01*
X1800Y948D01*
X1800Y946D01*
X1796Y946D01*
X1796Y944D01*
X1794Y944D01*
X1794Y942D01*
X1790Y942D01*
X1790Y940D01*
X1788Y940D01*
X1788Y938D01*
X1784Y938D01*
X1784Y936D01*
X1782Y936D01*
X1782Y934D01*
X1778Y934D01*
X1778Y932D01*
X1776Y932D01*
X1776Y930D01*
X1772Y930D01*
X1772Y928D01*
X1770Y928D01*
X1770Y926D01*
X1766Y926D01*
X1766Y924D01*
X1764Y924D01*
X1764Y922D01*
X1760Y922D01*
X1760Y920D01*
X1758Y920D01*
X1758Y918D01*
X1754Y918D01*
X1754Y908D01*
X1752Y908D01*
X1752Y900D01*
X1750Y900D01*
X1750Y896D01*
X1748Y896D01*
X1748Y892D01*
X1746Y892D01*
X1746Y888D01*
X1744Y888D01*
X1744Y884D01*
X1742Y884D01*
X1742Y882D01*
X1740Y882D01*
X1740Y880D01*
X1738Y880D01*
X1738Y876D01*
X1736Y876D01*
X1736Y874D01*
X1734Y874D01*
X1734Y872D01*
X1730Y872D01*
X1730Y870D01*
X1728Y870D01*
X1728Y868D01*
X1726Y868D01*
X1726Y866D01*
X1722Y866D01*
X1722Y864D01*
X1718Y864D01*
X1718Y862D01*
X1716Y862D01*
X1716Y860D01*
X1710Y860D01*
X1710Y858D01*
X1704Y858D01*
X1704Y856D01*
X1688Y856D01*
X1688Y854D01*
X1926Y854D01*
X1926Y858D01*
X1928Y858D01*
X1928Y860D01*
X1930Y860D01*
X1930Y884D01*
X1928Y884D01*
X1928Y888D01*
X1926Y888D01*
X1926Y890D01*
X1924Y890D01*
X1924Y894D01*
X1922Y894D01*
X1922Y900D01*
X1920Y900D01*
X1920Y906D01*
X1918Y906D01*
X1918Y938D01*
X1920Y938D01*
X1920Y944D01*
X1922Y944D01*
X1922Y950D01*
X1924Y950D01*
X1924Y954D01*
X1926Y954D01*
X1926Y958D01*
X1928Y958D01*
X1928Y960D01*
X1930Y960D01*
X1930Y984D01*
X1928Y984D01*
X1928Y988D01*
X1926Y988D01*
X1926Y990D01*
X1924Y990D01*
X1924Y994D01*
X1922Y994D01*
X1922Y1000D01*
X1920Y1000D01*
X1920Y1006D01*
X1918Y1006D01*
X1918Y1014D01*
X1898Y1014D01*
G37*
D02*
G36*
X40Y994D02*
X40Y846D01*
X416Y846D01*
X416Y994D01*
X40Y994D01*
G37*
D02*
G36*
X598Y994D02*
X598Y992D01*
X608Y992D01*
X608Y990D01*
X614Y990D01*
X614Y988D01*
X618Y988D01*
X618Y986D01*
X622Y986D01*
X622Y984D01*
X626Y984D01*
X626Y982D01*
X650Y982D01*
X650Y984D01*
X652Y984D01*
X652Y986D01*
X656Y986D01*
X656Y988D01*
X660Y988D01*
X660Y990D01*
X666Y990D01*
X666Y992D01*
X676Y992D01*
X676Y994D01*
X598Y994D01*
G37*
D02*
G36*
X1402Y854D02*
X1402Y852D01*
X1924Y852D01*
X1924Y854D01*
X1402Y854D01*
G37*
D02*
G36*
X1402Y854D02*
X1402Y852D01*
X1924Y852D01*
X1924Y854D01*
X1402Y854D01*
G37*
D02*
G36*
X1404Y852D02*
X1404Y850D01*
X1406Y850D01*
X1406Y846D01*
X1412Y846D01*
X1412Y840D01*
X1414Y840D01*
X1414Y838D01*
X1416Y838D01*
X1416Y836D01*
X1418Y836D01*
X1418Y832D01*
X1420Y832D01*
X1420Y830D01*
X1422Y830D01*
X1422Y828D01*
X1424Y828D01*
X1424Y826D01*
X1426Y826D01*
X1426Y824D01*
X1428Y824D01*
X1428Y822D01*
X1430Y822D01*
X1430Y818D01*
X1432Y818D01*
X1432Y816D01*
X1434Y816D01*
X1434Y814D01*
X1436Y814D01*
X1436Y812D01*
X1438Y812D01*
X1438Y810D01*
X1440Y810D01*
X1440Y808D01*
X1442Y808D01*
X1442Y804D01*
X1444Y804D01*
X1444Y802D01*
X1446Y802D01*
X1446Y800D01*
X1448Y800D01*
X1448Y798D01*
X1450Y798D01*
X1450Y796D01*
X1452Y796D01*
X1452Y794D01*
X1454Y794D01*
X1454Y790D01*
X1456Y790D01*
X1456Y788D01*
X1458Y788D01*
X1458Y786D01*
X1460Y786D01*
X1460Y784D01*
X1462Y784D01*
X1462Y782D01*
X1464Y782D01*
X1464Y780D01*
X1658Y780D01*
X1658Y778D01*
X1664Y778D01*
X1664Y776D01*
X1668Y776D01*
X1668Y774D01*
X1672Y774D01*
X1672Y772D01*
X1674Y772D01*
X1674Y770D01*
X1678Y770D01*
X1678Y768D01*
X1782Y768D01*
X1782Y766D01*
X1928Y766D01*
X1928Y788D01*
X1926Y788D01*
X1926Y790D01*
X1924Y790D01*
X1924Y794D01*
X1922Y794D01*
X1922Y800D01*
X1920Y800D01*
X1920Y806D01*
X1918Y806D01*
X1918Y838D01*
X1920Y838D01*
X1920Y844D01*
X1922Y844D01*
X1922Y850D01*
X1924Y850D01*
X1924Y852D01*
X1404Y852D01*
G37*
D02*
G36*
X1466Y780D02*
X1466Y776D01*
X1468Y776D01*
X1468Y774D01*
X1470Y774D01*
X1470Y772D01*
X1472Y772D01*
X1472Y770D01*
X1474Y770D01*
X1474Y768D01*
X1476Y768D01*
X1476Y766D01*
X1478Y766D01*
X1478Y762D01*
X1480Y762D01*
X1480Y760D01*
X1482Y760D01*
X1482Y758D01*
X1484Y758D01*
X1484Y756D01*
X1486Y756D01*
X1486Y754D01*
X1488Y754D01*
X1488Y752D01*
X1490Y752D01*
X1490Y748D01*
X1492Y748D01*
X1492Y746D01*
X1494Y746D01*
X1494Y744D01*
X1496Y744D01*
X1496Y742D01*
X1498Y742D01*
X1498Y740D01*
X1500Y740D01*
X1500Y738D01*
X1502Y738D01*
X1502Y734D01*
X1504Y734D01*
X1504Y732D01*
X1506Y732D01*
X1506Y730D01*
X1508Y730D01*
X1508Y728D01*
X1510Y728D01*
X1510Y726D01*
X1512Y726D01*
X1512Y724D01*
X1514Y724D01*
X1514Y720D01*
X1516Y720D01*
X1516Y718D01*
X1518Y718D01*
X1518Y716D01*
X1520Y716D01*
X1520Y714D01*
X1522Y714D01*
X1522Y712D01*
X1524Y712D01*
X1524Y708D01*
X1526Y708D01*
X1526Y706D01*
X1528Y706D01*
X1528Y704D01*
X1530Y704D01*
X1530Y702D01*
X1532Y702D01*
X1532Y700D01*
X1534Y700D01*
X1534Y698D01*
X1536Y698D01*
X1536Y694D01*
X1538Y694D01*
X1538Y692D01*
X1540Y692D01*
X1540Y690D01*
X1542Y690D01*
X1542Y688D01*
X1544Y688D01*
X1544Y686D01*
X1546Y686D01*
X1546Y684D01*
X1548Y684D01*
X1548Y680D01*
X1550Y680D01*
X1550Y678D01*
X1552Y678D01*
X1552Y676D01*
X1554Y676D01*
X1554Y674D01*
X1556Y674D01*
X1556Y672D01*
X1640Y672D01*
X1640Y674D01*
X1630Y674D01*
X1630Y676D01*
X1624Y676D01*
X1624Y678D01*
X1620Y678D01*
X1620Y680D01*
X1616Y680D01*
X1616Y682D01*
X1612Y682D01*
X1612Y684D01*
X1610Y684D01*
X1610Y686D01*
X1608Y686D01*
X1608Y688D01*
X1606Y688D01*
X1606Y690D01*
X1604Y690D01*
X1604Y692D01*
X1602Y692D01*
X1602Y694D01*
X1600Y694D01*
X1600Y698D01*
X1598Y698D01*
X1598Y702D01*
X1596Y702D01*
X1596Y704D01*
X1594Y704D01*
X1594Y710D01*
X1592Y710D01*
X1592Y718D01*
X1590Y718D01*
X1590Y736D01*
X1592Y736D01*
X1592Y744D01*
X1594Y744D01*
X1594Y748D01*
X1596Y748D01*
X1596Y752D01*
X1598Y752D01*
X1598Y756D01*
X1600Y756D01*
X1600Y758D01*
X1602Y758D01*
X1602Y762D01*
X1604Y762D01*
X1604Y764D01*
X1606Y764D01*
X1606Y766D01*
X1608Y766D01*
X1608Y768D01*
X1612Y768D01*
X1612Y770D01*
X1614Y770D01*
X1614Y772D01*
X1618Y772D01*
X1618Y774D01*
X1620Y774D01*
X1620Y776D01*
X1624Y776D01*
X1624Y778D01*
X1632Y778D01*
X1632Y780D01*
X1466Y780D01*
G37*
D02*
G36*
X1676Y684D02*
X1676Y682D01*
X1672Y682D01*
X1672Y680D01*
X1668Y680D01*
X1668Y678D01*
X1666Y678D01*
X1666Y676D01*
X1658Y676D01*
X1658Y674D01*
X1648Y674D01*
X1648Y672D01*
X1934Y672D01*
X1934Y678D01*
X1932Y678D01*
X1932Y682D01*
X1780Y682D01*
X1780Y684D01*
X1676Y684D01*
G37*
D02*
G36*
X1558Y672D02*
X1558Y670D01*
X1934Y670D01*
X1934Y672D01*
X1558Y672D01*
G37*
D02*
G36*
X1558Y672D02*
X1558Y670D01*
X1934Y670D01*
X1934Y672D01*
X1558Y672D01*
G37*
D02*
G36*
X1560Y670D02*
X1560Y666D01*
X1562Y666D01*
X1562Y664D01*
X1564Y664D01*
X1564Y662D01*
X1566Y662D01*
X1566Y660D01*
X1568Y660D01*
X1568Y658D01*
X1570Y658D01*
X1570Y656D01*
X1572Y656D01*
X1572Y652D01*
X1574Y652D01*
X1574Y650D01*
X1576Y650D01*
X1576Y648D01*
X1578Y648D01*
X1578Y646D01*
X1580Y646D01*
X1580Y644D01*
X1582Y644D01*
X1582Y642D01*
X1584Y642D01*
X1584Y638D01*
X1586Y638D01*
X1586Y636D01*
X1588Y636D01*
X1588Y634D01*
X1590Y634D01*
X1590Y632D01*
X1592Y632D01*
X1592Y630D01*
X1594Y630D01*
X1594Y628D01*
X1596Y628D01*
X1596Y624D01*
X1598Y624D01*
X1598Y622D01*
X1600Y622D01*
X1600Y620D01*
X1602Y620D01*
X1602Y618D01*
X1604Y618D01*
X1604Y616D01*
X1606Y616D01*
X1606Y614D01*
X1608Y614D01*
X1608Y610D01*
X1610Y610D01*
X1610Y608D01*
X1612Y608D01*
X1612Y606D01*
X1614Y606D01*
X1614Y604D01*
X1616Y604D01*
X1616Y602D01*
X1618Y602D01*
X1618Y600D01*
X1622Y600D01*
X1622Y598D01*
X1626Y598D01*
X1626Y596D01*
X1628Y596D01*
X1628Y594D01*
X1632Y594D01*
X1632Y592D01*
X1636Y592D01*
X1636Y590D01*
X1638Y590D01*
X1638Y588D01*
X1642Y588D01*
X1642Y586D01*
X1646Y586D01*
X1646Y584D01*
X1650Y584D01*
X1650Y582D01*
X1652Y582D01*
X1652Y580D01*
X1656Y580D01*
X1656Y578D01*
X1660Y578D01*
X1660Y576D01*
X1662Y576D01*
X1662Y574D01*
X1666Y574D01*
X1666Y572D01*
X1670Y572D01*
X1670Y570D01*
X1672Y570D01*
X1672Y568D01*
X1676Y568D01*
X1676Y566D01*
X1680Y566D01*
X1680Y564D01*
X1682Y564D01*
X1682Y562D01*
X1686Y562D01*
X1686Y560D01*
X1690Y560D01*
X1690Y558D01*
X1692Y558D01*
X1692Y556D01*
X1696Y556D01*
X1696Y554D01*
X1700Y554D01*
X1700Y552D01*
X1702Y552D01*
X1702Y550D01*
X1706Y550D01*
X1706Y548D01*
X1710Y548D01*
X1710Y546D01*
X1714Y546D01*
X1714Y544D01*
X1716Y544D01*
X1716Y542D01*
X1720Y542D01*
X1720Y540D01*
X1724Y540D01*
X1724Y538D01*
X1726Y538D01*
X1726Y536D01*
X1730Y536D01*
X1730Y534D01*
X1734Y534D01*
X1734Y532D01*
X1736Y532D01*
X1736Y530D01*
X1740Y530D01*
X1740Y528D01*
X1744Y528D01*
X1744Y526D01*
X1746Y526D01*
X1746Y524D01*
X1750Y524D01*
X1750Y522D01*
X1754Y522D01*
X1754Y520D01*
X1756Y520D01*
X1756Y518D01*
X1760Y518D01*
X1760Y516D01*
X1764Y516D01*
X1764Y514D01*
X1766Y514D01*
X1766Y512D01*
X1770Y512D01*
X1770Y510D01*
X1774Y510D01*
X1774Y508D01*
X1778Y508D01*
X1778Y506D01*
X1780Y506D01*
X1780Y504D01*
X1784Y504D01*
X1784Y502D01*
X1788Y502D01*
X1788Y500D01*
X1790Y500D01*
X1790Y498D01*
X1794Y498D01*
X1794Y496D01*
X1798Y496D01*
X1798Y494D01*
X1800Y494D01*
X1800Y492D01*
X1804Y492D01*
X1804Y490D01*
X1808Y490D01*
X1808Y488D01*
X1844Y488D01*
X1844Y486D01*
X1854Y486D01*
X1854Y484D01*
X1860Y484D01*
X1860Y482D01*
X1866Y482D01*
X1866Y480D01*
X1868Y480D01*
X1868Y478D01*
X1872Y478D01*
X1872Y476D01*
X1876Y476D01*
X1876Y474D01*
X1900Y474D01*
X1900Y476D01*
X1902Y476D01*
X1902Y478D01*
X1904Y478D01*
X1904Y484D01*
X1906Y484D01*
X1906Y496D01*
X1908Y496D01*
X1908Y508D01*
X1910Y508D01*
X1910Y520D01*
X1912Y520D01*
X1912Y532D01*
X1914Y532D01*
X1914Y544D01*
X1916Y544D01*
X1916Y556D01*
X1918Y556D01*
X1918Y568D01*
X1920Y568D01*
X1920Y580D01*
X1922Y580D01*
X1922Y592D01*
X1924Y592D01*
X1924Y604D01*
X1926Y604D01*
X1926Y616D01*
X1928Y616D01*
X1928Y628D01*
X1930Y628D01*
X1930Y640D01*
X1932Y640D01*
X1932Y652D01*
X1934Y652D01*
X1934Y670D01*
X1560Y670D01*
G37*
D02*
G36*
X1810Y488D02*
X1810Y486D01*
X1830Y486D01*
X1830Y488D01*
X1810Y488D01*
G37*
D02*
G36*
X2058Y1188D02*
X2058Y1054D01*
X2056Y1054D01*
X2056Y1026D01*
X2058Y1026D01*
X2058Y1018D01*
X2056Y1018D01*
X2056Y1006D01*
X2054Y1006D01*
X2054Y998D01*
X2052Y998D01*
X2052Y994D01*
X2050Y994D01*
X2050Y990D01*
X2048Y990D01*
X2048Y986D01*
X2046Y986D01*
X2046Y984D01*
X2044Y984D01*
X2044Y962D01*
X2046Y962D01*
X2046Y958D01*
X2048Y958D01*
X2048Y956D01*
X2050Y956D01*
X2050Y952D01*
X2052Y952D01*
X2052Y946D01*
X2054Y946D01*
X2054Y940D01*
X2056Y940D01*
X2056Y926D01*
X2058Y926D01*
X2058Y918D01*
X2056Y918D01*
X2056Y906D01*
X2054Y906D01*
X2054Y898D01*
X2052Y898D01*
X2052Y894D01*
X2050Y894D01*
X2050Y890D01*
X2048Y890D01*
X2048Y886D01*
X2046Y886D01*
X2046Y884D01*
X2044Y884D01*
X2044Y862D01*
X2046Y862D01*
X2046Y858D01*
X2048Y858D01*
X2048Y856D01*
X2050Y856D01*
X2050Y852D01*
X2052Y852D01*
X2052Y846D01*
X2054Y846D01*
X2054Y840D01*
X2056Y840D01*
X2056Y826D01*
X2058Y826D01*
X2058Y818D01*
X2056Y818D01*
X2056Y806D01*
X2054Y806D01*
X2054Y798D01*
X2052Y798D01*
X2052Y794D01*
X2050Y794D01*
X2050Y790D01*
X2048Y790D01*
X2048Y786D01*
X2046Y786D01*
X2046Y784D01*
X2044Y784D01*
X2044Y762D01*
X2046Y762D01*
X2046Y758D01*
X2048Y758D01*
X2048Y756D01*
X2050Y756D01*
X2050Y752D01*
X2052Y752D01*
X2052Y746D01*
X2054Y746D01*
X2054Y740D01*
X2056Y740D01*
X2056Y726D01*
X2058Y726D01*
X2058Y718D01*
X2056Y718D01*
X2056Y706D01*
X2054Y706D01*
X2054Y698D01*
X2052Y698D01*
X2052Y694D01*
X2050Y694D01*
X2050Y690D01*
X2048Y690D01*
X2048Y686D01*
X2046Y686D01*
X2046Y684D01*
X2044Y684D01*
X2044Y680D01*
X2042Y680D01*
X2042Y678D01*
X2040Y678D01*
X2040Y676D01*
X2038Y676D01*
X2038Y674D01*
X2036Y674D01*
X2036Y672D01*
X2034Y672D01*
X2034Y670D01*
X2032Y670D01*
X2032Y668D01*
X2030Y668D01*
X2030Y666D01*
X2026Y666D01*
X2026Y664D01*
X2024Y664D01*
X2024Y662D01*
X2020Y662D01*
X2020Y658D01*
X2018Y658D01*
X2018Y646D01*
X2016Y646D01*
X2016Y634D01*
X2014Y634D01*
X2014Y622D01*
X2012Y622D01*
X2012Y610D01*
X2010Y610D01*
X2010Y598D01*
X2008Y598D01*
X2008Y586D01*
X2006Y586D01*
X2006Y574D01*
X2004Y574D01*
X2004Y560D01*
X2002Y560D01*
X2002Y548D01*
X2000Y548D01*
X2000Y536D01*
X1998Y536D01*
X1998Y524D01*
X1996Y524D01*
X1996Y512D01*
X1994Y512D01*
X1994Y500D01*
X1992Y500D01*
X1992Y488D01*
X1990Y488D01*
X1990Y458D01*
X1992Y458D01*
X1992Y456D01*
X1994Y456D01*
X1994Y452D01*
X1996Y452D01*
X1996Y448D01*
X1998Y448D01*
X1998Y442D01*
X2000Y442D01*
X2000Y436D01*
X2002Y436D01*
X2002Y410D01*
X2000Y410D01*
X2000Y402D01*
X1998Y402D01*
X1998Y396D01*
X1996Y396D01*
X1996Y392D01*
X1994Y392D01*
X1994Y390D01*
X1992Y390D01*
X1992Y386D01*
X1990Y386D01*
X1990Y384D01*
X1988Y384D01*
X1988Y380D01*
X1986Y380D01*
X1986Y378D01*
X1984Y378D01*
X1984Y376D01*
X1982Y376D01*
X1982Y374D01*
X1980Y374D01*
X1980Y240D01*
X2004Y240D01*
X2004Y104D01*
X2124Y104D01*
X2124Y1188D01*
X2058Y1188D01*
G37*
D02*
G36*
X1412Y690D02*
X1412Y66D01*
X1640Y66D01*
X1640Y68D01*
X1630Y68D01*
X1630Y70D01*
X1624Y70D01*
X1624Y72D01*
X1620Y72D01*
X1620Y74D01*
X1616Y74D01*
X1616Y76D01*
X1614Y76D01*
X1614Y78D01*
X1610Y78D01*
X1610Y80D01*
X1608Y80D01*
X1608Y82D01*
X1606Y82D01*
X1606Y84D01*
X1604Y84D01*
X1604Y86D01*
X1602Y86D01*
X1602Y88D01*
X1600Y88D01*
X1600Y92D01*
X1598Y92D01*
X1598Y96D01*
X1596Y96D01*
X1596Y98D01*
X1594Y98D01*
X1594Y104D01*
X1592Y104D01*
X1592Y112D01*
X1590Y112D01*
X1590Y130D01*
X1592Y130D01*
X1592Y138D01*
X1594Y138D01*
X1594Y142D01*
X1596Y142D01*
X1596Y146D01*
X1598Y146D01*
X1598Y150D01*
X1600Y150D01*
X1600Y152D01*
X1602Y152D01*
X1602Y156D01*
X1604Y156D01*
X1604Y158D01*
X1606Y158D01*
X1606Y160D01*
X1608Y160D01*
X1608Y162D01*
X1612Y162D01*
X1612Y164D01*
X1614Y164D01*
X1614Y166D01*
X1616Y166D01*
X1616Y168D01*
X1620Y168D01*
X1620Y170D01*
X1624Y170D01*
X1624Y172D01*
X1632Y172D01*
X1632Y174D01*
X1684Y174D01*
X1684Y176D01*
X1692Y176D01*
X1692Y178D01*
X1700Y178D01*
X1700Y180D01*
X1706Y180D01*
X1706Y182D01*
X1714Y182D01*
X1714Y184D01*
X1722Y184D01*
X1722Y186D01*
X1730Y186D01*
X1730Y188D01*
X1736Y188D01*
X1736Y190D01*
X1744Y190D01*
X1744Y192D01*
X1752Y192D01*
X1752Y194D01*
X1760Y194D01*
X1760Y196D01*
X1766Y196D01*
X1766Y198D01*
X1774Y198D01*
X1774Y200D01*
X1776Y200D01*
X1776Y202D01*
X1778Y202D01*
X1778Y206D01*
X1780Y206D01*
X1780Y210D01*
X1782Y210D01*
X1782Y212D01*
X1784Y212D01*
X1784Y214D01*
X1786Y214D01*
X1786Y218D01*
X1788Y218D01*
X1788Y220D01*
X1790Y220D01*
X1790Y222D01*
X1792Y222D01*
X1792Y224D01*
X1796Y224D01*
X1796Y374D01*
X1792Y374D01*
X1792Y376D01*
X1790Y376D01*
X1790Y378D01*
X1788Y378D01*
X1788Y382D01*
X1786Y382D01*
X1786Y384D01*
X1784Y384D01*
X1784Y386D01*
X1782Y386D01*
X1782Y390D01*
X1780Y390D01*
X1780Y394D01*
X1778Y394D01*
X1778Y398D01*
X1776Y398D01*
X1776Y404D01*
X1774Y404D01*
X1774Y412D01*
X1770Y412D01*
X1770Y414D01*
X1768Y414D01*
X1768Y416D01*
X1764Y416D01*
X1764Y418D01*
X1760Y418D01*
X1760Y420D01*
X1758Y420D01*
X1758Y422D01*
X1754Y422D01*
X1754Y424D01*
X1750Y424D01*
X1750Y426D01*
X1748Y426D01*
X1748Y428D01*
X1744Y428D01*
X1744Y430D01*
X1740Y430D01*
X1740Y432D01*
X1738Y432D01*
X1738Y434D01*
X1734Y434D01*
X1734Y436D01*
X1730Y436D01*
X1730Y438D01*
X1728Y438D01*
X1728Y440D01*
X1724Y440D01*
X1724Y442D01*
X1720Y442D01*
X1720Y444D01*
X1716Y444D01*
X1716Y446D01*
X1714Y446D01*
X1714Y448D01*
X1710Y448D01*
X1710Y450D01*
X1706Y450D01*
X1706Y452D01*
X1704Y452D01*
X1704Y454D01*
X1700Y454D01*
X1700Y456D01*
X1696Y456D01*
X1696Y458D01*
X1694Y458D01*
X1694Y460D01*
X1690Y460D01*
X1690Y462D01*
X1686Y462D01*
X1686Y464D01*
X1684Y464D01*
X1684Y466D01*
X1680Y466D01*
X1680Y468D01*
X1676Y468D01*
X1676Y470D01*
X1674Y470D01*
X1674Y472D01*
X1670Y472D01*
X1670Y474D01*
X1666Y474D01*
X1666Y476D01*
X1664Y476D01*
X1664Y478D01*
X1660Y478D01*
X1660Y480D01*
X1656Y480D01*
X1656Y482D01*
X1652Y482D01*
X1652Y484D01*
X1650Y484D01*
X1650Y486D01*
X1646Y486D01*
X1646Y488D01*
X1642Y488D01*
X1642Y490D01*
X1640Y490D01*
X1640Y492D01*
X1636Y492D01*
X1636Y494D01*
X1632Y494D01*
X1632Y496D01*
X1630Y496D01*
X1630Y498D01*
X1626Y498D01*
X1626Y500D01*
X1622Y500D01*
X1622Y502D01*
X1620Y502D01*
X1620Y504D01*
X1616Y504D01*
X1616Y506D01*
X1612Y506D01*
X1612Y508D01*
X1610Y508D01*
X1610Y510D01*
X1606Y510D01*
X1606Y512D01*
X1602Y512D01*
X1602Y514D01*
X1600Y514D01*
X1600Y516D01*
X1596Y516D01*
X1596Y518D01*
X1592Y518D01*
X1592Y520D01*
X1588Y520D01*
X1588Y522D01*
X1586Y522D01*
X1586Y524D01*
X1582Y524D01*
X1582Y526D01*
X1578Y526D01*
X1578Y528D01*
X1576Y528D01*
X1576Y530D01*
X1572Y530D01*
X1572Y532D01*
X1568Y532D01*
X1568Y534D01*
X1566Y534D01*
X1566Y536D01*
X1562Y536D01*
X1562Y538D01*
X1560Y538D01*
X1560Y540D01*
X1558Y540D01*
X1558Y542D01*
X1556Y542D01*
X1556Y544D01*
X1554Y544D01*
X1554Y548D01*
X1552Y548D01*
X1552Y550D01*
X1550Y550D01*
X1550Y552D01*
X1548Y552D01*
X1548Y554D01*
X1546Y554D01*
X1546Y556D01*
X1544Y556D01*
X1544Y558D01*
X1542Y558D01*
X1542Y562D01*
X1540Y562D01*
X1540Y564D01*
X1538Y564D01*
X1538Y566D01*
X1536Y566D01*
X1536Y568D01*
X1534Y568D01*
X1534Y570D01*
X1532Y570D01*
X1532Y572D01*
X1530Y572D01*
X1530Y576D01*
X1528Y576D01*
X1528Y578D01*
X1526Y578D01*
X1526Y580D01*
X1524Y580D01*
X1524Y582D01*
X1522Y582D01*
X1522Y584D01*
X1520Y584D01*
X1520Y586D01*
X1518Y586D01*
X1518Y590D01*
X1516Y590D01*
X1516Y592D01*
X1514Y592D01*
X1514Y594D01*
X1512Y594D01*
X1512Y596D01*
X1510Y596D01*
X1510Y598D01*
X1508Y598D01*
X1508Y600D01*
X1506Y600D01*
X1506Y604D01*
X1504Y604D01*
X1504Y606D01*
X1502Y606D01*
X1502Y608D01*
X1500Y608D01*
X1500Y610D01*
X1498Y610D01*
X1498Y612D01*
X1496Y612D01*
X1496Y614D01*
X1494Y614D01*
X1494Y618D01*
X1492Y618D01*
X1492Y620D01*
X1490Y620D01*
X1490Y622D01*
X1488Y622D01*
X1488Y624D01*
X1486Y624D01*
X1486Y626D01*
X1484Y626D01*
X1484Y628D01*
X1482Y628D01*
X1482Y632D01*
X1480Y632D01*
X1480Y634D01*
X1478Y634D01*
X1478Y636D01*
X1476Y636D01*
X1476Y638D01*
X1474Y638D01*
X1474Y640D01*
X1472Y640D01*
X1472Y642D01*
X1470Y642D01*
X1470Y646D01*
X1468Y646D01*
X1468Y648D01*
X1466Y648D01*
X1466Y650D01*
X1464Y650D01*
X1464Y652D01*
X1462Y652D01*
X1462Y654D01*
X1460Y654D01*
X1460Y656D01*
X1458Y656D01*
X1458Y660D01*
X1456Y660D01*
X1456Y662D01*
X1454Y662D01*
X1454Y664D01*
X1452Y664D01*
X1452Y666D01*
X1450Y666D01*
X1450Y668D01*
X1448Y668D01*
X1448Y670D01*
X1446Y670D01*
X1446Y674D01*
X1444Y674D01*
X1444Y676D01*
X1442Y676D01*
X1442Y678D01*
X1440Y678D01*
X1440Y680D01*
X1438Y680D01*
X1438Y682D01*
X1436Y682D01*
X1436Y684D01*
X1434Y684D01*
X1434Y688D01*
X1432Y688D01*
X1432Y690D01*
X1412Y690D01*
G37*
D02*
G36*
X1778Y114D02*
X1778Y112D01*
X1770Y112D01*
X1770Y110D01*
X1762Y110D01*
X1762Y108D01*
X1756Y108D01*
X1756Y106D01*
X1748Y106D01*
X1748Y104D01*
X1836Y104D01*
X1836Y106D01*
X1820Y106D01*
X1820Y108D01*
X1814Y108D01*
X1814Y110D01*
X1810Y110D01*
X1810Y112D01*
X1806Y112D01*
X1806Y114D01*
X1778Y114D01*
G37*
D02*
G36*
X1838Y106D02*
X1838Y104D01*
X1870Y104D01*
X1870Y106D01*
X1838Y106D01*
G37*
D02*
G36*
X1740Y104D02*
X1740Y102D01*
X2124Y102D01*
X2124Y104D01*
X1740Y104D01*
G37*
D02*
G36*
X1740Y104D02*
X1740Y102D01*
X2124Y102D01*
X2124Y104D01*
X1740Y104D01*
G37*
D02*
G36*
X1740Y104D02*
X1740Y102D01*
X2124Y102D01*
X2124Y104D01*
X1740Y104D01*
G37*
D02*
G36*
X1732Y102D02*
X1732Y100D01*
X1726Y100D01*
X1726Y98D01*
X1718Y98D01*
X1718Y96D01*
X1710Y96D01*
X1710Y94D01*
X1702Y94D01*
X1702Y92D01*
X1696Y92D01*
X1696Y90D01*
X1688Y90D01*
X1688Y88D01*
X1686Y88D01*
X1686Y86D01*
X1684Y86D01*
X1684Y84D01*
X1682Y84D01*
X1682Y82D01*
X1680Y82D01*
X1680Y80D01*
X1678Y80D01*
X1678Y78D01*
X1676Y78D01*
X1676Y76D01*
X1672Y76D01*
X1672Y74D01*
X1668Y74D01*
X1668Y72D01*
X1664Y72D01*
X1664Y70D01*
X1658Y70D01*
X1658Y68D01*
X1648Y68D01*
X1648Y66D01*
X2124Y66D01*
X2124Y102D01*
X1732Y102D01*
G37*
D02*
G36*
X1412Y66D02*
X1412Y64D01*
X2124Y64D01*
X2124Y66D01*
X1412Y66D01*
G37*
D02*
G36*
X1412Y66D02*
X1412Y64D01*
X2124Y64D01*
X2124Y66D01*
X1412Y66D01*
G37*
D02*
G36*
X1412Y64D02*
X1412Y42D01*
X2124Y42D01*
X2124Y64D01*
X1412Y64D01*
G37*
D02*
G04 End of Copper0*
M02*